G04 #@! TF.FileFunction,Soldermask,Top*
%FSLAX46Y46*%
G04 Gerber Fmt 4.6, Leading zero omitted, Abs format (unit mm)*
G04 Created by KiCad (PCBNEW 4.0.2+e4-6225~38~ubuntu15.10.1-stable) date mar. 20 sept. 2016 08:21:37 CEST*
%MOMM*%
G01*
G04 APERTURE LIST*
%ADD10C,0.100000*%
%ADD11C,4.400000*%
%ADD12C,2.099260*%
%ADD13R,2.099260X2.099260*%
%ADD14O,2.000000X2.700000*%
%ADD15R,2.127200X2.127200*%
%ADD16O,2.127200X2.127200*%
G04 APERTURE END LIST*
D10*
D11*
X106680000Y-107315000D03*
X36195000Y-107315000D03*
X36195000Y-34925000D03*
D12*
X36194480Y-91442540D03*
D13*
X46354480Y-91442540D03*
D12*
X36194480Y-74932540D03*
D13*
X46354480Y-74932540D03*
D12*
X38734480Y-95887540D03*
D13*
X48894480Y-95887540D03*
D12*
X38734480Y-70487540D03*
D13*
X48894480Y-70487540D03*
D12*
X41274480Y-98427540D03*
D13*
X51434480Y-98427540D03*
D12*
X43814480Y-64137540D03*
D13*
X53974480Y-64137540D03*
D12*
X43814480Y-103507540D03*
D13*
X53974480Y-103507540D03*
D12*
X46354480Y-62232540D03*
D13*
X56514480Y-62232540D03*
D12*
X79374480Y-88267540D03*
D13*
X89534480Y-88267540D03*
D12*
X79374480Y-74297540D03*
D13*
X89534480Y-74297540D03*
D12*
X81914480Y-93347540D03*
D13*
X92074480Y-93347540D03*
D12*
X81914480Y-69217540D03*
D13*
X92074480Y-69217540D03*
D12*
X84454480Y-98427540D03*
D13*
X94614480Y-98427540D03*
D12*
X86994480Y-64137540D03*
D13*
X97154480Y-64137540D03*
D12*
X86994480Y-106047540D03*
D13*
X97154480Y-106047540D03*
D12*
X89534480Y-59057540D03*
D13*
X99694480Y-59057540D03*
D14*
X99695000Y-77470000D03*
X97155000Y-77470000D03*
X94615000Y-77470000D03*
X92075000Y-77470000D03*
X89535000Y-77470000D03*
X86995000Y-77470000D03*
X84455000Y-77470000D03*
X81915000Y-77470000D03*
X81915000Y-85090000D03*
X84455000Y-85090000D03*
X86995000Y-85090000D03*
X89535000Y-85090000D03*
X92075000Y-85090000D03*
X94615000Y-85090000D03*
X97155000Y-85090000D03*
X99695000Y-85090000D03*
X56515000Y-77470000D03*
X53975000Y-77470000D03*
X51435000Y-77470000D03*
X48895000Y-77470000D03*
X46355000Y-77470000D03*
X43815000Y-77470000D03*
X41275000Y-77470000D03*
X38735000Y-77470000D03*
X38735000Y-85090000D03*
X41275000Y-85090000D03*
X43815000Y-85090000D03*
X46355000Y-85090000D03*
X48895000Y-85090000D03*
X51435000Y-85090000D03*
X53975000Y-85090000D03*
X56515000Y-85090000D03*
D12*
X36194480Y-88902540D03*
X46354480Y-88902540D03*
X36194480Y-72392540D03*
X46354480Y-72392540D03*
X38734480Y-93347540D03*
X48894480Y-93347540D03*
X38734480Y-67947540D03*
X48894480Y-67947540D03*
X41274480Y-100967540D03*
X51434480Y-100967540D03*
X43814480Y-66042540D03*
X53974480Y-66042540D03*
X43814480Y-106047540D03*
X53974480Y-106047540D03*
X46354480Y-59692540D03*
X56514480Y-59692540D03*
X79374480Y-90807540D03*
X89534480Y-90807540D03*
X79374480Y-71757540D03*
X89534480Y-71757540D03*
X81914480Y-95887540D03*
X92074480Y-95887540D03*
X81914480Y-66677540D03*
X92074480Y-66677540D03*
X84454480Y-100967540D03*
X94614480Y-100967540D03*
X86994480Y-61597540D03*
X97154480Y-61597540D03*
X86994480Y-103507540D03*
X97154480Y-103507540D03*
X89534480Y-56517540D03*
X99694480Y-56517540D03*
X46352460Y-41909480D03*
X46352460Y-52069480D03*
X48892460Y-41909480D03*
X48892460Y-52069480D03*
X51432460Y-41909480D03*
X51432460Y-52069480D03*
X53972460Y-41909480D03*
X53972460Y-52069480D03*
X56512460Y-41909480D03*
X56512460Y-52069480D03*
X59052460Y-41909480D03*
X59052460Y-52069480D03*
X61592460Y-41909480D03*
X61592460Y-52069480D03*
X64132460Y-41909480D03*
X64132460Y-52069480D03*
X66672460Y-41909480D03*
X66672460Y-52069480D03*
X69212460Y-41909480D03*
X69212460Y-52069480D03*
X71752460Y-41909480D03*
X71752460Y-52069480D03*
X74292460Y-41909480D03*
X74292460Y-52069480D03*
X76832460Y-41909480D03*
X76832460Y-52069480D03*
X79372460Y-41909480D03*
X79372460Y-52069480D03*
X81912460Y-41909480D03*
X81912460Y-52069480D03*
X84452460Y-41909480D03*
X84452460Y-52069480D03*
D15*
X73025000Y-103505000D03*
D16*
X73025000Y-106045000D03*
X70485000Y-103505000D03*
X70485000Y-106045000D03*
X67945000Y-103505000D03*
X67945000Y-106045000D03*
X65405000Y-103505000D03*
X65405000Y-106045000D03*
D15*
X46355000Y-36195000D03*
D16*
X46355000Y-33655000D03*
X48895000Y-36195000D03*
X48895000Y-33655000D03*
X51435000Y-36195000D03*
X51435000Y-33655000D03*
X53975000Y-36195000D03*
X53975000Y-33655000D03*
X56515000Y-36195000D03*
X56515000Y-33655000D03*
X59055000Y-36195000D03*
X59055000Y-33655000D03*
X61595000Y-36195000D03*
X61595000Y-33655000D03*
X64135000Y-36195000D03*
X64135000Y-33655000D03*
X66675000Y-36195000D03*
X66675000Y-33655000D03*
X69215000Y-36195000D03*
X69215000Y-33655000D03*
X71755000Y-36195000D03*
X71755000Y-33655000D03*
X74295000Y-36195000D03*
X74295000Y-33655000D03*
X76835000Y-36195000D03*
X76835000Y-33655000D03*
X79375000Y-36195000D03*
X79375000Y-33655000D03*
X81915000Y-36195000D03*
X81915000Y-33655000D03*
X84455000Y-36195000D03*
X84455000Y-33655000D03*
D11*
X106680000Y-35560000D03*
M02*
