G04 #@! TF.FileFunction,Copper,L1,Top,Signal*
%FSLAX46Y46*%
G04 Gerber Fmt 4.6, Leading zero omitted, Abs format (unit mm)*
G04 Created by KiCad (PCBNEW 4.0.2+e4-6225~38~ubuntu15.10.1-stable) date mar. 20 sept. 2016 08:21:37 CEST*
%MOMM*%
G01*
G04 APERTURE LIST*
%ADD10C,0.100000*%
%ADD11C,1.699260*%
%ADD12R,1.699260X1.699260*%
%ADD13O,1.600000X2.300000*%
%ADD14R,1.727200X1.727200*%
%ADD15O,1.727200X1.727200*%
%ADD16C,0.500000*%
%ADD17C,0.250000*%
%ADD18C,0.254000*%
G04 APERTURE END LIST*
D10*
D11*
X36194480Y-91442540D03*
D12*
X46354480Y-91442540D03*
D11*
X36194480Y-74932540D03*
D12*
X46354480Y-74932540D03*
D11*
X38734480Y-95887540D03*
D12*
X48894480Y-95887540D03*
D11*
X38734480Y-70487540D03*
D12*
X48894480Y-70487540D03*
D11*
X41274480Y-98427540D03*
D12*
X51434480Y-98427540D03*
D11*
X43814480Y-64137540D03*
D12*
X53974480Y-64137540D03*
D11*
X43814480Y-103507540D03*
D12*
X53974480Y-103507540D03*
D11*
X46354480Y-62232540D03*
D12*
X56514480Y-62232540D03*
D11*
X79374480Y-88267540D03*
D12*
X89534480Y-88267540D03*
D11*
X79374480Y-74297540D03*
D12*
X89534480Y-74297540D03*
D11*
X81914480Y-93347540D03*
D12*
X92074480Y-93347540D03*
D11*
X81914480Y-69217540D03*
D12*
X92074480Y-69217540D03*
D11*
X84454480Y-98427540D03*
D12*
X94614480Y-98427540D03*
D11*
X86994480Y-64137540D03*
D12*
X97154480Y-64137540D03*
D11*
X86994480Y-106047540D03*
D12*
X97154480Y-106047540D03*
D11*
X89534480Y-59057540D03*
D12*
X99694480Y-59057540D03*
D13*
X99695000Y-77470000D03*
X97155000Y-77470000D03*
X94615000Y-77470000D03*
X92075000Y-77470000D03*
X89535000Y-77470000D03*
X86995000Y-77470000D03*
X84455000Y-77470000D03*
X81915000Y-77470000D03*
X81915000Y-85090000D03*
X84455000Y-85090000D03*
X86995000Y-85090000D03*
X89535000Y-85090000D03*
X92075000Y-85090000D03*
X94615000Y-85090000D03*
X97155000Y-85090000D03*
X99695000Y-85090000D03*
X56515000Y-77470000D03*
X53975000Y-77470000D03*
X51435000Y-77470000D03*
X48895000Y-77470000D03*
X46355000Y-77470000D03*
X43815000Y-77470000D03*
X41275000Y-77470000D03*
X38735000Y-77470000D03*
X38735000Y-85090000D03*
X41275000Y-85090000D03*
X43815000Y-85090000D03*
X46355000Y-85090000D03*
X48895000Y-85090000D03*
X51435000Y-85090000D03*
X53975000Y-85090000D03*
X56515000Y-85090000D03*
D11*
X36194480Y-88902540D03*
X46354480Y-88902540D03*
X36194480Y-72392540D03*
X46354480Y-72392540D03*
X38734480Y-93347540D03*
X48894480Y-93347540D03*
X38734480Y-67947540D03*
X48894480Y-67947540D03*
X41274480Y-100967540D03*
X51434480Y-100967540D03*
X43814480Y-66042540D03*
X53974480Y-66042540D03*
X43814480Y-106047540D03*
X53974480Y-106047540D03*
X46354480Y-59692540D03*
X56514480Y-59692540D03*
X79374480Y-90807540D03*
X89534480Y-90807540D03*
X79374480Y-71757540D03*
X89534480Y-71757540D03*
X81914480Y-95887540D03*
X92074480Y-95887540D03*
X81914480Y-66677540D03*
X92074480Y-66677540D03*
X84454480Y-100967540D03*
X94614480Y-100967540D03*
X86994480Y-61597540D03*
X97154480Y-61597540D03*
X86994480Y-103507540D03*
X97154480Y-103507540D03*
X89534480Y-56517540D03*
X99694480Y-56517540D03*
X46352460Y-41909480D03*
X46352460Y-52069480D03*
X48892460Y-41909480D03*
X48892460Y-52069480D03*
X51432460Y-41909480D03*
X51432460Y-52069480D03*
X53972460Y-41909480D03*
X53972460Y-52069480D03*
X56512460Y-41909480D03*
X56512460Y-52069480D03*
X59052460Y-41909480D03*
X59052460Y-52069480D03*
X61592460Y-41909480D03*
X61592460Y-52069480D03*
X64132460Y-41909480D03*
X64132460Y-52069480D03*
X66672460Y-41909480D03*
X66672460Y-52069480D03*
X69212460Y-41909480D03*
X69212460Y-52069480D03*
X71752460Y-41909480D03*
X71752460Y-52069480D03*
X74292460Y-41909480D03*
X74292460Y-52069480D03*
X76832460Y-41909480D03*
X76832460Y-52069480D03*
X79372460Y-41909480D03*
X79372460Y-52069480D03*
X81912460Y-41909480D03*
X81912460Y-52069480D03*
X84452460Y-41909480D03*
X84452460Y-52069480D03*
D14*
X73025000Y-103505000D03*
D15*
X73025000Y-106045000D03*
X70485000Y-103505000D03*
X70485000Y-106045000D03*
X67945000Y-103505000D03*
X67945000Y-106045000D03*
X65405000Y-103505000D03*
X65405000Y-106045000D03*
D14*
X46355000Y-36195000D03*
D15*
X46355000Y-33655000D03*
X48895000Y-36195000D03*
X48895000Y-33655000D03*
X51435000Y-36195000D03*
X51435000Y-33655000D03*
X53975000Y-36195000D03*
X53975000Y-33655000D03*
X56515000Y-36195000D03*
X56515000Y-33655000D03*
X59055000Y-36195000D03*
X59055000Y-33655000D03*
X61595000Y-36195000D03*
X61595000Y-33655000D03*
X64135000Y-36195000D03*
X64135000Y-33655000D03*
X66675000Y-36195000D03*
X66675000Y-33655000D03*
X69215000Y-36195000D03*
X69215000Y-33655000D03*
X71755000Y-36195000D03*
X71755000Y-33655000D03*
X74295000Y-36195000D03*
X74295000Y-33655000D03*
X76835000Y-36195000D03*
X76835000Y-33655000D03*
X79375000Y-36195000D03*
X79375000Y-33655000D03*
X81915000Y-36195000D03*
X81915000Y-33655000D03*
X84455000Y-36195000D03*
X84455000Y-33655000D03*
D16*
X70485000Y-103505000D02*
X70485000Y-102235000D01*
X70485000Y-102235000D02*
X74930000Y-97790000D01*
X74930000Y-97790000D02*
X82550000Y-97790000D01*
X82550000Y-97790000D02*
X86995000Y-93345000D01*
X86995000Y-93345000D02*
X86995000Y-85090000D01*
D17*
X86995000Y-85090000D02*
X86995000Y-93345000D01*
X74930000Y-97790000D02*
X70485000Y-102235000D01*
X86995000Y-93345000D02*
X82550000Y-97790000D01*
D16*
X48894480Y-67947540D02*
X48894480Y-65405520D01*
X48894480Y-65405520D02*
X49530000Y-64770000D01*
X49530000Y-64770000D02*
X49530000Y-58420000D01*
X49530000Y-58420000D02*
X53972460Y-53977540D01*
X53972460Y-53977540D02*
X53972460Y-52069480D01*
X48894480Y-70487540D02*
X48894480Y-77469480D01*
X48894480Y-77469480D02*
X48895000Y-77470000D01*
X48894480Y-67947540D02*
X48894480Y-70487540D01*
D17*
X48895000Y-70488060D02*
X48894480Y-70487540D01*
X48894480Y-70487540D02*
X48894480Y-65405520D01*
X48894480Y-65405520D02*
X49530000Y-64770000D01*
X49530000Y-64770000D02*
X49530000Y-58420000D01*
X53972460Y-53977540D02*
X53972460Y-52069480D01*
D16*
X67945000Y-103505000D02*
X67945000Y-101600000D01*
X67945000Y-101600000D02*
X76200000Y-93345000D01*
X76200000Y-93345000D02*
X79375000Y-93345000D01*
X79375000Y-93345000D02*
X84455000Y-88265000D01*
X84455000Y-88265000D02*
X84455000Y-85090000D01*
D17*
X76200000Y-93345000D02*
X79375000Y-93345000D01*
X79375000Y-93345000D02*
X84455000Y-88265000D01*
X84455000Y-88265000D02*
X84455000Y-85090000D01*
D16*
X48895000Y-85090000D02*
X48895000Y-95887020D01*
X48895000Y-95887020D02*
X48894480Y-95887540D01*
D17*
X48895000Y-85090000D02*
X48895000Y-93347020D01*
X48895000Y-93347020D02*
X48894480Y-93347540D01*
X48894480Y-93347540D02*
X48894480Y-95887540D01*
X51432460Y-52069480D02*
X51432460Y-54612540D01*
X48895000Y-83185000D02*
X48895000Y-85090000D01*
X47625000Y-81915000D02*
X48895000Y-83185000D01*
X47625000Y-71755000D02*
X47625000Y-81915000D01*
X46990000Y-71120000D02*
X47625000Y-71755000D01*
X46990000Y-66040000D02*
X46990000Y-71120000D01*
X48260000Y-64770000D02*
X46990000Y-66040000D01*
X48260000Y-57785000D02*
X48260000Y-64770000D01*
X51432460Y-54612540D02*
X48260000Y-57785000D01*
D16*
X76835000Y-85000000D02*
X76835000Y-85090000D01*
X76835000Y-85090000D02*
X65405000Y-96520000D01*
X65405000Y-103505000D02*
X65405000Y-96520000D01*
X76835000Y-85000000D02*
X81825000Y-85000000D01*
X81825000Y-85000000D02*
X81915000Y-85090000D01*
X46354480Y-74932540D02*
X46354480Y-77469480D01*
X46354480Y-77469480D02*
X46355000Y-77470000D01*
X46354480Y-74932540D02*
X46354480Y-72392540D01*
D17*
X46354480Y-72392540D02*
X46354480Y-71754480D01*
X46354480Y-71754480D02*
X41910000Y-67310000D01*
X41910000Y-67310000D02*
X41910000Y-62230000D01*
X41910000Y-62230000D02*
X48892460Y-55247540D01*
X48892460Y-55247540D02*
X48892460Y-54607460D01*
X46355000Y-77470000D02*
X46355000Y-74933060D01*
X46355000Y-74933060D02*
X46354480Y-74932540D01*
X48892460Y-54607460D02*
X48892460Y-52069480D01*
D16*
X46355000Y-85090000D02*
X46355000Y-91442020D01*
X46355000Y-91442020D02*
X46354480Y-91442540D01*
D17*
X46355000Y-85090000D02*
X46355000Y-88902020D01*
X46355000Y-88902020D02*
X46354480Y-88902540D01*
X46354480Y-88902540D02*
X46354480Y-91442540D01*
X46352460Y-55877460D02*
X46352460Y-56517540D01*
X42545000Y-73660000D02*
X44450000Y-75565000D01*
X42545000Y-69215000D02*
X42545000Y-73660000D01*
X40005000Y-66675000D02*
X42545000Y-69215000D01*
X40005000Y-62865000D02*
X40005000Y-66675000D01*
X46352460Y-56517540D02*
X40005000Y-62865000D01*
X46352460Y-52069480D02*
X46352460Y-55877460D01*
X45085000Y-83820000D02*
X46355000Y-85090000D01*
X44450000Y-75565000D02*
X45085000Y-76200000D01*
X45085000Y-76200000D02*
X45085000Y-83820000D01*
X46352460Y-41909480D02*
X46352460Y-36832540D01*
X46352460Y-36832540D02*
X46355000Y-36830000D01*
X48892460Y-41909480D02*
X48892460Y-36832540D01*
X48892460Y-36832540D02*
X48895000Y-36830000D01*
X51432460Y-41909480D02*
X51432460Y-36832540D01*
X51432460Y-36832540D02*
X51435000Y-36830000D01*
X53972460Y-41909480D02*
X53972460Y-36832540D01*
X53972460Y-36832540D02*
X53975000Y-36830000D01*
X56512460Y-41909480D02*
X56512460Y-36832540D01*
X56512460Y-36832540D02*
X56515000Y-36830000D01*
X59055000Y-36830000D02*
X59055000Y-41906940D01*
X59055000Y-41906940D02*
X59052460Y-41909480D01*
X61595000Y-36830000D02*
X61595000Y-41906940D01*
X61595000Y-41906940D02*
X61592460Y-41909480D01*
X64135000Y-36830000D02*
X64135000Y-41906940D01*
X64135000Y-41906940D02*
X64132460Y-41909480D01*
X66675000Y-36830000D02*
X66675000Y-41906940D01*
X66675000Y-41906940D02*
X66672460Y-41909480D01*
X69215000Y-36830000D02*
X69215000Y-41906940D01*
X69215000Y-41906940D02*
X69212460Y-41909480D01*
X71752460Y-41909480D02*
X71752460Y-36832540D01*
X71752460Y-36832540D02*
X71755000Y-36830000D01*
X74295000Y-36830000D02*
X74295000Y-41906940D01*
X74295000Y-41906940D02*
X74292460Y-41909480D01*
X76835000Y-36830000D02*
X76835000Y-41906940D01*
X76835000Y-41906940D02*
X76832460Y-41909480D01*
X79375000Y-36830000D02*
X79375000Y-41906940D01*
X79375000Y-41906940D02*
X79372460Y-41909480D01*
X81915000Y-36830000D02*
X81915000Y-41906940D01*
X81915000Y-41906940D02*
X81912460Y-41909480D01*
X84455000Y-36830000D02*
X84455000Y-41906940D01*
X84455000Y-41906940D02*
X84452460Y-41909480D01*
D16*
X51435000Y-85090000D02*
X51435000Y-100967020D01*
X51435000Y-100967020D02*
X51434480Y-100967540D01*
D17*
X51435000Y-85090000D02*
X51435000Y-98427020D01*
X51435000Y-98427020D02*
X51434480Y-98427540D01*
X51434480Y-98427540D02*
X51434480Y-100967540D01*
X50800000Y-60325000D02*
X50800000Y-59055000D01*
X50800000Y-59055000D02*
X56512460Y-53342540D01*
X56512460Y-52069480D02*
X56512460Y-53342540D01*
X50165000Y-83820000D02*
X51435000Y-85090000D01*
X50165000Y-76200000D02*
X50165000Y-83820000D01*
X50800000Y-75565000D02*
X50165000Y-76200000D01*
X50800000Y-60325000D02*
X50800000Y-75565000D01*
D16*
X53974480Y-57785520D02*
X59052460Y-52707540D01*
X53975000Y-77470000D02*
X53975000Y-66043060D01*
X53975000Y-66043060D02*
X53974480Y-66042540D01*
X53974480Y-66042540D02*
X53974480Y-57785520D01*
X59052460Y-52707540D02*
X59052460Y-52069480D01*
D17*
X53974480Y-66042540D02*
X53974480Y-64137540D01*
X59052460Y-52707540D02*
X59052460Y-52069480D01*
X53975000Y-66043060D02*
X53974480Y-66042540D01*
X59055000Y-52072020D02*
X59052460Y-52069480D01*
D16*
X53974480Y-106047540D02*
X53974480Y-103507540D01*
X53974480Y-103507540D02*
X54610000Y-102872020D01*
X54610000Y-102872020D02*
X54610000Y-88900000D01*
X54610000Y-88900000D02*
X53975000Y-88265000D01*
X53975000Y-88265000D02*
X53975000Y-85090000D01*
D17*
X53975000Y-103507020D02*
X53974480Y-103507540D01*
X61592460Y-52069480D02*
X61592460Y-52072540D01*
X61592460Y-52072540D02*
X55245000Y-58420000D01*
X55245000Y-58420000D02*
X55245000Y-63500000D01*
X55245000Y-63500000D02*
X55245000Y-81280000D01*
X55245000Y-81280000D02*
X53975000Y-82550000D01*
X53975000Y-82550000D02*
X53975000Y-85090000D01*
D16*
X56515000Y-77470000D02*
X56515000Y-59693060D01*
X56515000Y-59693060D02*
X64132460Y-52075600D01*
X64132460Y-52075600D02*
X64132460Y-52069480D01*
D17*
X56515000Y-62233060D02*
X56514480Y-62232540D01*
X56514480Y-62232540D02*
X56514480Y-59692540D01*
X64132460Y-52074560D02*
X64132460Y-52069480D01*
D16*
X89535000Y-85090000D02*
X89535000Y-83820000D01*
X85725000Y-80010000D02*
X81280000Y-80010000D01*
X89535000Y-83820000D02*
X85725000Y-80010000D01*
X81280000Y-80010000D02*
X77470000Y-76200000D01*
X77470000Y-76200000D02*
X77470000Y-67310000D01*
X77470000Y-67310000D02*
X66672460Y-56512460D01*
X66672460Y-56512460D02*
X66672460Y-52069480D01*
X89535000Y-85090000D02*
X89535000Y-90807020D01*
X89535000Y-90807020D02*
X89534480Y-90807540D01*
D17*
X89535000Y-85090000D02*
X89535000Y-88267020D01*
X89535000Y-88267020D02*
X89534480Y-88267540D01*
X89534480Y-88267540D02*
X89534480Y-90807540D01*
X77470000Y-76200000D02*
X81280000Y-80010000D01*
D16*
X89535000Y-77470000D02*
X89535000Y-71758060D01*
X89535000Y-71758060D02*
X89534480Y-71757540D01*
X89534480Y-71757540D02*
X89534480Y-71119480D01*
X89534480Y-71119480D02*
X83185000Y-64770000D01*
X83185000Y-64770000D02*
X78740000Y-64770000D01*
X78740000Y-64770000D02*
X69212460Y-55242460D01*
X69212460Y-55242460D02*
X69212460Y-52069480D01*
D17*
X89535000Y-77470000D02*
X89535000Y-74298060D01*
X89535000Y-74298060D02*
X89534480Y-74297540D01*
X89534480Y-74297540D02*
X89534480Y-71119480D01*
X89534480Y-71119480D02*
X83185000Y-64770000D01*
X83185000Y-64770000D02*
X78740000Y-64770000D01*
X69212460Y-55242460D02*
X69212460Y-52069480D01*
D16*
X71752460Y-52069480D02*
X71752460Y-55242460D01*
X80010000Y-63500000D02*
X83820000Y-63500000D01*
X71752460Y-55242460D02*
X80010000Y-63500000D01*
X83820000Y-63500000D02*
X90805000Y-70485000D01*
X90805000Y-70485000D02*
X90170000Y-69850000D01*
X92075000Y-85090000D02*
X92075000Y-95887020D01*
X92075000Y-95887020D02*
X92074480Y-95887540D01*
D17*
X92075000Y-93347020D02*
X92074480Y-93347540D01*
X92074480Y-93347540D02*
X92074480Y-95887540D01*
X92075000Y-83185000D02*
X92075000Y-85090000D01*
X90805000Y-81915000D02*
X92075000Y-83185000D01*
X90805000Y-70485000D02*
X90805000Y-81915000D01*
X83820000Y-63500000D02*
X90170000Y-69850000D01*
X90170000Y-69850000D02*
X90805000Y-70485000D01*
D16*
X92075000Y-77470000D02*
X92075000Y-66678060D01*
X92075000Y-66678060D02*
X92074480Y-66677540D01*
X92074480Y-66677540D02*
X92074480Y-64134480D01*
X92074480Y-64134480D02*
X87630000Y-59690000D01*
X87630000Y-59690000D02*
X79375000Y-59690000D01*
X79375000Y-59690000D02*
X74292460Y-54607460D01*
X74292460Y-54607460D02*
X74292460Y-52069480D01*
D17*
X74292460Y-52069480D02*
X74292460Y-54607460D01*
X92074480Y-64134480D02*
X92074480Y-66677540D01*
X92075000Y-69218060D02*
X92074480Y-69217540D01*
X92074480Y-69217540D02*
X92074480Y-64134480D01*
X85725000Y-57150000D02*
X88265000Y-54610000D01*
X88265000Y-54610000D02*
X88900000Y-54610000D01*
X89535000Y-54610000D02*
X90805000Y-54610000D01*
X88900000Y-54610000D02*
X89535000Y-54610000D01*
X94615000Y-80645000D02*
X93345000Y-79375000D01*
X93345000Y-79375000D02*
X93345000Y-70485000D01*
X93345000Y-58420000D02*
X93345000Y-70485000D01*
X94615000Y-85090000D02*
X94615000Y-80645000D01*
X90805000Y-54610000D02*
X93345000Y-57150000D01*
X93345000Y-57150000D02*
X93345000Y-58420000D01*
D16*
X94615000Y-85090000D02*
X94615000Y-100967020D01*
X94615000Y-100967020D02*
X94614480Y-100967540D01*
D17*
X94615000Y-85090000D02*
X94615000Y-98427020D01*
X94615000Y-98427020D02*
X94614480Y-98427540D01*
X94614480Y-98427540D02*
X94614480Y-100967540D01*
X76832460Y-52069480D02*
X76832460Y-53337460D01*
X80645000Y-57150000D02*
X81280000Y-57150000D01*
X76832460Y-53337460D02*
X80645000Y-57150000D01*
X81280000Y-57150000D02*
X85725000Y-57150000D01*
X85090000Y-55880000D02*
X87630000Y-53340000D01*
X87630000Y-53340000D02*
X88265000Y-53340000D01*
X88900000Y-53340000D02*
X91440000Y-53340000D01*
X88265000Y-53340000D02*
X88900000Y-53340000D01*
X91440000Y-53340000D02*
X97155000Y-59055000D01*
X97155000Y-59055000D02*
X97155000Y-61597020D01*
X97155000Y-61597020D02*
X97154480Y-61597540D01*
X79372460Y-52069480D02*
X79372460Y-53337460D01*
X81915000Y-55880000D02*
X82550000Y-55880000D01*
X79372460Y-53337460D02*
X81915000Y-55880000D01*
X97154480Y-61597540D02*
X97154480Y-60324480D01*
X97154480Y-60324480D02*
X97154480Y-64137540D01*
X82550000Y-55880000D02*
X85090000Y-55880000D01*
X97154480Y-64137540D02*
X97155000Y-64138060D01*
X97155000Y-64138060D02*
X97155000Y-77470000D01*
D16*
X97155000Y-85090000D02*
X97155000Y-103507020D01*
X97155000Y-103507020D02*
X97154480Y-103507540D01*
X97154480Y-103507540D02*
X97154480Y-106047540D01*
D17*
X97154480Y-106047540D02*
X97154480Y-103507540D01*
X97154480Y-103507540D02*
X97155000Y-103507020D01*
X81912460Y-52069480D02*
X81912460Y-52702460D01*
X81912460Y-52702460D02*
X83185000Y-53975000D01*
X83185000Y-53975000D02*
X85725000Y-53975000D01*
X85725000Y-53975000D02*
X87630000Y-52070000D01*
X87630000Y-52070000D02*
X92710000Y-52070000D01*
X92710000Y-52070000D02*
X97790000Y-57150000D01*
X97790000Y-57150000D02*
X97790000Y-59690000D01*
X97790000Y-59690000D02*
X99060000Y-60960000D01*
X99060000Y-60960000D02*
X99060000Y-74930000D01*
X99060000Y-74930000D02*
X98425000Y-75565000D01*
X98425000Y-75565000D02*
X98425000Y-83820000D01*
X98425000Y-83820000D02*
X97155000Y-85090000D01*
X99695000Y-77470000D02*
X99695000Y-76835000D01*
X99695000Y-76835000D02*
X99695000Y-72390000D01*
X99695000Y-72390000D02*
X99694480Y-72389480D01*
X99694480Y-72389480D02*
X99694480Y-59057540D01*
X95246420Y-52069480D02*
X95246420Y-52066420D01*
X85721940Y-50800000D02*
X84452460Y-52069480D01*
X93980000Y-50800000D02*
X85721940Y-50800000D01*
X95246420Y-52066420D02*
X93980000Y-50800000D01*
X84452460Y-52069480D02*
X84455520Y-52069480D01*
X95246420Y-52069480D02*
X99694480Y-56517540D01*
X99694480Y-56517540D02*
X99694480Y-59057540D01*
D16*
X67945000Y-106045000D02*
X67945000Y-107950000D01*
X67945000Y-107950000D02*
X69215000Y-109220000D01*
X69215000Y-109220000D02*
X92075000Y-109220000D01*
D17*
X94615000Y-77470000D02*
X94615000Y-79375000D01*
X69215000Y-109220000D02*
X67945000Y-107950000D01*
X95885000Y-105410000D02*
X92075000Y-109220000D01*
X95885000Y-80645000D02*
X95885000Y-105410000D01*
X94615000Y-79375000D02*
X95885000Y-80645000D01*
D16*
X65405000Y-106045000D02*
X63500000Y-107950000D01*
X63500000Y-107950000D02*
X52705000Y-107950000D01*
X52705000Y-107950000D02*
X52070000Y-107315000D01*
X52070000Y-107315000D02*
X52070000Y-102870000D01*
X52070000Y-102870000D02*
X53340000Y-101600000D01*
X53340000Y-101600000D02*
X53340000Y-97155000D01*
X53340000Y-97155000D02*
X52705000Y-96520000D01*
X52705000Y-96520000D02*
X52705000Y-81280000D01*
X52705000Y-81280000D02*
X51435000Y-80010000D01*
X51435000Y-80010000D02*
X51435000Y-77470000D01*
D17*
X52070000Y-107315000D02*
X52705000Y-107950000D01*
X65405000Y-106680000D02*
X65405000Y-106045000D01*
X51435000Y-77470000D02*
X51435000Y-80010000D01*
X52070000Y-102870000D02*
X52070000Y-107315000D01*
X53340000Y-101600000D02*
X52070000Y-102870000D01*
X53340000Y-97155000D02*
X53340000Y-101600000D01*
X52705000Y-96520000D02*
X53340000Y-97155000D01*
X52705000Y-81280000D02*
X52705000Y-96520000D01*
X51435000Y-80010000D02*
X52705000Y-81280000D01*
D18*
G36*
X110290000Y-110790000D02*
X32710000Y-110790000D01*
X32710000Y-107836834D01*
X33559543Y-107836834D01*
X33959853Y-108805658D01*
X34700443Y-109547542D01*
X35668567Y-109949542D01*
X36716834Y-109950457D01*
X37685658Y-109550147D01*
X38427542Y-108809557D01*
X38829542Y-107841433D01*
X38830196Y-107091230D01*
X42950395Y-107091230D01*
X43030622Y-107342493D01*
X43585847Y-107543890D01*
X44175879Y-107517481D01*
X44598338Y-107342493D01*
X44678565Y-107091230D01*
X43814480Y-106227145D01*
X42950395Y-107091230D01*
X38830196Y-107091230D01*
X38830457Y-106793166D01*
X38430147Y-105824342D01*
X38424722Y-105818907D01*
X42318130Y-105818907D01*
X42344539Y-106408939D01*
X42519527Y-106831398D01*
X42770790Y-106911625D01*
X43634875Y-106047540D01*
X43994085Y-106047540D01*
X44858170Y-106911625D01*
X45109433Y-106831398D01*
X45310830Y-106276173D01*
X45284421Y-105686141D01*
X45109433Y-105263682D01*
X44858170Y-105183455D01*
X43994085Y-106047540D01*
X43634875Y-106047540D01*
X42770790Y-105183455D01*
X42519527Y-105263682D01*
X42318130Y-105818907D01*
X38424722Y-105818907D01*
X37689557Y-105082458D01*
X36721433Y-104680458D01*
X35673166Y-104679543D01*
X34704342Y-105079853D01*
X33962458Y-105820443D01*
X33560458Y-106788567D01*
X33559543Y-107836834D01*
X32710000Y-107836834D01*
X32710000Y-104551230D01*
X42950395Y-104551230D01*
X43022655Y-104777540D01*
X42950395Y-105003850D01*
X43814480Y-105867935D01*
X44678565Y-105003850D01*
X44606305Y-104777540D01*
X44678565Y-104551230D01*
X43814480Y-103687145D01*
X42950395Y-104551230D01*
X32710000Y-104551230D01*
X32710000Y-103278907D01*
X42318130Y-103278907D01*
X42344539Y-103868939D01*
X42519527Y-104291398D01*
X42770790Y-104371625D01*
X43634875Y-103507540D01*
X43994085Y-103507540D01*
X44858170Y-104371625D01*
X45109433Y-104291398D01*
X45310830Y-103736173D01*
X45284421Y-103146141D01*
X45109433Y-102723682D01*
X44858170Y-102643455D01*
X43994085Y-103507540D01*
X43634875Y-103507540D01*
X42770790Y-102643455D01*
X42519527Y-102723682D01*
X42318130Y-103278907D01*
X32710000Y-103278907D01*
X32710000Y-102011230D01*
X40410395Y-102011230D01*
X40490622Y-102262493D01*
X41045847Y-102463890D01*
X41046740Y-102463850D01*
X42950395Y-102463850D01*
X43814480Y-103327935D01*
X44678565Y-102463850D01*
X44598338Y-102212587D01*
X44043113Y-102011190D01*
X43453081Y-102037599D01*
X43030622Y-102212587D01*
X42950395Y-102463850D01*
X41046740Y-102463850D01*
X41635879Y-102437481D01*
X42058338Y-102262493D01*
X42138565Y-102011230D01*
X41274480Y-101147145D01*
X40410395Y-102011230D01*
X32710000Y-102011230D01*
X32710000Y-100738907D01*
X39778130Y-100738907D01*
X39804539Y-101328939D01*
X39979527Y-101751398D01*
X40230790Y-101831625D01*
X41094875Y-100967540D01*
X41454085Y-100967540D01*
X42318170Y-101831625D01*
X42569433Y-101751398D01*
X42770830Y-101196173D01*
X42744421Y-100606141D01*
X42569433Y-100183682D01*
X42318170Y-100103455D01*
X41454085Y-100967540D01*
X41094875Y-100967540D01*
X40230790Y-100103455D01*
X39979527Y-100183682D01*
X39778130Y-100738907D01*
X32710000Y-100738907D01*
X32710000Y-99471230D01*
X40410395Y-99471230D01*
X40482655Y-99697540D01*
X40410395Y-99923850D01*
X41274480Y-100787935D01*
X42138565Y-99923850D01*
X42066305Y-99697540D01*
X42138565Y-99471230D01*
X41274480Y-98607145D01*
X40410395Y-99471230D01*
X32710000Y-99471230D01*
X32710000Y-98198907D01*
X39778130Y-98198907D01*
X39804539Y-98788939D01*
X39979527Y-99211398D01*
X40230790Y-99291625D01*
X41094875Y-98427540D01*
X41454085Y-98427540D01*
X42318170Y-99291625D01*
X42569433Y-99211398D01*
X42770830Y-98656173D01*
X42744421Y-98066141D01*
X42569433Y-97643682D01*
X42318170Y-97563455D01*
X41454085Y-98427540D01*
X41094875Y-98427540D01*
X40230790Y-97563455D01*
X39979527Y-97643682D01*
X39778130Y-98198907D01*
X32710000Y-98198907D01*
X32710000Y-96931230D01*
X37870395Y-96931230D01*
X37950622Y-97182493D01*
X38505847Y-97383890D01*
X38506740Y-97383850D01*
X40410395Y-97383850D01*
X41274480Y-98247935D01*
X42138565Y-97383850D01*
X42058338Y-97132587D01*
X41503113Y-96931190D01*
X40913081Y-96957599D01*
X40490622Y-97132587D01*
X40410395Y-97383850D01*
X38506740Y-97383850D01*
X39095879Y-97357481D01*
X39518338Y-97182493D01*
X39598565Y-96931230D01*
X38734480Y-96067145D01*
X37870395Y-96931230D01*
X32710000Y-96931230D01*
X32710000Y-95658907D01*
X37238130Y-95658907D01*
X37264539Y-96248939D01*
X37439527Y-96671398D01*
X37690790Y-96751625D01*
X38554875Y-95887540D01*
X38914085Y-95887540D01*
X39778170Y-96751625D01*
X40029433Y-96671398D01*
X40230830Y-96116173D01*
X40204421Y-95526141D01*
X40029433Y-95103682D01*
X39778170Y-95023455D01*
X38914085Y-95887540D01*
X38554875Y-95887540D01*
X37690790Y-95023455D01*
X37439527Y-95103682D01*
X37238130Y-95658907D01*
X32710000Y-95658907D01*
X32710000Y-94391230D01*
X37870395Y-94391230D01*
X37942655Y-94617540D01*
X37870395Y-94843850D01*
X38734480Y-95707935D01*
X39598565Y-94843850D01*
X39526305Y-94617540D01*
X39598565Y-94391230D01*
X38734480Y-93527145D01*
X37870395Y-94391230D01*
X32710000Y-94391230D01*
X32710000Y-93118907D01*
X37238130Y-93118907D01*
X37264539Y-93708939D01*
X37439527Y-94131398D01*
X37690790Y-94211625D01*
X38554875Y-93347540D01*
X38914085Y-93347540D01*
X39778170Y-94211625D01*
X40029433Y-94131398D01*
X40230830Y-93576173D01*
X40204421Y-92986141D01*
X40029433Y-92563682D01*
X39778170Y-92483455D01*
X38914085Y-93347540D01*
X38554875Y-93347540D01*
X37690790Y-92483455D01*
X37439527Y-92563682D01*
X37238130Y-93118907D01*
X32710000Y-93118907D01*
X32710000Y-92486230D01*
X35330395Y-92486230D01*
X35410622Y-92737493D01*
X35965847Y-92938890D01*
X36555879Y-92912481D01*
X36978338Y-92737493D01*
X37058565Y-92486230D01*
X36194480Y-91622145D01*
X35330395Y-92486230D01*
X32710000Y-92486230D01*
X32710000Y-91213907D01*
X34698130Y-91213907D01*
X34724539Y-91803939D01*
X34899527Y-92226398D01*
X35150790Y-92306625D01*
X36014875Y-91442540D01*
X36374085Y-91442540D01*
X37238170Y-92306625D01*
X37246861Y-92303850D01*
X37870395Y-92303850D01*
X38734480Y-93167935D01*
X39598565Y-92303850D01*
X39518338Y-92052587D01*
X38963113Y-91851190D01*
X38373081Y-91877599D01*
X37950622Y-92052587D01*
X37870395Y-92303850D01*
X37246861Y-92303850D01*
X37489433Y-92226398D01*
X37690830Y-91671173D01*
X37664421Y-91081141D01*
X37489433Y-90658682D01*
X37238170Y-90578455D01*
X36374085Y-91442540D01*
X36014875Y-91442540D01*
X35150790Y-90578455D01*
X34899527Y-90658682D01*
X34698130Y-91213907D01*
X32710000Y-91213907D01*
X32710000Y-89946230D01*
X35330395Y-89946230D01*
X35402655Y-90172540D01*
X35330395Y-90398850D01*
X36194480Y-91262935D01*
X37058565Y-90398850D01*
X36986305Y-90172540D01*
X37058565Y-89946230D01*
X36194480Y-89082145D01*
X35330395Y-89946230D01*
X32710000Y-89946230D01*
X32710000Y-88673907D01*
X34698130Y-88673907D01*
X34724539Y-89263939D01*
X34899527Y-89686398D01*
X35150790Y-89766625D01*
X36014875Y-88902540D01*
X36374085Y-88902540D01*
X37238170Y-89766625D01*
X37489433Y-89686398D01*
X37690830Y-89131173D01*
X37664421Y-88541141D01*
X37489433Y-88118682D01*
X37238170Y-88038455D01*
X36374085Y-88902540D01*
X36014875Y-88902540D01*
X35150790Y-88038455D01*
X34899527Y-88118682D01*
X34698130Y-88673907D01*
X32710000Y-88673907D01*
X32710000Y-87858850D01*
X35330395Y-87858850D01*
X36194480Y-88722935D01*
X37058565Y-87858850D01*
X36978338Y-87607587D01*
X36423113Y-87406190D01*
X35833081Y-87432599D01*
X35410622Y-87607587D01*
X35330395Y-87858850D01*
X32710000Y-87858850D01*
X32710000Y-84705030D01*
X37300000Y-84705030D01*
X37300000Y-85474970D01*
X37409233Y-86024121D01*
X37720302Y-86489668D01*
X38185849Y-86800737D01*
X38735000Y-86909970D01*
X39284151Y-86800737D01*
X39749698Y-86489668D01*
X40005000Y-86107582D01*
X40260302Y-86489668D01*
X40725849Y-86800737D01*
X41275000Y-86909970D01*
X41824151Y-86800737D01*
X42289698Y-86489668D01*
X42545000Y-86107582D01*
X42800302Y-86489668D01*
X43265849Y-86800737D01*
X43815000Y-86909970D01*
X44364151Y-86800737D01*
X44829698Y-86489668D01*
X45085000Y-86107582D01*
X45340302Y-86489668D01*
X45470000Y-86576330D01*
X45470000Y-87687723D01*
X45096606Y-88060466D01*
X44870108Y-88605933D01*
X44869592Y-89196556D01*
X45095138Y-89742417D01*
X45330572Y-89978263D01*
X45269533Y-89989748D01*
X45053409Y-90128820D01*
X44908419Y-90341020D01*
X44857410Y-90592910D01*
X44857410Y-92292170D01*
X44901688Y-92527487D01*
X45040760Y-92743611D01*
X45252960Y-92888601D01*
X45504850Y-92939610D01*
X47204110Y-92939610D01*
X47439427Y-92895332D01*
X47487588Y-92864341D01*
X47410108Y-93050933D01*
X47409592Y-93641556D01*
X47635138Y-94187417D01*
X47870572Y-94423263D01*
X47809533Y-94434748D01*
X47593409Y-94573820D01*
X47448419Y-94786020D01*
X47397410Y-95037910D01*
X47397410Y-96737170D01*
X47441688Y-96972487D01*
X47580760Y-97188611D01*
X47792960Y-97333601D01*
X48044850Y-97384610D01*
X49744110Y-97384610D01*
X49979427Y-97340332D01*
X49986434Y-97335823D01*
X49937410Y-97577910D01*
X49937410Y-99277170D01*
X49981688Y-99512487D01*
X50120760Y-99728611D01*
X50332960Y-99873601D01*
X50412729Y-99889755D01*
X50176606Y-100125466D01*
X49950108Y-100670933D01*
X49949592Y-101261556D01*
X50175138Y-101807417D01*
X50592406Y-102225414D01*
X51137873Y-102451912D01*
X51305331Y-102452058D01*
X51252367Y-102531325D01*
X51252367Y-102531326D01*
X51184999Y-102870000D01*
X51185000Y-102870005D01*
X51185000Y-107314995D01*
X51184999Y-107315000D01*
X51241190Y-107597484D01*
X51252367Y-107653675D01*
X51256033Y-107659161D01*
X51444210Y-107940790D01*
X52079208Y-108575787D01*
X52079210Y-108575790D01*
X52239062Y-108682599D01*
X52366326Y-108767634D01*
X52705000Y-108835001D01*
X52705005Y-108835000D01*
X63499995Y-108835000D01*
X63500000Y-108835001D01*
X63782484Y-108778810D01*
X63838675Y-108767633D01*
X64125790Y-108575790D01*
X65194092Y-107507488D01*
X65375641Y-107543600D01*
X65434359Y-107543600D01*
X66007848Y-107429526D01*
X66494029Y-107104670D01*
X66675000Y-106833828D01*
X66855971Y-107104670D01*
X67060000Y-107240998D01*
X67060000Y-107949995D01*
X67059999Y-107950000D01*
X67084864Y-108075000D01*
X67127367Y-108288675D01*
X67241842Y-108460000D01*
X67319210Y-108575790D01*
X68589208Y-109845787D01*
X68589210Y-109845790D01*
X68790071Y-109980000D01*
X68876325Y-110037633D01*
X69215000Y-110105001D01*
X69215005Y-110105000D01*
X92075000Y-110105000D01*
X92413675Y-110037633D01*
X92700790Y-109845790D01*
X92892633Y-109558675D01*
X92912871Y-109456931D01*
X94532968Y-107836834D01*
X104044543Y-107836834D01*
X104444853Y-108805658D01*
X105185443Y-109547542D01*
X106153567Y-109949542D01*
X107201834Y-109950457D01*
X108170658Y-109550147D01*
X108912542Y-108809557D01*
X109314542Y-107841433D01*
X109315457Y-106793166D01*
X108915147Y-105824342D01*
X108174557Y-105082458D01*
X107206433Y-104680458D01*
X106158166Y-104679543D01*
X105189342Y-105079853D01*
X104447458Y-105820443D01*
X104045458Y-106788567D01*
X104044543Y-107836834D01*
X94532968Y-107836834D01*
X95657410Y-106712392D01*
X95657410Y-106897170D01*
X95701688Y-107132487D01*
X95840760Y-107348611D01*
X96052960Y-107493601D01*
X96304850Y-107544610D01*
X98004110Y-107544610D01*
X98239427Y-107500332D01*
X98455551Y-107361260D01*
X98600541Y-107149060D01*
X98651550Y-106897170D01*
X98651550Y-105197910D01*
X98607272Y-104962593D01*
X98468200Y-104746469D01*
X98256000Y-104601479D01*
X98176231Y-104585325D01*
X98412354Y-104349614D01*
X98638852Y-103804147D01*
X98639368Y-103213524D01*
X98413822Y-102667663D01*
X98040000Y-102293188D01*
X98040000Y-86576330D01*
X98169698Y-86489668D01*
X98425000Y-86107582D01*
X98680302Y-86489668D01*
X99145849Y-86800737D01*
X99695000Y-86909970D01*
X100244151Y-86800737D01*
X100709698Y-86489668D01*
X101020767Y-86024121D01*
X101130000Y-85474970D01*
X101130000Y-84705030D01*
X101020767Y-84155879D01*
X100709698Y-83690332D01*
X100244151Y-83379263D01*
X99695000Y-83270030D01*
X99185000Y-83371475D01*
X99185000Y-79188525D01*
X99695000Y-79289970D01*
X100244151Y-79180737D01*
X100709698Y-78869668D01*
X101020767Y-78404121D01*
X101130000Y-77854970D01*
X101130000Y-77085030D01*
X101020767Y-76535879D01*
X100709698Y-76070332D01*
X100455000Y-75900148D01*
X100455000Y-72390000D01*
X100454480Y-72387386D01*
X100454480Y-60554610D01*
X100544110Y-60554610D01*
X100779427Y-60510332D01*
X100995551Y-60371260D01*
X101140541Y-60159060D01*
X101191550Y-59907170D01*
X101191550Y-58207910D01*
X101147272Y-57972593D01*
X101008200Y-57756469D01*
X100796000Y-57611479D01*
X100716231Y-57595325D01*
X100952354Y-57359614D01*
X101178852Y-56814147D01*
X101179368Y-56223524D01*
X100953822Y-55677663D01*
X100536554Y-55259666D01*
X99991087Y-55033168D01*
X99400464Y-55032652D01*
X99318331Y-55066589D01*
X95789983Y-51538241D01*
X95783821Y-51529019D01*
X94517401Y-50262599D01*
X94270839Y-50097852D01*
X93980000Y-50040000D01*
X85721940Y-50040000D01*
X85431101Y-50097852D01*
X85184539Y-50262599D01*
X84828886Y-50618252D01*
X84749067Y-50585108D01*
X84158444Y-50584592D01*
X83612583Y-50810138D01*
X83194586Y-51227406D01*
X83182711Y-51256004D01*
X83171802Y-51229603D01*
X82754534Y-50811606D01*
X82209067Y-50585108D01*
X81618444Y-50584592D01*
X81072583Y-50810138D01*
X80654586Y-51227406D01*
X80642711Y-51256004D01*
X80631802Y-51229603D01*
X80214534Y-50811606D01*
X79669067Y-50585108D01*
X79078444Y-50584592D01*
X78532583Y-50810138D01*
X78114586Y-51227406D01*
X78102711Y-51256004D01*
X78091802Y-51229603D01*
X77674534Y-50811606D01*
X77129067Y-50585108D01*
X76538444Y-50584592D01*
X75992583Y-50810138D01*
X75574586Y-51227406D01*
X75562711Y-51256004D01*
X75551802Y-51229603D01*
X75134534Y-50811606D01*
X74589067Y-50585108D01*
X73998444Y-50584592D01*
X73452583Y-50810138D01*
X73034586Y-51227406D01*
X73022711Y-51256004D01*
X73011802Y-51229603D01*
X72594534Y-50811606D01*
X72049067Y-50585108D01*
X71458444Y-50584592D01*
X70912583Y-50810138D01*
X70494586Y-51227406D01*
X70482711Y-51256004D01*
X70471802Y-51229603D01*
X70054534Y-50811606D01*
X69509067Y-50585108D01*
X68918444Y-50584592D01*
X68372583Y-50810138D01*
X67954586Y-51227406D01*
X67942711Y-51256004D01*
X67931802Y-51229603D01*
X67514534Y-50811606D01*
X66969067Y-50585108D01*
X66378444Y-50584592D01*
X65832583Y-50810138D01*
X65414586Y-51227406D01*
X65402711Y-51256004D01*
X65391802Y-51229603D01*
X64974534Y-50811606D01*
X64429067Y-50585108D01*
X63838444Y-50584592D01*
X63292583Y-50810138D01*
X62874586Y-51227406D01*
X62862711Y-51256004D01*
X62851802Y-51229603D01*
X62434534Y-50811606D01*
X61889067Y-50585108D01*
X61298444Y-50584592D01*
X60752583Y-50810138D01*
X60334586Y-51227406D01*
X60322711Y-51256004D01*
X60311802Y-51229603D01*
X59894534Y-50811606D01*
X59349067Y-50585108D01*
X58758444Y-50584592D01*
X58212583Y-50810138D01*
X57794586Y-51227406D01*
X57782711Y-51256004D01*
X57771802Y-51229603D01*
X57354534Y-50811606D01*
X56809067Y-50585108D01*
X56218444Y-50584592D01*
X55672583Y-50810138D01*
X55254586Y-51227406D01*
X55242711Y-51256004D01*
X55231802Y-51229603D01*
X54814534Y-50811606D01*
X54269067Y-50585108D01*
X53678444Y-50584592D01*
X53132583Y-50810138D01*
X52714586Y-51227406D01*
X52702711Y-51256004D01*
X52691802Y-51229603D01*
X52274534Y-50811606D01*
X51729067Y-50585108D01*
X51138444Y-50584592D01*
X50592583Y-50810138D01*
X50174586Y-51227406D01*
X50162711Y-51256004D01*
X50151802Y-51229603D01*
X49734534Y-50811606D01*
X49189067Y-50585108D01*
X48598444Y-50584592D01*
X48052583Y-50810138D01*
X47634586Y-51227406D01*
X47622711Y-51256004D01*
X47611802Y-51229603D01*
X47194534Y-50811606D01*
X46649067Y-50585108D01*
X46058444Y-50584592D01*
X45512583Y-50810138D01*
X45094586Y-51227406D01*
X44868088Y-51772873D01*
X44867572Y-52363496D01*
X45093118Y-52909357D01*
X45510386Y-53327354D01*
X45592460Y-53361434D01*
X45592460Y-56202738D01*
X39467599Y-62327599D01*
X39302852Y-62574161D01*
X39245000Y-62865000D01*
X39245000Y-66553439D01*
X38963113Y-66451190D01*
X38373081Y-66477599D01*
X37950622Y-66652587D01*
X37870395Y-66903850D01*
X38734480Y-67767935D01*
X38748623Y-67753793D01*
X38928228Y-67933398D01*
X38914085Y-67947540D01*
X39778170Y-68811625D01*
X40029433Y-68731398D01*
X40230830Y-68176173D01*
X40221433Y-67966235D01*
X41785000Y-69529802D01*
X41785000Y-73660000D01*
X41842852Y-73950839D01*
X42007599Y-74197401D01*
X43626488Y-75816290D01*
X43465961Y-75728096D01*
X43383181Y-75745633D01*
X42890104Y-76015500D01*
X42545000Y-76444607D01*
X42199896Y-76015500D01*
X41706819Y-75745633D01*
X41624039Y-75728096D01*
X41402000Y-75850085D01*
X41402000Y-77343000D01*
X43688000Y-77343000D01*
X43688000Y-77323000D01*
X43942000Y-77323000D01*
X43942000Y-77343000D01*
X43962000Y-77343000D01*
X43962000Y-77597000D01*
X43942000Y-77597000D01*
X43942000Y-79089915D01*
X44164039Y-79211904D01*
X44246819Y-79194367D01*
X44325000Y-79151578D01*
X44325000Y-83371475D01*
X43815000Y-83270030D01*
X43265849Y-83379263D01*
X42800302Y-83690332D01*
X42545000Y-84072418D01*
X42289698Y-83690332D01*
X41824151Y-83379263D01*
X41275000Y-83270030D01*
X40725849Y-83379263D01*
X40260302Y-83690332D01*
X40005000Y-84072418D01*
X39749698Y-83690332D01*
X39284151Y-83379263D01*
X38735000Y-83270030D01*
X38185849Y-83379263D01*
X37720302Y-83690332D01*
X37409233Y-84155879D01*
X37300000Y-84705030D01*
X32710000Y-84705030D01*
X32710000Y-77597000D01*
X37300000Y-77597000D01*
X37300000Y-77947000D01*
X37457834Y-78486483D01*
X37810104Y-78924500D01*
X38303181Y-79194367D01*
X38385961Y-79211904D01*
X38608000Y-79089915D01*
X38608000Y-77597000D01*
X38862000Y-77597000D01*
X38862000Y-79089915D01*
X39084039Y-79211904D01*
X39166819Y-79194367D01*
X39659896Y-78924500D01*
X40005000Y-78495393D01*
X40350104Y-78924500D01*
X40843181Y-79194367D01*
X40925961Y-79211904D01*
X41148000Y-79089915D01*
X41148000Y-77597000D01*
X41402000Y-77597000D01*
X41402000Y-79089915D01*
X41624039Y-79211904D01*
X41706819Y-79194367D01*
X42199896Y-78924500D01*
X42545000Y-78495393D01*
X42890104Y-78924500D01*
X43383181Y-79194367D01*
X43465961Y-79211904D01*
X43688000Y-79089915D01*
X43688000Y-77597000D01*
X41402000Y-77597000D01*
X41148000Y-77597000D01*
X38862000Y-77597000D01*
X38608000Y-77597000D01*
X37300000Y-77597000D01*
X32710000Y-77597000D01*
X32710000Y-76993000D01*
X37300000Y-76993000D01*
X37300000Y-77343000D01*
X38608000Y-77343000D01*
X38608000Y-75850085D01*
X38862000Y-75850085D01*
X38862000Y-77343000D01*
X41148000Y-77343000D01*
X41148000Y-75850085D01*
X40925961Y-75728096D01*
X40843181Y-75745633D01*
X40350104Y-76015500D01*
X40005000Y-76444607D01*
X39659896Y-76015500D01*
X39166819Y-75745633D01*
X39084039Y-75728096D01*
X38862000Y-75850085D01*
X38608000Y-75850085D01*
X38385961Y-75728096D01*
X38303181Y-75745633D01*
X37810104Y-76015500D01*
X37457834Y-76453517D01*
X37300000Y-76993000D01*
X32710000Y-76993000D01*
X32710000Y-75976230D01*
X35330395Y-75976230D01*
X35410622Y-76227493D01*
X35965847Y-76428890D01*
X36555879Y-76402481D01*
X36978338Y-76227493D01*
X37058565Y-75976230D01*
X36194480Y-75112145D01*
X35330395Y-75976230D01*
X32710000Y-75976230D01*
X32710000Y-74703907D01*
X34698130Y-74703907D01*
X34724539Y-75293939D01*
X34899527Y-75716398D01*
X35150790Y-75796625D01*
X36014875Y-74932540D01*
X36374085Y-74932540D01*
X37238170Y-75796625D01*
X37489433Y-75716398D01*
X37690830Y-75161173D01*
X37664421Y-74571141D01*
X37489433Y-74148682D01*
X37238170Y-74068455D01*
X36374085Y-74932540D01*
X36014875Y-74932540D01*
X35150790Y-74068455D01*
X34899527Y-74148682D01*
X34698130Y-74703907D01*
X32710000Y-74703907D01*
X32710000Y-73436230D01*
X35330395Y-73436230D01*
X35402655Y-73662540D01*
X35330395Y-73888850D01*
X36194480Y-74752935D01*
X37058565Y-73888850D01*
X36986305Y-73662540D01*
X37058565Y-73436230D01*
X36194480Y-72572145D01*
X35330395Y-73436230D01*
X32710000Y-73436230D01*
X32710000Y-72163907D01*
X34698130Y-72163907D01*
X34724539Y-72753939D01*
X34899527Y-73176398D01*
X35150790Y-73256625D01*
X36014875Y-72392540D01*
X36374085Y-72392540D01*
X37238170Y-73256625D01*
X37489433Y-73176398D01*
X37690830Y-72621173D01*
X37664421Y-72031141D01*
X37489433Y-71608682D01*
X37246862Y-71531230D01*
X37870395Y-71531230D01*
X37950622Y-71782493D01*
X38505847Y-71983890D01*
X39095879Y-71957481D01*
X39518338Y-71782493D01*
X39598565Y-71531230D01*
X38734480Y-70667145D01*
X37870395Y-71531230D01*
X37246862Y-71531230D01*
X37238170Y-71528455D01*
X36374085Y-72392540D01*
X36014875Y-72392540D01*
X35150790Y-71528455D01*
X34899527Y-71608682D01*
X34698130Y-72163907D01*
X32710000Y-72163907D01*
X32710000Y-71348850D01*
X35330395Y-71348850D01*
X36194480Y-72212935D01*
X37058565Y-71348850D01*
X36978338Y-71097587D01*
X36423113Y-70896190D01*
X35833081Y-70922599D01*
X35410622Y-71097587D01*
X35330395Y-71348850D01*
X32710000Y-71348850D01*
X32710000Y-70258907D01*
X37238130Y-70258907D01*
X37264539Y-70848939D01*
X37439527Y-71271398D01*
X37690790Y-71351625D01*
X38554875Y-70487540D01*
X38914085Y-70487540D01*
X39778170Y-71351625D01*
X40029433Y-71271398D01*
X40230830Y-70716173D01*
X40204421Y-70126141D01*
X40029433Y-69703682D01*
X39778170Y-69623455D01*
X38914085Y-70487540D01*
X38554875Y-70487540D01*
X37690790Y-69623455D01*
X37439527Y-69703682D01*
X37238130Y-70258907D01*
X32710000Y-70258907D01*
X32710000Y-68991230D01*
X37870395Y-68991230D01*
X37942655Y-69217540D01*
X37870395Y-69443850D01*
X38734480Y-70307935D01*
X39598565Y-69443850D01*
X39526305Y-69217540D01*
X39598565Y-68991230D01*
X38734480Y-68127145D01*
X37870395Y-68991230D01*
X32710000Y-68991230D01*
X32710000Y-67718907D01*
X37238130Y-67718907D01*
X37264539Y-68308939D01*
X37439527Y-68731398D01*
X37690790Y-68811625D01*
X38554875Y-67947540D01*
X37690790Y-67083455D01*
X37439527Y-67163682D01*
X37238130Y-67718907D01*
X32710000Y-67718907D01*
X32710000Y-35446834D01*
X33559543Y-35446834D01*
X33959853Y-36415658D01*
X34700443Y-37157542D01*
X35668567Y-37559542D01*
X36716834Y-37560457D01*
X37685658Y-37160147D01*
X38427542Y-36419557D01*
X38829542Y-35451433D01*
X38830457Y-34403166D01*
X38521322Y-33655000D01*
X44827041Y-33655000D01*
X44941115Y-34228489D01*
X45265971Y-34714670D01*
X45279642Y-34723805D01*
X45256083Y-34728238D01*
X45039959Y-34867310D01*
X44894969Y-35079510D01*
X44843960Y-35331400D01*
X44843960Y-37058600D01*
X44888238Y-37293917D01*
X45027310Y-37510041D01*
X45239510Y-37655031D01*
X45491400Y-37706040D01*
X45592460Y-37706040D01*
X45592460Y-40617133D01*
X45512583Y-40650138D01*
X45094586Y-41067406D01*
X44868088Y-41612873D01*
X44867572Y-42203496D01*
X45093118Y-42749357D01*
X45510386Y-43167354D01*
X46055853Y-43393852D01*
X46646476Y-43394368D01*
X47192337Y-43168822D01*
X47610334Y-42751554D01*
X47622209Y-42722956D01*
X47633118Y-42749357D01*
X48050386Y-43167354D01*
X48595853Y-43393852D01*
X49186476Y-43394368D01*
X49732337Y-43168822D01*
X50150334Y-42751554D01*
X50162209Y-42722956D01*
X50173118Y-42749357D01*
X50590386Y-43167354D01*
X51135853Y-43393852D01*
X51726476Y-43394368D01*
X52272337Y-43168822D01*
X52690334Y-42751554D01*
X52702209Y-42722956D01*
X52713118Y-42749357D01*
X53130386Y-43167354D01*
X53675853Y-43393852D01*
X54266476Y-43394368D01*
X54812337Y-43168822D01*
X55230334Y-42751554D01*
X55242209Y-42722956D01*
X55253118Y-42749357D01*
X55670386Y-43167354D01*
X56215853Y-43393852D01*
X56806476Y-43394368D01*
X57352337Y-43168822D01*
X57770334Y-42751554D01*
X57782209Y-42722956D01*
X57793118Y-42749357D01*
X58210386Y-43167354D01*
X58755853Y-43393852D01*
X59346476Y-43394368D01*
X59892337Y-43168822D01*
X60310334Y-42751554D01*
X60322209Y-42722956D01*
X60333118Y-42749357D01*
X60750386Y-43167354D01*
X61295853Y-43393852D01*
X61886476Y-43394368D01*
X62432337Y-43168822D01*
X62850334Y-42751554D01*
X62862209Y-42722956D01*
X62873118Y-42749357D01*
X63290386Y-43167354D01*
X63835853Y-43393852D01*
X64426476Y-43394368D01*
X64972337Y-43168822D01*
X65390334Y-42751554D01*
X65402209Y-42722956D01*
X65413118Y-42749357D01*
X65830386Y-43167354D01*
X66375853Y-43393852D01*
X66966476Y-43394368D01*
X67512337Y-43168822D01*
X67930334Y-42751554D01*
X67942209Y-42722956D01*
X67953118Y-42749357D01*
X68370386Y-43167354D01*
X68915853Y-43393852D01*
X69506476Y-43394368D01*
X70052337Y-43168822D01*
X70470334Y-42751554D01*
X70482209Y-42722956D01*
X70493118Y-42749357D01*
X70910386Y-43167354D01*
X71455853Y-43393852D01*
X72046476Y-43394368D01*
X72592337Y-43168822D01*
X73010334Y-42751554D01*
X73022209Y-42722956D01*
X73033118Y-42749357D01*
X73450386Y-43167354D01*
X73995853Y-43393852D01*
X74586476Y-43394368D01*
X75132337Y-43168822D01*
X75550334Y-42751554D01*
X75562209Y-42722956D01*
X75573118Y-42749357D01*
X75990386Y-43167354D01*
X76535853Y-43393852D01*
X77126476Y-43394368D01*
X77672337Y-43168822D01*
X78090334Y-42751554D01*
X78102209Y-42722956D01*
X78113118Y-42749357D01*
X78530386Y-43167354D01*
X79075853Y-43393852D01*
X79666476Y-43394368D01*
X80212337Y-43168822D01*
X80630334Y-42751554D01*
X80642209Y-42722956D01*
X80653118Y-42749357D01*
X81070386Y-43167354D01*
X81615853Y-43393852D01*
X82206476Y-43394368D01*
X82752337Y-43168822D01*
X83170334Y-42751554D01*
X83182209Y-42722956D01*
X83193118Y-42749357D01*
X83610386Y-43167354D01*
X84155853Y-43393852D01*
X84746476Y-43394368D01*
X85292337Y-43168822D01*
X85710334Y-42751554D01*
X85936832Y-42206087D01*
X85937348Y-41615464D01*
X85711802Y-41069603D01*
X85294534Y-40651606D01*
X85215000Y-40618581D01*
X85215000Y-37474520D01*
X85544029Y-37254670D01*
X85868885Y-36768489D01*
X85982959Y-36195000D01*
X85960449Y-36081834D01*
X104044543Y-36081834D01*
X104444853Y-37050658D01*
X105185443Y-37792542D01*
X106153567Y-38194542D01*
X107201834Y-38195457D01*
X108170658Y-37795147D01*
X108912542Y-37054557D01*
X109314542Y-36086433D01*
X109315457Y-35038166D01*
X108915147Y-34069342D01*
X108174557Y-33327458D01*
X107206433Y-32925458D01*
X106158166Y-32924543D01*
X105189342Y-33324853D01*
X104447458Y-34065443D01*
X104045458Y-35033567D01*
X104044543Y-36081834D01*
X85960449Y-36081834D01*
X85868885Y-35621511D01*
X85544029Y-35135330D01*
X85220772Y-34919336D01*
X85343490Y-34861821D01*
X85737688Y-34429947D01*
X85909958Y-34014026D01*
X85788817Y-33782000D01*
X84582000Y-33782000D01*
X84582000Y-33802000D01*
X84328000Y-33802000D01*
X84328000Y-33782000D01*
X82042000Y-33782000D01*
X82042000Y-33802000D01*
X81788000Y-33802000D01*
X81788000Y-33782000D01*
X79502000Y-33782000D01*
X79502000Y-33802000D01*
X79248000Y-33802000D01*
X79248000Y-33782000D01*
X76962000Y-33782000D01*
X76962000Y-33802000D01*
X76708000Y-33802000D01*
X76708000Y-33782000D01*
X74422000Y-33782000D01*
X74422000Y-33802000D01*
X74168000Y-33802000D01*
X74168000Y-33782000D01*
X71882000Y-33782000D01*
X71882000Y-33802000D01*
X71628000Y-33802000D01*
X71628000Y-33782000D01*
X69342000Y-33782000D01*
X69342000Y-33802000D01*
X69088000Y-33802000D01*
X69088000Y-33782000D01*
X66802000Y-33782000D01*
X66802000Y-33802000D01*
X66548000Y-33802000D01*
X66548000Y-33782000D01*
X64262000Y-33782000D01*
X64262000Y-33802000D01*
X64008000Y-33802000D01*
X64008000Y-33782000D01*
X61722000Y-33782000D01*
X61722000Y-33802000D01*
X61468000Y-33802000D01*
X61468000Y-33782000D01*
X59182000Y-33782000D01*
X59182000Y-33802000D01*
X58928000Y-33802000D01*
X58928000Y-33782000D01*
X56642000Y-33782000D01*
X56642000Y-33802000D01*
X56388000Y-33802000D01*
X56388000Y-33782000D01*
X54102000Y-33782000D01*
X54102000Y-33802000D01*
X53848000Y-33802000D01*
X53848000Y-33782000D01*
X51562000Y-33782000D01*
X51562000Y-33802000D01*
X51308000Y-33802000D01*
X51308000Y-33782000D01*
X49022000Y-33782000D01*
X49022000Y-33802000D01*
X48768000Y-33802000D01*
X48768000Y-33782000D01*
X48748000Y-33782000D01*
X48748000Y-33528000D01*
X48768000Y-33528000D01*
X48768000Y-32320531D01*
X49022000Y-32320531D01*
X49022000Y-33528000D01*
X51308000Y-33528000D01*
X51308000Y-32320531D01*
X51562000Y-32320531D01*
X51562000Y-33528000D01*
X53848000Y-33528000D01*
X53848000Y-32320531D01*
X54102000Y-32320531D01*
X54102000Y-33528000D01*
X56388000Y-33528000D01*
X56388000Y-32320531D01*
X56642000Y-32320531D01*
X56642000Y-33528000D01*
X58928000Y-33528000D01*
X58928000Y-32320531D01*
X59182000Y-32320531D01*
X59182000Y-33528000D01*
X61468000Y-33528000D01*
X61468000Y-32320531D01*
X61722000Y-32320531D01*
X61722000Y-33528000D01*
X64008000Y-33528000D01*
X64008000Y-32320531D01*
X64262000Y-32320531D01*
X64262000Y-33528000D01*
X66548000Y-33528000D01*
X66548000Y-32320531D01*
X66802000Y-32320531D01*
X66802000Y-33528000D01*
X69088000Y-33528000D01*
X69088000Y-32320531D01*
X69342000Y-32320531D01*
X69342000Y-33528000D01*
X71628000Y-33528000D01*
X71628000Y-32320531D01*
X71882000Y-32320531D01*
X71882000Y-33528000D01*
X74168000Y-33528000D01*
X74168000Y-32320531D01*
X74422000Y-32320531D01*
X74422000Y-33528000D01*
X76708000Y-33528000D01*
X76708000Y-32320531D01*
X76962000Y-32320531D01*
X76962000Y-33528000D01*
X79248000Y-33528000D01*
X79248000Y-32320531D01*
X79502000Y-32320531D01*
X79502000Y-33528000D01*
X81788000Y-33528000D01*
X81788000Y-32320531D01*
X82042000Y-32320531D01*
X82042000Y-33528000D01*
X84328000Y-33528000D01*
X84328000Y-32320531D01*
X84582000Y-32320531D01*
X84582000Y-33528000D01*
X85788817Y-33528000D01*
X85909958Y-33295974D01*
X85737688Y-32880053D01*
X85343490Y-32448179D01*
X84814027Y-32200032D01*
X84582000Y-32320531D01*
X84328000Y-32320531D01*
X84095973Y-32200032D01*
X83566510Y-32448179D01*
X83185000Y-32866152D01*
X82803490Y-32448179D01*
X82274027Y-32200032D01*
X82042000Y-32320531D01*
X81788000Y-32320531D01*
X81555973Y-32200032D01*
X81026510Y-32448179D01*
X80645000Y-32866152D01*
X80263490Y-32448179D01*
X79734027Y-32200032D01*
X79502000Y-32320531D01*
X79248000Y-32320531D01*
X79015973Y-32200032D01*
X78486510Y-32448179D01*
X78105000Y-32866152D01*
X77723490Y-32448179D01*
X77194027Y-32200032D01*
X76962000Y-32320531D01*
X76708000Y-32320531D01*
X76475973Y-32200032D01*
X75946510Y-32448179D01*
X75565000Y-32866152D01*
X75183490Y-32448179D01*
X74654027Y-32200032D01*
X74422000Y-32320531D01*
X74168000Y-32320531D01*
X73935973Y-32200032D01*
X73406510Y-32448179D01*
X73025000Y-32866152D01*
X72643490Y-32448179D01*
X72114027Y-32200032D01*
X71882000Y-32320531D01*
X71628000Y-32320531D01*
X71395973Y-32200032D01*
X70866510Y-32448179D01*
X70485000Y-32866152D01*
X70103490Y-32448179D01*
X69574027Y-32200032D01*
X69342000Y-32320531D01*
X69088000Y-32320531D01*
X68855973Y-32200032D01*
X68326510Y-32448179D01*
X67945000Y-32866152D01*
X67563490Y-32448179D01*
X67034027Y-32200032D01*
X66802000Y-32320531D01*
X66548000Y-32320531D01*
X66315973Y-32200032D01*
X65786510Y-32448179D01*
X65405000Y-32866152D01*
X65023490Y-32448179D01*
X64494027Y-32200032D01*
X64262000Y-32320531D01*
X64008000Y-32320531D01*
X63775973Y-32200032D01*
X63246510Y-32448179D01*
X62865000Y-32866152D01*
X62483490Y-32448179D01*
X61954027Y-32200032D01*
X61722000Y-32320531D01*
X61468000Y-32320531D01*
X61235973Y-32200032D01*
X60706510Y-32448179D01*
X60325000Y-32866152D01*
X59943490Y-32448179D01*
X59414027Y-32200032D01*
X59182000Y-32320531D01*
X58928000Y-32320531D01*
X58695973Y-32200032D01*
X58166510Y-32448179D01*
X57785000Y-32866152D01*
X57403490Y-32448179D01*
X56874027Y-32200032D01*
X56642000Y-32320531D01*
X56388000Y-32320531D01*
X56155973Y-32200032D01*
X55626510Y-32448179D01*
X55245000Y-32866152D01*
X54863490Y-32448179D01*
X54334027Y-32200032D01*
X54102000Y-32320531D01*
X53848000Y-32320531D01*
X53615973Y-32200032D01*
X53086510Y-32448179D01*
X52705000Y-32866152D01*
X52323490Y-32448179D01*
X51794027Y-32200032D01*
X51562000Y-32320531D01*
X51308000Y-32320531D01*
X51075973Y-32200032D01*
X50546510Y-32448179D01*
X50165000Y-32866152D01*
X49783490Y-32448179D01*
X49254027Y-32200032D01*
X49022000Y-32320531D01*
X48768000Y-32320531D01*
X48535973Y-32200032D01*
X48006510Y-32448179D01*
X47624992Y-32866161D01*
X47444029Y-32595330D01*
X46957848Y-32270474D01*
X46384359Y-32156400D01*
X46325641Y-32156400D01*
X45752152Y-32270474D01*
X45265971Y-32595330D01*
X44941115Y-33081511D01*
X44827041Y-33655000D01*
X38521322Y-33655000D01*
X38430147Y-33434342D01*
X37689557Y-32692458D01*
X36721433Y-32290458D01*
X35673166Y-32289543D01*
X34704342Y-32689853D01*
X33962458Y-33430443D01*
X33560458Y-34398567D01*
X33559543Y-35446834D01*
X32710000Y-35446834D01*
X32710000Y-31710000D01*
X110290000Y-31710000D01*
X110290000Y-110790000D01*
X110290000Y-110790000D01*
G37*
X110290000Y-110790000D02*
X32710000Y-110790000D01*
X32710000Y-107836834D01*
X33559543Y-107836834D01*
X33959853Y-108805658D01*
X34700443Y-109547542D01*
X35668567Y-109949542D01*
X36716834Y-109950457D01*
X37685658Y-109550147D01*
X38427542Y-108809557D01*
X38829542Y-107841433D01*
X38830196Y-107091230D01*
X42950395Y-107091230D01*
X43030622Y-107342493D01*
X43585847Y-107543890D01*
X44175879Y-107517481D01*
X44598338Y-107342493D01*
X44678565Y-107091230D01*
X43814480Y-106227145D01*
X42950395Y-107091230D01*
X38830196Y-107091230D01*
X38830457Y-106793166D01*
X38430147Y-105824342D01*
X38424722Y-105818907D01*
X42318130Y-105818907D01*
X42344539Y-106408939D01*
X42519527Y-106831398D01*
X42770790Y-106911625D01*
X43634875Y-106047540D01*
X43994085Y-106047540D01*
X44858170Y-106911625D01*
X45109433Y-106831398D01*
X45310830Y-106276173D01*
X45284421Y-105686141D01*
X45109433Y-105263682D01*
X44858170Y-105183455D01*
X43994085Y-106047540D01*
X43634875Y-106047540D01*
X42770790Y-105183455D01*
X42519527Y-105263682D01*
X42318130Y-105818907D01*
X38424722Y-105818907D01*
X37689557Y-105082458D01*
X36721433Y-104680458D01*
X35673166Y-104679543D01*
X34704342Y-105079853D01*
X33962458Y-105820443D01*
X33560458Y-106788567D01*
X33559543Y-107836834D01*
X32710000Y-107836834D01*
X32710000Y-104551230D01*
X42950395Y-104551230D01*
X43022655Y-104777540D01*
X42950395Y-105003850D01*
X43814480Y-105867935D01*
X44678565Y-105003850D01*
X44606305Y-104777540D01*
X44678565Y-104551230D01*
X43814480Y-103687145D01*
X42950395Y-104551230D01*
X32710000Y-104551230D01*
X32710000Y-103278907D01*
X42318130Y-103278907D01*
X42344539Y-103868939D01*
X42519527Y-104291398D01*
X42770790Y-104371625D01*
X43634875Y-103507540D01*
X43994085Y-103507540D01*
X44858170Y-104371625D01*
X45109433Y-104291398D01*
X45310830Y-103736173D01*
X45284421Y-103146141D01*
X45109433Y-102723682D01*
X44858170Y-102643455D01*
X43994085Y-103507540D01*
X43634875Y-103507540D01*
X42770790Y-102643455D01*
X42519527Y-102723682D01*
X42318130Y-103278907D01*
X32710000Y-103278907D01*
X32710000Y-102011230D01*
X40410395Y-102011230D01*
X40490622Y-102262493D01*
X41045847Y-102463890D01*
X41046740Y-102463850D01*
X42950395Y-102463850D01*
X43814480Y-103327935D01*
X44678565Y-102463850D01*
X44598338Y-102212587D01*
X44043113Y-102011190D01*
X43453081Y-102037599D01*
X43030622Y-102212587D01*
X42950395Y-102463850D01*
X41046740Y-102463850D01*
X41635879Y-102437481D01*
X42058338Y-102262493D01*
X42138565Y-102011230D01*
X41274480Y-101147145D01*
X40410395Y-102011230D01*
X32710000Y-102011230D01*
X32710000Y-100738907D01*
X39778130Y-100738907D01*
X39804539Y-101328939D01*
X39979527Y-101751398D01*
X40230790Y-101831625D01*
X41094875Y-100967540D01*
X41454085Y-100967540D01*
X42318170Y-101831625D01*
X42569433Y-101751398D01*
X42770830Y-101196173D01*
X42744421Y-100606141D01*
X42569433Y-100183682D01*
X42318170Y-100103455D01*
X41454085Y-100967540D01*
X41094875Y-100967540D01*
X40230790Y-100103455D01*
X39979527Y-100183682D01*
X39778130Y-100738907D01*
X32710000Y-100738907D01*
X32710000Y-99471230D01*
X40410395Y-99471230D01*
X40482655Y-99697540D01*
X40410395Y-99923850D01*
X41274480Y-100787935D01*
X42138565Y-99923850D01*
X42066305Y-99697540D01*
X42138565Y-99471230D01*
X41274480Y-98607145D01*
X40410395Y-99471230D01*
X32710000Y-99471230D01*
X32710000Y-98198907D01*
X39778130Y-98198907D01*
X39804539Y-98788939D01*
X39979527Y-99211398D01*
X40230790Y-99291625D01*
X41094875Y-98427540D01*
X41454085Y-98427540D01*
X42318170Y-99291625D01*
X42569433Y-99211398D01*
X42770830Y-98656173D01*
X42744421Y-98066141D01*
X42569433Y-97643682D01*
X42318170Y-97563455D01*
X41454085Y-98427540D01*
X41094875Y-98427540D01*
X40230790Y-97563455D01*
X39979527Y-97643682D01*
X39778130Y-98198907D01*
X32710000Y-98198907D01*
X32710000Y-96931230D01*
X37870395Y-96931230D01*
X37950622Y-97182493D01*
X38505847Y-97383890D01*
X38506740Y-97383850D01*
X40410395Y-97383850D01*
X41274480Y-98247935D01*
X42138565Y-97383850D01*
X42058338Y-97132587D01*
X41503113Y-96931190D01*
X40913081Y-96957599D01*
X40490622Y-97132587D01*
X40410395Y-97383850D01*
X38506740Y-97383850D01*
X39095879Y-97357481D01*
X39518338Y-97182493D01*
X39598565Y-96931230D01*
X38734480Y-96067145D01*
X37870395Y-96931230D01*
X32710000Y-96931230D01*
X32710000Y-95658907D01*
X37238130Y-95658907D01*
X37264539Y-96248939D01*
X37439527Y-96671398D01*
X37690790Y-96751625D01*
X38554875Y-95887540D01*
X38914085Y-95887540D01*
X39778170Y-96751625D01*
X40029433Y-96671398D01*
X40230830Y-96116173D01*
X40204421Y-95526141D01*
X40029433Y-95103682D01*
X39778170Y-95023455D01*
X38914085Y-95887540D01*
X38554875Y-95887540D01*
X37690790Y-95023455D01*
X37439527Y-95103682D01*
X37238130Y-95658907D01*
X32710000Y-95658907D01*
X32710000Y-94391230D01*
X37870395Y-94391230D01*
X37942655Y-94617540D01*
X37870395Y-94843850D01*
X38734480Y-95707935D01*
X39598565Y-94843850D01*
X39526305Y-94617540D01*
X39598565Y-94391230D01*
X38734480Y-93527145D01*
X37870395Y-94391230D01*
X32710000Y-94391230D01*
X32710000Y-93118907D01*
X37238130Y-93118907D01*
X37264539Y-93708939D01*
X37439527Y-94131398D01*
X37690790Y-94211625D01*
X38554875Y-93347540D01*
X38914085Y-93347540D01*
X39778170Y-94211625D01*
X40029433Y-94131398D01*
X40230830Y-93576173D01*
X40204421Y-92986141D01*
X40029433Y-92563682D01*
X39778170Y-92483455D01*
X38914085Y-93347540D01*
X38554875Y-93347540D01*
X37690790Y-92483455D01*
X37439527Y-92563682D01*
X37238130Y-93118907D01*
X32710000Y-93118907D01*
X32710000Y-92486230D01*
X35330395Y-92486230D01*
X35410622Y-92737493D01*
X35965847Y-92938890D01*
X36555879Y-92912481D01*
X36978338Y-92737493D01*
X37058565Y-92486230D01*
X36194480Y-91622145D01*
X35330395Y-92486230D01*
X32710000Y-92486230D01*
X32710000Y-91213907D01*
X34698130Y-91213907D01*
X34724539Y-91803939D01*
X34899527Y-92226398D01*
X35150790Y-92306625D01*
X36014875Y-91442540D01*
X36374085Y-91442540D01*
X37238170Y-92306625D01*
X37246861Y-92303850D01*
X37870395Y-92303850D01*
X38734480Y-93167935D01*
X39598565Y-92303850D01*
X39518338Y-92052587D01*
X38963113Y-91851190D01*
X38373081Y-91877599D01*
X37950622Y-92052587D01*
X37870395Y-92303850D01*
X37246861Y-92303850D01*
X37489433Y-92226398D01*
X37690830Y-91671173D01*
X37664421Y-91081141D01*
X37489433Y-90658682D01*
X37238170Y-90578455D01*
X36374085Y-91442540D01*
X36014875Y-91442540D01*
X35150790Y-90578455D01*
X34899527Y-90658682D01*
X34698130Y-91213907D01*
X32710000Y-91213907D01*
X32710000Y-89946230D01*
X35330395Y-89946230D01*
X35402655Y-90172540D01*
X35330395Y-90398850D01*
X36194480Y-91262935D01*
X37058565Y-90398850D01*
X36986305Y-90172540D01*
X37058565Y-89946230D01*
X36194480Y-89082145D01*
X35330395Y-89946230D01*
X32710000Y-89946230D01*
X32710000Y-88673907D01*
X34698130Y-88673907D01*
X34724539Y-89263939D01*
X34899527Y-89686398D01*
X35150790Y-89766625D01*
X36014875Y-88902540D01*
X36374085Y-88902540D01*
X37238170Y-89766625D01*
X37489433Y-89686398D01*
X37690830Y-89131173D01*
X37664421Y-88541141D01*
X37489433Y-88118682D01*
X37238170Y-88038455D01*
X36374085Y-88902540D01*
X36014875Y-88902540D01*
X35150790Y-88038455D01*
X34899527Y-88118682D01*
X34698130Y-88673907D01*
X32710000Y-88673907D01*
X32710000Y-87858850D01*
X35330395Y-87858850D01*
X36194480Y-88722935D01*
X37058565Y-87858850D01*
X36978338Y-87607587D01*
X36423113Y-87406190D01*
X35833081Y-87432599D01*
X35410622Y-87607587D01*
X35330395Y-87858850D01*
X32710000Y-87858850D01*
X32710000Y-84705030D01*
X37300000Y-84705030D01*
X37300000Y-85474970D01*
X37409233Y-86024121D01*
X37720302Y-86489668D01*
X38185849Y-86800737D01*
X38735000Y-86909970D01*
X39284151Y-86800737D01*
X39749698Y-86489668D01*
X40005000Y-86107582D01*
X40260302Y-86489668D01*
X40725849Y-86800737D01*
X41275000Y-86909970D01*
X41824151Y-86800737D01*
X42289698Y-86489668D01*
X42545000Y-86107582D01*
X42800302Y-86489668D01*
X43265849Y-86800737D01*
X43815000Y-86909970D01*
X44364151Y-86800737D01*
X44829698Y-86489668D01*
X45085000Y-86107582D01*
X45340302Y-86489668D01*
X45470000Y-86576330D01*
X45470000Y-87687723D01*
X45096606Y-88060466D01*
X44870108Y-88605933D01*
X44869592Y-89196556D01*
X45095138Y-89742417D01*
X45330572Y-89978263D01*
X45269533Y-89989748D01*
X45053409Y-90128820D01*
X44908419Y-90341020D01*
X44857410Y-90592910D01*
X44857410Y-92292170D01*
X44901688Y-92527487D01*
X45040760Y-92743611D01*
X45252960Y-92888601D01*
X45504850Y-92939610D01*
X47204110Y-92939610D01*
X47439427Y-92895332D01*
X47487588Y-92864341D01*
X47410108Y-93050933D01*
X47409592Y-93641556D01*
X47635138Y-94187417D01*
X47870572Y-94423263D01*
X47809533Y-94434748D01*
X47593409Y-94573820D01*
X47448419Y-94786020D01*
X47397410Y-95037910D01*
X47397410Y-96737170D01*
X47441688Y-96972487D01*
X47580760Y-97188611D01*
X47792960Y-97333601D01*
X48044850Y-97384610D01*
X49744110Y-97384610D01*
X49979427Y-97340332D01*
X49986434Y-97335823D01*
X49937410Y-97577910D01*
X49937410Y-99277170D01*
X49981688Y-99512487D01*
X50120760Y-99728611D01*
X50332960Y-99873601D01*
X50412729Y-99889755D01*
X50176606Y-100125466D01*
X49950108Y-100670933D01*
X49949592Y-101261556D01*
X50175138Y-101807417D01*
X50592406Y-102225414D01*
X51137873Y-102451912D01*
X51305331Y-102452058D01*
X51252367Y-102531325D01*
X51252367Y-102531326D01*
X51184999Y-102870000D01*
X51185000Y-102870005D01*
X51185000Y-107314995D01*
X51184999Y-107315000D01*
X51241190Y-107597484D01*
X51252367Y-107653675D01*
X51256033Y-107659161D01*
X51444210Y-107940790D01*
X52079208Y-108575787D01*
X52079210Y-108575790D01*
X52239062Y-108682599D01*
X52366326Y-108767634D01*
X52705000Y-108835001D01*
X52705005Y-108835000D01*
X63499995Y-108835000D01*
X63500000Y-108835001D01*
X63782484Y-108778810D01*
X63838675Y-108767633D01*
X64125790Y-108575790D01*
X65194092Y-107507488D01*
X65375641Y-107543600D01*
X65434359Y-107543600D01*
X66007848Y-107429526D01*
X66494029Y-107104670D01*
X66675000Y-106833828D01*
X66855971Y-107104670D01*
X67060000Y-107240998D01*
X67060000Y-107949995D01*
X67059999Y-107950000D01*
X67084864Y-108075000D01*
X67127367Y-108288675D01*
X67241842Y-108460000D01*
X67319210Y-108575790D01*
X68589208Y-109845787D01*
X68589210Y-109845790D01*
X68790071Y-109980000D01*
X68876325Y-110037633D01*
X69215000Y-110105001D01*
X69215005Y-110105000D01*
X92075000Y-110105000D01*
X92413675Y-110037633D01*
X92700790Y-109845790D01*
X92892633Y-109558675D01*
X92912871Y-109456931D01*
X94532968Y-107836834D01*
X104044543Y-107836834D01*
X104444853Y-108805658D01*
X105185443Y-109547542D01*
X106153567Y-109949542D01*
X107201834Y-109950457D01*
X108170658Y-109550147D01*
X108912542Y-108809557D01*
X109314542Y-107841433D01*
X109315457Y-106793166D01*
X108915147Y-105824342D01*
X108174557Y-105082458D01*
X107206433Y-104680458D01*
X106158166Y-104679543D01*
X105189342Y-105079853D01*
X104447458Y-105820443D01*
X104045458Y-106788567D01*
X104044543Y-107836834D01*
X94532968Y-107836834D01*
X95657410Y-106712392D01*
X95657410Y-106897170D01*
X95701688Y-107132487D01*
X95840760Y-107348611D01*
X96052960Y-107493601D01*
X96304850Y-107544610D01*
X98004110Y-107544610D01*
X98239427Y-107500332D01*
X98455551Y-107361260D01*
X98600541Y-107149060D01*
X98651550Y-106897170D01*
X98651550Y-105197910D01*
X98607272Y-104962593D01*
X98468200Y-104746469D01*
X98256000Y-104601479D01*
X98176231Y-104585325D01*
X98412354Y-104349614D01*
X98638852Y-103804147D01*
X98639368Y-103213524D01*
X98413822Y-102667663D01*
X98040000Y-102293188D01*
X98040000Y-86576330D01*
X98169698Y-86489668D01*
X98425000Y-86107582D01*
X98680302Y-86489668D01*
X99145849Y-86800737D01*
X99695000Y-86909970D01*
X100244151Y-86800737D01*
X100709698Y-86489668D01*
X101020767Y-86024121D01*
X101130000Y-85474970D01*
X101130000Y-84705030D01*
X101020767Y-84155879D01*
X100709698Y-83690332D01*
X100244151Y-83379263D01*
X99695000Y-83270030D01*
X99185000Y-83371475D01*
X99185000Y-79188525D01*
X99695000Y-79289970D01*
X100244151Y-79180737D01*
X100709698Y-78869668D01*
X101020767Y-78404121D01*
X101130000Y-77854970D01*
X101130000Y-77085030D01*
X101020767Y-76535879D01*
X100709698Y-76070332D01*
X100455000Y-75900148D01*
X100455000Y-72390000D01*
X100454480Y-72387386D01*
X100454480Y-60554610D01*
X100544110Y-60554610D01*
X100779427Y-60510332D01*
X100995551Y-60371260D01*
X101140541Y-60159060D01*
X101191550Y-59907170D01*
X101191550Y-58207910D01*
X101147272Y-57972593D01*
X101008200Y-57756469D01*
X100796000Y-57611479D01*
X100716231Y-57595325D01*
X100952354Y-57359614D01*
X101178852Y-56814147D01*
X101179368Y-56223524D01*
X100953822Y-55677663D01*
X100536554Y-55259666D01*
X99991087Y-55033168D01*
X99400464Y-55032652D01*
X99318331Y-55066589D01*
X95789983Y-51538241D01*
X95783821Y-51529019D01*
X94517401Y-50262599D01*
X94270839Y-50097852D01*
X93980000Y-50040000D01*
X85721940Y-50040000D01*
X85431101Y-50097852D01*
X85184539Y-50262599D01*
X84828886Y-50618252D01*
X84749067Y-50585108D01*
X84158444Y-50584592D01*
X83612583Y-50810138D01*
X83194586Y-51227406D01*
X83182711Y-51256004D01*
X83171802Y-51229603D01*
X82754534Y-50811606D01*
X82209067Y-50585108D01*
X81618444Y-50584592D01*
X81072583Y-50810138D01*
X80654586Y-51227406D01*
X80642711Y-51256004D01*
X80631802Y-51229603D01*
X80214534Y-50811606D01*
X79669067Y-50585108D01*
X79078444Y-50584592D01*
X78532583Y-50810138D01*
X78114586Y-51227406D01*
X78102711Y-51256004D01*
X78091802Y-51229603D01*
X77674534Y-50811606D01*
X77129067Y-50585108D01*
X76538444Y-50584592D01*
X75992583Y-50810138D01*
X75574586Y-51227406D01*
X75562711Y-51256004D01*
X75551802Y-51229603D01*
X75134534Y-50811606D01*
X74589067Y-50585108D01*
X73998444Y-50584592D01*
X73452583Y-50810138D01*
X73034586Y-51227406D01*
X73022711Y-51256004D01*
X73011802Y-51229603D01*
X72594534Y-50811606D01*
X72049067Y-50585108D01*
X71458444Y-50584592D01*
X70912583Y-50810138D01*
X70494586Y-51227406D01*
X70482711Y-51256004D01*
X70471802Y-51229603D01*
X70054534Y-50811606D01*
X69509067Y-50585108D01*
X68918444Y-50584592D01*
X68372583Y-50810138D01*
X67954586Y-51227406D01*
X67942711Y-51256004D01*
X67931802Y-51229603D01*
X67514534Y-50811606D01*
X66969067Y-50585108D01*
X66378444Y-50584592D01*
X65832583Y-50810138D01*
X65414586Y-51227406D01*
X65402711Y-51256004D01*
X65391802Y-51229603D01*
X64974534Y-50811606D01*
X64429067Y-50585108D01*
X63838444Y-50584592D01*
X63292583Y-50810138D01*
X62874586Y-51227406D01*
X62862711Y-51256004D01*
X62851802Y-51229603D01*
X62434534Y-50811606D01*
X61889067Y-50585108D01*
X61298444Y-50584592D01*
X60752583Y-50810138D01*
X60334586Y-51227406D01*
X60322711Y-51256004D01*
X60311802Y-51229603D01*
X59894534Y-50811606D01*
X59349067Y-50585108D01*
X58758444Y-50584592D01*
X58212583Y-50810138D01*
X57794586Y-51227406D01*
X57782711Y-51256004D01*
X57771802Y-51229603D01*
X57354534Y-50811606D01*
X56809067Y-50585108D01*
X56218444Y-50584592D01*
X55672583Y-50810138D01*
X55254586Y-51227406D01*
X55242711Y-51256004D01*
X55231802Y-51229603D01*
X54814534Y-50811606D01*
X54269067Y-50585108D01*
X53678444Y-50584592D01*
X53132583Y-50810138D01*
X52714586Y-51227406D01*
X52702711Y-51256004D01*
X52691802Y-51229603D01*
X52274534Y-50811606D01*
X51729067Y-50585108D01*
X51138444Y-50584592D01*
X50592583Y-50810138D01*
X50174586Y-51227406D01*
X50162711Y-51256004D01*
X50151802Y-51229603D01*
X49734534Y-50811606D01*
X49189067Y-50585108D01*
X48598444Y-50584592D01*
X48052583Y-50810138D01*
X47634586Y-51227406D01*
X47622711Y-51256004D01*
X47611802Y-51229603D01*
X47194534Y-50811606D01*
X46649067Y-50585108D01*
X46058444Y-50584592D01*
X45512583Y-50810138D01*
X45094586Y-51227406D01*
X44868088Y-51772873D01*
X44867572Y-52363496D01*
X45093118Y-52909357D01*
X45510386Y-53327354D01*
X45592460Y-53361434D01*
X45592460Y-56202738D01*
X39467599Y-62327599D01*
X39302852Y-62574161D01*
X39245000Y-62865000D01*
X39245000Y-66553439D01*
X38963113Y-66451190D01*
X38373081Y-66477599D01*
X37950622Y-66652587D01*
X37870395Y-66903850D01*
X38734480Y-67767935D01*
X38748623Y-67753793D01*
X38928228Y-67933398D01*
X38914085Y-67947540D01*
X39778170Y-68811625D01*
X40029433Y-68731398D01*
X40230830Y-68176173D01*
X40221433Y-67966235D01*
X41785000Y-69529802D01*
X41785000Y-73660000D01*
X41842852Y-73950839D01*
X42007599Y-74197401D01*
X43626488Y-75816290D01*
X43465961Y-75728096D01*
X43383181Y-75745633D01*
X42890104Y-76015500D01*
X42545000Y-76444607D01*
X42199896Y-76015500D01*
X41706819Y-75745633D01*
X41624039Y-75728096D01*
X41402000Y-75850085D01*
X41402000Y-77343000D01*
X43688000Y-77343000D01*
X43688000Y-77323000D01*
X43942000Y-77323000D01*
X43942000Y-77343000D01*
X43962000Y-77343000D01*
X43962000Y-77597000D01*
X43942000Y-77597000D01*
X43942000Y-79089915D01*
X44164039Y-79211904D01*
X44246819Y-79194367D01*
X44325000Y-79151578D01*
X44325000Y-83371475D01*
X43815000Y-83270030D01*
X43265849Y-83379263D01*
X42800302Y-83690332D01*
X42545000Y-84072418D01*
X42289698Y-83690332D01*
X41824151Y-83379263D01*
X41275000Y-83270030D01*
X40725849Y-83379263D01*
X40260302Y-83690332D01*
X40005000Y-84072418D01*
X39749698Y-83690332D01*
X39284151Y-83379263D01*
X38735000Y-83270030D01*
X38185849Y-83379263D01*
X37720302Y-83690332D01*
X37409233Y-84155879D01*
X37300000Y-84705030D01*
X32710000Y-84705030D01*
X32710000Y-77597000D01*
X37300000Y-77597000D01*
X37300000Y-77947000D01*
X37457834Y-78486483D01*
X37810104Y-78924500D01*
X38303181Y-79194367D01*
X38385961Y-79211904D01*
X38608000Y-79089915D01*
X38608000Y-77597000D01*
X38862000Y-77597000D01*
X38862000Y-79089915D01*
X39084039Y-79211904D01*
X39166819Y-79194367D01*
X39659896Y-78924500D01*
X40005000Y-78495393D01*
X40350104Y-78924500D01*
X40843181Y-79194367D01*
X40925961Y-79211904D01*
X41148000Y-79089915D01*
X41148000Y-77597000D01*
X41402000Y-77597000D01*
X41402000Y-79089915D01*
X41624039Y-79211904D01*
X41706819Y-79194367D01*
X42199896Y-78924500D01*
X42545000Y-78495393D01*
X42890104Y-78924500D01*
X43383181Y-79194367D01*
X43465961Y-79211904D01*
X43688000Y-79089915D01*
X43688000Y-77597000D01*
X41402000Y-77597000D01*
X41148000Y-77597000D01*
X38862000Y-77597000D01*
X38608000Y-77597000D01*
X37300000Y-77597000D01*
X32710000Y-77597000D01*
X32710000Y-76993000D01*
X37300000Y-76993000D01*
X37300000Y-77343000D01*
X38608000Y-77343000D01*
X38608000Y-75850085D01*
X38862000Y-75850085D01*
X38862000Y-77343000D01*
X41148000Y-77343000D01*
X41148000Y-75850085D01*
X40925961Y-75728096D01*
X40843181Y-75745633D01*
X40350104Y-76015500D01*
X40005000Y-76444607D01*
X39659896Y-76015500D01*
X39166819Y-75745633D01*
X39084039Y-75728096D01*
X38862000Y-75850085D01*
X38608000Y-75850085D01*
X38385961Y-75728096D01*
X38303181Y-75745633D01*
X37810104Y-76015500D01*
X37457834Y-76453517D01*
X37300000Y-76993000D01*
X32710000Y-76993000D01*
X32710000Y-75976230D01*
X35330395Y-75976230D01*
X35410622Y-76227493D01*
X35965847Y-76428890D01*
X36555879Y-76402481D01*
X36978338Y-76227493D01*
X37058565Y-75976230D01*
X36194480Y-75112145D01*
X35330395Y-75976230D01*
X32710000Y-75976230D01*
X32710000Y-74703907D01*
X34698130Y-74703907D01*
X34724539Y-75293939D01*
X34899527Y-75716398D01*
X35150790Y-75796625D01*
X36014875Y-74932540D01*
X36374085Y-74932540D01*
X37238170Y-75796625D01*
X37489433Y-75716398D01*
X37690830Y-75161173D01*
X37664421Y-74571141D01*
X37489433Y-74148682D01*
X37238170Y-74068455D01*
X36374085Y-74932540D01*
X36014875Y-74932540D01*
X35150790Y-74068455D01*
X34899527Y-74148682D01*
X34698130Y-74703907D01*
X32710000Y-74703907D01*
X32710000Y-73436230D01*
X35330395Y-73436230D01*
X35402655Y-73662540D01*
X35330395Y-73888850D01*
X36194480Y-74752935D01*
X37058565Y-73888850D01*
X36986305Y-73662540D01*
X37058565Y-73436230D01*
X36194480Y-72572145D01*
X35330395Y-73436230D01*
X32710000Y-73436230D01*
X32710000Y-72163907D01*
X34698130Y-72163907D01*
X34724539Y-72753939D01*
X34899527Y-73176398D01*
X35150790Y-73256625D01*
X36014875Y-72392540D01*
X36374085Y-72392540D01*
X37238170Y-73256625D01*
X37489433Y-73176398D01*
X37690830Y-72621173D01*
X37664421Y-72031141D01*
X37489433Y-71608682D01*
X37246862Y-71531230D01*
X37870395Y-71531230D01*
X37950622Y-71782493D01*
X38505847Y-71983890D01*
X39095879Y-71957481D01*
X39518338Y-71782493D01*
X39598565Y-71531230D01*
X38734480Y-70667145D01*
X37870395Y-71531230D01*
X37246862Y-71531230D01*
X37238170Y-71528455D01*
X36374085Y-72392540D01*
X36014875Y-72392540D01*
X35150790Y-71528455D01*
X34899527Y-71608682D01*
X34698130Y-72163907D01*
X32710000Y-72163907D01*
X32710000Y-71348850D01*
X35330395Y-71348850D01*
X36194480Y-72212935D01*
X37058565Y-71348850D01*
X36978338Y-71097587D01*
X36423113Y-70896190D01*
X35833081Y-70922599D01*
X35410622Y-71097587D01*
X35330395Y-71348850D01*
X32710000Y-71348850D01*
X32710000Y-70258907D01*
X37238130Y-70258907D01*
X37264539Y-70848939D01*
X37439527Y-71271398D01*
X37690790Y-71351625D01*
X38554875Y-70487540D01*
X38914085Y-70487540D01*
X39778170Y-71351625D01*
X40029433Y-71271398D01*
X40230830Y-70716173D01*
X40204421Y-70126141D01*
X40029433Y-69703682D01*
X39778170Y-69623455D01*
X38914085Y-70487540D01*
X38554875Y-70487540D01*
X37690790Y-69623455D01*
X37439527Y-69703682D01*
X37238130Y-70258907D01*
X32710000Y-70258907D01*
X32710000Y-68991230D01*
X37870395Y-68991230D01*
X37942655Y-69217540D01*
X37870395Y-69443850D01*
X38734480Y-70307935D01*
X39598565Y-69443850D01*
X39526305Y-69217540D01*
X39598565Y-68991230D01*
X38734480Y-68127145D01*
X37870395Y-68991230D01*
X32710000Y-68991230D01*
X32710000Y-67718907D01*
X37238130Y-67718907D01*
X37264539Y-68308939D01*
X37439527Y-68731398D01*
X37690790Y-68811625D01*
X38554875Y-67947540D01*
X37690790Y-67083455D01*
X37439527Y-67163682D01*
X37238130Y-67718907D01*
X32710000Y-67718907D01*
X32710000Y-35446834D01*
X33559543Y-35446834D01*
X33959853Y-36415658D01*
X34700443Y-37157542D01*
X35668567Y-37559542D01*
X36716834Y-37560457D01*
X37685658Y-37160147D01*
X38427542Y-36419557D01*
X38829542Y-35451433D01*
X38830457Y-34403166D01*
X38521322Y-33655000D01*
X44827041Y-33655000D01*
X44941115Y-34228489D01*
X45265971Y-34714670D01*
X45279642Y-34723805D01*
X45256083Y-34728238D01*
X45039959Y-34867310D01*
X44894969Y-35079510D01*
X44843960Y-35331400D01*
X44843960Y-37058600D01*
X44888238Y-37293917D01*
X45027310Y-37510041D01*
X45239510Y-37655031D01*
X45491400Y-37706040D01*
X45592460Y-37706040D01*
X45592460Y-40617133D01*
X45512583Y-40650138D01*
X45094586Y-41067406D01*
X44868088Y-41612873D01*
X44867572Y-42203496D01*
X45093118Y-42749357D01*
X45510386Y-43167354D01*
X46055853Y-43393852D01*
X46646476Y-43394368D01*
X47192337Y-43168822D01*
X47610334Y-42751554D01*
X47622209Y-42722956D01*
X47633118Y-42749357D01*
X48050386Y-43167354D01*
X48595853Y-43393852D01*
X49186476Y-43394368D01*
X49732337Y-43168822D01*
X50150334Y-42751554D01*
X50162209Y-42722956D01*
X50173118Y-42749357D01*
X50590386Y-43167354D01*
X51135853Y-43393852D01*
X51726476Y-43394368D01*
X52272337Y-43168822D01*
X52690334Y-42751554D01*
X52702209Y-42722956D01*
X52713118Y-42749357D01*
X53130386Y-43167354D01*
X53675853Y-43393852D01*
X54266476Y-43394368D01*
X54812337Y-43168822D01*
X55230334Y-42751554D01*
X55242209Y-42722956D01*
X55253118Y-42749357D01*
X55670386Y-43167354D01*
X56215853Y-43393852D01*
X56806476Y-43394368D01*
X57352337Y-43168822D01*
X57770334Y-42751554D01*
X57782209Y-42722956D01*
X57793118Y-42749357D01*
X58210386Y-43167354D01*
X58755853Y-43393852D01*
X59346476Y-43394368D01*
X59892337Y-43168822D01*
X60310334Y-42751554D01*
X60322209Y-42722956D01*
X60333118Y-42749357D01*
X60750386Y-43167354D01*
X61295853Y-43393852D01*
X61886476Y-43394368D01*
X62432337Y-43168822D01*
X62850334Y-42751554D01*
X62862209Y-42722956D01*
X62873118Y-42749357D01*
X63290386Y-43167354D01*
X63835853Y-43393852D01*
X64426476Y-43394368D01*
X64972337Y-43168822D01*
X65390334Y-42751554D01*
X65402209Y-42722956D01*
X65413118Y-42749357D01*
X65830386Y-43167354D01*
X66375853Y-43393852D01*
X66966476Y-43394368D01*
X67512337Y-43168822D01*
X67930334Y-42751554D01*
X67942209Y-42722956D01*
X67953118Y-42749357D01*
X68370386Y-43167354D01*
X68915853Y-43393852D01*
X69506476Y-43394368D01*
X70052337Y-43168822D01*
X70470334Y-42751554D01*
X70482209Y-42722956D01*
X70493118Y-42749357D01*
X70910386Y-43167354D01*
X71455853Y-43393852D01*
X72046476Y-43394368D01*
X72592337Y-43168822D01*
X73010334Y-42751554D01*
X73022209Y-42722956D01*
X73033118Y-42749357D01*
X73450386Y-43167354D01*
X73995853Y-43393852D01*
X74586476Y-43394368D01*
X75132337Y-43168822D01*
X75550334Y-42751554D01*
X75562209Y-42722956D01*
X75573118Y-42749357D01*
X75990386Y-43167354D01*
X76535853Y-43393852D01*
X77126476Y-43394368D01*
X77672337Y-43168822D01*
X78090334Y-42751554D01*
X78102209Y-42722956D01*
X78113118Y-42749357D01*
X78530386Y-43167354D01*
X79075853Y-43393852D01*
X79666476Y-43394368D01*
X80212337Y-43168822D01*
X80630334Y-42751554D01*
X80642209Y-42722956D01*
X80653118Y-42749357D01*
X81070386Y-43167354D01*
X81615853Y-43393852D01*
X82206476Y-43394368D01*
X82752337Y-43168822D01*
X83170334Y-42751554D01*
X83182209Y-42722956D01*
X83193118Y-42749357D01*
X83610386Y-43167354D01*
X84155853Y-43393852D01*
X84746476Y-43394368D01*
X85292337Y-43168822D01*
X85710334Y-42751554D01*
X85936832Y-42206087D01*
X85937348Y-41615464D01*
X85711802Y-41069603D01*
X85294534Y-40651606D01*
X85215000Y-40618581D01*
X85215000Y-37474520D01*
X85544029Y-37254670D01*
X85868885Y-36768489D01*
X85982959Y-36195000D01*
X85960449Y-36081834D01*
X104044543Y-36081834D01*
X104444853Y-37050658D01*
X105185443Y-37792542D01*
X106153567Y-38194542D01*
X107201834Y-38195457D01*
X108170658Y-37795147D01*
X108912542Y-37054557D01*
X109314542Y-36086433D01*
X109315457Y-35038166D01*
X108915147Y-34069342D01*
X108174557Y-33327458D01*
X107206433Y-32925458D01*
X106158166Y-32924543D01*
X105189342Y-33324853D01*
X104447458Y-34065443D01*
X104045458Y-35033567D01*
X104044543Y-36081834D01*
X85960449Y-36081834D01*
X85868885Y-35621511D01*
X85544029Y-35135330D01*
X85220772Y-34919336D01*
X85343490Y-34861821D01*
X85737688Y-34429947D01*
X85909958Y-34014026D01*
X85788817Y-33782000D01*
X84582000Y-33782000D01*
X84582000Y-33802000D01*
X84328000Y-33802000D01*
X84328000Y-33782000D01*
X82042000Y-33782000D01*
X82042000Y-33802000D01*
X81788000Y-33802000D01*
X81788000Y-33782000D01*
X79502000Y-33782000D01*
X79502000Y-33802000D01*
X79248000Y-33802000D01*
X79248000Y-33782000D01*
X76962000Y-33782000D01*
X76962000Y-33802000D01*
X76708000Y-33802000D01*
X76708000Y-33782000D01*
X74422000Y-33782000D01*
X74422000Y-33802000D01*
X74168000Y-33802000D01*
X74168000Y-33782000D01*
X71882000Y-33782000D01*
X71882000Y-33802000D01*
X71628000Y-33802000D01*
X71628000Y-33782000D01*
X69342000Y-33782000D01*
X69342000Y-33802000D01*
X69088000Y-33802000D01*
X69088000Y-33782000D01*
X66802000Y-33782000D01*
X66802000Y-33802000D01*
X66548000Y-33802000D01*
X66548000Y-33782000D01*
X64262000Y-33782000D01*
X64262000Y-33802000D01*
X64008000Y-33802000D01*
X64008000Y-33782000D01*
X61722000Y-33782000D01*
X61722000Y-33802000D01*
X61468000Y-33802000D01*
X61468000Y-33782000D01*
X59182000Y-33782000D01*
X59182000Y-33802000D01*
X58928000Y-33802000D01*
X58928000Y-33782000D01*
X56642000Y-33782000D01*
X56642000Y-33802000D01*
X56388000Y-33802000D01*
X56388000Y-33782000D01*
X54102000Y-33782000D01*
X54102000Y-33802000D01*
X53848000Y-33802000D01*
X53848000Y-33782000D01*
X51562000Y-33782000D01*
X51562000Y-33802000D01*
X51308000Y-33802000D01*
X51308000Y-33782000D01*
X49022000Y-33782000D01*
X49022000Y-33802000D01*
X48768000Y-33802000D01*
X48768000Y-33782000D01*
X48748000Y-33782000D01*
X48748000Y-33528000D01*
X48768000Y-33528000D01*
X48768000Y-32320531D01*
X49022000Y-32320531D01*
X49022000Y-33528000D01*
X51308000Y-33528000D01*
X51308000Y-32320531D01*
X51562000Y-32320531D01*
X51562000Y-33528000D01*
X53848000Y-33528000D01*
X53848000Y-32320531D01*
X54102000Y-32320531D01*
X54102000Y-33528000D01*
X56388000Y-33528000D01*
X56388000Y-32320531D01*
X56642000Y-32320531D01*
X56642000Y-33528000D01*
X58928000Y-33528000D01*
X58928000Y-32320531D01*
X59182000Y-32320531D01*
X59182000Y-33528000D01*
X61468000Y-33528000D01*
X61468000Y-32320531D01*
X61722000Y-32320531D01*
X61722000Y-33528000D01*
X64008000Y-33528000D01*
X64008000Y-32320531D01*
X64262000Y-32320531D01*
X64262000Y-33528000D01*
X66548000Y-33528000D01*
X66548000Y-32320531D01*
X66802000Y-32320531D01*
X66802000Y-33528000D01*
X69088000Y-33528000D01*
X69088000Y-32320531D01*
X69342000Y-32320531D01*
X69342000Y-33528000D01*
X71628000Y-33528000D01*
X71628000Y-32320531D01*
X71882000Y-32320531D01*
X71882000Y-33528000D01*
X74168000Y-33528000D01*
X74168000Y-32320531D01*
X74422000Y-32320531D01*
X74422000Y-33528000D01*
X76708000Y-33528000D01*
X76708000Y-32320531D01*
X76962000Y-32320531D01*
X76962000Y-33528000D01*
X79248000Y-33528000D01*
X79248000Y-32320531D01*
X79502000Y-32320531D01*
X79502000Y-33528000D01*
X81788000Y-33528000D01*
X81788000Y-32320531D01*
X82042000Y-32320531D01*
X82042000Y-33528000D01*
X84328000Y-33528000D01*
X84328000Y-32320531D01*
X84582000Y-32320531D01*
X84582000Y-33528000D01*
X85788817Y-33528000D01*
X85909958Y-33295974D01*
X85737688Y-32880053D01*
X85343490Y-32448179D01*
X84814027Y-32200032D01*
X84582000Y-32320531D01*
X84328000Y-32320531D01*
X84095973Y-32200032D01*
X83566510Y-32448179D01*
X83185000Y-32866152D01*
X82803490Y-32448179D01*
X82274027Y-32200032D01*
X82042000Y-32320531D01*
X81788000Y-32320531D01*
X81555973Y-32200032D01*
X81026510Y-32448179D01*
X80645000Y-32866152D01*
X80263490Y-32448179D01*
X79734027Y-32200032D01*
X79502000Y-32320531D01*
X79248000Y-32320531D01*
X79015973Y-32200032D01*
X78486510Y-32448179D01*
X78105000Y-32866152D01*
X77723490Y-32448179D01*
X77194027Y-32200032D01*
X76962000Y-32320531D01*
X76708000Y-32320531D01*
X76475973Y-32200032D01*
X75946510Y-32448179D01*
X75565000Y-32866152D01*
X75183490Y-32448179D01*
X74654027Y-32200032D01*
X74422000Y-32320531D01*
X74168000Y-32320531D01*
X73935973Y-32200032D01*
X73406510Y-32448179D01*
X73025000Y-32866152D01*
X72643490Y-32448179D01*
X72114027Y-32200032D01*
X71882000Y-32320531D01*
X71628000Y-32320531D01*
X71395973Y-32200032D01*
X70866510Y-32448179D01*
X70485000Y-32866152D01*
X70103490Y-32448179D01*
X69574027Y-32200032D01*
X69342000Y-32320531D01*
X69088000Y-32320531D01*
X68855973Y-32200032D01*
X68326510Y-32448179D01*
X67945000Y-32866152D01*
X67563490Y-32448179D01*
X67034027Y-32200032D01*
X66802000Y-32320531D01*
X66548000Y-32320531D01*
X66315973Y-32200032D01*
X65786510Y-32448179D01*
X65405000Y-32866152D01*
X65023490Y-32448179D01*
X64494027Y-32200032D01*
X64262000Y-32320531D01*
X64008000Y-32320531D01*
X63775973Y-32200032D01*
X63246510Y-32448179D01*
X62865000Y-32866152D01*
X62483490Y-32448179D01*
X61954027Y-32200032D01*
X61722000Y-32320531D01*
X61468000Y-32320531D01*
X61235973Y-32200032D01*
X60706510Y-32448179D01*
X60325000Y-32866152D01*
X59943490Y-32448179D01*
X59414027Y-32200032D01*
X59182000Y-32320531D01*
X58928000Y-32320531D01*
X58695973Y-32200032D01*
X58166510Y-32448179D01*
X57785000Y-32866152D01*
X57403490Y-32448179D01*
X56874027Y-32200032D01*
X56642000Y-32320531D01*
X56388000Y-32320531D01*
X56155973Y-32200032D01*
X55626510Y-32448179D01*
X55245000Y-32866152D01*
X54863490Y-32448179D01*
X54334027Y-32200032D01*
X54102000Y-32320531D01*
X53848000Y-32320531D01*
X53615973Y-32200032D01*
X53086510Y-32448179D01*
X52705000Y-32866152D01*
X52323490Y-32448179D01*
X51794027Y-32200032D01*
X51562000Y-32320531D01*
X51308000Y-32320531D01*
X51075973Y-32200032D01*
X50546510Y-32448179D01*
X50165000Y-32866152D01*
X49783490Y-32448179D01*
X49254027Y-32200032D01*
X49022000Y-32320531D01*
X48768000Y-32320531D01*
X48535973Y-32200032D01*
X48006510Y-32448179D01*
X47624992Y-32866161D01*
X47444029Y-32595330D01*
X46957848Y-32270474D01*
X46384359Y-32156400D01*
X46325641Y-32156400D01*
X45752152Y-32270474D01*
X45265971Y-32595330D01*
X44941115Y-33081511D01*
X44827041Y-33655000D01*
X38521322Y-33655000D01*
X38430147Y-33434342D01*
X37689557Y-32692458D01*
X36721433Y-32290458D01*
X35673166Y-32289543D01*
X34704342Y-32689853D01*
X33962458Y-33430443D01*
X33560458Y-34398567D01*
X33559543Y-35446834D01*
X32710000Y-35446834D01*
X32710000Y-31710000D01*
X110290000Y-31710000D01*
X110290000Y-110790000D01*
G36*
X93600302Y-86489668D02*
X93730000Y-86576330D01*
X93730000Y-96937027D01*
X93529533Y-96974748D01*
X93313409Y-97113820D01*
X93168419Y-97326020D01*
X93117410Y-97577910D01*
X93117410Y-99277170D01*
X93161688Y-99512487D01*
X93300760Y-99728611D01*
X93512960Y-99873601D01*
X93592729Y-99889755D01*
X93356606Y-100125466D01*
X93130108Y-100670933D01*
X93129592Y-101261556D01*
X93355138Y-101807417D01*
X93772406Y-102225414D01*
X94317873Y-102451912D01*
X94908496Y-102452428D01*
X95125000Y-102362970D01*
X95125000Y-105095198D01*
X91885198Y-108335000D01*
X69581579Y-108335000D01*
X68830000Y-107583420D01*
X68830000Y-107240998D01*
X69034029Y-107104670D01*
X69215000Y-106833828D01*
X69395971Y-107104670D01*
X69882152Y-107429526D01*
X70455641Y-107543600D01*
X70514359Y-107543600D01*
X71087848Y-107429526D01*
X71574029Y-107104670D01*
X71755000Y-106833828D01*
X71935971Y-107104670D01*
X72422152Y-107429526D01*
X72995641Y-107543600D01*
X73054359Y-107543600D01*
X73627848Y-107429526D01*
X74114029Y-107104670D01*
X74123009Y-107091230D01*
X86130395Y-107091230D01*
X86210622Y-107342493D01*
X86765847Y-107543890D01*
X87355879Y-107517481D01*
X87778338Y-107342493D01*
X87858565Y-107091230D01*
X86994480Y-106227145D01*
X86130395Y-107091230D01*
X74123009Y-107091230D01*
X74438885Y-106618489D01*
X74552959Y-106045000D01*
X74507987Y-105818907D01*
X85498130Y-105818907D01*
X85524539Y-106408939D01*
X85699527Y-106831398D01*
X85950790Y-106911625D01*
X86814875Y-106047540D01*
X87174085Y-106047540D01*
X88038170Y-106911625D01*
X88289433Y-106831398D01*
X88490830Y-106276173D01*
X88464421Y-105686141D01*
X88289433Y-105263682D01*
X88038170Y-105183455D01*
X87174085Y-106047540D01*
X86814875Y-106047540D01*
X85950790Y-105183455D01*
X85699527Y-105263682D01*
X85498130Y-105818907D01*
X74507987Y-105818907D01*
X74438885Y-105471511D01*
X74114029Y-104985330D01*
X74092977Y-104971263D01*
X74248298Y-104906927D01*
X74426927Y-104728299D01*
X74500271Y-104551230D01*
X86130395Y-104551230D01*
X86202655Y-104777540D01*
X86130395Y-105003850D01*
X86994480Y-105867935D01*
X87858565Y-105003850D01*
X87786305Y-104777540D01*
X87858565Y-104551230D01*
X86994480Y-103687145D01*
X86130395Y-104551230D01*
X74500271Y-104551230D01*
X74523600Y-104494910D01*
X74523600Y-103790750D01*
X74364850Y-103632000D01*
X73152000Y-103632000D01*
X73152000Y-103652000D01*
X72898000Y-103652000D01*
X72898000Y-103632000D01*
X72878000Y-103632000D01*
X72878000Y-103378000D01*
X72898000Y-103378000D01*
X72898000Y-102165150D01*
X73152000Y-102165150D01*
X73152000Y-103378000D01*
X74364850Y-103378000D01*
X74463943Y-103278907D01*
X85498130Y-103278907D01*
X85524539Y-103868939D01*
X85699527Y-104291398D01*
X85950790Y-104371625D01*
X86814875Y-103507540D01*
X87174085Y-103507540D01*
X88038170Y-104371625D01*
X88289433Y-104291398D01*
X88490830Y-103736173D01*
X88464421Y-103146141D01*
X88289433Y-102723682D01*
X88038170Y-102643455D01*
X87174085Y-103507540D01*
X86814875Y-103507540D01*
X85950790Y-102643455D01*
X85699527Y-102723682D01*
X85498130Y-103278907D01*
X74463943Y-103278907D01*
X74523600Y-103219250D01*
X74523600Y-102515090D01*
X74426927Y-102281701D01*
X74248298Y-102103073D01*
X74026570Y-102011230D01*
X83590395Y-102011230D01*
X83670622Y-102262493D01*
X84225847Y-102463890D01*
X84226740Y-102463850D01*
X86130395Y-102463850D01*
X86994480Y-103327935D01*
X87858565Y-102463850D01*
X87778338Y-102212587D01*
X87223113Y-102011190D01*
X86633081Y-102037599D01*
X86210622Y-102212587D01*
X86130395Y-102463850D01*
X84226740Y-102463850D01*
X84815879Y-102437481D01*
X85238338Y-102262493D01*
X85318565Y-102011230D01*
X84454480Y-101147145D01*
X83590395Y-102011230D01*
X74026570Y-102011230D01*
X74014909Y-102006400D01*
X73310750Y-102006400D01*
X73152000Y-102165150D01*
X72898000Y-102165150D01*
X72739250Y-102006400D01*
X72035091Y-102006400D01*
X71915745Y-102055835D01*
X73232672Y-100738907D01*
X82958130Y-100738907D01*
X82984539Y-101328939D01*
X83159527Y-101751398D01*
X83410790Y-101831625D01*
X84274875Y-100967540D01*
X84634085Y-100967540D01*
X85498170Y-101831625D01*
X85749433Y-101751398D01*
X85950830Y-101196173D01*
X85924421Y-100606141D01*
X85749433Y-100183682D01*
X85498170Y-100103455D01*
X84634085Y-100967540D01*
X84274875Y-100967540D01*
X83410790Y-100103455D01*
X83159527Y-100183682D01*
X82958130Y-100738907D01*
X73232672Y-100738907D01*
X74500349Y-99471230D01*
X83590395Y-99471230D01*
X83662655Y-99697540D01*
X83590395Y-99923850D01*
X84454480Y-100787935D01*
X85318565Y-99923850D01*
X85246305Y-99697540D01*
X85318565Y-99471230D01*
X84454480Y-98607145D01*
X83590395Y-99471230D01*
X74500349Y-99471230D01*
X75296579Y-98675000D01*
X82549995Y-98675000D01*
X82550000Y-98675001D01*
X82832484Y-98618810D01*
X82888675Y-98607633D01*
X82973876Y-98550704D01*
X82984539Y-98788939D01*
X83159527Y-99211398D01*
X83410790Y-99291625D01*
X84274875Y-98427540D01*
X84634085Y-98427540D01*
X85498170Y-99291625D01*
X85749433Y-99211398D01*
X85950830Y-98656173D01*
X85924421Y-98066141D01*
X85749433Y-97643682D01*
X85498170Y-97563455D01*
X84634085Y-98427540D01*
X84274875Y-98427540D01*
X84260733Y-98413398D01*
X84440338Y-98233793D01*
X84454480Y-98247935D01*
X85318565Y-97383850D01*
X85238338Y-97132587D01*
X84683113Y-96931190D01*
X84659325Y-96932255D01*
X87620787Y-93970792D01*
X87620790Y-93970790D01*
X87812633Y-93683675D01*
X87821746Y-93637860D01*
X87880001Y-93345000D01*
X87880000Y-93344995D01*
X87880000Y-86576330D01*
X88009698Y-86489668D01*
X88265000Y-86107582D01*
X88520302Y-86489668D01*
X88650000Y-86576330D01*
X88650000Y-86777027D01*
X88449533Y-86814748D01*
X88233409Y-86953820D01*
X88088419Y-87166020D01*
X88037410Y-87417910D01*
X88037410Y-89117170D01*
X88081688Y-89352487D01*
X88220760Y-89568611D01*
X88432960Y-89713601D01*
X88512729Y-89729755D01*
X88276606Y-89965466D01*
X88050108Y-90510933D01*
X88049592Y-91101556D01*
X88275138Y-91647417D01*
X88692406Y-92065414D01*
X89237873Y-92291912D01*
X89828496Y-92292428D01*
X90374357Y-92066882D01*
X90792354Y-91649614D01*
X91018852Y-91104147D01*
X91019368Y-90513524D01*
X90793822Y-89967663D01*
X90558388Y-89731817D01*
X90619427Y-89720332D01*
X90835551Y-89581260D01*
X90980541Y-89369060D01*
X91031550Y-89117170D01*
X91031550Y-87417910D01*
X90987272Y-87182593D01*
X90848200Y-86966469D01*
X90636000Y-86821479D01*
X90420000Y-86777738D01*
X90420000Y-86576330D01*
X90549698Y-86489668D01*
X90805000Y-86107582D01*
X91060302Y-86489668D01*
X91190000Y-86576330D01*
X91190000Y-91857027D01*
X90989533Y-91894748D01*
X90773409Y-92033820D01*
X90628419Y-92246020D01*
X90577410Y-92497910D01*
X90577410Y-94197170D01*
X90621688Y-94432487D01*
X90760760Y-94648611D01*
X90972960Y-94793601D01*
X91052729Y-94809755D01*
X90816606Y-95045466D01*
X90590108Y-95590933D01*
X90589592Y-96181556D01*
X90815138Y-96727417D01*
X91232406Y-97145414D01*
X91777873Y-97371912D01*
X92368496Y-97372428D01*
X92914357Y-97146882D01*
X93332354Y-96729614D01*
X93558852Y-96184147D01*
X93559368Y-95593524D01*
X93333822Y-95047663D01*
X93098388Y-94811817D01*
X93159427Y-94800332D01*
X93375551Y-94661260D01*
X93520541Y-94449060D01*
X93571550Y-94197170D01*
X93571550Y-92497910D01*
X93527272Y-92262593D01*
X93388200Y-92046469D01*
X93176000Y-91901479D01*
X92960000Y-91857738D01*
X92960000Y-86576330D01*
X93089698Y-86489668D01*
X93345000Y-86107582D01*
X93600302Y-86489668D01*
X93600302Y-86489668D01*
G37*
X93600302Y-86489668D02*
X93730000Y-86576330D01*
X93730000Y-96937027D01*
X93529533Y-96974748D01*
X93313409Y-97113820D01*
X93168419Y-97326020D01*
X93117410Y-97577910D01*
X93117410Y-99277170D01*
X93161688Y-99512487D01*
X93300760Y-99728611D01*
X93512960Y-99873601D01*
X93592729Y-99889755D01*
X93356606Y-100125466D01*
X93130108Y-100670933D01*
X93129592Y-101261556D01*
X93355138Y-101807417D01*
X93772406Y-102225414D01*
X94317873Y-102451912D01*
X94908496Y-102452428D01*
X95125000Y-102362970D01*
X95125000Y-105095198D01*
X91885198Y-108335000D01*
X69581579Y-108335000D01*
X68830000Y-107583420D01*
X68830000Y-107240998D01*
X69034029Y-107104670D01*
X69215000Y-106833828D01*
X69395971Y-107104670D01*
X69882152Y-107429526D01*
X70455641Y-107543600D01*
X70514359Y-107543600D01*
X71087848Y-107429526D01*
X71574029Y-107104670D01*
X71755000Y-106833828D01*
X71935971Y-107104670D01*
X72422152Y-107429526D01*
X72995641Y-107543600D01*
X73054359Y-107543600D01*
X73627848Y-107429526D01*
X74114029Y-107104670D01*
X74123009Y-107091230D01*
X86130395Y-107091230D01*
X86210622Y-107342493D01*
X86765847Y-107543890D01*
X87355879Y-107517481D01*
X87778338Y-107342493D01*
X87858565Y-107091230D01*
X86994480Y-106227145D01*
X86130395Y-107091230D01*
X74123009Y-107091230D01*
X74438885Y-106618489D01*
X74552959Y-106045000D01*
X74507987Y-105818907D01*
X85498130Y-105818907D01*
X85524539Y-106408939D01*
X85699527Y-106831398D01*
X85950790Y-106911625D01*
X86814875Y-106047540D01*
X87174085Y-106047540D01*
X88038170Y-106911625D01*
X88289433Y-106831398D01*
X88490830Y-106276173D01*
X88464421Y-105686141D01*
X88289433Y-105263682D01*
X88038170Y-105183455D01*
X87174085Y-106047540D01*
X86814875Y-106047540D01*
X85950790Y-105183455D01*
X85699527Y-105263682D01*
X85498130Y-105818907D01*
X74507987Y-105818907D01*
X74438885Y-105471511D01*
X74114029Y-104985330D01*
X74092977Y-104971263D01*
X74248298Y-104906927D01*
X74426927Y-104728299D01*
X74500271Y-104551230D01*
X86130395Y-104551230D01*
X86202655Y-104777540D01*
X86130395Y-105003850D01*
X86994480Y-105867935D01*
X87858565Y-105003850D01*
X87786305Y-104777540D01*
X87858565Y-104551230D01*
X86994480Y-103687145D01*
X86130395Y-104551230D01*
X74500271Y-104551230D01*
X74523600Y-104494910D01*
X74523600Y-103790750D01*
X74364850Y-103632000D01*
X73152000Y-103632000D01*
X73152000Y-103652000D01*
X72898000Y-103652000D01*
X72898000Y-103632000D01*
X72878000Y-103632000D01*
X72878000Y-103378000D01*
X72898000Y-103378000D01*
X72898000Y-102165150D01*
X73152000Y-102165150D01*
X73152000Y-103378000D01*
X74364850Y-103378000D01*
X74463943Y-103278907D01*
X85498130Y-103278907D01*
X85524539Y-103868939D01*
X85699527Y-104291398D01*
X85950790Y-104371625D01*
X86814875Y-103507540D01*
X87174085Y-103507540D01*
X88038170Y-104371625D01*
X88289433Y-104291398D01*
X88490830Y-103736173D01*
X88464421Y-103146141D01*
X88289433Y-102723682D01*
X88038170Y-102643455D01*
X87174085Y-103507540D01*
X86814875Y-103507540D01*
X85950790Y-102643455D01*
X85699527Y-102723682D01*
X85498130Y-103278907D01*
X74463943Y-103278907D01*
X74523600Y-103219250D01*
X74523600Y-102515090D01*
X74426927Y-102281701D01*
X74248298Y-102103073D01*
X74026570Y-102011230D01*
X83590395Y-102011230D01*
X83670622Y-102262493D01*
X84225847Y-102463890D01*
X84226740Y-102463850D01*
X86130395Y-102463850D01*
X86994480Y-103327935D01*
X87858565Y-102463850D01*
X87778338Y-102212587D01*
X87223113Y-102011190D01*
X86633081Y-102037599D01*
X86210622Y-102212587D01*
X86130395Y-102463850D01*
X84226740Y-102463850D01*
X84815879Y-102437481D01*
X85238338Y-102262493D01*
X85318565Y-102011230D01*
X84454480Y-101147145D01*
X83590395Y-102011230D01*
X74026570Y-102011230D01*
X74014909Y-102006400D01*
X73310750Y-102006400D01*
X73152000Y-102165150D01*
X72898000Y-102165150D01*
X72739250Y-102006400D01*
X72035091Y-102006400D01*
X71915745Y-102055835D01*
X73232672Y-100738907D01*
X82958130Y-100738907D01*
X82984539Y-101328939D01*
X83159527Y-101751398D01*
X83410790Y-101831625D01*
X84274875Y-100967540D01*
X84634085Y-100967540D01*
X85498170Y-101831625D01*
X85749433Y-101751398D01*
X85950830Y-101196173D01*
X85924421Y-100606141D01*
X85749433Y-100183682D01*
X85498170Y-100103455D01*
X84634085Y-100967540D01*
X84274875Y-100967540D01*
X83410790Y-100103455D01*
X83159527Y-100183682D01*
X82958130Y-100738907D01*
X73232672Y-100738907D01*
X74500349Y-99471230D01*
X83590395Y-99471230D01*
X83662655Y-99697540D01*
X83590395Y-99923850D01*
X84454480Y-100787935D01*
X85318565Y-99923850D01*
X85246305Y-99697540D01*
X85318565Y-99471230D01*
X84454480Y-98607145D01*
X83590395Y-99471230D01*
X74500349Y-99471230D01*
X75296579Y-98675000D01*
X82549995Y-98675000D01*
X82550000Y-98675001D01*
X82832484Y-98618810D01*
X82888675Y-98607633D01*
X82973876Y-98550704D01*
X82984539Y-98788939D01*
X83159527Y-99211398D01*
X83410790Y-99291625D01*
X84274875Y-98427540D01*
X84634085Y-98427540D01*
X85498170Y-99291625D01*
X85749433Y-99211398D01*
X85950830Y-98656173D01*
X85924421Y-98066141D01*
X85749433Y-97643682D01*
X85498170Y-97563455D01*
X84634085Y-98427540D01*
X84274875Y-98427540D01*
X84260733Y-98413398D01*
X84440338Y-98233793D01*
X84454480Y-98247935D01*
X85318565Y-97383850D01*
X85238338Y-97132587D01*
X84683113Y-96931190D01*
X84659325Y-96932255D01*
X87620787Y-93970792D01*
X87620790Y-93970790D01*
X87812633Y-93683675D01*
X87821746Y-93637860D01*
X87880001Y-93345000D01*
X87880000Y-93344995D01*
X87880000Y-86576330D01*
X88009698Y-86489668D01*
X88265000Y-86107582D01*
X88520302Y-86489668D01*
X88650000Y-86576330D01*
X88650000Y-86777027D01*
X88449533Y-86814748D01*
X88233409Y-86953820D01*
X88088419Y-87166020D01*
X88037410Y-87417910D01*
X88037410Y-89117170D01*
X88081688Y-89352487D01*
X88220760Y-89568611D01*
X88432960Y-89713601D01*
X88512729Y-89729755D01*
X88276606Y-89965466D01*
X88050108Y-90510933D01*
X88049592Y-91101556D01*
X88275138Y-91647417D01*
X88692406Y-92065414D01*
X89237873Y-92291912D01*
X89828496Y-92292428D01*
X90374357Y-92066882D01*
X90792354Y-91649614D01*
X91018852Y-91104147D01*
X91019368Y-90513524D01*
X90793822Y-89967663D01*
X90558388Y-89731817D01*
X90619427Y-89720332D01*
X90835551Y-89581260D01*
X90980541Y-89369060D01*
X91031550Y-89117170D01*
X91031550Y-87417910D01*
X90987272Y-87182593D01*
X90848200Y-86966469D01*
X90636000Y-86821479D01*
X90420000Y-86777738D01*
X90420000Y-86576330D01*
X90549698Y-86489668D01*
X90805000Y-86107582D01*
X91060302Y-86489668D01*
X91190000Y-86576330D01*
X91190000Y-91857027D01*
X90989533Y-91894748D01*
X90773409Y-92033820D01*
X90628419Y-92246020D01*
X90577410Y-92497910D01*
X90577410Y-94197170D01*
X90621688Y-94432487D01*
X90760760Y-94648611D01*
X90972960Y-94793601D01*
X91052729Y-94809755D01*
X90816606Y-95045466D01*
X90590108Y-95590933D01*
X90589592Y-96181556D01*
X90815138Y-96727417D01*
X91232406Y-97145414D01*
X91777873Y-97371912D01*
X92368496Y-97372428D01*
X92914357Y-97146882D01*
X93332354Y-96729614D01*
X93558852Y-96184147D01*
X93559368Y-95593524D01*
X93333822Y-95047663D01*
X93098388Y-94811817D01*
X93159427Y-94800332D01*
X93375551Y-94661260D01*
X93520541Y-94449060D01*
X93571550Y-94197170D01*
X93571550Y-92497910D01*
X93527272Y-92262593D01*
X93388200Y-92046469D01*
X93176000Y-91901479D01*
X92960000Y-91857738D01*
X92960000Y-86576330D01*
X93089698Y-86489668D01*
X93345000Y-86107582D01*
X93600302Y-86489668D01*
G36*
X85980302Y-86489668D02*
X86110000Y-86576330D01*
X86110000Y-92978421D01*
X83392041Y-95696380D01*
X83384421Y-95526141D01*
X83209433Y-95103682D01*
X82958170Y-95023455D01*
X82094085Y-95887540D01*
X82108228Y-95901683D01*
X81928623Y-96081288D01*
X81914480Y-96067145D01*
X81900338Y-96081288D01*
X81720733Y-95901683D01*
X81734875Y-95887540D01*
X80870790Y-95023455D01*
X80619527Y-95103682D01*
X80418130Y-95658907D01*
X80444539Y-96248939D01*
X80619527Y-96671398D01*
X80870788Y-96751624D01*
X80756076Y-96866336D01*
X80794740Y-96905000D01*
X74930005Y-96905000D01*
X74930000Y-96904999D01*
X74591325Y-96972367D01*
X74304210Y-97164210D01*
X74304208Y-97164213D01*
X69859210Y-101609210D01*
X69667367Y-101896325D01*
X69667367Y-101896326D01*
X69599999Y-102235000D01*
X69600000Y-102235005D01*
X69600000Y-102309002D01*
X69395971Y-102445330D01*
X69215000Y-102716172D01*
X69034029Y-102445330D01*
X68830000Y-102309002D01*
X68830000Y-101966580D01*
X76405349Y-94391230D01*
X81050395Y-94391230D01*
X81122655Y-94617540D01*
X81050395Y-94843850D01*
X81914480Y-95707935D01*
X82778565Y-94843850D01*
X82706305Y-94617540D01*
X82778565Y-94391230D01*
X81914480Y-93527145D01*
X81050395Y-94391230D01*
X76405349Y-94391230D01*
X76566579Y-94230000D01*
X79374995Y-94230000D01*
X79375000Y-94230001D01*
X79657484Y-94173810D01*
X79713675Y-94162633D01*
X80000790Y-93970790D01*
X80436746Y-93534834D01*
X80444539Y-93708939D01*
X80619527Y-94131398D01*
X80870790Y-94211625D01*
X81734875Y-93347540D01*
X82094085Y-93347540D01*
X82958170Y-94211625D01*
X83209433Y-94131398D01*
X83410830Y-93576173D01*
X83384421Y-92986141D01*
X83209433Y-92563682D01*
X82958170Y-92483455D01*
X82094085Y-93347540D01*
X81734875Y-93347540D01*
X81720733Y-93333398D01*
X81900338Y-93153793D01*
X81914480Y-93167935D01*
X82778565Y-92303850D01*
X82698338Y-92052587D01*
X82143113Y-91851190D01*
X82119325Y-91852255D01*
X85080787Y-88890792D01*
X85080790Y-88890790D01*
X85272633Y-88603675D01*
X85303769Y-88447145D01*
X85340001Y-88265000D01*
X85340000Y-88264995D01*
X85340000Y-86576330D01*
X85469698Y-86489668D01*
X85725000Y-86107582D01*
X85980302Y-86489668D01*
X85980302Y-86489668D01*
G37*
X85980302Y-86489668D02*
X86110000Y-86576330D01*
X86110000Y-92978421D01*
X83392041Y-95696380D01*
X83384421Y-95526141D01*
X83209433Y-95103682D01*
X82958170Y-95023455D01*
X82094085Y-95887540D01*
X82108228Y-95901683D01*
X81928623Y-96081288D01*
X81914480Y-96067145D01*
X81900338Y-96081288D01*
X81720733Y-95901683D01*
X81734875Y-95887540D01*
X80870790Y-95023455D01*
X80619527Y-95103682D01*
X80418130Y-95658907D01*
X80444539Y-96248939D01*
X80619527Y-96671398D01*
X80870788Y-96751624D01*
X80756076Y-96866336D01*
X80794740Y-96905000D01*
X74930005Y-96905000D01*
X74930000Y-96904999D01*
X74591325Y-96972367D01*
X74304210Y-97164210D01*
X74304208Y-97164213D01*
X69859210Y-101609210D01*
X69667367Y-101896325D01*
X69667367Y-101896326D01*
X69599999Y-102235000D01*
X69600000Y-102235005D01*
X69600000Y-102309002D01*
X69395971Y-102445330D01*
X69215000Y-102716172D01*
X69034029Y-102445330D01*
X68830000Y-102309002D01*
X68830000Y-101966580D01*
X76405349Y-94391230D01*
X81050395Y-94391230D01*
X81122655Y-94617540D01*
X81050395Y-94843850D01*
X81914480Y-95707935D01*
X82778565Y-94843850D01*
X82706305Y-94617540D01*
X82778565Y-94391230D01*
X81914480Y-93527145D01*
X81050395Y-94391230D01*
X76405349Y-94391230D01*
X76566579Y-94230000D01*
X79374995Y-94230000D01*
X79375000Y-94230001D01*
X79657484Y-94173810D01*
X79713675Y-94162633D01*
X80000790Y-93970790D01*
X80436746Y-93534834D01*
X80444539Y-93708939D01*
X80619527Y-94131398D01*
X80870790Y-94211625D01*
X81734875Y-93347540D01*
X82094085Y-93347540D01*
X82958170Y-94211625D01*
X83209433Y-94131398D01*
X83410830Y-93576173D01*
X83384421Y-92986141D01*
X83209433Y-92563682D01*
X82958170Y-92483455D01*
X82094085Y-93347540D01*
X81734875Y-93347540D01*
X81720733Y-93333398D01*
X81900338Y-93153793D01*
X81914480Y-93167935D01*
X82778565Y-92303850D01*
X82698338Y-92052587D01*
X82143113Y-91851190D01*
X82119325Y-91852255D01*
X85080787Y-88890792D01*
X85080790Y-88890790D01*
X85272633Y-88603675D01*
X85303769Y-88447145D01*
X85340001Y-88265000D01*
X85340000Y-88264995D01*
X85340000Y-86576330D01*
X85469698Y-86489668D01*
X85725000Y-86107582D01*
X85980302Y-86489668D01*
G36*
X80589233Y-86024121D02*
X80900302Y-86489668D01*
X81365849Y-86800737D01*
X81915000Y-86909970D01*
X82464151Y-86800737D01*
X82929698Y-86489668D01*
X83185000Y-86107582D01*
X83440302Y-86489668D01*
X83570000Y-86576330D01*
X83570000Y-87898421D01*
X80852041Y-90616380D01*
X80844421Y-90446141D01*
X80669433Y-90023682D01*
X80418170Y-89943455D01*
X79554085Y-90807540D01*
X79568228Y-90821683D01*
X79388623Y-91001288D01*
X79374480Y-90987145D01*
X78510395Y-91851230D01*
X78590622Y-92102493D01*
X79145847Y-92303890D01*
X79165405Y-92303015D01*
X79008420Y-92460000D01*
X76200005Y-92460000D01*
X76200000Y-92459999D01*
X75917516Y-92516190D01*
X75861325Y-92527367D01*
X75574210Y-92719210D01*
X75574208Y-92719213D01*
X67319210Y-100974210D01*
X67127367Y-101261325D01*
X67127367Y-101261326D01*
X67059999Y-101600000D01*
X67060000Y-101600005D01*
X67060000Y-102309002D01*
X66855971Y-102445330D01*
X66675000Y-102716172D01*
X66494029Y-102445330D01*
X66290000Y-102309002D01*
X66290000Y-96886580D01*
X72597672Y-90578907D01*
X77878130Y-90578907D01*
X77904539Y-91168939D01*
X78079527Y-91591398D01*
X78330790Y-91671625D01*
X79194875Y-90807540D01*
X78330790Y-89943455D01*
X78079527Y-90023682D01*
X77878130Y-90578907D01*
X72597672Y-90578907D01*
X73865349Y-89311230D01*
X78510395Y-89311230D01*
X78582655Y-89537540D01*
X78510395Y-89763850D01*
X79374480Y-90627935D01*
X80238565Y-89763850D01*
X80166305Y-89537540D01*
X80238565Y-89311230D01*
X79374480Y-88447145D01*
X78510395Y-89311230D01*
X73865349Y-89311230D01*
X75137672Y-88038907D01*
X77878130Y-88038907D01*
X77904539Y-88628939D01*
X78079527Y-89051398D01*
X78330790Y-89131625D01*
X79194875Y-88267540D01*
X79554085Y-88267540D01*
X80418170Y-89131625D01*
X80669433Y-89051398D01*
X80870830Y-88496173D01*
X80844421Y-87906141D01*
X80669433Y-87483682D01*
X80418170Y-87403455D01*
X79554085Y-88267540D01*
X79194875Y-88267540D01*
X78330790Y-87403455D01*
X78079527Y-87483682D01*
X77878130Y-88038907D01*
X75137672Y-88038907D01*
X75952729Y-87223850D01*
X78510395Y-87223850D01*
X79374480Y-88087935D01*
X80238565Y-87223850D01*
X80158338Y-86972587D01*
X79603113Y-86771190D01*
X79013081Y-86797599D01*
X78590622Y-86972587D01*
X78510395Y-87223850D01*
X75952729Y-87223850D01*
X77291579Y-85885000D01*
X80561560Y-85885000D01*
X80589233Y-86024121D01*
X80589233Y-86024121D01*
G37*
X80589233Y-86024121D02*
X80900302Y-86489668D01*
X81365849Y-86800737D01*
X81915000Y-86909970D01*
X82464151Y-86800737D01*
X82929698Y-86489668D01*
X83185000Y-86107582D01*
X83440302Y-86489668D01*
X83570000Y-86576330D01*
X83570000Y-87898421D01*
X80852041Y-90616380D01*
X80844421Y-90446141D01*
X80669433Y-90023682D01*
X80418170Y-89943455D01*
X79554085Y-90807540D01*
X79568228Y-90821683D01*
X79388623Y-91001288D01*
X79374480Y-90987145D01*
X78510395Y-91851230D01*
X78590622Y-92102493D01*
X79145847Y-92303890D01*
X79165405Y-92303015D01*
X79008420Y-92460000D01*
X76200005Y-92460000D01*
X76200000Y-92459999D01*
X75917516Y-92516190D01*
X75861325Y-92527367D01*
X75574210Y-92719210D01*
X75574208Y-92719213D01*
X67319210Y-100974210D01*
X67127367Y-101261325D01*
X67127367Y-101261326D01*
X67059999Y-101600000D01*
X67060000Y-101600005D01*
X67060000Y-102309002D01*
X66855971Y-102445330D01*
X66675000Y-102716172D01*
X66494029Y-102445330D01*
X66290000Y-102309002D01*
X66290000Y-96886580D01*
X72597672Y-90578907D01*
X77878130Y-90578907D01*
X77904539Y-91168939D01*
X78079527Y-91591398D01*
X78330790Y-91671625D01*
X79194875Y-90807540D01*
X78330790Y-89943455D01*
X78079527Y-90023682D01*
X77878130Y-90578907D01*
X72597672Y-90578907D01*
X73865349Y-89311230D01*
X78510395Y-89311230D01*
X78582655Y-89537540D01*
X78510395Y-89763850D01*
X79374480Y-90627935D01*
X80238565Y-89763850D01*
X80166305Y-89537540D01*
X80238565Y-89311230D01*
X79374480Y-88447145D01*
X78510395Y-89311230D01*
X73865349Y-89311230D01*
X75137672Y-88038907D01*
X77878130Y-88038907D01*
X77904539Y-88628939D01*
X78079527Y-89051398D01*
X78330790Y-89131625D01*
X79194875Y-88267540D01*
X79554085Y-88267540D01*
X80418170Y-89131625D01*
X80669433Y-89051398D01*
X80870830Y-88496173D01*
X80844421Y-87906141D01*
X80669433Y-87483682D01*
X80418170Y-87403455D01*
X79554085Y-88267540D01*
X79194875Y-88267540D01*
X78330790Y-87403455D01*
X78079527Y-87483682D01*
X77878130Y-88038907D01*
X75137672Y-88038907D01*
X75952729Y-87223850D01*
X78510395Y-87223850D01*
X79374480Y-88087935D01*
X80238565Y-87223850D01*
X80158338Y-86972587D01*
X79603113Y-86771190D01*
X79013081Y-86797599D01*
X78590622Y-86972587D01*
X78510395Y-87223850D01*
X75952729Y-87223850D01*
X77291579Y-85885000D01*
X80561560Y-85885000D01*
X80589233Y-86024121D01*
G36*
X67953118Y-52909357D02*
X68327460Y-53284353D01*
X68327460Y-55242455D01*
X68327459Y-55242460D01*
X68377188Y-55492460D01*
X68394827Y-55581135D01*
X68527611Y-55779861D01*
X68586670Y-55868250D01*
X78114208Y-65395787D01*
X78114210Y-65395790D01*
X78278642Y-65505659D01*
X78401325Y-65587633D01*
X78740000Y-65655001D01*
X78740005Y-65655000D01*
X80799820Y-65655000D01*
X80756076Y-65698744D01*
X80870788Y-65813456D01*
X80619527Y-65893682D01*
X80418130Y-66448907D01*
X80444539Y-67038939D01*
X80619527Y-67461398D01*
X80870790Y-67541625D01*
X81734875Y-66677540D01*
X81720733Y-66663398D01*
X81900338Y-66483793D01*
X81914480Y-66497935D01*
X81928623Y-66483793D01*
X82108228Y-66663398D01*
X82094085Y-66677540D01*
X82958170Y-67541625D01*
X83209433Y-67461398D01*
X83410830Y-66906173D01*
X83384421Y-66316141D01*
X83317147Y-66153727D01*
X88218594Y-71055173D01*
X88050108Y-71460933D01*
X88049592Y-72051556D01*
X88275138Y-72597417D01*
X88510572Y-72833263D01*
X88449533Y-72844748D01*
X88233409Y-72983820D01*
X88088419Y-73196020D01*
X88037410Y-73447910D01*
X88037410Y-75147170D01*
X88081688Y-75382487D01*
X88220760Y-75598611D01*
X88432960Y-75743601D01*
X88650000Y-75787553D01*
X88650000Y-75983670D01*
X88520302Y-76070332D01*
X88267851Y-76448151D01*
X87919896Y-76015500D01*
X87426819Y-75745633D01*
X87344039Y-75728096D01*
X87122000Y-75850085D01*
X87122000Y-77343000D01*
X87142000Y-77343000D01*
X87142000Y-77597000D01*
X87122000Y-77597000D01*
X87122000Y-79089915D01*
X87344039Y-79211904D01*
X87426819Y-79194367D01*
X87919896Y-78924500D01*
X88267851Y-78491849D01*
X88520302Y-78869668D01*
X88985849Y-79180737D01*
X89535000Y-79289970D01*
X90045000Y-79188525D01*
X90045000Y-81915000D01*
X90102852Y-82205839D01*
X90267599Y-82452401D01*
X91315000Y-83499802D01*
X91315000Y-83520148D01*
X91060302Y-83690332D01*
X90805000Y-84072418D01*
X90549698Y-83690332D01*
X90370373Y-83570511D01*
X90352633Y-83481326D01*
X90352633Y-83481325D01*
X90160790Y-83194210D01*
X90160787Y-83194208D01*
X86350790Y-79384210D01*
X86337006Y-79375000D01*
X86063675Y-79192367D01*
X86005207Y-79180737D01*
X85725000Y-79124999D01*
X85724995Y-79125000D01*
X85013560Y-79125000D01*
X85379896Y-78924500D01*
X85725000Y-78495393D01*
X86070104Y-78924500D01*
X86563181Y-79194367D01*
X86645961Y-79211904D01*
X86868000Y-79089915D01*
X86868000Y-77597000D01*
X84582000Y-77597000D01*
X84582000Y-77617000D01*
X84328000Y-77617000D01*
X84328000Y-77597000D01*
X82042000Y-77597000D01*
X82042000Y-77617000D01*
X81788000Y-77617000D01*
X81788000Y-77597000D01*
X80480000Y-77597000D01*
X80480000Y-77947000D01*
X80484723Y-77963144D01*
X79514580Y-76993000D01*
X80480000Y-76993000D01*
X80480000Y-77343000D01*
X81788000Y-77343000D01*
X81788000Y-75850085D01*
X82042000Y-75850085D01*
X82042000Y-77343000D01*
X84328000Y-77343000D01*
X84328000Y-75850085D01*
X84582000Y-75850085D01*
X84582000Y-77343000D01*
X86868000Y-77343000D01*
X86868000Y-75850085D01*
X86645961Y-75728096D01*
X86563181Y-75745633D01*
X86070104Y-76015500D01*
X85725000Y-76444607D01*
X85379896Y-76015500D01*
X84886819Y-75745633D01*
X84804039Y-75728096D01*
X84582000Y-75850085D01*
X84328000Y-75850085D01*
X84105961Y-75728096D01*
X84023181Y-75745633D01*
X83530104Y-76015500D01*
X83185000Y-76444607D01*
X82839896Y-76015500D01*
X82346819Y-75745633D01*
X82264039Y-75728096D01*
X82042000Y-75850085D01*
X81788000Y-75850085D01*
X81565961Y-75728096D01*
X81483181Y-75745633D01*
X80990104Y-76015500D01*
X80637834Y-76453517D01*
X80480000Y-76993000D01*
X79514580Y-76993000D01*
X78355000Y-75833420D01*
X78355000Y-75415260D01*
X78395684Y-75455944D01*
X78510396Y-75341232D01*
X78590622Y-75592493D01*
X79145847Y-75793890D01*
X79735879Y-75767481D01*
X80158338Y-75592493D01*
X80238565Y-75341230D01*
X79374480Y-74477145D01*
X79360338Y-74491288D01*
X79180733Y-74311683D01*
X79194875Y-74297540D01*
X79554085Y-74297540D01*
X80418170Y-75161625D01*
X80669433Y-75081398D01*
X80870830Y-74526173D01*
X80844421Y-73936141D01*
X80669433Y-73513682D01*
X80418170Y-73433455D01*
X79554085Y-74297540D01*
X79194875Y-74297540D01*
X79180733Y-74283398D01*
X79360338Y-74103793D01*
X79374480Y-74117935D01*
X80238565Y-73253850D01*
X80166305Y-73027540D01*
X80238565Y-72801230D01*
X79374480Y-71937145D01*
X79360338Y-71951288D01*
X79180733Y-71771683D01*
X79194875Y-71757540D01*
X79554085Y-71757540D01*
X80418170Y-72621625D01*
X80669433Y-72541398D01*
X80870830Y-71986173D01*
X80844421Y-71396141D01*
X80669433Y-70973682D01*
X80418170Y-70893455D01*
X79554085Y-71757540D01*
X79194875Y-71757540D01*
X79180733Y-71743398D01*
X79360338Y-71563793D01*
X79374480Y-71577935D01*
X80238565Y-70713850D01*
X80158338Y-70462587D01*
X79603224Y-70261230D01*
X81050395Y-70261230D01*
X81130622Y-70512493D01*
X81685847Y-70713890D01*
X82275879Y-70687481D01*
X82698338Y-70512493D01*
X82778565Y-70261230D01*
X81914480Y-69397145D01*
X81050395Y-70261230D01*
X79603224Y-70261230D01*
X79603113Y-70261190D01*
X79013081Y-70287599D01*
X78590622Y-70462587D01*
X78510396Y-70713848D01*
X78395684Y-70599136D01*
X78355000Y-70639820D01*
X78355000Y-68988907D01*
X80418130Y-68988907D01*
X80444539Y-69578939D01*
X80619527Y-70001398D01*
X80870790Y-70081625D01*
X81734875Y-69217540D01*
X82094085Y-69217540D01*
X82958170Y-70081625D01*
X83209433Y-70001398D01*
X83410830Y-69446173D01*
X83384421Y-68856141D01*
X83209433Y-68433682D01*
X82958170Y-68353455D01*
X82094085Y-69217540D01*
X81734875Y-69217540D01*
X80870790Y-68353455D01*
X80619527Y-68433682D01*
X80418130Y-68988907D01*
X78355000Y-68988907D01*
X78355000Y-67721230D01*
X81050395Y-67721230D01*
X81122655Y-67947540D01*
X81050395Y-68173850D01*
X81914480Y-69037935D01*
X82778565Y-68173850D01*
X82706305Y-67947540D01*
X82778565Y-67721230D01*
X81914480Y-66857145D01*
X81050395Y-67721230D01*
X78355000Y-67721230D01*
X78355000Y-67310005D01*
X78355001Y-67310000D01*
X78287634Y-66971326D01*
X78190796Y-66826398D01*
X78095790Y-66684210D01*
X78095787Y-66684208D01*
X67557460Y-56145880D01*
X67557460Y-53283778D01*
X67930334Y-52911554D01*
X67942209Y-52882956D01*
X67953118Y-52909357D01*
X67953118Y-52909357D01*
G37*
X67953118Y-52909357D02*
X68327460Y-53284353D01*
X68327460Y-55242455D01*
X68327459Y-55242460D01*
X68377188Y-55492460D01*
X68394827Y-55581135D01*
X68527611Y-55779861D01*
X68586670Y-55868250D01*
X78114208Y-65395787D01*
X78114210Y-65395790D01*
X78278642Y-65505659D01*
X78401325Y-65587633D01*
X78740000Y-65655001D01*
X78740005Y-65655000D01*
X80799820Y-65655000D01*
X80756076Y-65698744D01*
X80870788Y-65813456D01*
X80619527Y-65893682D01*
X80418130Y-66448907D01*
X80444539Y-67038939D01*
X80619527Y-67461398D01*
X80870790Y-67541625D01*
X81734875Y-66677540D01*
X81720733Y-66663398D01*
X81900338Y-66483793D01*
X81914480Y-66497935D01*
X81928623Y-66483793D01*
X82108228Y-66663398D01*
X82094085Y-66677540D01*
X82958170Y-67541625D01*
X83209433Y-67461398D01*
X83410830Y-66906173D01*
X83384421Y-66316141D01*
X83317147Y-66153727D01*
X88218594Y-71055173D01*
X88050108Y-71460933D01*
X88049592Y-72051556D01*
X88275138Y-72597417D01*
X88510572Y-72833263D01*
X88449533Y-72844748D01*
X88233409Y-72983820D01*
X88088419Y-73196020D01*
X88037410Y-73447910D01*
X88037410Y-75147170D01*
X88081688Y-75382487D01*
X88220760Y-75598611D01*
X88432960Y-75743601D01*
X88650000Y-75787553D01*
X88650000Y-75983670D01*
X88520302Y-76070332D01*
X88267851Y-76448151D01*
X87919896Y-76015500D01*
X87426819Y-75745633D01*
X87344039Y-75728096D01*
X87122000Y-75850085D01*
X87122000Y-77343000D01*
X87142000Y-77343000D01*
X87142000Y-77597000D01*
X87122000Y-77597000D01*
X87122000Y-79089915D01*
X87344039Y-79211904D01*
X87426819Y-79194367D01*
X87919896Y-78924500D01*
X88267851Y-78491849D01*
X88520302Y-78869668D01*
X88985849Y-79180737D01*
X89535000Y-79289970D01*
X90045000Y-79188525D01*
X90045000Y-81915000D01*
X90102852Y-82205839D01*
X90267599Y-82452401D01*
X91315000Y-83499802D01*
X91315000Y-83520148D01*
X91060302Y-83690332D01*
X90805000Y-84072418D01*
X90549698Y-83690332D01*
X90370373Y-83570511D01*
X90352633Y-83481326D01*
X90352633Y-83481325D01*
X90160790Y-83194210D01*
X90160787Y-83194208D01*
X86350790Y-79384210D01*
X86337006Y-79375000D01*
X86063675Y-79192367D01*
X86005207Y-79180737D01*
X85725000Y-79124999D01*
X85724995Y-79125000D01*
X85013560Y-79125000D01*
X85379896Y-78924500D01*
X85725000Y-78495393D01*
X86070104Y-78924500D01*
X86563181Y-79194367D01*
X86645961Y-79211904D01*
X86868000Y-79089915D01*
X86868000Y-77597000D01*
X84582000Y-77597000D01*
X84582000Y-77617000D01*
X84328000Y-77617000D01*
X84328000Y-77597000D01*
X82042000Y-77597000D01*
X82042000Y-77617000D01*
X81788000Y-77617000D01*
X81788000Y-77597000D01*
X80480000Y-77597000D01*
X80480000Y-77947000D01*
X80484723Y-77963144D01*
X79514580Y-76993000D01*
X80480000Y-76993000D01*
X80480000Y-77343000D01*
X81788000Y-77343000D01*
X81788000Y-75850085D01*
X82042000Y-75850085D01*
X82042000Y-77343000D01*
X84328000Y-77343000D01*
X84328000Y-75850085D01*
X84582000Y-75850085D01*
X84582000Y-77343000D01*
X86868000Y-77343000D01*
X86868000Y-75850085D01*
X86645961Y-75728096D01*
X86563181Y-75745633D01*
X86070104Y-76015500D01*
X85725000Y-76444607D01*
X85379896Y-76015500D01*
X84886819Y-75745633D01*
X84804039Y-75728096D01*
X84582000Y-75850085D01*
X84328000Y-75850085D01*
X84105961Y-75728096D01*
X84023181Y-75745633D01*
X83530104Y-76015500D01*
X83185000Y-76444607D01*
X82839896Y-76015500D01*
X82346819Y-75745633D01*
X82264039Y-75728096D01*
X82042000Y-75850085D01*
X81788000Y-75850085D01*
X81565961Y-75728096D01*
X81483181Y-75745633D01*
X80990104Y-76015500D01*
X80637834Y-76453517D01*
X80480000Y-76993000D01*
X79514580Y-76993000D01*
X78355000Y-75833420D01*
X78355000Y-75415260D01*
X78395684Y-75455944D01*
X78510396Y-75341232D01*
X78590622Y-75592493D01*
X79145847Y-75793890D01*
X79735879Y-75767481D01*
X80158338Y-75592493D01*
X80238565Y-75341230D01*
X79374480Y-74477145D01*
X79360338Y-74491288D01*
X79180733Y-74311683D01*
X79194875Y-74297540D01*
X79554085Y-74297540D01*
X80418170Y-75161625D01*
X80669433Y-75081398D01*
X80870830Y-74526173D01*
X80844421Y-73936141D01*
X80669433Y-73513682D01*
X80418170Y-73433455D01*
X79554085Y-74297540D01*
X79194875Y-74297540D01*
X79180733Y-74283398D01*
X79360338Y-74103793D01*
X79374480Y-74117935D01*
X80238565Y-73253850D01*
X80166305Y-73027540D01*
X80238565Y-72801230D01*
X79374480Y-71937145D01*
X79360338Y-71951288D01*
X79180733Y-71771683D01*
X79194875Y-71757540D01*
X79554085Y-71757540D01*
X80418170Y-72621625D01*
X80669433Y-72541398D01*
X80870830Y-71986173D01*
X80844421Y-71396141D01*
X80669433Y-70973682D01*
X80418170Y-70893455D01*
X79554085Y-71757540D01*
X79194875Y-71757540D01*
X79180733Y-71743398D01*
X79360338Y-71563793D01*
X79374480Y-71577935D01*
X80238565Y-70713850D01*
X80158338Y-70462587D01*
X79603224Y-70261230D01*
X81050395Y-70261230D01*
X81130622Y-70512493D01*
X81685847Y-70713890D01*
X82275879Y-70687481D01*
X82698338Y-70512493D01*
X82778565Y-70261230D01*
X81914480Y-69397145D01*
X81050395Y-70261230D01*
X79603224Y-70261230D01*
X79603113Y-70261190D01*
X79013081Y-70287599D01*
X78590622Y-70462587D01*
X78510396Y-70713848D01*
X78395684Y-70599136D01*
X78355000Y-70639820D01*
X78355000Y-68988907D01*
X80418130Y-68988907D01*
X80444539Y-69578939D01*
X80619527Y-70001398D01*
X80870790Y-70081625D01*
X81734875Y-69217540D01*
X82094085Y-69217540D01*
X82958170Y-70081625D01*
X83209433Y-70001398D01*
X83410830Y-69446173D01*
X83384421Y-68856141D01*
X83209433Y-68433682D01*
X82958170Y-68353455D01*
X82094085Y-69217540D01*
X81734875Y-69217540D01*
X80870790Y-68353455D01*
X80619527Y-68433682D01*
X80418130Y-68988907D01*
X78355000Y-68988907D01*
X78355000Y-67721230D01*
X81050395Y-67721230D01*
X81122655Y-67947540D01*
X81050395Y-68173850D01*
X81914480Y-69037935D01*
X82778565Y-68173850D01*
X82706305Y-67947540D01*
X82778565Y-67721230D01*
X81914480Y-66857145D01*
X81050395Y-67721230D01*
X78355000Y-67721230D01*
X78355000Y-67310005D01*
X78355001Y-67310000D01*
X78287634Y-66971326D01*
X78190796Y-66826398D01*
X78095790Y-66684210D01*
X78095787Y-66684208D01*
X67557460Y-56145880D01*
X67557460Y-53283778D01*
X67930334Y-52911554D01*
X67942209Y-52882956D01*
X67953118Y-52909357D01*
G36*
X47500000Y-57785000D02*
X47500000Y-58860969D01*
X47398170Y-58828455D01*
X46534085Y-59692540D01*
X47398170Y-60556625D01*
X47500000Y-60524111D01*
X47500000Y-61400969D01*
X47398170Y-61368455D01*
X46534085Y-62232540D01*
X47398170Y-63096625D01*
X47500000Y-63064111D01*
X47500000Y-64455198D01*
X46452599Y-65502599D01*
X46287852Y-65749161D01*
X46230000Y-66040000D01*
X46230000Y-70555198D01*
X42855715Y-67180913D01*
X42950396Y-67086232D01*
X43030622Y-67337493D01*
X43585847Y-67538890D01*
X44175879Y-67512481D01*
X44598338Y-67337493D01*
X44678565Y-67086230D01*
X43814480Y-66222145D01*
X43800338Y-66236288D01*
X43620733Y-66056683D01*
X43634875Y-66042540D01*
X43620733Y-66028398D01*
X43800338Y-65848793D01*
X43814480Y-65862935D01*
X43828623Y-65848793D01*
X44008228Y-66028398D01*
X43994085Y-66042540D01*
X44858170Y-66906625D01*
X45109433Y-66826398D01*
X45310830Y-66271173D01*
X45284421Y-65681141D01*
X45109433Y-65258682D01*
X44898036Y-65191184D01*
X44972884Y-65116336D01*
X44946588Y-65090040D01*
X44972884Y-65063744D01*
X44898036Y-64988896D01*
X45109433Y-64921398D01*
X45310830Y-64366173D01*
X45284421Y-63776141D01*
X45109433Y-63353682D01*
X44866862Y-63276230D01*
X45490395Y-63276230D01*
X45570622Y-63527493D01*
X46125847Y-63728890D01*
X46715879Y-63702481D01*
X47138338Y-63527493D01*
X47218565Y-63276230D01*
X46354480Y-62412145D01*
X45490395Y-63276230D01*
X44866862Y-63276230D01*
X44858170Y-63273455D01*
X43994085Y-64137540D01*
X44008228Y-64151683D01*
X43828623Y-64331288D01*
X43814480Y-64317145D01*
X43800338Y-64331288D01*
X43620733Y-64151683D01*
X43634875Y-64137540D01*
X42770790Y-63273455D01*
X42670000Y-63305637D01*
X42670000Y-63093850D01*
X42950395Y-63093850D01*
X43814480Y-63957935D01*
X44678565Y-63093850D01*
X44598338Y-62842587D01*
X44043113Y-62641190D01*
X43453081Y-62667599D01*
X43030622Y-62842587D01*
X42950395Y-63093850D01*
X42670000Y-63093850D01*
X42670000Y-62544802D01*
X43210895Y-62003907D01*
X44858130Y-62003907D01*
X44884539Y-62593939D01*
X45059527Y-63016398D01*
X45310790Y-63096625D01*
X46174875Y-62232540D01*
X45310790Y-61368455D01*
X45059527Y-61448682D01*
X44858130Y-62003907D01*
X43210895Y-62003907D01*
X44478572Y-60736230D01*
X45490395Y-60736230D01*
X45562655Y-60962540D01*
X45490395Y-61188850D01*
X46354480Y-62052935D01*
X47218565Y-61188850D01*
X47146305Y-60962540D01*
X47218565Y-60736230D01*
X46354480Y-59872145D01*
X45490395Y-60736230D01*
X44478572Y-60736230D01*
X44965472Y-60249330D01*
X45059527Y-60476398D01*
X45310790Y-60556625D01*
X46174875Y-59692540D01*
X46160733Y-59678398D01*
X46340338Y-59498793D01*
X46354480Y-59512935D01*
X47218565Y-58648850D01*
X47138338Y-58397587D01*
X46902691Y-58312111D01*
X47517431Y-57697371D01*
X47500000Y-57785000D01*
X47500000Y-57785000D01*
G37*
X47500000Y-57785000D02*
X47500000Y-58860969D01*
X47398170Y-58828455D01*
X46534085Y-59692540D01*
X47398170Y-60556625D01*
X47500000Y-60524111D01*
X47500000Y-61400969D01*
X47398170Y-61368455D01*
X46534085Y-62232540D01*
X47398170Y-63096625D01*
X47500000Y-63064111D01*
X47500000Y-64455198D01*
X46452599Y-65502599D01*
X46287852Y-65749161D01*
X46230000Y-66040000D01*
X46230000Y-70555198D01*
X42855715Y-67180913D01*
X42950396Y-67086232D01*
X43030622Y-67337493D01*
X43585847Y-67538890D01*
X44175879Y-67512481D01*
X44598338Y-67337493D01*
X44678565Y-67086230D01*
X43814480Y-66222145D01*
X43800338Y-66236288D01*
X43620733Y-66056683D01*
X43634875Y-66042540D01*
X43620733Y-66028398D01*
X43800338Y-65848793D01*
X43814480Y-65862935D01*
X43828623Y-65848793D01*
X44008228Y-66028398D01*
X43994085Y-66042540D01*
X44858170Y-66906625D01*
X45109433Y-66826398D01*
X45310830Y-66271173D01*
X45284421Y-65681141D01*
X45109433Y-65258682D01*
X44898036Y-65191184D01*
X44972884Y-65116336D01*
X44946588Y-65090040D01*
X44972884Y-65063744D01*
X44898036Y-64988896D01*
X45109433Y-64921398D01*
X45310830Y-64366173D01*
X45284421Y-63776141D01*
X45109433Y-63353682D01*
X44866862Y-63276230D01*
X45490395Y-63276230D01*
X45570622Y-63527493D01*
X46125847Y-63728890D01*
X46715879Y-63702481D01*
X47138338Y-63527493D01*
X47218565Y-63276230D01*
X46354480Y-62412145D01*
X45490395Y-63276230D01*
X44866862Y-63276230D01*
X44858170Y-63273455D01*
X43994085Y-64137540D01*
X44008228Y-64151683D01*
X43828623Y-64331288D01*
X43814480Y-64317145D01*
X43800338Y-64331288D01*
X43620733Y-64151683D01*
X43634875Y-64137540D01*
X42770790Y-63273455D01*
X42670000Y-63305637D01*
X42670000Y-63093850D01*
X42950395Y-63093850D01*
X43814480Y-63957935D01*
X44678565Y-63093850D01*
X44598338Y-62842587D01*
X44043113Y-62641190D01*
X43453081Y-62667599D01*
X43030622Y-62842587D01*
X42950395Y-63093850D01*
X42670000Y-63093850D01*
X42670000Y-62544802D01*
X43210895Y-62003907D01*
X44858130Y-62003907D01*
X44884539Y-62593939D01*
X45059527Y-63016398D01*
X45310790Y-63096625D01*
X46174875Y-62232540D01*
X45310790Y-61368455D01*
X45059527Y-61448682D01*
X44858130Y-62003907D01*
X43210895Y-62003907D01*
X44478572Y-60736230D01*
X45490395Y-60736230D01*
X45562655Y-60962540D01*
X45490395Y-61188850D01*
X46354480Y-62052935D01*
X47218565Y-61188850D01*
X47146305Y-60962540D01*
X47218565Y-60736230D01*
X46354480Y-59872145D01*
X45490395Y-60736230D01*
X44478572Y-60736230D01*
X44965472Y-60249330D01*
X45059527Y-60476398D01*
X45310790Y-60556625D01*
X46174875Y-59692540D01*
X46160733Y-59678398D01*
X46340338Y-59498793D01*
X46354480Y-59512935D01*
X47218565Y-58648850D01*
X47138338Y-58397587D01*
X46902691Y-58312111D01*
X47517431Y-57697371D01*
X47500000Y-57785000D01*
G36*
X73033118Y-52909357D02*
X73407460Y-53284353D01*
X73407460Y-54607455D01*
X73407459Y-54607460D01*
X73463650Y-54889944D01*
X73474827Y-54946135D01*
X73659545Y-55222587D01*
X73666670Y-55233250D01*
X78749210Y-60315790D01*
X79036325Y-60507633D01*
X79049894Y-60510332D01*
X79375000Y-60575001D01*
X79375005Y-60575000D01*
X85879820Y-60575000D01*
X85836076Y-60618744D01*
X85950788Y-60733456D01*
X85699527Y-60813682D01*
X85498130Y-61368907D01*
X85524539Y-61958939D01*
X85699527Y-62381398D01*
X85950790Y-62461625D01*
X86814875Y-61597540D01*
X86800733Y-61583398D01*
X86980338Y-61403793D01*
X86994480Y-61417935D01*
X87008623Y-61403793D01*
X87188228Y-61583398D01*
X87174085Y-61597540D01*
X88038170Y-62461625D01*
X88289433Y-62381398D01*
X88490830Y-61826173D01*
X88489717Y-61801296D01*
X91189480Y-64501059D01*
X91189480Y-65463242D01*
X90816606Y-65835466D01*
X90590108Y-66380933D01*
X90589592Y-66971556D01*
X90815138Y-67517417D01*
X91050572Y-67753263D01*
X90989533Y-67764748D01*
X90773409Y-67903820D01*
X90628419Y-68116020D01*
X90577410Y-68367910D01*
X90577410Y-69005831D01*
X87186636Y-65615056D01*
X87355879Y-65607481D01*
X87778338Y-65432493D01*
X87858565Y-65181230D01*
X86994480Y-64317145D01*
X86980338Y-64331288D01*
X86800733Y-64151683D01*
X86814875Y-64137540D01*
X87174085Y-64137540D01*
X88038170Y-65001625D01*
X88289433Y-64921398D01*
X88490830Y-64366173D01*
X88464421Y-63776141D01*
X88289433Y-63353682D01*
X88038170Y-63273455D01*
X87174085Y-64137540D01*
X86814875Y-64137540D01*
X85950790Y-63273455D01*
X85699527Y-63353682D01*
X85498130Y-63908907D01*
X85498957Y-63927377D01*
X84445790Y-62874210D01*
X84417660Y-62855414D01*
X84158675Y-62682367D01*
X84084432Y-62667599D01*
X83951870Y-62641230D01*
X86130395Y-62641230D01*
X86202655Y-62867540D01*
X86130395Y-63093850D01*
X86994480Y-63957935D01*
X87858565Y-63093850D01*
X87786305Y-62867540D01*
X87858565Y-62641230D01*
X86994480Y-61777145D01*
X86130395Y-62641230D01*
X83951870Y-62641230D01*
X83820000Y-62614999D01*
X83819995Y-62615000D01*
X80376579Y-62615000D01*
X72637460Y-54875880D01*
X72637460Y-53283778D01*
X73010334Y-52911554D01*
X73022209Y-52882956D01*
X73033118Y-52909357D01*
X73033118Y-52909357D01*
G37*
X73033118Y-52909357D02*
X73407460Y-53284353D01*
X73407460Y-54607455D01*
X73407459Y-54607460D01*
X73463650Y-54889944D01*
X73474827Y-54946135D01*
X73659545Y-55222587D01*
X73666670Y-55233250D01*
X78749210Y-60315790D01*
X79036325Y-60507633D01*
X79049894Y-60510332D01*
X79375000Y-60575001D01*
X79375005Y-60575000D01*
X85879820Y-60575000D01*
X85836076Y-60618744D01*
X85950788Y-60733456D01*
X85699527Y-60813682D01*
X85498130Y-61368907D01*
X85524539Y-61958939D01*
X85699527Y-62381398D01*
X85950790Y-62461625D01*
X86814875Y-61597540D01*
X86800733Y-61583398D01*
X86980338Y-61403793D01*
X86994480Y-61417935D01*
X87008623Y-61403793D01*
X87188228Y-61583398D01*
X87174085Y-61597540D01*
X88038170Y-62461625D01*
X88289433Y-62381398D01*
X88490830Y-61826173D01*
X88489717Y-61801296D01*
X91189480Y-64501059D01*
X91189480Y-65463242D01*
X90816606Y-65835466D01*
X90590108Y-66380933D01*
X90589592Y-66971556D01*
X90815138Y-67517417D01*
X91050572Y-67753263D01*
X90989533Y-67764748D01*
X90773409Y-67903820D01*
X90628419Y-68116020D01*
X90577410Y-68367910D01*
X90577410Y-69005831D01*
X87186636Y-65615056D01*
X87355879Y-65607481D01*
X87778338Y-65432493D01*
X87858565Y-65181230D01*
X86994480Y-64317145D01*
X86980338Y-64331288D01*
X86800733Y-64151683D01*
X86814875Y-64137540D01*
X87174085Y-64137540D01*
X88038170Y-65001625D01*
X88289433Y-64921398D01*
X88490830Y-64366173D01*
X88464421Y-63776141D01*
X88289433Y-63353682D01*
X88038170Y-63273455D01*
X87174085Y-64137540D01*
X86814875Y-64137540D01*
X85950790Y-63273455D01*
X85699527Y-63353682D01*
X85498130Y-63908907D01*
X85498957Y-63927377D01*
X84445790Y-62874210D01*
X84417660Y-62855414D01*
X84158675Y-62682367D01*
X84084432Y-62667599D01*
X83951870Y-62641230D01*
X86130395Y-62641230D01*
X86202655Y-62867540D01*
X86130395Y-63093850D01*
X86994480Y-63957935D01*
X87858565Y-63093850D01*
X87786305Y-62867540D01*
X87858565Y-62641230D01*
X86994480Y-61777145D01*
X86130395Y-62641230D01*
X83951870Y-62641230D01*
X83820000Y-62614999D01*
X83819995Y-62615000D01*
X80376579Y-62615000D01*
X72637460Y-54875880D01*
X72637460Y-53283778D01*
X73010334Y-52911554D01*
X73022209Y-52882956D01*
X73033118Y-52909357D01*
G36*
X75573118Y-52909357D02*
X75990386Y-53327354D01*
X76077658Y-53363593D01*
X76130312Y-53628299D01*
X76295059Y-53874861D01*
X80107599Y-57687401D01*
X80354161Y-57852148D01*
X80645000Y-57910000D01*
X86360000Y-57910000D01*
X86650839Y-57852148D01*
X86897401Y-57687401D01*
X87023572Y-57561230D01*
X88670395Y-57561230D01*
X88742655Y-57787540D01*
X88670395Y-58013850D01*
X89534480Y-58877935D01*
X90398565Y-58013850D01*
X90326305Y-57787540D01*
X90398565Y-57561230D01*
X89534480Y-56697145D01*
X88670395Y-57561230D01*
X87023572Y-57561230D01*
X88049173Y-56535629D01*
X88064539Y-56878939D01*
X88239527Y-57301398D01*
X88490790Y-57381625D01*
X89354875Y-56517540D01*
X89340733Y-56503398D01*
X89520338Y-56323793D01*
X89534480Y-56337935D01*
X89548623Y-56323793D01*
X89728228Y-56503398D01*
X89714085Y-56517540D01*
X90578170Y-57381625D01*
X90829433Y-57301398D01*
X90915186Y-57064988D01*
X92585000Y-58734802D01*
X92585000Y-63393421D01*
X89726636Y-60535056D01*
X89895879Y-60527481D01*
X90318338Y-60352493D01*
X90398565Y-60101230D01*
X89534480Y-59237145D01*
X89520338Y-59251288D01*
X89340733Y-59071683D01*
X89354875Y-59057540D01*
X89714085Y-59057540D01*
X90578170Y-59921625D01*
X90829433Y-59841398D01*
X91030830Y-59286173D01*
X91004421Y-58696141D01*
X90829433Y-58273682D01*
X90578170Y-58193455D01*
X89714085Y-59057540D01*
X89354875Y-59057540D01*
X88490790Y-58193455D01*
X88239527Y-58273682D01*
X88038130Y-58828907D01*
X88042276Y-58921546D01*
X87968675Y-58872367D01*
X87912484Y-58861190D01*
X87630000Y-58804999D01*
X87629995Y-58805000D01*
X79741580Y-58805000D01*
X75177460Y-54240880D01*
X75177460Y-53283778D01*
X75550334Y-52911554D01*
X75562209Y-52882956D01*
X75573118Y-52909357D01*
X75573118Y-52909357D01*
G37*
X75573118Y-52909357D02*
X75990386Y-53327354D01*
X76077658Y-53363593D01*
X76130312Y-53628299D01*
X76295059Y-53874861D01*
X80107599Y-57687401D01*
X80354161Y-57852148D01*
X80645000Y-57910000D01*
X86360000Y-57910000D01*
X86650839Y-57852148D01*
X86897401Y-57687401D01*
X87023572Y-57561230D01*
X88670395Y-57561230D01*
X88742655Y-57787540D01*
X88670395Y-58013850D01*
X89534480Y-58877935D01*
X90398565Y-58013850D01*
X90326305Y-57787540D01*
X90398565Y-57561230D01*
X89534480Y-56697145D01*
X88670395Y-57561230D01*
X87023572Y-57561230D01*
X88049173Y-56535629D01*
X88064539Y-56878939D01*
X88239527Y-57301398D01*
X88490790Y-57381625D01*
X89354875Y-56517540D01*
X89340733Y-56503398D01*
X89520338Y-56323793D01*
X89534480Y-56337935D01*
X89548623Y-56323793D01*
X89728228Y-56503398D01*
X89714085Y-56517540D01*
X90578170Y-57381625D01*
X90829433Y-57301398D01*
X90915186Y-57064988D01*
X92585000Y-58734802D01*
X92585000Y-63393421D01*
X89726636Y-60535056D01*
X89895879Y-60527481D01*
X90318338Y-60352493D01*
X90398565Y-60101230D01*
X89534480Y-59237145D01*
X89520338Y-59251288D01*
X89340733Y-59071683D01*
X89354875Y-59057540D01*
X89714085Y-59057540D01*
X90578170Y-59921625D01*
X90829433Y-59841398D01*
X91030830Y-59286173D01*
X91004421Y-58696141D01*
X90829433Y-58273682D01*
X90578170Y-58193455D01*
X89714085Y-59057540D01*
X89354875Y-59057540D01*
X88490790Y-58193455D01*
X88239527Y-58273682D01*
X88038130Y-58828907D01*
X88042276Y-58921546D01*
X87968675Y-58872367D01*
X87912484Y-58861190D01*
X87630000Y-58804999D01*
X87629995Y-58805000D01*
X79741580Y-58805000D01*
X75177460Y-54240880D01*
X75177460Y-53283778D01*
X75550334Y-52911554D01*
X75562209Y-52882956D01*
X75573118Y-52909357D01*
M02*
