G04 #@! TF.FileFunction,Copper,L1,Top,Signal*
%FSLAX46Y46*%
G04 Gerber Fmt 4.6, Leading zero omitted, Abs format (unit mm)*
G04 Created by KiCad (PCBNEW 4.0.2+e4-6225~38~ubuntu15.10.1-stable) date mar. 20 sept. 2016 08:20:47 CEST*
%MOMM*%
G01*
G04 APERTURE LIST*
%ADD10C,0.100000*%
%ADD11R,1.727200X1.727200*%
%ADD12O,1.727200X1.727200*%
%ADD13R,2.000000X2.000000*%
%ADD14C,2.000000*%
%ADD15C,1.778000*%
%ADD16R,1.998980X1.998980*%
%ADD17R,1.574800X2.286000*%
%ADD18O,1.574800X2.286000*%
%ADD19R,2.780000X1.550000*%
%ADD20R,6.730000X6.740000*%
%ADD21R,1.727200X2.032000*%
%ADD22O,1.727200X2.032000*%
%ADD23C,1.000000*%
%ADD24C,0.250000*%
%ADD25C,0.500000*%
%ADD26C,0.254000*%
G04 APERTURE END LIST*
D10*
D11*
X92710000Y-26035000D03*
D12*
X92710000Y-23495000D03*
X95250000Y-26035000D03*
X95250000Y-23495000D03*
X97790000Y-26035000D03*
X97790000Y-23495000D03*
X100330000Y-26035000D03*
X100330000Y-23495000D03*
D13*
X30480000Y-82550000D03*
D14*
X33020000Y-82550000D03*
D15*
X34290000Y-54610000D03*
X24130000Y-54610000D03*
X34290000Y-77470000D03*
X24130000Y-77470000D03*
X64770000Y-43180000D03*
X64770000Y-53340000D03*
X60960000Y-43180000D03*
X60960000Y-53340000D03*
D16*
X41910000Y-84455000D03*
X41910000Y-80645000D03*
X36830000Y-84455000D03*
X36830000Y-80645000D03*
X63500000Y-84455000D03*
X63500000Y-80645000D03*
X58420000Y-84455000D03*
X58420000Y-80645000D03*
X54610000Y-84455000D03*
X54610000Y-80645000D03*
X49530000Y-84455000D03*
X49530000Y-80645000D03*
D17*
X24130000Y-73660000D03*
D18*
X26670000Y-73660000D03*
X29210000Y-73660000D03*
X31750000Y-73660000D03*
X34290000Y-73660000D03*
X36830000Y-73660000D03*
X39370000Y-73660000D03*
X41910000Y-73660000D03*
X44450000Y-73660000D03*
X46990000Y-73660000D03*
X49530000Y-73660000D03*
X52070000Y-73660000D03*
X54610000Y-73660000D03*
X57150000Y-73660000D03*
X59690000Y-73660000D03*
X59690000Y-58420000D03*
X57150000Y-58420000D03*
X54610000Y-58420000D03*
X52070000Y-58420000D03*
X49530000Y-58420000D03*
X46990000Y-58420000D03*
X44450000Y-58420000D03*
X41910000Y-58420000D03*
X39370000Y-58420000D03*
X36830000Y-58420000D03*
X34290000Y-58420000D03*
X31750000Y-58420000D03*
X29210000Y-58420000D03*
X26670000Y-58420000D03*
X24130000Y-58420000D03*
D19*
X33510000Y-44810000D03*
D20*
X26875000Y-46990000D03*
D19*
X33510000Y-49170000D03*
D11*
X92710000Y-51435000D03*
D12*
X92710000Y-48895000D03*
X95250000Y-51435000D03*
X95250000Y-48895000D03*
X97790000Y-51435000D03*
X97790000Y-48895000D03*
X100330000Y-51435000D03*
X100330000Y-48895000D03*
D11*
X92710000Y-43180000D03*
D12*
X92710000Y-40640000D03*
X95250000Y-43180000D03*
X95250000Y-40640000D03*
X97790000Y-43180000D03*
X97790000Y-40640000D03*
X100330000Y-43180000D03*
X100330000Y-40640000D03*
D11*
X92710000Y-34925000D03*
D12*
X92710000Y-32385000D03*
X95250000Y-34925000D03*
X95250000Y-32385000D03*
X97790000Y-34925000D03*
X97790000Y-32385000D03*
X100330000Y-34925000D03*
X100330000Y-32385000D03*
D21*
X57150000Y-53340000D03*
D22*
X54610000Y-53340000D03*
X52070000Y-53340000D03*
X49530000Y-53340000D03*
X46990000Y-53340000D03*
D21*
X58420000Y-22860000D03*
D22*
X55880000Y-22860000D03*
X53340000Y-22860000D03*
X50800000Y-22860000D03*
X48260000Y-22860000D03*
X45720000Y-22860000D03*
X43180000Y-22860000D03*
X40640000Y-22860000D03*
X38100000Y-22860000D03*
D11*
X31750000Y-34290000D03*
D12*
X31750000Y-31750000D03*
X34290000Y-34290000D03*
X34290000Y-31750000D03*
X36830000Y-34290000D03*
X36830000Y-31750000D03*
X39370000Y-34290000D03*
X39370000Y-31750000D03*
X41910000Y-34290000D03*
X41910000Y-31750000D03*
X44450000Y-34290000D03*
X44450000Y-31750000D03*
X46990000Y-34290000D03*
X46990000Y-31750000D03*
X49530000Y-34290000D03*
X49530000Y-31750000D03*
X52070000Y-34290000D03*
X52070000Y-31750000D03*
X54610000Y-34290000D03*
X54610000Y-31750000D03*
X57150000Y-34290000D03*
X57150000Y-31750000D03*
X59690000Y-34290000D03*
X59690000Y-31750000D03*
X62230000Y-34290000D03*
X62230000Y-31750000D03*
X64770000Y-34290000D03*
X64770000Y-31750000D03*
X67310000Y-34290000D03*
X67310000Y-31750000D03*
X69850000Y-34290000D03*
X69850000Y-31750000D03*
X72390000Y-34290000D03*
X72390000Y-31750000D03*
X74930000Y-34290000D03*
X74930000Y-31750000D03*
X77470000Y-34290000D03*
X77470000Y-31750000D03*
X80010000Y-34290000D03*
X80010000Y-31750000D03*
D23*
X33020000Y-82550000D02*
X33020000Y-78740000D01*
X33020000Y-78740000D02*
X34290000Y-77470000D01*
D24*
X34290000Y-77470000D02*
X33020000Y-78740000D01*
D23*
X33020000Y-86995000D02*
X31115000Y-86995000D01*
X31115000Y-86995000D02*
X21590000Y-77470000D01*
X26875000Y-46990000D02*
X51435000Y-46990000D01*
X54610000Y-50165000D02*
X54610000Y-53340000D01*
X51435000Y-46990000D02*
X54610000Y-50165000D01*
X26875000Y-46990000D02*
X24765000Y-46990000D01*
X24765000Y-46990000D02*
X21590000Y-50165000D01*
X21590000Y-50165000D02*
X21590000Y-77470000D01*
X33020000Y-86995000D02*
X51435000Y-86995000D01*
X51435000Y-86995000D02*
X52070000Y-86360000D01*
X52070000Y-86360000D02*
X52070000Y-73660000D01*
D25*
X83185000Y-60960000D02*
X86360000Y-60960000D01*
X86360000Y-60960000D02*
X95250000Y-52070000D01*
X95250000Y-52070000D02*
X95250000Y-51435000D01*
D24*
X95250000Y-51435000D02*
X95250000Y-52070000D01*
X83185000Y-60960000D02*
X82550000Y-60960000D01*
D25*
X35560000Y-60960000D02*
X82550000Y-60960000D01*
X82550000Y-60960000D02*
X83820000Y-60960000D01*
D24*
X83820000Y-60960000D02*
X35560000Y-60960000D01*
D25*
X34290000Y-59690000D02*
X35560000Y-60960000D01*
D24*
X35560000Y-60960000D02*
X34290000Y-59690000D01*
D25*
X34290000Y-58420000D02*
X34290000Y-59690000D01*
D24*
X100330000Y-48895000D02*
X100965000Y-48895000D01*
X100965000Y-48895000D02*
X102235000Y-50165000D01*
X102235000Y-50165000D02*
X102235000Y-54610000D01*
X102235000Y-54610000D02*
X92075000Y-64770000D01*
X92075000Y-64770000D02*
X38735000Y-64770000D01*
X38735000Y-64770000D02*
X31750000Y-71755000D01*
X31750000Y-71755000D02*
X31750000Y-73660000D01*
D25*
X85725000Y-62230000D02*
X88900000Y-62230000D01*
X88900000Y-62230000D02*
X97790000Y-53340000D01*
X97790000Y-53340000D02*
X97790000Y-51435000D01*
D24*
X86360000Y-62230000D02*
X88900000Y-62230000D01*
X97790000Y-53340000D02*
X97790000Y-51435000D01*
D25*
X86360000Y-62230000D02*
X85725000Y-62230000D01*
X85725000Y-62230000D02*
X33020000Y-62230000D01*
X33020000Y-62230000D02*
X31750000Y-60960000D01*
X31750000Y-60960000D02*
X31750000Y-58420000D01*
D24*
X86360000Y-62230000D02*
X83820000Y-62230000D01*
X31750000Y-58420000D02*
X31750000Y-60960000D01*
X33020000Y-62230000D02*
X83820000Y-62230000D01*
X83820000Y-62230000D02*
X86360000Y-62230000D01*
X31750000Y-60960000D02*
X33020000Y-62230000D01*
X34290000Y-73660000D02*
X34290000Y-70485000D01*
X97790000Y-47625000D02*
X97790000Y-48895000D01*
X98425000Y-46990000D02*
X97790000Y-47625000D01*
X101600000Y-46990000D02*
X98425000Y-46990000D01*
X102870000Y-48260000D02*
X101600000Y-46990000D01*
X102870000Y-55245000D02*
X102870000Y-48260000D01*
X92710000Y-65405000D02*
X102870000Y-55245000D01*
X39370000Y-65405000D02*
X92710000Y-65405000D01*
X34290000Y-70485000D02*
X39370000Y-65405000D01*
D25*
X87630000Y-63500000D02*
X91440000Y-63500000D01*
X91440000Y-63500000D02*
X100330000Y-54610000D01*
X100330000Y-54610000D02*
X100330000Y-51435000D01*
D24*
X100330000Y-54610000D02*
X100330000Y-51435000D01*
D25*
X29210000Y-58420000D02*
X29210000Y-60960000D01*
X29210000Y-60960000D02*
X31750000Y-63500000D01*
X31750000Y-63500000D02*
X88265000Y-63500000D01*
D24*
X87630000Y-63500000D02*
X88265000Y-63500000D01*
X31750000Y-63500000D02*
X29210000Y-60960000D01*
X87630000Y-63500000D02*
X31750000Y-63500000D01*
X100330000Y-40640000D02*
X102870000Y-40640000D01*
X36830000Y-69850000D02*
X36830000Y-73660000D01*
X40640000Y-66040000D02*
X36830000Y-69850000D01*
X93345000Y-66040000D02*
X40640000Y-66040000D01*
X103505000Y-55880000D02*
X93345000Y-66040000D01*
X103505000Y-41275000D02*
X103505000Y-55880000D01*
X102870000Y-40640000D02*
X103505000Y-41275000D01*
X39370000Y-73660000D02*
X39370000Y-68580000D01*
X97790000Y-39370000D02*
X97790000Y-40640000D01*
X98425000Y-38735000D02*
X97790000Y-39370000D01*
X102870000Y-38735000D02*
X98425000Y-38735000D01*
X104140000Y-40005000D02*
X102870000Y-38735000D01*
X104140000Y-56515000D02*
X104140000Y-40005000D01*
X93980000Y-66675000D02*
X104140000Y-56515000D01*
X41275000Y-66675000D02*
X93980000Y-66675000D01*
X39370000Y-68580000D02*
X41275000Y-66675000D01*
X100330000Y-32385000D02*
X101600000Y-32385000D01*
X105410000Y-36195000D02*
X105410000Y-38100000D01*
X101600000Y-32385000D02*
X105410000Y-36195000D01*
X41910000Y-71755000D02*
X41910000Y-73660000D01*
X43815000Y-69850000D02*
X41910000Y-71755000D01*
X93345000Y-69850000D02*
X43815000Y-69850000D01*
X105410000Y-57785000D02*
X93345000Y-69850000D01*
X105410000Y-38100000D02*
X105410000Y-57785000D01*
X97790000Y-32385000D02*
X99695000Y-30480000D01*
X100965000Y-30480000D02*
X106680000Y-36195000D01*
X99695000Y-30480000D02*
X100965000Y-30480000D01*
X44450000Y-73660000D02*
X44450000Y-73025000D01*
X44450000Y-73025000D02*
X46990000Y-70485000D01*
X106680000Y-58420000D02*
X106680000Y-36195000D01*
X94615000Y-70485000D02*
X106680000Y-58420000D01*
X46990000Y-70485000D02*
X94615000Y-70485000D01*
X100330000Y-23495000D02*
X101600000Y-23495000D01*
X107315000Y-29210000D02*
X107315000Y-31115000D01*
X101600000Y-23495000D02*
X107315000Y-29210000D01*
X46990000Y-71755000D02*
X46990000Y-73660000D01*
X47625000Y-71120000D02*
X46990000Y-71755000D01*
X95250000Y-71120000D02*
X47625000Y-71120000D01*
X107315000Y-59055000D02*
X95250000Y-71120000D01*
X107315000Y-31115000D02*
X107315000Y-59055000D01*
X97790000Y-23495000D02*
X97790000Y-22225000D01*
X108585000Y-28575000D02*
X108585000Y-29845000D01*
X101600000Y-21590000D02*
X108585000Y-28575000D01*
X98425000Y-21590000D02*
X101600000Y-21590000D01*
X97790000Y-22225000D02*
X98425000Y-21590000D01*
X49530000Y-73660000D02*
X49530000Y-72390000D01*
X49530000Y-72390000D02*
X50165000Y-71755000D01*
X50165000Y-71755000D02*
X95885000Y-71755000D01*
X95885000Y-71755000D02*
X108585000Y-59055000D01*
X108585000Y-59055000D02*
X108585000Y-29845000D01*
D23*
X29210000Y-32385000D02*
X29845000Y-31750000D01*
X29845000Y-31750000D02*
X31750000Y-31750000D01*
X29210000Y-38735000D02*
X29210000Y-32385000D01*
X33510000Y-44810000D02*
X33510000Y-43035000D01*
X33510000Y-43035000D02*
X29210000Y-38735000D01*
X31750000Y-31750000D02*
X31750000Y-27305000D01*
X31750000Y-27305000D02*
X36195000Y-22860000D01*
X36195000Y-22860000D02*
X38100000Y-22860000D01*
D25*
X46355000Y-27305000D02*
X53975000Y-27305000D01*
X55880000Y-25400000D02*
X55880000Y-22860000D01*
X53975000Y-27305000D02*
X55880000Y-25400000D01*
X44450000Y-31750000D02*
X44450000Y-29210000D01*
X44450000Y-29210000D02*
X46355000Y-27305000D01*
X45720000Y-22860000D02*
X45720000Y-22225000D01*
X45720000Y-22225000D02*
X46990000Y-20955000D01*
X46990000Y-20955000D02*
X60325000Y-20955000D01*
X60325000Y-20955000D02*
X60960000Y-21590000D01*
X60960000Y-21590000D02*
X60960000Y-24765000D01*
X60960000Y-24765000D02*
X57150000Y-28575000D01*
X57150000Y-28575000D02*
X57150000Y-31750000D01*
D24*
X45720000Y-22225000D02*
X46990000Y-20955000D01*
X46990000Y-20955000D02*
X60325000Y-20955000D01*
X60325000Y-20955000D02*
X60960000Y-21590000D01*
X60960000Y-21590000D02*
X60960000Y-24765000D01*
X60960000Y-24765000D02*
X57150000Y-28575000D01*
X57150000Y-28575000D02*
X57150000Y-31750000D01*
X59055000Y-22225000D02*
X58420000Y-22860000D01*
D25*
X64135000Y-36830000D02*
X81915000Y-36830000D01*
X80645000Y-18415000D02*
X61595000Y-18415000D01*
X83820000Y-21590000D02*
X80645000Y-18415000D01*
X83820000Y-34925000D02*
X83820000Y-21590000D01*
X81915000Y-36830000D02*
X83820000Y-34925000D01*
X42545000Y-25400000D02*
X52705000Y-25400000D01*
X53340000Y-24765000D02*
X53340000Y-22860000D01*
X52705000Y-25400000D02*
X53340000Y-24765000D01*
D24*
X41910000Y-20320000D02*
X41910000Y-24765000D01*
D25*
X59690000Y-36195000D02*
X60325000Y-36830000D01*
X60325000Y-36830000D02*
X64135000Y-36830000D01*
X61595000Y-18415000D02*
X43815000Y-18415000D01*
X43815000Y-18415000D02*
X41910000Y-20320000D01*
X59690000Y-34290000D02*
X59690000Y-36195000D01*
D24*
X42545000Y-25400000D02*
X45720000Y-25400000D01*
X41910000Y-24765000D02*
X42545000Y-25400000D01*
D25*
X59690000Y-31750000D02*
X59690000Y-28575000D01*
X59690000Y-28575000D02*
X62230000Y-26035000D01*
X62230000Y-26035000D02*
X62230000Y-20955000D01*
X62230000Y-20955000D02*
X60960000Y-19685000D01*
X60960000Y-19685000D02*
X45085000Y-19685000D01*
X45085000Y-19685000D02*
X43180000Y-21590000D01*
X43180000Y-21590000D02*
X43180000Y-22860000D01*
D24*
X43180000Y-21590000D02*
X43180000Y-22860000D01*
X45085000Y-19685000D02*
X43180000Y-21590000D01*
X60960000Y-19685000D02*
X45085000Y-19685000D01*
X62230000Y-20955000D02*
X60960000Y-19685000D01*
X62230000Y-26035000D02*
X62230000Y-20955000D01*
X59690000Y-28575000D02*
X62230000Y-26035000D01*
D25*
X44450000Y-52705000D02*
X44450000Y-52070000D01*
X44450000Y-52070000D02*
X45720000Y-50800000D01*
X44450000Y-58420000D02*
X44450000Y-52705000D01*
X52070000Y-51435000D02*
X52070000Y-53340000D01*
X51435000Y-50800000D02*
X52070000Y-51435000D01*
X45720000Y-50800000D02*
X51435000Y-50800000D01*
X49530000Y-58420000D02*
X49530000Y-53340000D01*
X46990000Y-53340000D02*
X46990000Y-58420000D01*
D23*
X33510000Y-49170000D02*
X33510000Y-53830000D01*
X33510000Y-53830000D02*
X34290000Y-54610000D01*
X24130000Y-77470000D02*
X24130000Y-73660000D01*
X59690000Y-58420000D02*
X62230000Y-58420000D01*
X64770000Y-55880000D02*
X64770000Y-53340000D01*
X62230000Y-58420000D02*
X64770000Y-55880000D01*
D24*
X36830000Y-80645000D02*
X41910000Y-80645000D01*
D26*
G36*
X111290000Y-89290000D02*
X16710000Y-89290000D01*
X16710000Y-85571344D01*
X18114501Y-85571344D01*
X18552790Y-86632086D01*
X19363645Y-87444357D01*
X20423620Y-87884498D01*
X21571344Y-87885499D01*
X22632086Y-87447210D01*
X23444357Y-86636355D01*
X23884498Y-85576380D01*
X23885499Y-84428656D01*
X23447210Y-83367914D01*
X22636355Y-82555643D01*
X21576380Y-82115502D01*
X20428656Y-82114501D01*
X19367914Y-82552790D01*
X18555643Y-83363645D01*
X18115502Y-84423620D01*
X18114501Y-85571344D01*
X16710000Y-85571344D01*
X16710000Y-50165000D01*
X20455000Y-50165000D01*
X20455000Y-77470000D01*
X20541397Y-77904346D01*
X20787434Y-78272566D01*
X30312434Y-87797566D01*
X30680654Y-88043603D01*
X31115000Y-88130000D01*
X51435000Y-88130000D01*
X51869346Y-88043603D01*
X52237566Y-87797566D01*
X52872566Y-87162566D01*
X53118604Y-86794345D01*
X53205000Y-86360000D01*
X53205000Y-85947005D01*
X53250812Y-85992817D01*
X53484201Y-86089490D01*
X54324250Y-86089490D01*
X54483000Y-85930740D01*
X54483000Y-84582000D01*
X54737000Y-84582000D01*
X54737000Y-85930740D01*
X54895750Y-86089490D01*
X55735799Y-86089490D01*
X55969188Y-85992817D01*
X56147817Y-85814189D01*
X56244490Y-85580800D01*
X56244490Y-84740750D01*
X56785510Y-84740750D01*
X56785510Y-85580800D01*
X56882183Y-85814189D01*
X57060812Y-85992817D01*
X57294201Y-86089490D01*
X58134250Y-86089490D01*
X58293000Y-85930740D01*
X58293000Y-84582000D01*
X58547000Y-84582000D01*
X58547000Y-85930740D01*
X58705750Y-86089490D01*
X59545799Y-86089490D01*
X59779188Y-85992817D01*
X59957817Y-85814189D01*
X60054490Y-85580800D01*
X60054490Y-84740750D01*
X61865510Y-84740750D01*
X61865510Y-85580800D01*
X61962183Y-85814189D01*
X62140812Y-85992817D01*
X62374201Y-86089490D01*
X63214250Y-86089490D01*
X63373000Y-85930740D01*
X63373000Y-84582000D01*
X63627000Y-84582000D01*
X63627000Y-85930740D01*
X63785750Y-86089490D01*
X64625799Y-86089490D01*
X64859188Y-85992817D01*
X65037817Y-85814189D01*
X65134490Y-85580800D01*
X65134490Y-85571344D01*
X102114501Y-85571344D01*
X102552790Y-86632086D01*
X103363645Y-87444357D01*
X104423620Y-87884498D01*
X105571344Y-87885499D01*
X106632086Y-87447210D01*
X107444357Y-86636355D01*
X107884498Y-85576380D01*
X107885499Y-84428656D01*
X107447210Y-83367914D01*
X106636355Y-82555643D01*
X105576380Y-82115502D01*
X104428656Y-82114501D01*
X103367914Y-82552790D01*
X102555643Y-83363645D01*
X102115502Y-84423620D01*
X102114501Y-85571344D01*
X65134490Y-85571344D01*
X65134490Y-84740750D01*
X64975740Y-84582000D01*
X63627000Y-84582000D01*
X63373000Y-84582000D01*
X62024260Y-84582000D01*
X61865510Y-84740750D01*
X60054490Y-84740750D01*
X59895740Y-84582000D01*
X58547000Y-84582000D01*
X58293000Y-84582000D01*
X56944260Y-84582000D01*
X56785510Y-84740750D01*
X56244490Y-84740750D01*
X56085740Y-84582000D01*
X54737000Y-84582000D01*
X54483000Y-84582000D01*
X54463000Y-84582000D01*
X54463000Y-84328000D01*
X54483000Y-84328000D01*
X54483000Y-82979260D01*
X54737000Y-82979260D01*
X54737000Y-84328000D01*
X56085740Y-84328000D01*
X56244490Y-84169250D01*
X56244490Y-83329200D01*
X56785510Y-83329200D01*
X56785510Y-84169250D01*
X56944260Y-84328000D01*
X58293000Y-84328000D01*
X58293000Y-82979260D01*
X58547000Y-82979260D01*
X58547000Y-84328000D01*
X59895740Y-84328000D01*
X60054490Y-84169250D01*
X60054490Y-83329200D01*
X61865510Y-83329200D01*
X61865510Y-84169250D01*
X62024260Y-84328000D01*
X63373000Y-84328000D01*
X63373000Y-82979260D01*
X63627000Y-82979260D01*
X63627000Y-84328000D01*
X64975740Y-84328000D01*
X65134490Y-84169250D01*
X65134490Y-83329200D01*
X65037817Y-83095811D01*
X64859188Y-82917183D01*
X64625799Y-82820510D01*
X63785750Y-82820510D01*
X63627000Y-82979260D01*
X63373000Y-82979260D01*
X63214250Y-82820510D01*
X62374201Y-82820510D01*
X62140812Y-82917183D01*
X61962183Y-83095811D01*
X61865510Y-83329200D01*
X60054490Y-83329200D01*
X59957817Y-83095811D01*
X59779188Y-82917183D01*
X59545799Y-82820510D01*
X58705750Y-82820510D01*
X58547000Y-82979260D01*
X58293000Y-82979260D01*
X58134250Y-82820510D01*
X57294201Y-82820510D01*
X57060812Y-82917183D01*
X56882183Y-83095811D01*
X56785510Y-83329200D01*
X56244490Y-83329200D01*
X56147817Y-83095811D01*
X55969188Y-82917183D01*
X55735799Y-82820510D01*
X54895750Y-82820510D01*
X54737000Y-82979260D01*
X54483000Y-82979260D01*
X54324250Y-82820510D01*
X53484201Y-82820510D01*
X53250812Y-82917183D01*
X53205000Y-82962995D01*
X53205000Y-82135957D01*
X53358620Y-82240921D01*
X53610510Y-82291930D01*
X55609490Y-82291930D01*
X55844807Y-82247652D01*
X56060931Y-82108580D01*
X56205921Y-81896380D01*
X56256930Y-81644490D01*
X56256930Y-79645510D01*
X56773070Y-79645510D01*
X56773070Y-81644490D01*
X56817348Y-81879807D01*
X56956420Y-82095931D01*
X57168620Y-82240921D01*
X57420510Y-82291930D01*
X59419490Y-82291930D01*
X59654807Y-82247652D01*
X59870931Y-82108580D01*
X60015921Y-81896380D01*
X60066930Y-81644490D01*
X60066930Y-79645510D01*
X61853070Y-79645510D01*
X61853070Y-81644490D01*
X61897348Y-81879807D01*
X62036420Y-82095931D01*
X62248620Y-82240921D01*
X62500510Y-82291930D01*
X64499490Y-82291930D01*
X64734807Y-82247652D01*
X64950931Y-82108580D01*
X65095921Y-81896380D01*
X65146930Y-81644490D01*
X65146930Y-79645510D01*
X65102652Y-79410193D01*
X64963580Y-79194069D01*
X64751380Y-79049079D01*
X64499490Y-78998070D01*
X62500510Y-78998070D01*
X62265193Y-79042348D01*
X62049069Y-79181420D01*
X61904079Y-79393620D01*
X61853070Y-79645510D01*
X60066930Y-79645510D01*
X60022652Y-79410193D01*
X59883580Y-79194069D01*
X59671380Y-79049079D01*
X59419490Y-78998070D01*
X57420510Y-78998070D01*
X57185193Y-79042348D01*
X56969069Y-79181420D01*
X56824079Y-79393620D01*
X56773070Y-79645510D01*
X56256930Y-79645510D01*
X56212652Y-79410193D01*
X56073580Y-79194069D01*
X55861380Y-79049079D01*
X55609490Y-78998070D01*
X53610510Y-78998070D01*
X53375193Y-79042348D01*
X53205000Y-79151864D01*
X53205000Y-74862844D01*
X53340000Y-74660801D01*
X53604211Y-75056222D01*
X54065671Y-75364559D01*
X54610000Y-75472833D01*
X55154329Y-75364559D01*
X55615789Y-75056222D01*
X55879754Y-74661170D01*
X55884475Y-74677262D01*
X56234014Y-75111191D01*
X56723004Y-75378327D01*
X56802940Y-75395010D01*
X57023000Y-75272852D01*
X57023000Y-73787000D01*
X57003000Y-73787000D01*
X57003000Y-73533000D01*
X57023000Y-73533000D01*
X57023000Y-73513000D01*
X57277000Y-73513000D01*
X57277000Y-73533000D01*
X57297000Y-73533000D01*
X57297000Y-73787000D01*
X57277000Y-73787000D01*
X57277000Y-75272852D01*
X57497060Y-75395010D01*
X57576996Y-75378327D01*
X58065986Y-75111191D01*
X58415525Y-74677262D01*
X58420246Y-74661170D01*
X58684211Y-75056222D01*
X59145671Y-75364559D01*
X59690000Y-75472833D01*
X60234329Y-75364559D01*
X60695789Y-75056222D01*
X61004126Y-74594762D01*
X61112400Y-74050433D01*
X61112400Y-73269567D01*
X61004126Y-72725238D01*
X60863650Y-72515000D01*
X95885000Y-72515000D01*
X96175839Y-72457148D01*
X96422401Y-72292401D01*
X109122401Y-59592401D01*
X109287148Y-59345840D01*
X109345000Y-59055000D01*
X109345000Y-28575000D01*
X109287148Y-28284161D01*
X109122401Y-28037599D01*
X102137401Y-21052599D01*
X101890839Y-20887852D01*
X101600000Y-20830000D01*
X98425000Y-20830000D01*
X98134161Y-20887852D01*
X97887599Y-21052599D01*
X97252599Y-21687599D01*
X97087852Y-21934161D01*
X97034419Y-22202785D01*
X96730330Y-22405971D01*
X96520000Y-22720752D01*
X96309670Y-22405971D01*
X95823489Y-22081115D01*
X95250000Y-21967041D01*
X94676511Y-22081115D01*
X94190330Y-22405971D01*
X93980000Y-22720752D01*
X93769670Y-22405971D01*
X93283489Y-22081115D01*
X92710000Y-21967041D01*
X92136511Y-22081115D01*
X91650330Y-22405971D01*
X91325474Y-22892152D01*
X91211400Y-23465641D01*
X91211400Y-23524359D01*
X91325474Y-24097848D01*
X91640526Y-24569356D01*
X91486701Y-24633073D01*
X91308073Y-24811702D01*
X91211400Y-25045091D01*
X91211400Y-25749250D01*
X91370150Y-25908000D01*
X92583000Y-25908000D01*
X92583000Y-25888000D01*
X92837000Y-25888000D01*
X92837000Y-25908000D01*
X92857000Y-25908000D01*
X92857000Y-26162000D01*
X92837000Y-26162000D01*
X92837000Y-27374850D01*
X92995750Y-27533600D01*
X93699910Y-27533600D01*
X93933299Y-27436927D01*
X94111927Y-27258298D01*
X94176263Y-27102977D01*
X94190330Y-27124029D01*
X94676511Y-27448885D01*
X95250000Y-27562959D01*
X95823489Y-27448885D01*
X96309670Y-27124029D01*
X96520000Y-26809248D01*
X96730330Y-27124029D01*
X97216511Y-27448885D01*
X97790000Y-27562959D01*
X98363489Y-27448885D01*
X98849670Y-27124029D01*
X99060000Y-26809248D01*
X99270330Y-27124029D01*
X99756511Y-27448885D01*
X100330000Y-27562959D01*
X100903489Y-27448885D01*
X101389670Y-27124029D01*
X101714526Y-26637848D01*
X101828600Y-26064359D01*
X101828600Y-26005641D01*
X101714526Y-25432152D01*
X101389670Y-24945971D01*
X101118828Y-24765000D01*
X101389670Y-24584029D01*
X101479615Y-24449417D01*
X106555000Y-29524803D01*
X106555000Y-34995197D01*
X101502401Y-29942599D01*
X101255839Y-29777852D01*
X100965000Y-29720000D01*
X99695000Y-29720000D01*
X99404161Y-29777852D01*
X99157599Y-29942599D01*
X98167973Y-30932225D01*
X97790000Y-30857041D01*
X97216511Y-30971115D01*
X96730330Y-31295971D01*
X96520000Y-31610752D01*
X96309670Y-31295971D01*
X95823489Y-30971115D01*
X95250000Y-30857041D01*
X94676511Y-30971115D01*
X94190330Y-31295971D01*
X93980000Y-31610752D01*
X93769670Y-31295971D01*
X93283489Y-30971115D01*
X92710000Y-30857041D01*
X92136511Y-30971115D01*
X91650330Y-31295971D01*
X91325474Y-31782152D01*
X91211400Y-32355641D01*
X91211400Y-32414359D01*
X91325474Y-32987848D01*
X91640526Y-33459356D01*
X91486701Y-33523073D01*
X91308073Y-33701702D01*
X91211400Y-33935091D01*
X91211400Y-34639250D01*
X91370150Y-34798000D01*
X92583000Y-34798000D01*
X92583000Y-34778000D01*
X92837000Y-34778000D01*
X92837000Y-34798000D01*
X92857000Y-34798000D01*
X92857000Y-35052000D01*
X92837000Y-35052000D01*
X92837000Y-36264850D01*
X92995750Y-36423600D01*
X93699910Y-36423600D01*
X93933299Y-36326927D01*
X94111927Y-36148298D01*
X94176263Y-35992977D01*
X94190330Y-36014029D01*
X94676511Y-36338885D01*
X95250000Y-36452959D01*
X95823489Y-36338885D01*
X96309670Y-36014029D01*
X96520000Y-35699248D01*
X96730330Y-36014029D01*
X97216511Y-36338885D01*
X97790000Y-36452959D01*
X98363489Y-36338885D01*
X98849670Y-36014029D01*
X99060000Y-35699248D01*
X99270330Y-36014029D01*
X99756511Y-36338885D01*
X100330000Y-36452959D01*
X100903489Y-36338885D01*
X101389670Y-36014029D01*
X101714526Y-35527848D01*
X101828600Y-34954359D01*
X101828600Y-34895641D01*
X101714526Y-34322152D01*
X101389670Y-33835971D01*
X101118828Y-33655000D01*
X101389670Y-33474029D01*
X101479615Y-33339417D01*
X104650000Y-36509802D01*
X104650000Y-39440198D01*
X103407401Y-38197599D01*
X103160839Y-38032852D01*
X102870000Y-37975000D01*
X98425000Y-37975000D01*
X98134161Y-38032852D01*
X97887599Y-38197599D01*
X97252599Y-38832599D01*
X97087852Y-39079161D01*
X97034419Y-39347785D01*
X96730330Y-39550971D01*
X96520000Y-39865752D01*
X96309670Y-39550971D01*
X95823489Y-39226115D01*
X95250000Y-39112041D01*
X94676511Y-39226115D01*
X94190330Y-39550971D01*
X93980000Y-39865752D01*
X93769670Y-39550971D01*
X93283489Y-39226115D01*
X92710000Y-39112041D01*
X92136511Y-39226115D01*
X91650330Y-39550971D01*
X91325474Y-40037152D01*
X91211400Y-40610641D01*
X91211400Y-40669359D01*
X91325474Y-41242848D01*
X91640526Y-41714356D01*
X91486701Y-41778073D01*
X91308073Y-41956702D01*
X91211400Y-42190091D01*
X91211400Y-42894250D01*
X91370150Y-43053000D01*
X92583000Y-43053000D01*
X92583000Y-43033000D01*
X92837000Y-43033000D01*
X92837000Y-43053000D01*
X92857000Y-43053000D01*
X92857000Y-43307000D01*
X92837000Y-43307000D01*
X92837000Y-44519850D01*
X92995750Y-44678600D01*
X93699910Y-44678600D01*
X93933299Y-44581927D01*
X94111927Y-44403298D01*
X94176263Y-44247977D01*
X94190330Y-44269029D01*
X94676511Y-44593885D01*
X95250000Y-44707959D01*
X95823489Y-44593885D01*
X96309670Y-44269029D01*
X96520000Y-43954248D01*
X96730330Y-44269029D01*
X97216511Y-44593885D01*
X97790000Y-44707959D01*
X98363489Y-44593885D01*
X98849670Y-44269029D01*
X99060000Y-43954248D01*
X99270330Y-44269029D01*
X99756511Y-44593885D01*
X100330000Y-44707959D01*
X100903489Y-44593885D01*
X101389670Y-44269029D01*
X101714526Y-43782848D01*
X101828600Y-43209359D01*
X101828600Y-43150641D01*
X101714526Y-42577152D01*
X101389670Y-42090971D01*
X101118828Y-41910000D01*
X101389670Y-41729029D01*
X101609520Y-41400000D01*
X102555198Y-41400000D01*
X102745000Y-41589802D01*
X102745000Y-47060198D01*
X102137401Y-46452599D01*
X101890839Y-46287852D01*
X101600000Y-46230000D01*
X98425000Y-46230000D01*
X98134161Y-46287852D01*
X97887599Y-46452599D01*
X97252599Y-47087599D01*
X97087852Y-47334161D01*
X97034419Y-47602785D01*
X96730330Y-47805971D01*
X96520000Y-48120752D01*
X96309670Y-47805971D01*
X95823489Y-47481115D01*
X95250000Y-47367041D01*
X94676511Y-47481115D01*
X94190330Y-47805971D01*
X93980000Y-48120752D01*
X93769670Y-47805971D01*
X93283489Y-47481115D01*
X92710000Y-47367041D01*
X92136511Y-47481115D01*
X91650330Y-47805971D01*
X91325474Y-48292152D01*
X91211400Y-48865641D01*
X91211400Y-48924359D01*
X91325474Y-49497848D01*
X91640526Y-49969356D01*
X91486701Y-50033073D01*
X91308073Y-50211702D01*
X91211400Y-50445091D01*
X91211400Y-51149250D01*
X91370150Y-51308000D01*
X92583000Y-51308000D01*
X92583000Y-51288000D01*
X92837000Y-51288000D01*
X92837000Y-51308000D01*
X92857000Y-51308000D01*
X92857000Y-51562000D01*
X92837000Y-51562000D01*
X92837000Y-52774850D01*
X92995750Y-52933600D01*
X93134821Y-52933600D01*
X85993420Y-60075000D01*
X60308499Y-60075000D01*
X60695789Y-59816222D01*
X60870332Y-59555000D01*
X62230000Y-59555000D01*
X62664346Y-59468603D01*
X63032566Y-59222566D01*
X65572566Y-56682567D01*
X65818603Y-56314346D01*
X65847148Y-56170839D01*
X65905000Y-55880000D01*
X65905000Y-54360363D01*
X66061231Y-54204404D01*
X66293735Y-53644472D01*
X66294264Y-53038188D01*
X66062738Y-52477851D01*
X65634404Y-52048769D01*
X65074472Y-51816265D01*
X64468188Y-51815736D01*
X63907851Y-52047262D01*
X63478769Y-52475596D01*
X63246265Y-53035528D01*
X63245736Y-53641812D01*
X63477262Y-54202149D01*
X63635000Y-54360162D01*
X63635000Y-55409867D01*
X61759868Y-57285000D01*
X60870332Y-57285000D01*
X60695789Y-57023778D01*
X60234329Y-56715441D01*
X59690000Y-56607167D01*
X59145671Y-56715441D01*
X58684211Y-57023778D01*
X58420000Y-57419199D01*
X58155789Y-57023778D01*
X57694329Y-56715441D01*
X57150000Y-56607167D01*
X56605671Y-56715441D01*
X56144211Y-57023778D01*
X55880000Y-57419199D01*
X55615789Y-57023778D01*
X55154329Y-56715441D01*
X54610000Y-56607167D01*
X54065671Y-56715441D01*
X53604211Y-57023778D01*
X53340246Y-57418830D01*
X53335525Y-57402738D01*
X52985986Y-56968809D01*
X52496996Y-56701673D01*
X52417060Y-56684990D01*
X52197000Y-56807148D01*
X52197000Y-58293000D01*
X52217000Y-58293000D01*
X52217000Y-58547000D01*
X52197000Y-58547000D01*
X52197000Y-58567000D01*
X51943000Y-58567000D01*
X51943000Y-58547000D01*
X51923000Y-58547000D01*
X51923000Y-58293000D01*
X51943000Y-58293000D01*
X51943000Y-56807148D01*
X51722940Y-56684990D01*
X51643004Y-56701673D01*
X51154014Y-56968809D01*
X50804475Y-57402738D01*
X50799754Y-57418830D01*
X50535789Y-57023778D01*
X50415000Y-56943070D01*
X50415000Y-54701126D01*
X50589670Y-54584415D01*
X50800000Y-54269634D01*
X51010330Y-54584415D01*
X51496511Y-54909271D01*
X52070000Y-55023345D01*
X52643489Y-54909271D01*
X53129670Y-54584415D01*
X53340000Y-54269634D01*
X53550330Y-54584415D01*
X54036511Y-54909271D01*
X54610000Y-55023345D01*
X55183489Y-54909271D01*
X55669670Y-54584415D01*
X55684500Y-54562220D01*
X55748073Y-54715698D01*
X55926701Y-54894327D01*
X56160090Y-54991000D01*
X56864250Y-54991000D01*
X57023000Y-54832250D01*
X57023000Y-53467000D01*
X57277000Y-53467000D01*
X57277000Y-54832250D01*
X57435750Y-54991000D01*
X58139910Y-54991000D01*
X58373299Y-54894327D01*
X58551927Y-54715698D01*
X58648600Y-54482309D01*
X58648600Y-54412196D01*
X60067409Y-54412196D01*
X60152467Y-54667539D01*
X60721965Y-54875516D01*
X61327700Y-54849723D01*
X61767533Y-54667539D01*
X61852591Y-54412196D01*
X60960000Y-53519605D01*
X60067409Y-54412196D01*
X58648600Y-54412196D01*
X58648600Y-53625750D01*
X58489850Y-53467000D01*
X57277000Y-53467000D01*
X57023000Y-53467000D01*
X57003000Y-53467000D01*
X57003000Y-53213000D01*
X57023000Y-53213000D01*
X57023000Y-51847750D01*
X57277000Y-51847750D01*
X57277000Y-53213000D01*
X58489850Y-53213000D01*
X58600885Y-53101965D01*
X59424484Y-53101965D01*
X59450277Y-53707700D01*
X59632461Y-54147533D01*
X59887804Y-54232591D01*
X60780395Y-53340000D01*
X61139605Y-53340000D01*
X62032196Y-54232591D01*
X62287539Y-54147533D01*
X62495516Y-53578035D01*
X62469723Y-52972300D01*
X62287539Y-52532467D01*
X62032196Y-52447409D01*
X61139605Y-53340000D01*
X60780395Y-53340000D01*
X59887804Y-52447409D01*
X59632461Y-52532467D01*
X59424484Y-53101965D01*
X58600885Y-53101965D01*
X58648600Y-53054250D01*
X58648600Y-52267804D01*
X60067409Y-52267804D01*
X60960000Y-53160395D01*
X61852591Y-52267804D01*
X61767533Y-52012461D01*
X61198035Y-51804484D01*
X60592300Y-51830277D01*
X60152467Y-52012461D01*
X60067409Y-52267804D01*
X58648600Y-52267804D01*
X58648600Y-52197691D01*
X58551927Y-51964302D01*
X58373299Y-51785673D01*
X58216562Y-51720750D01*
X91211400Y-51720750D01*
X91211400Y-52424909D01*
X91308073Y-52658298D01*
X91486701Y-52836927D01*
X91720090Y-52933600D01*
X92424250Y-52933600D01*
X92583000Y-52774850D01*
X92583000Y-51562000D01*
X91370150Y-51562000D01*
X91211400Y-51720750D01*
X58216562Y-51720750D01*
X58139910Y-51689000D01*
X57435750Y-51689000D01*
X57277000Y-51847750D01*
X57023000Y-51847750D01*
X56864250Y-51689000D01*
X56160090Y-51689000D01*
X55926701Y-51785673D01*
X55748073Y-51964302D01*
X55745000Y-51971721D01*
X55745000Y-50165000D01*
X55658603Y-49730654D01*
X55412566Y-49362434D01*
X52237566Y-46187434D01*
X52228582Y-46181431D01*
X51869346Y-45941397D01*
X51435000Y-45855000D01*
X35484057Y-45855000D01*
X35496431Y-45836890D01*
X35547440Y-45585000D01*
X35547440Y-44035000D01*
X35503162Y-43799683D01*
X35364090Y-43583559D01*
X35215179Y-43481812D01*
X59435736Y-43481812D01*
X59667262Y-44042149D01*
X60095596Y-44471231D01*
X60655528Y-44703735D01*
X61261812Y-44704264D01*
X61822149Y-44472738D01*
X62251231Y-44044404D01*
X62483735Y-43484472D01*
X62483737Y-43481812D01*
X63245736Y-43481812D01*
X63477262Y-44042149D01*
X63905596Y-44471231D01*
X64465528Y-44703735D01*
X65071812Y-44704264D01*
X65632149Y-44472738D01*
X66061231Y-44044404D01*
X66293735Y-43484472D01*
X66293751Y-43465750D01*
X91211400Y-43465750D01*
X91211400Y-44169909D01*
X91308073Y-44403298D01*
X91486701Y-44581927D01*
X91720090Y-44678600D01*
X92424250Y-44678600D01*
X92583000Y-44519850D01*
X92583000Y-43307000D01*
X91370150Y-43307000D01*
X91211400Y-43465750D01*
X66293751Y-43465750D01*
X66294264Y-42878188D01*
X66062738Y-42317851D01*
X65634404Y-41888769D01*
X65074472Y-41656265D01*
X64468188Y-41655736D01*
X63907851Y-41887262D01*
X63478769Y-42315596D01*
X63246265Y-42875528D01*
X63245736Y-43481812D01*
X62483737Y-43481812D01*
X62484264Y-42878188D01*
X62252738Y-42317851D01*
X61824404Y-41888769D01*
X61264472Y-41656265D01*
X60658188Y-41655736D01*
X60097851Y-41887262D01*
X59668769Y-42315596D01*
X59436265Y-42875528D01*
X59435736Y-43481812D01*
X35215179Y-43481812D01*
X35151890Y-43438569D01*
X34900000Y-43387560D01*
X34645000Y-43387560D01*
X34645000Y-43035000D01*
X34558603Y-42600654D01*
X34312566Y-42232434D01*
X30345000Y-38264868D01*
X30345000Y-35484898D01*
X30422310Y-35605041D01*
X30634510Y-35750031D01*
X30886400Y-35801040D01*
X32613600Y-35801040D01*
X32848917Y-35756762D01*
X33065041Y-35617690D01*
X33210031Y-35405490D01*
X33218864Y-35361869D01*
X33230330Y-35379029D01*
X33716511Y-35703885D01*
X34290000Y-35817959D01*
X34863489Y-35703885D01*
X35349670Y-35379029D01*
X35560000Y-35064248D01*
X35770330Y-35379029D01*
X36256511Y-35703885D01*
X36830000Y-35817959D01*
X37403489Y-35703885D01*
X37889670Y-35379029D01*
X38100000Y-35064248D01*
X38310330Y-35379029D01*
X38796511Y-35703885D01*
X39370000Y-35817959D01*
X39943489Y-35703885D01*
X40429670Y-35379029D01*
X40645664Y-35055772D01*
X40703179Y-35178490D01*
X41135053Y-35572688D01*
X41550974Y-35744958D01*
X41783000Y-35623817D01*
X41783000Y-34417000D01*
X41763000Y-34417000D01*
X41763000Y-34163000D01*
X41783000Y-34163000D01*
X41783000Y-34143000D01*
X42037000Y-34143000D01*
X42037000Y-34163000D01*
X42057000Y-34163000D01*
X42057000Y-34417000D01*
X42037000Y-34417000D01*
X42037000Y-35623817D01*
X42269026Y-35744958D01*
X42684947Y-35572688D01*
X43116821Y-35178490D01*
X43174336Y-35055772D01*
X43390330Y-35379029D01*
X43876511Y-35703885D01*
X44450000Y-35817959D01*
X45023489Y-35703885D01*
X45509670Y-35379029D01*
X45720000Y-35064248D01*
X45930330Y-35379029D01*
X46416511Y-35703885D01*
X46990000Y-35817959D01*
X47563489Y-35703885D01*
X48049670Y-35379029D01*
X48260000Y-35064248D01*
X48470330Y-35379029D01*
X48956511Y-35703885D01*
X49530000Y-35817959D01*
X50103489Y-35703885D01*
X50589670Y-35379029D01*
X50800000Y-35064248D01*
X51010330Y-35379029D01*
X51496511Y-35703885D01*
X52070000Y-35817959D01*
X52643489Y-35703885D01*
X53129670Y-35379029D01*
X53340000Y-35064248D01*
X53550330Y-35379029D01*
X54036511Y-35703885D01*
X54610000Y-35817959D01*
X55183489Y-35703885D01*
X55669670Y-35379029D01*
X55880000Y-35064248D01*
X56090330Y-35379029D01*
X56576511Y-35703885D01*
X57150000Y-35817959D01*
X57723489Y-35703885D01*
X58209670Y-35379029D01*
X58420000Y-35064248D01*
X58630330Y-35379029D01*
X58805000Y-35495740D01*
X58805000Y-36194995D01*
X58804999Y-36195000D01*
X58861190Y-36477484D01*
X58872367Y-36533675D01*
X59064210Y-36820790D01*
X59699208Y-37455787D01*
X59699210Y-37455790D01*
X59859062Y-37562599D01*
X59986326Y-37647634D01*
X60325000Y-37715001D01*
X60325005Y-37715000D01*
X81914995Y-37715000D01*
X81915000Y-37715001D01*
X82197484Y-37658810D01*
X82253675Y-37647633D01*
X82540790Y-37455790D01*
X84445787Y-35550792D01*
X84445790Y-35550790D01*
X84637633Y-35263675D01*
X84648160Y-35210750D01*
X91211400Y-35210750D01*
X91211400Y-35914909D01*
X91308073Y-36148298D01*
X91486701Y-36326927D01*
X91720090Y-36423600D01*
X92424250Y-36423600D01*
X92583000Y-36264850D01*
X92583000Y-35052000D01*
X91370150Y-35052000D01*
X91211400Y-35210750D01*
X84648160Y-35210750D01*
X84648810Y-35207484D01*
X84705001Y-34925000D01*
X84705000Y-34924995D01*
X84705000Y-26320750D01*
X91211400Y-26320750D01*
X91211400Y-27024909D01*
X91308073Y-27258298D01*
X91486701Y-27436927D01*
X91720090Y-27533600D01*
X92424250Y-27533600D01*
X92583000Y-27374850D01*
X92583000Y-26162000D01*
X91370150Y-26162000D01*
X91211400Y-26320750D01*
X84705000Y-26320750D01*
X84705000Y-21590005D01*
X84705001Y-21590000D01*
X84637633Y-21251326D01*
X84637633Y-21251325D01*
X84445790Y-20964210D01*
X84445787Y-20964208D01*
X83052924Y-19571344D01*
X104114501Y-19571344D01*
X104552790Y-20632086D01*
X105363645Y-21444357D01*
X106423620Y-21884498D01*
X107571344Y-21885499D01*
X108632086Y-21447210D01*
X109444357Y-20636355D01*
X109884498Y-19576380D01*
X109885499Y-18428656D01*
X109447210Y-17367914D01*
X108636355Y-16555643D01*
X107576380Y-16115502D01*
X106428656Y-16114501D01*
X105367914Y-16552790D01*
X104555643Y-17363645D01*
X104115502Y-18423620D01*
X104114501Y-19571344D01*
X83052924Y-19571344D01*
X81270790Y-17789210D01*
X80983675Y-17597367D01*
X80927484Y-17586190D01*
X80645000Y-17529999D01*
X80644995Y-17530000D01*
X43815005Y-17530000D01*
X43815000Y-17529999D01*
X43532516Y-17586190D01*
X43476325Y-17597367D01*
X43189210Y-17789210D01*
X43189208Y-17789213D01*
X41284210Y-19694210D01*
X41092367Y-19981326D01*
X41024999Y-20320000D01*
X41092367Y-20658674D01*
X41150000Y-20744929D01*
X41150000Y-21320422D01*
X41014791Y-21255291D01*
X40999026Y-21252642D01*
X40767000Y-21373783D01*
X40767000Y-22733000D01*
X40787000Y-22733000D01*
X40787000Y-22987000D01*
X40767000Y-22987000D01*
X40767000Y-24346217D01*
X40999026Y-24467358D01*
X41014791Y-24464709D01*
X41150000Y-24399578D01*
X41150000Y-24765000D01*
X41207852Y-25055839D01*
X41372599Y-25302401D01*
X41707129Y-25636931D01*
X41727367Y-25738675D01*
X41919210Y-26025790D01*
X42206325Y-26217633D01*
X42545000Y-26285000D01*
X52704995Y-26285000D01*
X52705000Y-26285001D01*
X52987484Y-26228810D01*
X53043675Y-26217633D01*
X53330790Y-26025790D01*
X53330791Y-26025789D01*
X53965787Y-25390792D01*
X53965790Y-25390790D01*
X54126680Y-25150000D01*
X54157634Y-25103674D01*
X54225001Y-24765000D01*
X54225000Y-24764995D01*
X54225000Y-24221126D01*
X54399670Y-24104415D01*
X54610000Y-23789634D01*
X54820330Y-24104415D01*
X54995000Y-24221126D01*
X54995000Y-25033421D01*
X53608420Y-26420000D01*
X46355005Y-26420000D01*
X46355000Y-26419999D01*
X46072516Y-26476190D01*
X46016325Y-26487367D01*
X45729210Y-26679210D01*
X45729208Y-26679213D01*
X43824210Y-28584210D01*
X43632367Y-28871325D01*
X43632367Y-28871326D01*
X43564999Y-29210000D01*
X43565000Y-29210005D01*
X43565000Y-30544260D01*
X43390330Y-30660971D01*
X43180000Y-30975752D01*
X42969670Y-30660971D01*
X42483489Y-30336115D01*
X41910000Y-30222041D01*
X41336511Y-30336115D01*
X40850330Y-30660971D01*
X40640000Y-30975752D01*
X40429670Y-30660971D01*
X39943489Y-30336115D01*
X39370000Y-30222041D01*
X38796511Y-30336115D01*
X38310330Y-30660971D01*
X38094336Y-30984228D01*
X38036821Y-30861510D01*
X37604947Y-30467312D01*
X37189026Y-30295042D01*
X36957000Y-30416183D01*
X36957000Y-31623000D01*
X36977000Y-31623000D01*
X36977000Y-31877000D01*
X36957000Y-31877000D01*
X36957000Y-31897000D01*
X36703000Y-31897000D01*
X36703000Y-31877000D01*
X36683000Y-31877000D01*
X36683000Y-31623000D01*
X36703000Y-31623000D01*
X36703000Y-30416183D01*
X36470974Y-30295042D01*
X36055053Y-30467312D01*
X35623179Y-30861510D01*
X35565664Y-30984228D01*
X35349670Y-30660971D01*
X34863489Y-30336115D01*
X34290000Y-30222041D01*
X33716511Y-30336115D01*
X33230330Y-30660971D01*
X33020000Y-30975752D01*
X32885000Y-30773710D01*
X32885000Y-27775132D01*
X36665132Y-23995000D01*
X36967221Y-23995000D01*
X37040330Y-24104415D01*
X37526511Y-24429271D01*
X38100000Y-24543345D01*
X38673489Y-24429271D01*
X39159670Y-24104415D01*
X39366461Y-23794931D01*
X39737964Y-24210732D01*
X40265209Y-24464709D01*
X40280974Y-24467358D01*
X40513000Y-24346217D01*
X40513000Y-22987000D01*
X40493000Y-22987000D01*
X40493000Y-22733000D01*
X40513000Y-22733000D01*
X40513000Y-21373783D01*
X40280974Y-21252642D01*
X40265209Y-21255291D01*
X39737964Y-21509268D01*
X39366461Y-21925069D01*
X39159670Y-21615585D01*
X38673489Y-21290729D01*
X38100000Y-21176655D01*
X37526511Y-21290729D01*
X37040330Y-21615585D01*
X36967221Y-21725000D01*
X36195000Y-21725000D01*
X35760654Y-21811397D01*
X35576925Y-21934161D01*
X35392434Y-22057434D01*
X30947434Y-26502434D01*
X30701397Y-26870654D01*
X30615000Y-27305000D01*
X30615000Y-30615000D01*
X29845000Y-30615000D01*
X29410655Y-30701396D01*
X29042434Y-30947434D01*
X28407434Y-31582434D01*
X28161397Y-31950654D01*
X28075000Y-32385000D01*
X28075000Y-38735000D01*
X28161397Y-39169346D01*
X28378992Y-39495000D01*
X28407434Y-39537566D01*
X32257428Y-43387560D01*
X32120000Y-43387560D01*
X31884683Y-43431838D01*
X31668559Y-43570910D01*
X31523569Y-43783110D01*
X31472560Y-44035000D01*
X31472560Y-45585000D01*
X31516838Y-45820317D01*
X31539156Y-45855000D01*
X30887440Y-45855000D01*
X30887440Y-43620000D01*
X30843162Y-43384683D01*
X30704090Y-43168559D01*
X30491890Y-43023569D01*
X30240000Y-42972560D01*
X23510000Y-42972560D01*
X23274683Y-43016838D01*
X23058559Y-43155910D01*
X22913569Y-43368110D01*
X22862560Y-43620000D01*
X22862560Y-47287308D01*
X20787434Y-49362434D01*
X20541397Y-49730654D01*
X20455000Y-50165000D01*
X16710000Y-50165000D01*
X16710000Y-19571344D01*
X18114501Y-19571344D01*
X18552790Y-20632086D01*
X19363645Y-21444357D01*
X20423620Y-21884498D01*
X21571344Y-21885499D01*
X22632086Y-21447210D01*
X23444357Y-20636355D01*
X23884498Y-19576380D01*
X23885499Y-18428656D01*
X23447210Y-17367914D01*
X22636355Y-16555643D01*
X21576380Y-16115502D01*
X20428656Y-16114501D01*
X19367914Y-16552790D01*
X18555643Y-17363645D01*
X18115502Y-18423620D01*
X18114501Y-19571344D01*
X16710000Y-19571344D01*
X16710000Y-14710000D01*
X111290000Y-14710000D01*
X111290000Y-89290000D01*
X111290000Y-89290000D01*
G37*
X111290000Y-89290000D02*
X16710000Y-89290000D01*
X16710000Y-85571344D01*
X18114501Y-85571344D01*
X18552790Y-86632086D01*
X19363645Y-87444357D01*
X20423620Y-87884498D01*
X21571344Y-87885499D01*
X22632086Y-87447210D01*
X23444357Y-86636355D01*
X23884498Y-85576380D01*
X23885499Y-84428656D01*
X23447210Y-83367914D01*
X22636355Y-82555643D01*
X21576380Y-82115502D01*
X20428656Y-82114501D01*
X19367914Y-82552790D01*
X18555643Y-83363645D01*
X18115502Y-84423620D01*
X18114501Y-85571344D01*
X16710000Y-85571344D01*
X16710000Y-50165000D01*
X20455000Y-50165000D01*
X20455000Y-77470000D01*
X20541397Y-77904346D01*
X20787434Y-78272566D01*
X30312434Y-87797566D01*
X30680654Y-88043603D01*
X31115000Y-88130000D01*
X51435000Y-88130000D01*
X51869346Y-88043603D01*
X52237566Y-87797566D01*
X52872566Y-87162566D01*
X53118604Y-86794345D01*
X53205000Y-86360000D01*
X53205000Y-85947005D01*
X53250812Y-85992817D01*
X53484201Y-86089490D01*
X54324250Y-86089490D01*
X54483000Y-85930740D01*
X54483000Y-84582000D01*
X54737000Y-84582000D01*
X54737000Y-85930740D01*
X54895750Y-86089490D01*
X55735799Y-86089490D01*
X55969188Y-85992817D01*
X56147817Y-85814189D01*
X56244490Y-85580800D01*
X56244490Y-84740750D01*
X56785510Y-84740750D01*
X56785510Y-85580800D01*
X56882183Y-85814189D01*
X57060812Y-85992817D01*
X57294201Y-86089490D01*
X58134250Y-86089490D01*
X58293000Y-85930740D01*
X58293000Y-84582000D01*
X58547000Y-84582000D01*
X58547000Y-85930740D01*
X58705750Y-86089490D01*
X59545799Y-86089490D01*
X59779188Y-85992817D01*
X59957817Y-85814189D01*
X60054490Y-85580800D01*
X60054490Y-84740750D01*
X61865510Y-84740750D01*
X61865510Y-85580800D01*
X61962183Y-85814189D01*
X62140812Y-85992817D01*
X62374201Y-86089490D01*
X63214250Y-86089490D01*
X63373000Y-85930740D01*
X63373000Y-84582000D01*
X63627000Y-84582000D01*
X63627000Y-85930740D01*
X63785750Y-86089490D01*
X64625799Y-86089490D01*
X64859188Y-85992817D01*
X65037817Y-85814189D01*
X65134490Y-85580800D01*
X65134490Y-85571344D01*
X102114501Y-85571344D01*
X102552790Y-86632086D01*
X103363645Y-87444357D01*
X104423620Y-87884498D01*
X105571344Y-87885499D01*
X106632086Y-87447210D01*
X107444357Y-86636355D01*
X107884498Y-85576380D01*
X107885499Y-84428656D01*
X107447210Y-83367914D01*
X106636355Y-82555643D01*
X105576380Y-82115502D01*
X104428656Y-82114501D01*
X103367914Y-82552790D01*
X102555643Y-83363645D01*
X102115502Y-84423620D01*
X102114501Y-85571344D01*
X65134490Y-85571344D01*
X65134490Y-84740750D01*
X64975740Y-84582000D01*
X63627000Y-84582000D01*
X63373000Y-84582000D01*
X62024260Y-84582000D01*
X61865510Y-84740750D01*
X60054490Y-84740750D01*
X59895740Y-84582000D01*
X58547000Y-84582000D01*
X58293000Y-84582000D01*
X56944260Y-84582000D01*
X56785510Y-84740750D01*
X56244490Y-84740750D01*
X56085740Y-84582000D01*
X54737000Y-84582000D01*
X54483000Y-84582000D01*
X54463000Y-84582000D01*
X54463000Y-84328000D01*
X54483000Y-84328000D01*
X54483000Y-82979260D01*
X54737000Y-82979260D01*
X54737000Y-84328000D01*
X56085740Y-84328000D01*
X56244490Y-84169250D01*
X56244490Y-83329200D01*
X56785510Y-83329200D01*
X56785510Y-84169250D01*
X56944260Y-84328000D01*
X58293000Y-84328000D01*
X58293000Y-82979260D01*
X58547000Y-82979260D01*
X58547000Y-84328000D01*
X59895740Y-84328000D01*
X60054490Y-84169250D01*
X60054490Y-83329200D01*
X61865510Y-83329200D01*
X61865510Y-84169250D01*
X62024260Y-84328000D01*
X63373000Y-84328000D01*
X63373000Y-82979260D01*
X63627000Y-82979260D01*
X63627000Y-84328000D01*
X64975740Y-84328000D01*
X65134490Y-84169250D01*
X65134490Y-83329200D01*
X65037817Y-83095811D01*
X64859188Y-82917183D01*
X64625799Y-82820510D01*
X63785750Y-82820510D01*
X63627000Y-82979260D01*
X63373000Y-82979260D01*
X63214250Y-82820510D01*
X62374201Y-82820510D01*
X62140812Y-82917183D01*
X61962183Y-83095811D01*
X61865510Y-83329200D01*
X60054490Y-83329200D01*
X59957817Y-83095811D01*
X59779188Y-82917183D01*
X59545799Y-82820510D01*
X58705750Y-82820510D01*
X58547000Y-82979260D01*
X58293000Y-82979260D01*
X58134250Y-82820510D01*
X57294201Y-82820510D01*
X57060812Y-82917183D01*
X56882183Y-83095811D01*
X56785510Y-83329200D01*
X56244490Y-83329200D01*
X56147817Y-83095811D01*
X55969188Y-82917183D01*
X55735799Y-82820510D01*
X54895750Y-82820510D01*
X54737000Y-82979260D01*
X54483000Y-82979260D01*
X54324250Y-82820510D01*
X53484201Y-82820510D01*
X53250812Y-82917183D01*
X53205000Y-82962995D01*
X53205000Y-82135957D01*
X53358620Y-82240921D01*
X53610510Y-82291930D01*
X55609490Y-82291930D01*
X55844807Y-82247652D01*
X56060931Y-82108580D01*
X56205921Y-81896380D01*
X56256930Y-81644490D01*
X56256930Y-79645510D01*
X56773070Y-79645510D01*
X56773070Y-81644490D01*
X56817348Y-81879807D01*
X56956420Y-82095931D01*
X57168620Y-82240921D01*
X57420510Y-82291930D01*
X59419490Y-82291930D01*
X59654807Y-82247652D01*
X59870931Y-82108580D01*
X60015921Y-81896380D01*
X60066930Y-81644490D01*
X60066930Y-79645510D01*
X61853070Y-79645510D01*
X61853070Y-81644490D01*
X61897348Y-81879807D01*
X62036420Y-82095931D01*
X62248620Y-82240921D01*
X62500510Y-82291930D01*
X64499490Y-82291930D01*
X64734807Y-82247652D01*
X64950931Y-82108580D01*
X65095921Y-81896380D01*
X65146930Y-81644490D01*
X65146930Y-79645510D01*
X65102652Y-79410193D01*
X64963580Y-79194069D01*
X64751380Y-79049079D01*
X64499490Y-78998070D01*
X62500510Y-78998070D01*
X62265193Y-79042348D01*
X62049069Y-79181420D01*
X61904079Y-79393620D01*
X61853070Y-79645510D01*
X60066930Y-79645510D01*
X60022652Y-79410193D01*
X59883580Y-79194069D01*
X59671380Y-79049079D01*
X59419490Y-78998070D01*
X57420510Y-78998070D01*
X57185193Y-79042348D01*
X56969069Y-79181420D01*
X56824079Y-79393620D01*
X56773070Y-79645510D01*
X56256930Y-79645510D01*
X56212652Y-79410193D01*
X56073580Y-79194069D01*
X55861380Y-79049079D01*
X55609490Y-78998070D01*
X53610510Y-78998070D01*
X53375193Y-79042348D01*
X53205000Y-79151864D01*
X53205000Y-74862844D01*
X53340000Y-74660801D01*
X53604211Y-75056222D01*
X54065671Y-75364559D01*
X54610000Y-75472833D01*
X55154329Y-75364559D01*
X55615789Y-75056222D01*
X55879754Y-74661170D01*
X55884475Y-74677262D01*
X56234014Y-75111191D01*
X56723004Y-75378327D01*
X56802940Y-75395010D01*
X57023000Y-75272852D01*
X57023000Y-73787000D01*
X57003000Y-73787000D01*
X57003000Y-73533000D01*
X57023000Y-73533000D01*
X57023000Y-73513000D01*
X57277000Y-73513000D01*
X57277000Y-73533000D01*
X57297000Y-73533000D01*
X57297000Y-73787000D01*
X57277000Y-73787000D01*
X57277000Y-75272852D01*
X57497060Y-75395010D01*
X57576996Y-75378327D01*
X58065986Y-75111191D01*
X58415525Y-74677262D01*
X58420246Y-74661170D01*
X58684211Y-75056222D01*
X59145671Y-75364559D01*
X59690000Y-75472833D01*
X60234329Y-75364559D01*
X60695789Y-75056222D01*
X61004126Y-74594762D01*
X61112400Y-74050433D01*
X61112400Y-73269567D01*
X61004126Y-72725238D01*
X60863650Y-72515000D01*
X95885000Y-72515000D01*
X96175839Y-72457148D01*
X96422401Y-72292401D01*
X109122401Y-59592401D01*
X109287148Y-59345840D01*
X109345000Y-59055000D01*
X109345000Y-28575000D01*
X109287148Y-28284161D01*
X109122401Y-28037599D01*
X102137401Y-21052599D01*
X101890839Y-20887852D01*
X101600000Y-20830000D01*
X98425000Y-20830000D01*
X98134161Y-20887852D01*
X97887599Y-21052599D01*
X97252599Y-21687599D01*
X97087852Y-21934161D01*
X97034419Y-22202785D01*
X96730330Y-22405971D01*
X96520000Y-22720752D01*
X96309670Y-22405971D01*
X95823489Y-22081115D01*
X95250000Y-21967041D01*
X94676511Y-22081115D01*
X94190330Y-22405971D01*
X93980000Y-22720752D01*
X93769670Y-22405971D01*
X93283489Y-22081115D01*
X92710000Y-21967041D01*
X92136511Y-22081115D01*
X91650330Y-22405971D01*
X91325474Y-22892152D01*
X91211400Y-23465641D01*
X91211400Y-23524359D01*
X91325474Y-24097848D01*
X91640526Y-24569356D01*
X91486701Y-24633073D01*
X91308073Y-24811702D01*
X91211400Y-25045091D01*
X91211400Y-25749250D01*
X91370150Y-25908000D01*
X92583000Y-25908000D01*
X92583000Y-25888000D01*
X92837000Y-25888000D01*
X92837000Y-25908000D01*
X92857000Y-25908000D01*
X92857000Y-26162000D01*
X92837000Y-26162000D01*
X92837000Y-27374850D01*
X92995750Y-27533600D01*
X93699910Y-27533600D01*
X93933299Y-27436927D01*
X94111927Y-27258298D01*
X94176263Y-27102977D01*
X94190330Y-27124029D01*
X94676511Y-27448885D01*
X95250000Y-27562959D01*
X95823489Y-27448885D01*
X96309670Y-27124029D01*
X96520000Y-26809248D01*
X96730330Y-27124029D01*
X97216511Y-27448885D01*
X97790000Y-27562959D01*
X98363489Y-27448885D01*
X98849670Y-27124029D01*
X99060000Y-26809248D01*
X99270330Y-27124029D01*
X99756511Y-27448885D01*
X100330000Y-27562959D01*
X100903489Y-27448885D01*
X101389670Y-27124029D01*
X101714526Y-26637848D01*
X101828600Y-26064359D01*
X101828600Y-26005641D01*
X101714526Y-25432152D01*
X101389670Y-24945971D01*
X101118828Y-24765000D01*
X101389670Y-24584029D01*
X101479615Y-24449417D01*
X106555000Y-29524803D01*
X106555000Y-34995197D01*
X101502401Y-29942599D01*
X101255839Y-29777852D01*
X100965000Y-29720000D01*
X99695000Y-29720000D01*
X99404161Y-29777852D01*
X99157599Y-29942599D01*
X98167973Y-30932225D01*
X97790000Y-30857041D01*
X97216511Y-30971115D01*
X96730330Y-31295971D01*
X96520000Y-31610752D01*
X96309670Y-31295971D01*
X95823489Y-30971115D01*
X95250000Y-30857041D01*
X94676511Y-30971115D01*
X94190330Y-31295971D01*
X93980000Y-31610752D01*
X93769670Y-31295971D01*
X93283489Y-30971115D01*
X92710000Y-30857041D01*
X92136511Y-30971115D01*
X91650330Y-31295971D01*
X91325474Y-31782152D01*
X91211400Y-32355641D01*
X91211400Y-32414359D01*
X91325474Y-32987848D01*
X91640526Y-33459356D01*
X91486701Y-33523073D01*
X91308073Y-33701702D01*
X91211400Y-33935091D01*
X91211400Y-34639250D01*
X91370150Y-34798000D01*
X92583000Y-34798000D01*
X92583000Y-34778000D01*
X92837000Y-34778000D01*
X92837000Y-34798000D01*
X92857000Y-34798000D01*
X92857000Y-35052000D01*
X92837000Y-35052000D01*
X92837000Y-36264850D01*
X92995750Y-36423600D01*
X93699910Y-36423600D01*
X93933299Y-36326927D01*
X94111927Y-36148298D01*
X94176263Y-35992977D01*
X94190330Y-36014029D01*
X94676511Y-36338885D01*
X95250000Y-36452959D01*
X95823489Y-36338885D01*
X96309670Y-36014029D01*
X96520000Y-35699248D01*
X96730330Y-36014029D01*
X97216511Y-36338885D01*
X97790000Y-36452959D01*
X98363489Y-36338885D01*
X98849670Y-36014029D01*
X99060000Y-35699248D01*
X99270330Y-36014029D01*
X99756511Y-36338885D01*
X100330000Y-36452959D01*
X100903489Y-36338885D01*
X101389670Y-36014029D01*
X101714526Y-35527848D01*
X101828600Y-34954359D01*
X101828600Y-34895641D01*
X101714526Y-34322152D01*
X101389670Y-33835971D01*
X101118828Y-33655000D01*
X101389670Y-33474029D01*
X101479615Y-33339417D01*
X104650000Y-36509802D01*
X104650000Y-39440198D01*
X103407401Y-38197599D01*
X103160839Y-38032852D01*
X102870000Y-37975000D01*
X98425000Y-37975000D01*
X98134161Y-38032852D01*
X97887599Y-38197599D01*
X97252599Y-38832599D01*
X97087852Y-39079161D01*
X97034419Y-39347785D01*
X96730330Y-39550971D01*
X96520000Y-39865752D01*
X96309670Y-39550971D01*
X95823489Y-39226115D01*
X95250000Y-39112041D01*
X94676511Y-39226115D01*
X94190330Y-39550971D01*
X93980000Y-39865752D01*
X93769670Y-39550971D01*
X93283489Y-39226115D01*
X92710000Y-39112041D01*
X92136511Y-39226115D01*
X91650330Y-39550971D01*
X91325474Y-40037152D01*
X91211400Y-40610641D01*
X91211400Y-40669359D01*
X91325474Y-41242848D01*
X91640526Y-41714356D01*
X91486701Y-41778073D01*
X91308073Y-41956702D01*
X91211400Y-42190091D01*
X91211400Y-42894250D01*
X91370150Y-43053000D01*
X92583000Y-43053000D01*
X92583000Y-43033000D01*
X92837000Y-43033000D01*
X92837000Y-43053000D01*
X92857000Y-43053000D01*
X92857000Y-43307000D01*
X92837000Y-43307000D01*
X92837000Y-44519850D01*
X92995750Y-44678600D01*
X93699910Y-44678600D01*
X93933299Y-44581927D01*
X94111927Y-44403298D01*
X94176263Y-44247977D01*
X94190330Y-44269029D01*
X94676511Y-44593885D01*
X95250000Y-44707959D01*
X95823489Y-44593885D01*
X96309670Y-44269029D01*
X96520000Y-43954248D01*
X96730330Y-44269029D01*
X97216511Y-44593885D01*
X97790000Y-44707959D01*
X98363489Y-44593885D01*
X98849670Y-44269029D01*
X99060000Y-43954248D01*
X99270330Y-44269029D01*
X99756511Y-44593885D01*
X100330000Y-44707959D01*
X100903489Y-44593885D01*
X101389670Y-44269029D01*
X101714526Y-43782848D01*
X101828600Y-43209359D01*
X101828600Y-43150641D01*
X101714526Y-42577152D01*
X101389670Y-42090971D01*
X101118828Y-41910000D01*
X101389670Y-41729029D01*
X101609520Y-41400000D01*
X102555198Y-41400000D01*
X102745000Y-41589802D01*
X102745000Y-47060198D01*
X102137401Y-46452599D01*
X101890839Y-46287852D01*
X101600000Y-46230000D01*
X98425000Y-46230000D01*
X98134161Y-46287852D01*
X97887599Y-46452599D01*
X97252599Y-47087599D01*
X97087852Y-47334161D01*
X97034419Y-47602785D01*
X96730330Y-47805971D01*
X96520000Y-48120752D01*
X96309670Y-47805971D01*
X95823489Y-47481115D01*
X95250000Y-47367041D01*
X94676511Y-47481115D01*
X94190330Y-47805971D01*
X93980000Y-48120752D01*
X93769670Y-47805971D01*
X93283489Y-47481115D01*
X92710000Y-47367041D01*
X92136511Y-47481115D01*
X91650330Y-47805971D01*
X91325474Y-48292152D01*
X91211400Y-48865641D01*
X91211400Y-48924359D01*
X91325474Y-49497848D01*
X91640526Y-49969356D01*
X91486701Y-50033073D01*
X91308073Y-50211702D01*
X91211400Y-50445091D01*
X91211400Y-51149250D01*
X91370150Y-51308000D01*
X92583000Y-51308000D01*
X92583000Y-51288000D01*
X92837000Y-51288000D01*
X92837000Y-51308000D01*
X92857000Y-51308000D01*
X92857000Y-51562000D01*
X92837000Y-51562000D01*
X92837000Y-52774850D01*
X92995750Y-52933600D01*
X93134821Y-52933600D01*
X85993420Y-60075000D01*
X60308499Y-60075000D01*
X60695789Y-59816222D01*
X60870332Y-59555000D01*
X62230000Y-59555000D01*
X62664346Y-59468603D01*
X63032566Y-59222566D01*
X65572566Y-56682567D01*
X65818603Y-56314346D01*
X65847148Y-56170839D01*
X65905000Y-55880000D01*
X65905000Y-54360363D01*
X66061231Y-54204404D01*
X66293735Y-53644472D01*
X66294264Y-53038188D01*
X66062738Y-52477851D01*
X65634404Y-52048769D01*
X65074472Y-51816265D01*
X64468188Y-51815736D01*
X63907851Y-52047262D01*
X63478769Y-52475596D01*
X63246265Y-53035528D01*
X63245736Y-53641812D01*
X63477262Y-54202149D01*
X63635000Y-54360162D01*
X63635000Y-55409867D01*
X61759868Y-57285000D01*
X60870332Y-57285000D01*
X60695789Y-57023778D01*
X60234329Y-56715441D01*
X59690000Y-56607167D01*
X59145671Y-56715441D01*
X58684211Y-57023778D01*
X58420000Y-57419199D01*
X58155789Y-57023778D01*
X57694329Y-56715441D01*
X57150000Y-56607167D01*
X56605671Y-56715441D01*
X56144211Y-57023778D01*
X55880000Y-57419199D01*
X55615789Y-57023778D01*
X55154329Y-56715441D01*
X54610000Y-56607167D01*
X54065671Y-56715441D01*
X53604211Y-57023778D01*
X53340246Y-57418830D01*
X53335525Y-57402738D01*
X52985986Y-56968809D01*
X52496996Y-56701673D01*
X52417060Y-56684990D01*
X52197000Y-56807148D01*
X52197000Y-58293000D01*
X52217000Y-58293000D01*
X52217000Y-58547000D01*
X52197000Y-58547000D01*
X52197000Y-58567000D01*
X51943000Y-58567000D01*
X51943000Y-58547000D01*
X51923000Y-58547000D01*
X51923000Y-58293000D01*
X51943000Y-58293000D01*
X51943000Y-56807148D01*
X51722940Y-56684990D01*
X51643004Y-56701673D01*
X51154014Y-56968809D01*
X50804475Y-57402738D01*
X50799754Y-57418830D01*
X50535789Y-57023778D01*
X50415000Y-56943070D01*
X50415000Y-54701126D01*
X50589670Y-54584415D01*
X50800000Y-54269634D01*
X51010330Y-54584415D01*
X51496511Y-54909271D01*
X52070000Y-55023345D01*
X52643489Y-54909271D01*
X53129670Y-54584415D01*
X53340000Y-54269634D01*
X53550330Y-54584415D01*
X54036511Y-54909271D01*
X54610000Y-55023345D01*
X55183489Y-54909271D01*
X55669670Y-54584415D01*
X55684500Y-54562220D01*
X55748073Y-54715698D01*
X55926701Y-54894327D01*
X56160090Y-54991000D01*
X56864250Y-54991000D01*
X57023000Y-54832250D01*
X57023000Y-53467000D01*
X57277000Y-53467000D01*
X57277000Y-54832250D01*
X57435750Y-54991000D01*
X58139910Y-54991000D01*
X58373299Y-54894327D01*
X58551927Y-54715698D01*
X58648600Y-54482309D01*
X58648600Y-54412196D01*
X60067409Y-54412196D01*
X60152467Y-54667539D01*
X60721965Y-54875516D01*
X61327700Y-54849723D01*
X61767533Y-54667539D01*
X61852591Y-54412196D01*
X60960000Y-53519605D01*
X60067409Y-54412196D01*
X58648600Y-54412196D01*
X58648600Y-53625750D01*
X58489850Y-53467000D01*
X57277000Y-53467000D01*
X57023000Y-53467000D01*
X57003000Y-53467000D01*
X57003000Y-53213000D01*
X57023000Y-53213000D01*
X57023000Y-51847750D01*
X57277000Y-51847750D01*
X57277000Y-53213000D01*
X58489850Y-53213000D01*
X58600885Y-53101965D01*
X59424484Y-53101965D01*
X59450277Y-53707700D01*
X59632461Y-54147533D01*
X59887804Y-54232591D01*
X60780395Y-53340000D01*
X61139605Y-53340000D01*
X62032196Y-54232591D01*
X62287539Y-54147533D01*
X62495516Y-53578035D01*
X62469723Y-52972300D01*
X62287539Y-52532467D01*
X62032196Y-52447409D01*
X61139605Y-53340000D01*
X60780395Y-53340000D01*
X59887804Y-52447409D01*
X59632461Y-52532467D01*
X59424484Y-53101965D01*
X58600885Y-53101965D01*
X58648600Y-53054250D01*
X58648600Y-52267804D01*
X60067409Y-52267804D01*
X60960000Y-53160395D01*
X61852591Y-52267804D01*
X61767533Y-52012461D01*
X61198035Y-51804484D01*
X60592300Y-51830277D01*
X60152467Y-52012461D01*
X60067409Y-52267804D01*
X58648600Y-52267804D01*
X58648600Y-52197691D01*
X58551927Y-51964302D01*
X58373299Y-51785673D01*
X58216562Y-51720750D01*
X91211400Y-51720750D01*
X91211400Y-52424909D01*
X91308073Y-52658298D01*
X91486701Y-52836927D01*
X91720090Y-52933600D01*
X92424250Y-52933600D01*
X92583000Y-52774850D01*
X92583000Y-51562000D01*
X91370150Y-51562000D01*
X91211400Y-51720750D01*
X58216562Y-51720750D01*
X58139910Y-51689000D01*
X57435750Y-51689000D01*
X57277000Y-51847750D01*
X57023000Y-51847750D01*
X56864250Y-51689000D01*
X56160090Y-51689000D01*
X55926701Y-51785673D01*
X55748073Y-51964302D01*
X55745000Y-51971721D01*
X55745000Y-50165000D01*
X55658603Y-49730654D01*
X55412566Y-49362434D01*
X52237566Y-46187434D01*
X52228582Y-46181431D01*
X51869346Y-45941397D01*
X51435000Y-45855000D01*
X35484057Y-45855000D01*
X35496431Y-45836890D01*
X35547440Y-45585000D01*
X35547440Y-44035000D01*
X35503162Y-43799683D01*
X35364090Y-43583559D01*
X35215179Y-43481812D01*
X59435736Y-43481812D01*
X59667262Y-44042149D01*
X60095596Y-44471231D01*
X60655528Y-44703735D01*
X61261812Y-44704264D01*
X61822149Y-44472738D01*
X62251231Y-44044404D01*
X62483735Y-43484472D01*
X62483737Y-43481812D01*
X63245736Y-43481812D01*
X63477262Y-44042149D01*
X63905596Y-44471231D01*
X64465528Y-44703735D01*
X65071812Y-44704264D01*
X65632149Y-44472738D01*
X66061231Y-44044404D01*
X66293735Y-43484472D01*
X66293751Y-43465750D01*
X91211400Y-43465750D01*
X91211400Y-44169909D01*
X91308073Y-44403298D01*
X91486701Y-44581927D01*
X91720090Y-44678600D01*
X92424250Y-44678600D01*
X92583000Y-44519850D01*
X92583000Y-43307000D01*
X91370150Y-43307000D01*
X91211400Y-43465750D01*
X66293751Y-43465750D01*
X66294264Y-42878188D01*
X66062738Y-42317851D01*
X65634404Y-41888769D01*
X65074472Y-41656265D01*
X64468188Y-41655736D01*
X63907851Y-41887262D01*
X63478769Y-42315596D01*
X63246265Y-42875528D01*
X63245736Y-43481812D01*
X62483737Y-43481812D01*
X62484264Y-42878188D01*
X62252738Y-42317851D01*
X61824404Y-41888769D01*
X61264472Y-41656265D01*
X60658188Y-41655736D01*
X60097851Y-41887262D01*
X59668769Y-42315596D01*
X59436265Y-42875528D01*
X59435736Y-43481812D01*
X35215179Y-43481812D01*
X35151890Y-43438569D01*
X34900000Y-43387560D01*
X34645000Y-43387560D01*
X34645000Y-43035000D01*
X34558603Y-42600654D01*
X34312566Y-42232434D01*
X30345000Y-38264868D01*
X30345000Y-35484898D01*
X30422310Y-35605041D01*
X30634510Y-35750031D01*
X30886400Y-35801040D01*
X32613600Y-35801040D01*
X32848917Y-35756762D01*
X33065041Y-35617690D01*
X33210031Y-35405490D01*
X33218864Y-35361869D01*
X33230330Y-35379029D01*
X33716511Y-35703885D01*
X34290000Y-35817959D01*
X34863489Y-35703885D01*
X35349670Y-35379029D01*
X35560000Y-35064248D01*
X35770330Y-35379029D01*
X36256511Y-35703885D01*
X36830000Y-35817959D01*
X37403489Y-35703885D01*
X37889670Y-35379029D01*
X38100000Y-35064248D01*
X38310330Y-35379029D01*
X38796511Y-35703885D01*
X39370000Y-35817959D01*
X39943489Y-35703885D01*
X40429670Y-35379029D01*
X40645664Y-35055772D01*
X40703179Y-35178490D01*
X41135053Y-35572688D01*
X41550974Y-35744958D01*
X41783000Y-35623817D01*
X41783000Y-34417000D01*
X41763000Y-34417000D01*
X41763000Y-34163000D01*
X41783000Y-34163000D01*
X41783000Y-34143000D01*
X42037000Y-34143000D01*
X42037000Y-34163000D01*
X42057000Y-34163000D01*
X42057000Y-34417000D01*
X42037000Y-34417000D01*
X42037000Y-35623817D01*
X42269026Y-35744958D01*
X42684947Y-35572688D01*
X43116821Y-35178490D01*
X43174336Y-35055772D01*
X43390330Y-35379029D01*
X43876511Y-35703885D01*
X44450000Y-35817959D01*
X45023489Y-35703885D01*
X45509670Y-35379029D01*
X45720000Y-35064248D01*
X45930330Y-35379029D01*
X46416511Y-35703885D01*
X46990000Y-35817959D01*
X47563489Y-35703885D01*
X48049670Y-35379029D01*
X48260000Y-35064248D01*
X48470330Y-35379029D01*
X48956511Y-35703885D01*
X49530000Y-35817959D01*
X50103489Y-35703885D01*
X50589670Y-35379029D01*
X50800000Y-35064248D01*
X51010330Y-35379029D01*
X51496511Y-35703885D01*
X52070000Y-35817959D01*
X52643489Y-35703885D01*
X53129670Y-35379029D01*
X53340000Y-35064248D01*
X53550330Y-35379029D01*
X54036511Y-35703885D01*
X54610000Y-35817959D01*
X55183489Y-35703885D01*
X55669670Y-35379029D01*
X55880000Y-35064248D01*
X56090330Y-35379029D01*
X56576511Y-35703885D01*
X57150000Y-35817959D01*
X57723489Y-35703885D01*
X58209670Y-35379029D01*
X58420000Y-35064248D01*
X58630330Y-35379029D01*
X58805000Y-35495740D01*
X58805000Y-36194995D01*
X58804999Y-36195000D01*
X58861190Y-36477484D01*
X58872367Y-36533675D01*
X59064210Y-36820790D01*
X59699208Y-37455787D01*
X59699210Y-37455790D01*
X59859062Y-37562599D01*
X59986326Y-37647634D01*
X60325000Y-37715001D01*
X60325005Y-37715000D01*
X81914995Y-37715000D01*
X81915000Y-37715001D01*
X82197484Y-37658810D01*
X82253675Y-37647633D01*
X82540790Y-37455790D01*
X84445787Y-35550792D01*
X84445790Y-35550790D01*
X84637633Y-35263675D01*
X84648160Y-35210750D01*
X91211400Y-35210750D01*
X91211400Y-35914909D01*
X91308073Y-36148298D01*
X91486701Y-36326927D01*
X91720090Y-36423600D01*
X92424250Y-36423600D01*
X92583000Y-36264850D01*
X92583000Y-35052000D01*
X91370150Y-35052000D01*
X91211400Y-35210750D01*
X84648160Y-35210750D01*
X84648810Y-35207484D01*
X84705001Y-34925000D01*
X84705000Y-34924995D01*
X84705000Y-26320750D01*
X91211400Y-26320750D01*
X91211400Y-27024909D01*
X91308073Y-27258298D01*
X91486701Y-27436927D01*
X91720090Y-27533600D01*
X92424250Y-27533600D01*
X92583000Y-27374850D01*
X92583000Y-26162000D01*
X91370150Y-26162000D01*
X91211400Y-26320750D01*
X84705000Y-26320750D01*
X84705000Y-21590005D01*
X84705001Y-21590000D01*
X84637633Y-21251326D01*
X84637633Y-21251325D01*
X84445790Y-20964210D01*
X84445787Y-20964208D01*
X83052924Y-19571344D01*
X104114501Y-19571344D01*
X104552790Y-20632086D01*
X105363645Y-21444357D01*
X106423620Y-21884498D01*
X107571344Y-21885499D01*
X108632086Y-21447210D01*
X109444357Y-20636355D01*
X109884498Y-19576380D01*
X109885499Y-18428656D01*
X109447210Y-17367914D01*
X108636355Y-16555643D01*
X107576380Y-16115502D01*
X106428656Y-16114501D01*
X105367914Y-16552790D01*
X104555643Y-17363645D01*
X104115502Y-18423620D01*
X104114501Y-19571344D01*
X83052924Y-19571344D01*
X81270790Y-17789210D01*
X80983675Y-17597367D01*
X80927484Y-17586190D01*
X80645000Y-17529999D01*
X80644995Y-17530000D01*
X43815005Y-17530000D01*
X43815000Y-17529999D01*
X43532516Y-17586190D01*
X43476325Y-17597367D01*
X43189210Y-17789210D01*
X43189208Y-17789213D01*
X41284210Y-19694210D01*
X41092367Y-19981326D01*
X41024999Y-20320000D01*
X41092367Y-20658674D01*
X41150000Y-20744929D01*
X41150000Y-21320422D01*
X41014791Y-21255291D01*
X40999026Y-21252642D01*
X40767000Y-21373783D01*
X40767000Y-22733000D01*
X40787000Y-22733000D01*
X40787000Y-22987000D01*
X40767000Y-22987000D01*
X40767000Y-24346217D01*
X40999026Y-24467358D01*
X41014791Y-24464709D01*
X41150000Y-24399578D01*
X41150000Y-24765000D01*
X41207852Y-25055839D01*
X41372599Y-25302401D01*
X41707129Y-25636931D01*
X41727367Y-25738675D01*
X41919210Y-26025790D01*
X42206325Y-26217633D01*
X42545000Y-26285000D01*
X52704995Y-26285000D01*
X52705000Y-26285001D01*
X52987484Y-26228810D01*
X53043675Y-26217633D01*
X53330790Y-26025790D01*
X53330791Y-26025789D01*
X53965787Y-25390792D01*
X53965790Y-25390790D01*
X54126680Y-25150000D01*
X54157634Y-25103674D01*
X54225001Y-24765000D01*
X54225000Y-24764995D01*
X54225000Y-24221126D01*
X54399670Y-24104415D01*
X54610000Y-23789634D01*
X54820330Y-24104415D01*
X54995000Y-24221126D01*
X54995000Y-25033421D01*
X53608420Y-26420000D01*
X46355005Y-26420000D01*
X46355000Y-26419999D01*
X46072516Y-26476190D01*
X46016325Y-26487367D01*
X45729210Y-26679210D01*
X45729208Y-26679213D01*
X43824210Y-28584210D01*
X43632367Y-28871325D01*
X43632367Y-28871326D01*
X43564999Y-29210000D01*
X43565000Y-29210005D01*
X43565000Y-30544260D01*
X43390330Y-30660971D01*
X43180000Y-30975752D01*
X42969670Y-30660971D01*
X42483489Y-30336115D01*
X41910000Y-30222041D01*
X41336511Y-30336115D01*
X40850330Y-30660971D01*
X40640000Y-30975752D01*
X40429670Y-30660971D01*
X39943489Y-30336115D01*
X39370000Y-30222041D01*
X38796511Y-30336115D01*
X38310330Y-30660971D01*
X38094336Y-30984228D01*
X38036821Y-30861510D01*
X37604947Y-30467312D01*
X37189026Y-30295042D01*
X36957000Y-30416183D01*
X36957000Y-31623000D01*
X36977000Y-31623000D01*
X36977000Y-31877000D01*
X36957000Y-31877000D01*
X36957000Y-31897000D01*
X36703000Y-31897000D01*
X36703000Y-31877000D01*
X36683000Y-31877000D01*
X36683000Y-31623000D01*
X36703000Y-31623000D01*
X36703000Y-30416183D01*
X36470974Y-30295042D01*
X36055053Y-30467312D01*
X35623179Y-30861510D01*
X35565664Y-30984228D01*
X35349670Y-30660971D01*
X34863489Y-30336115D01*
X34290000Y-30222041D01*
X33716511Y-30336115D01*
X33230330Y-30660971D01*
X33020000Y-30975752D01*
X32885000Y-30773710D01*
X32885000Y-27775132D01*
X36665132Y-23995000D01*
X36967221Y-23995000D01*
X37040330Y-24104415D01*
X37526511Y-24429271D01*
X38100000Y-24543345D01*
X38673489Y-24429271D01*
X39159670Y-24104415D01*
X39366461Y-23794931D01*
X39737964Y-24210732D01*
X40265209Y-24464709D01*
X40280974Y-24467358D01*
X40513000Y-24346217D01*
X40513000Y-22987000D01*
X40493000Y-22987000D01*
X40493000Y-22733000D01*
X40513000Y-22733000D01*
X40513000Y-21373783D01*
X40280974Y-21252642D01*
X40265209Y-21255291D01*
X39737964Y-21509268D01*
X39366461Y-21925069D01*
X39159670Y-21615585D01*
X38673489Y-21290729D01*
X38100000Y-21176655D01*
X37526511Y-21290729D01*
X37040330Y-21615585D01*
X36967221Y-21725000D01*
X36195000Y-21725000D01*
X35760654Y-21811397D01*
X35576925Y-21934161D01*
X35392434Y-22057434D01*
X30947434Y-26502434D01*
X30701397Y-26870654D01*
X30615000Y-27305000D01*
X30615000Y-30615000D01*
X29845000Y-30615000D01*
X29410655Y-30701396D01*
X29042434Y-30947434D01*
X28407434Y-31582434D01*
X28161397Y-31950654D01*
X28075000Y-32385000D01*
X28075000Y-38735000D01*
X28161397Y-39169346D01*
X28378992Y-39495000D01*
X28407434Y-39537566D01*
X32257428Y-43387560D01*
X32120000Y-43387560D01*
X31884683Y-43431838D01*
X31668559Y-43570910D01*
X31523569Y-43783110D01*
X31472560Y-44035000D01*
X31472560Y-45585000D01*
X31516838Y-45820317D01*
X31539156Y-45855000D01*
X30887440Y-45855000D01*
X30887440Y-43620000D01*
X30843162Y-43384683D01*
X30704090Y-43168559D01*
X30491890Y-43023569D01*
X30240000Y-42972560D01*
X23510000Y-42972560D01*
X23274683Y-43016838D01*
X23058559Y-43155910D01*
X22913569Y-43368110D01*
X22862560Y-43620000D01*
X22862560Y-47287308D01*
X20787434Y-49362434D01*
X20541397Y-49730654D01*
X20455000Y-50165000D01*
X16710000Y-50165000D01*
X16710000Y-19571344D01*
X18114501Y-19571344D01*
X18552790Y-20632086D01*
X19363645Y-21444357D01*
X20423620Y-21884498D01*
X21571344Y-21885499D01*
X22632086Y-21447210D01*
X23444357Y-20636355D01*
X23884498Y-19576380D01*
X23885499Y-18428656D01*
X23447210Y-17367914D01*
X22636355Y-16555643D01*
X21576380Y-16115502D01*
X20428656Y-16114501D01*
X19367914Y-16552790D01*
X18555643Y-17363645D01*
X18115502Y-18423620D01*
X18114501Y-19571344D01*
X16710000Y-19571344D01*
X16710000Y-14710000D01*
X111290000Y-14710000D01*
X111290000Y-89290000D01*
G36*
X50935000Y-74862844D02*
X50935000Y-79154043D01*
X50781380Y-79049079D01*
X50529490Y-78998070D01*
X48530510Y-78998070D01*
X48295193Y-79042348D01*
X48079069Y-79181420D01*
X47934079Y-79393620D01*
X47883070Y-79645510D01*
X47883070Y-81644490D01*
X47927348Y-81879807D01*
X48066420Y-82095931D01*
X48278620Y-82240921D01*
X48530510Y-82291930D01*
X50529490Y-82291930D01*
X50764807Y-82247652D01*
X50935000Y-82138136D01*
X50935000Y-82962995D01*
X50889188Y-82917183D01*
X50655799Y-82820510D01*
X49815750Y-82820510D01*
X49657000Y-82979260D01*
X49657000Y-84328000D01*
X49677000Y-84328000D01*
X49677000Y-84582000D01*
X49657000Y-84582000D01*
X49657000Y-84602000D01*
X49403000Y-84602000D01*
X49403000Y-84582000D01*
X48054260Y-84582000D01*
X47895510Y-84740750D01*
X47895510Y-85580800D01*
X47992183Y-85814189D01*
X48037994Y-85860000D01*
X43402006Y-85860000D01*
X43447817Y-85814189D01*
X43544490Y-85580800D01*
X43544490Y-84740750D01*
X43385740Y-84582000D01*
X42037000Y-84582000D01*
X42037000Y-84602000D01*
X41783000Y-84602000D01*
X41783000Y-84582000D01*
X40434260Y-84582000D01*
X40275510Y-84740750D01*
X40275510Y-85580800D01*
X40372183Y-85814189D01*
X40417994Y-85860000D01*
X38322006Y-85860000D01*
X38367817Y-85814189D01*
X38464490Y-85580800D01*
X38464490Y-84740750D01*
X38305740Y-84582000D01*
X36957000Y-84582000D01*
X36957000Y-84602000D01*
X36703000Y-84602000D01*
X36703000Y-84582000D01*
X35354260Y-84582000D01*
X35195510Y-84740750D01*
X35195510Y-85580800D01*
X35292183Y-85814189D01*
X35337994Y-85860000D01*
X31585132Y-85860000D01*
X29910132Y-84185000D01*
X30194250Y-84185000D01*
X30353000Y-84026250D01*
X30353000Y-82677000D01*
X29003750Y-82677000D01*
X28845000Y-82835750D01*
X28845000Y-83119868D01*
X27148823Y-81423691D01*
X28845000Y-81423691D01*
X28845000Y-82264250D01*
X29003750Y-82423000D01*
X30353000Y-82423000D01*
X30353000Y-81073750D01*
X30607000Y-81073750D01*
X30607000Y-82423000D01*
X30627000Y-82423000D01*
X30627000Y-82677000D01*
X30607000Y-82677000D01*
X30607000Y-84026250D01*
X30765750Y-84185000D01*
X31606310Y-84185000D01*
X31839699Y-84088327D01*
X32018327Y-83909698D01*
X32032630Y-83875166D01*
X32092637Y-83935278D01*
X32693352Y-84184716D01*
X33343795Y-84185284D01*
X33944943Y-83936894D01*
X34405278Y-83477363D01*
X34466800Y-83329200D01*
X35195510Y-83329200D01*
X35195510Y-84169250D01*
X35354260Y-84328000D01*
X36703000Y-84328000D01*
X36703000Y-82979260D01*
X36957000Y-82979260D01*
X36957000Y-84328000D01*
X38305740Y-84328000D01*
X38464490Y-84169250D01*
X38464490Y-83329200D01*
X40275510Y-83329200D01*
X40275510Y-84169250D01*
X40434260Y-84328000D01*
X41783000Y-84328000D01*
X41783000Y-82979260D01*
X42037000Y-82979260D01*
X42037000Y-84328000D01*
X43385740Y-84328000D01*
X43544490Y-84169250D01*
X43544490Y-83329200D01*
X47895510Y-83329200D01*
X47895510Y-84169250D01*
X48054260Y-84328000D01*
X49403000Y-84328000D01*
X49403000Y-82979260D01*
X49244250Y-82820510D01*
X48404201Y-82820510D01*
X48170812Y-82917183D01*
X47992183Y-83095811D01*
X47895510Y-83329200D01*
X43544490Y-83329200D01*
X43447817Y-83095811D01*
X43269188Y-82917183D01*
X43035799Y-82820510D01*
X42195750Y-82820510D01*
X42037000Y-82979260D01*
X41783000Y-82979260D01*
X41624250Y-82820510D01*
X40784201Y-82820510D01*
X40550812Y-82917183D01*
X40372183Y-83095811D01*
X40275510Y-83329200D01*
X38464490Y-83329200D01*
X38367817Y-83095811D01*
X38189188Y-82917183D01*
X37955799Y-82820510D01*
X37115750Y-82820510D01*
X36957000Y-82979260D01*
X36703000Y-82979260D01*
X36544250Y-82820510D01*
X35704201Y-82820510D01*
X35470812Y-82917183D01*
X35292183Y-83095811D01*
X35195510Y-83329200D01*
X34466800Y-83329200D01*
X34654716Y-82876648D01*
X34655284Y-82226205D01*
X34406894Y-81625057D01*
X34155000Y-81372722D01*
X34155000Y-79645510D01*
X35183070Y-79645510D01*
X35183070Y-81644490D01*
X35227348Y-81879807D01*
X35366420Y-82095931D01*
X35578620Y-82240921D01*
X35830510Y-82291930D01*
X37829490Y-82291930D01*
X38064807Y-82247652D01*
X38280931Y-82108580D01*
X38425921Y-81896380D01*
X38476930Y-81644490D01*
X38476930Y-81405000D01*
X40263070Y-81405000D01*
X40263070Y-81644490D01*
X40307348Y-81879807D01*
X40446420Y-82095931D01*
X40658620Y-82240921D01*
X40910510Y-82291930D01*
X42909490Y-82291930D01*
X43144807Y-82247652D01*
X43360931Y-82108580D01*
X43505921Y-81896380D01*
X43556930Y-81644490D01*
X43556930Y-79645510D01*
X43512652Y-79410193D01*
X43373580Y-79194069D01*
X43161380Y-79049079D01*
X42909490Y-78998070D01*
X40910510Y-78998070D01*
X40675193Y-79042348D01*
X40459069Y-79181420D01*
X40314079Y-79393620D01*
X40263070Y-79645510D01*
X40263070Y-79885000D01*
X38476930Y-79885000D01*
X38476930Y-79645510D01*
X38432652Y-79410193D01*
X38293580Y-79194069D01*
X38081380Y-79049079D01*
X37829490Y-78998070D01*
X35830510Y-78998070D01*
X35595193Y-79042348D01*
X35379069Y-79181420D01*
X35234079Y-79393620D01*
X35183070Y-79645510D01*
X34155000Y-79645510D01*
X34155000Y-79210132D01*
X34371061Y-78994071D01*
X34591812Y-78994264D01*
X35152149Y-78762738D01*
X35581231Y-78334404D01*
X35813735Y-77774472D01*
X35814264Y-77168188D01*
X35582738Y-76607851D01*
X35154404Y-76178769D01*
X34594472Y-75946265D01*
X33988188Y-75945736D01*
X33427851Y-76177262D01*
X32998769Y-76605596D01*
X32766265Y-77165528D01*
X32766070Y-77388798D01*
X32217434Y-77937434D01*
X31971397Y-78305654D01*
X31885000Y-78740000D01*
X31885000Y-81056974D01*
X31839699Y-81011673D01*
X31606310Y-80915000D01*
X30765750Y-80915000D01*
X30607000Y-81073750D01*
X30353000Y-81073750D01*
X30194250Y-80915000D01*
X29353690Y-80915000D01*
X29120301Y-81011673D01*
X28941673Y-81190302D01*
X28845000Y-81423691D01*
X27148823Y-81423691D01*
X24635312Y-78910180D01*
X24992149Y-78762738D01*
X25421231Y-78334404D01*
X25653735Y-77774472D01*
X25654264Y-77168188D01*
X25422738Y-76607851D01*
X25265000Y-76449838D01*
X25265000Y-75333910D01*
X25368841Y-75267090D01*
X25513831Y-75054890D01*
X25548600Y-74883197D01*
X25664211Y-75056222D01*
X26125671Y-75364559D01*
X26670000Y-75472833D01*
X27214329Y-75364559D01*
X27675789Y-75056222D01*
X27940000Y-74660801D01*
X28204211Y-75056222D01*
X28665671Y-75364559D01*
X29210000Y-75472833D01*
X29754329Y-75364559D01*
X30215789Y-75056222D01*
X30480000Y-74660801D01*
X30744211Y-75056222D01*
X31205671Y-75364559D01*
X31750000Y-75472833D01*
X32294329Y-75364559D01*
X32755789Y-75056222D01*
X33020000Y-74660801D01*
X33284211Y-75056222D01*
X33745671Y-75364559D01*
X34290000Y-75472833D01*
X34834329Y-75364559D01*
X35295789Y-75056222D01*
X35560000Y-74660801D01*
X35824211Y-75056222D01*
X36285671Y-75364559D01*
X36830000Y-75472833D01*
X37374329Y-75364559D01*
X37835789Y-75056222D01*
X38100000Y-74660801D01*
X38364211Y-75056222D01*
X38825671Y-75364559D01*
X39370000Y-75472833D01*
X39914329Y-75364559D01*
X40375789Y-75056222D01*
X40640000Y-74660801D01*
X40904211Y-75056222D01*
X41365671Y-75364559D01*
X41910000Y-75472833D01*
X42454329Y-75364559D01*
X42915789Y-75056222D01*
X43180000Y-74660801D01*
X43444211Y-75056222D01*
X43905671Y-75364559D01*
X44450000Y-75472833D01*
X44994329Y-75364559D01*
X45455789Y-75056222D01*
X45720000Y-74660801D01*
X45984211Y-75056222D01*
X46445671Y-75364559D01*
X46990000Y-75472833D01*
X47534329Y-75364559D01*
X47995789Y-75056222D01*
X48260000Y-74660801D01*
X48524211Y-75056222D01*
X48985671Y-75364559D01*
X49530000Y-75472833D01*
X50074329Y-75364559D01*
X50535789Y-75056222D01*
X50800000Y-74660801D01*
X50935000Y-74862844D01*
X50935000Y-74862844D01*
G37*
X50935000Y-74862844D02*
X50935000Y-79154043D01*
X50781380Y-79049079D01*
X50529490Y-78998070D01*
X48530510Y-78998070D01*
X48295193Y-79042348D01*
X48079069Y-79181420D01*
X47934079Y-79393620D01*
X47883070Y-79645510D01*
X47883070Y-81644490D01*
X47927348Y-81879807D01*
X48066420Y-82095931D01*
X48278620Y-82240921D01*
X48530510Y-82291930D01*
X50529490Y-82291930D01*
X50764807Y-82247652D01*
X50935000Y-82138136D01*
X50935000Y-82962995D01*
X50889188Y-82917183D01*
X50655799Y-82820510D01*
X49815750Y-82820510D01*
X49657000Y-82979260D01*
X49657000Y-84328000D01*
X49677000Y-84328000D01*
X49677000Y-84582000D01*
X49657000Y-84582000D01*
X49657000Y-84602000D01*
X49403000Y-84602000D01*
X49403000Y-84582000D01*
X48054260Y-84582000D01*
X47895510Y-84740750D01*
X47895510Y-85580800D01*
X47992183Y-85814189D01*
X48037994Y-85860000D01*
X43402006Y-85860000D01*
X43447817Y-85814189D01*
X43544490Y-85580800D01*
X43544490Y-84740750D01*
X43385740Y-84582000D01*
X42037000Y-84582000D01*
X42037000Y-84602000D01*
X41783000Y-84602000D01*
X41783000Y-84582000D01*
X40434260Y-84582000D01*
X40275510Y-84740750D01*
X40275510Y-85580800D01*
X40372183Y-85814189D01*
X40417994Y-85860000D01*
X38322006Y-85860000D01*
X38367817Y-85814189D01*
X38464490Y-85580800D01*
X38464490Y-84740750D01*
X38305740Y-84582000D01*
X36957000Y-84582000D01*
X36957000Y-84602000D01*
X36703000Y-84602000D01*
X36703000Y-84582000D01*
X35354260Y-84582000D01*
X35195510Y-84740750D01*
X35195510Y-85580800D01*
X35292183Y-85814189D01*
X35337994Y-85860000D01*
X31585132Y-85860000D01*
X29910132Y-84185000D01*
X30194250Y-84185000D01*
X30353000Y-84026250D01*
X30353000Y-82677000D01*
X29003750Y-82677000D01*
X28845000Y-82835750D01*
X28845000Y-83119868D01*
X27148823Y-81423691D01*
X28845000Y-81423691D01*
X28845000Y-82264250D01*
X29003750Y-82423000D01*
X30353000Y-82423000D01*
X30353000Y-81073750D01*
X30607000Y-81073750D01*
X30607000Y-82423000D01*
X30627000Y-82423000D01*
X30627000Y-82677000D01*
X30607000Y-82677000D01*
X30607000Y-84026250D01*
X30765750Y-84185000D01*
X31606310Y-84185000D01*
X31839699Y-84088327D01*
X32018327Y-83909698D01*
X32032630Y-83875166D01*
X32092637Y-83935278D01*
X32693352Y-84184716D01*
X33343795Y-84185284D01*
X33944943Y-83936894D01*
X34405278Y-83477363D01*
X34466800Y-83329200D01*
X35195510Y-83329200D01*
X35195510Y-84169250D01*
X35354260Y-84328000D01*
X36703000Y-84328000D01*
X36703000Y-82979260D01*
X36957000Y-82979260D01*
X36957000Y-84328000D01*
X38305740Y-84328000D01*
X38464490Y-84169250D01*
X38464490Y-83329200D01*
X40275510Y-83329200D01*
X40275510Y-84169250D01*
X40434260Y-84328000D01*
X41783000Y-84328000D01*
X41783000Y-82979260D01*
X42037000Y-82979260D01*
X42037000Y-84328000D01*
X43385740Y-84328000D01*
X43544490Y-84169250D01*
X43544490Y-83329200D01*
X47895510Y-83329200D01*
X47895510Y-84169250D01*
X48054260Y-84328000D01*
X49403000Y-84328000D01*
X49403000Y-82979260D01*
X49244250Y-82820510D01*
X48404201Y-82820510D01*
X48170812Y-82917183D01*
X47992183Y-83095811D01*
X47895510Y-83329200D01*
X43544490Y-83329200D01*
X43447817Y-83095811D01*
X43269188Y-82917183D01*
X43035799Y-82820510D01*
X42195750Y-82820510D01*
X42037000Y-82979260D01*
X41783000Y-82979260D01*
X41624250Y-82820510D01*
X40784201Y-82820510D01*
X40550812Y-82917183D01*
X40372183Y-83095811D01*
X40275510Y-83329200D01*
X38464490Y-83329200D01*
X38367817Y-83095811D01*
X38189188Y-82917183D01*
X37955799Y-82820510D01*
X37115750Y-82820510D01*
X36957000Y-82979260D01*
X36703000Y-82979260D01*
X36544250Y-82820510D01*
X35704201Y-82820510D01*
X35470812Y-82917183D01*
X35292183Y-83095811D01*
X35195510Y-83329200D01*
X34466800Y-83329200D01*
X34654716Y-82876648D01*
X34655284Y-82226205D01*
X34406894Y-81625057D01*
X34155000Y-81372722D01*
X34155000Y-79645510D01*
X35183070Y-79645510D01*
X35183070Y-81644490D01*
X35227348Y-81879807D01*
X35366420Y-82095931D01*
X35578620Y-82240921D01*
X35830510Y-82291930D01*
X37829490Y-82291930D01*
X38064807Y-82247652D01*
X38280931Y-82108580D01*
X38425921Y-81896380D01*
X38476930Y-81644490D01*
X38476930Y-81405000D01*
X40263070Y-81405000D01*
X40263070Y-81644490D01*
X40307348Y-81879807D01*
X40446420Y-82095931D01*
X40658620Y-82240921D01*
X40910510Y-82291930D01*
X42909490Y-82291930D01*
X43144807Y-82247652D01*
X43360931Y-82108580D01*
X43505921Y-81896380D01*
X43556930Y-81644490D01*
X43556930Y-79645510D01*
X43512652Y-79410193D01*
X43373580Y-79194069D01*
X43161380Y-79049079D01*
X42909490Y-78998070D01*
X40910510Y-78998070D01*
X40675193Y-79042348D01*
X40459069Y-79181420D01*
X40314079Y-79393620D01*
X40263070Y-79645510D01*
X40263070Y-79885000D01*
X38476930Y-79885000D01*
X38476930Y-79645510D01*
X38432652Y-79410193D01*
X38293580Y-79194069D01*
X38081380Y-79049079D01*
X37829490Y-78998070D01*
X35830510Y-78998070D01*
X35595193Y-79042348D01*
X35379069Y-79181420D01*
X35234079Y-79393620D01*
X35183070Y-79645510D01*
X34155000Y-79645510D01*
X34155000Y-79210132D01*
X34371061Y-78994071D01*
X34591812Y-78994264D01*
X35152149Y-78762738D01*
X35581231Y-78334404D01*
X35813735Y-77774472D01*
X35814264Y-77168188D01*
X35582738Y-76607851D01*
X35154404Y-76178769D01*
X34594472Y-75946265D01*
X33988188Y-75945736D01*
X33427851Y-76177262D01*
X32998769Y-76605596D01*
X32766265Y-77165528D01*
X32766070Y-77388798D01*
X32217434Y-77937434D01*
X31971397Y-78305654D01*
X31885000Y-78740000D01*
X31885000Y-81056974D01*
X31839699Y-81011673D01*
X31606310Y-80915000D01*
X30765750Y-80915000D01*
X30607000Y-81073750D01*
X30353000Y-81073750D01*
X30194250Y-80915000D01*
X29353690Y-80915000D01*
X29120301Y-81011673D01*
X28941673Y-81190302D01*
X28845000Y-81423691D01*
X27148823Y-81423691D01*
X24635312Y-78910180D01*
X24992149Y-78762738D01*
X25421231Y-78334404D01*
X25653735Y-77774472D01*
X25654264Y-77168188D01*
X25422738Y-76607851D01*
X25265000Y-76449838D01*
X25265000Y-75333910D01*
X25368841Y-75267090D01*
X25513831Y-75054890D01*
X25548600Y-74883197D01*
X25664211Y-75056222D01*
X26125671Y-75364559D01*
X26670000Y-75472833D01*
X27214329Y-75364559D01*
X27675789Y-75056222D01*
X27940000Y-74660801D01*
X28204211Y-75056222D01*
X28665671Y-75364559D01*
X29210000Y-75472833D01*
X29754329Y-75364559D01*
X30215789Y-75056222D01*
X30480000Y-74660801D01*
X30744211Y-75056222D01*
X31205671Y-75364559D01*
X31750000Y-75472833D01*
X32294329Y-75364559D01*
X32755789Y-75056222D01*
X33020000Y-74660801D01*
X33284211Y-75056222D01*
X33745671Y-75364559D01*
X34290000Y-75472833D01*
X34834329Y-75364559D01*
X35295789Y-75056222D01*
X35560000Y-74660801D01*
X35824211Y-75056222D01*
X36285671Y-75364559D01*
X36830000Y-75472833D01*
X37374329Y-75364559D01*
X37835789Y-75056222D01*
X38100000Y-74660801D01*
X38364211Y-75056222D01*
X38825671Y-75364559D01*
X39370000Y-75472833D01*
X39914329Y-75364559D01*
X40375789Y-75056222D01*
X40640000Y-74660801D01*
X40904211Y-75056222D01*
X41365671Y-75364559D01*
X41910000Y-75472833D01*
X42454329Y-75364559D01*
X42915789Y-75056222D01*
X43180000Y-74660801D01*
X43444211Y-75056222D01*
X43905671Y-75364559D01*
X44450000Y-75472833D01*
X44994329Y-75364559D01*
X45455789Y-75056222D01*
X45720000Y-74660801D01*
X45984211Y-75056222D01*
X46445671Y-75364559D01*
X46990000Y-75472833D01*
X47534329Y-75364559D01*
X47995789Y-75056222D01*
X48260000Y-74660801D01*
X48524211Y-75056222D01*
X48985671Y-75364559D01*
X49530000Y-75472833D01*
X50074329Y-75364559D01*
X50535789Y-75056222D01*
X50800000Y-74660801D01*
X50935000Y-74862844D01*
G36*
X82935000Y-21956579D02*
X82935000Y-34558421D01*
X81548420Y-35945000D01*
X60691579Y-35945000D01*
X60575000Y-35828420D01*
X60575000Y-35495740D01*
X60749670Y-35379029D01*
X60965664Y-35055772D01*
X61023179Y-35178490D01*
X61455053Y-35572688D01*
X61870974Y-35744958D01*
X62103000Y-35623817D01*
X62103000Y-34417000D01*
X62083000Y-34417000D01*
X62083000Y-34163000D01*
X62103000Y-34163000D01*
X62103000Y-34143000D01*
X62357000Y-34143000D01*
X62357000Y-34163000D01*
X62377000Y-34163000D01*
X62377000Y-34417000D01*
X62357000Y-34417000D01*
X62357000Y-35623817D01*
X62589026Y-35744958D01*
X63004947Y-35572688D01*
X63436821Y-35178490D01*
X63494336Y-35055772D01*
X63710330Y-35379029D01*
X64196511Y-35703885D01*
X64770000Y-35817959D01*
X65343489Y-35703885D01*
X65829670Y-35379029D01*
X66040000Y-35064248D01*
X66250330Y-35379029D01*
X66736511Y-35703885D01*
X67310000Y-35817959D01*
X67883489Y-35703885D01*
X68369670Y-35379029D01*
X68580000Y-35064248D01*
X68790330Y-35379029D01*
X69276511Y-35703885D01*
X69850000Y-35817959D01*
X70423489Y-35703885D01*
X70909670Y-35379029D01*
X71120000Y-35064248D01*
X71330330Y-35379029D01*
X71816511Y-35703885D01*
X72390000Y-35817959D01*
X72963489Y-35703885D01*
X73449670Y-35379029D01*
X73660000Y-35064248D01*
X73870330Y-35379029D01*
X74356511Y-35703885D01*
X74930000Y-35817959D01*
X75503489Y-35703885D01*
X75989670Y-35379029D01*
X76200000Y-35064248D01*
X76410330Y-35379029D01*
X76896511Y-35703885D01*
X77470000Y-35817959D01*
X78043489Y-35703885D01*
X78529670Y-35379029D01*
X78740000Y-35064248D01*
X78950330Y-35379029D01*
X79436511Y-35703885D01*
X80010000Y-35817959D01*
X80583489Y-35703885D01*
X81069670Y-35379029D01*
X81394526Y-34892848D01*
X81508600Y-34319359D01*
X81508600Y-34260641D01*
X81394526Y-33687152D01*
X81069670Y-33200971D01*
X80798828Y-33020000D01*
X81069670Y-32839029D01*
X81394526Y-32352848D01*
X81508600Y-31779359D01*
X81508600Y-31720641D01*
X81394526Y-31147152D01*
X81069670Y-30660971D01*
X80583489Y-30336115D01*
X80010000Y-30222041D01*
X79436511Y-30336115D01*
X78950330Y-30660971D01*
X78740000Y-30975752D01*
X78529670Y-30660971D01*
X78043489Y-30336115D01*
X77470000Y-30222041D01*
X76896511Y-30336115D01*
X76410330Y-30660971D01*
X76200000Y-30975752D01*
X75989670Y-30660971D01*
X75503489Y-30336115D01*
X74930000Y-30222041D01*
X74356511Y-30336115D01*
X73870330Y-30660971D01*
X73660000Y-30975752D01*
X73449670Y-30660971D01*
X72963489Y-30336115D01*
X72390000Y-30222041D01*
X71816511Y-30336115D01*
X71330330Y-30660971D01*
X71120000Y-30975752D01*
X70909670Y-30660971D01*
X70423489Y-30336115D01*
X69850000Y-30222041D01*
X69276511Y-30336115D01*
X68790330Y-30660971D01*
X68580000Y-30975752D01*
X68369670Y-30660971D01*
X67883489Y-30336115D01*
X67310000Y-30222041D01*
X66736511Y-30336115D01*
X66250330Y-30660971D01*
X66040000Y-30975752D01*
X65829670Y-30660971D01*
X65343489Y-30336115D01*
X64770000Y-30222041D01*
X64196511Y-30336115D01*
X63710330Y-30660971D01*
X63500000Y-30975752D01*
X63289670Y-30660971D01*
X62803489Y-30336115D01*
X62230000Y-30222041D01*
X61656511Y-30336115D01*
X61170330Y-30660971D01*
X60960000Y-30975752D01*
X60749670Y-30660971D01*
X60575000Y-30544260D01*
X60575000Y-28941580D01*
X62855787Y-26660792D01*
X62855790Y-26660790D01*
X63047633Y-26373675D01*
X63115000Y-26035000D01*
X63115000Y-20955005D01*
X63115001Y-20955000D01*
X63047633Y-20616325D01*
X63016680Y-20570000D01*
X62855790Y-20329210D01*
X62855787Y-20329208D01*
X61826580Y-19300000D01*
X80278420Y-19300000D01*
X82935000Y-21956579D01*
X82935000Y-21956579D01*
G37*
X82935000Y-21956579D02*
X82935000Y-34558421D01*
X81548420Y-35945000D01*
X60691579Y-35945000D01*
X60575000Y-35828420D01*
X60575000Y-35495740D01*
X60749670Y-35379029D01*
X60965664Y-35055772D01*
X61023179Y-35178490D01*
X61455053Y-35572688D01*
X61870974Y-35744958D01*
X62103000Y-35623817D01*
X62103000Y-34417000D01*
X62083000Y-34417000D01*
X62083000Y-34163000D01*
X62103000Y-34163000D01*
X62103000Y-34143000D01*
X62357000Y-34143000D01*
X62357000Y-34163000D01*
X62377000Y-34163000D01*
X62377000Y-34417000D01*
X62357000Y-34417000D01*
X62357000Y-35623817D01*
X62589026Y-35744958D01*
X63004947Y-35572688D01*
X63436821Y-35178490D01*
X63494336Y-35055772D01*
X63710330Y-35379029D01*
X64196511Y-35703885D01*
X64770000Y-35817959D01*
X65343489Y-35703885D01*
X65829670Y-35379029D01*
X66040000Y-35064248D01*
X66250330Y-35379029D01*
X66736511Y-35703885D01*
X67310000Y-35817959D01*
X67883489Y-35703885D01*
X68369670Y-35379029D01*
X68580000Y-35064248D01*
X68790330Y-35379029D01*
X69276511Y-35703885D01*
X69850000Y-35817959D01*
X70423489Y-35703885D01*
X70909670Y-35379029D01*
X71120000Y-35064248D01*
X71330330Y-35379029D01*
X71816511Y-35703885D01*
X72390000Y-35817959D01*
X72963489Y-35703885D01*
X73449670Y-35379029D01*
X73660000Y-35064248D01*
X73870330Y-35379029D01*
X74356511Y-35703885D01*
X74930000Y-35817959D01*
X75503489Y-35703885D01*
X75989670Y-35379029D01*
X76200000Y-35064248D01*
X76410330Y-35379029D01*
X76896511Y-35703885D01*
X77470000Y-35817959D01*
X78043489Y-35703885D01*
X78529670Y-35379029D01*
X78740000Y-35064248D01*
X78950330Y-35379029D01*
X79436511Y-35703885D01*
X80010000Y-35817959D01*
X80583489Y-35703885D01*
X81069670Y-35379029D01*
X81394526Y-34892848D01*
X81508600Y-34319359D01*
X81508600Y-34260641D01*
X81394526Y-33687152D01*
X81069670Y-33200971D01*
X80798828Y-33020000D01*
X81069670Y-32839029D01*
X81394526Y-32352848D01*
X81508600Y-31779359D01*
X81508600Y-31720641D01*
X81394526Y-31147152D01*
X81069670Y-30660971D01*
X80583489Y-30336115D01*
X80010000Y-30222041D01*
X79436511Y-30336115D01*
X78950330Y-30660971D01*
X78740000Y-30975752D01*
X78529670Y-30660971D01*
X78043489Y-30336115D01*
X77470000Y-30222041D01*
X76896511Y-30336115D01*
X76410330Y-30660971D01*
X76200000Y-30975752D01*
X75989670Y-30660971D01*
X75503489Y-30336115D01*
X74930000Y-30222041D01*
X74356511Y-30336115D01*
X73870330Y-30660971D01*
X73660000Y-30975752D01*
X73449670Y-30660971D01*
X72963489Y-30336115D01*
X72390000Y-30222041D01*
X71816511Y-30336115D01*
X71330330Y-30660971D01*
X71120000Y-30975752D01*
X70909670Y-30660971D01*
X70423489Y-30336115D01*
X69850000Y-30222041D01*
X69276511Y-30336115D01*
X68790330Y-30660971D01*
X68580000Y-30975752D01*
X68369670Y-30660971D01*
X67883489Y-30336115D01*
X67310000Y-30222041D01*
X66736511Y-30336115D01*
X66250330Y-30660971D01*
X66040000Y-30975752D01*
X65829670Y-30660971D01*
X65343489Y-30336115D01*
X64770000Y-30222041D01*
X64196511Y-30336115D01*
X63710330Y-30660971D01*
X63500000Y-30975752D01*
X63289670Y-30660971D01*
X62803489Y-30336115D01*
X62230000Y-30222041D01*
X61656511Y-30336115D01*
X61170330Y-30660971D01*
X60960000Y-30975752D01*
X60749670Y-30660971D01*
X60575000Y-30544260D01*
X60575000Y-28941580D01*
X62855787Y-26660792D01*
X62855790Y-26660790D01*
X63047633Y-26373675D01*
X63115000Y-26035000D01*
X63115000Y-20955005D01*
X63115001Y-20955000D01*
X63047633Y-20616325D01*
X63016680Y-20570000D01*
X62855790Y-20329210D01*
X62855787Y-20329208D01*
X61826580Y-19300000D01*
X80278420Y-19300000D01*
X82935000Y-21956579D01*
G36*
X60075000Y-21956579D02*
X60075000Y-24398421D01*
X56524210Y-27949210D01*
X56332367Y-28236325D01*
X56332367Y-28236326D01*
X56264999Y-28575000D01*
X56265000Y-28575005D01*
X56265000Y-30544260D01*
X56090330Y-30660971D01*
X55874336Y-30984228D01*
X55816821Y-30861510D01*
X55384947Y-30467312D01*
X54969026Y-30295042D01*
X54737000Y-30416183D01*
X54737000Y-31623000D01*
X54757000Y-31623000D01*
X54757000Y-31877000D01*
X54737000Y-31877000D01*
X54737000Y-31897000D01*
X54483000Y-31897000D01*
X54483000Y-31877000D01*
X54463000Y-31877000D01*
X54463000Y-31623000D01*
X54483000Y-31623000D01*
X54483000Y-30416183D01*
X54250974Y-30295042D01*
X53835053Y-30467312D01*
X53403179Y-30861510D01*
X53345664Y-30984228D01*
X53129670Y-30660971D01*
X52643489Y-30336115D01*
X52070000Y-30222041D01*
X51496511Y-30336115D01*
X51010330Y-30660971D01*
X50800000Y-30975752D01*
X50589670Y-30660971D01*
X50103489Y-30336115D01*
X49530000Y-30222041D01*
X48956511Y-30336115D01*
X48470330Y-30660971D01*
X48254336Y-30984228D01*
X48196821Y-30861510D01*
X47764947Y-30467312D01*
X47349026Y-30295042D01*
X47117000Y-30416183D01*
X47117000Y-31623000D01*
X47137000Y-31623000D01*
X47137000Y-31877000D01*
X47117000Y-31877000D01*
X47117000Y-31897000D01*
X46863000Y-31897000D01*
X46863000Y-31877000D01*
X46843000Y-31877000D01*
X46843000Y-31623000D01*
X46863000Y-31623000D01*
X46863000Y-30416183D01*
X46630974Y-30295042D01*
X46215053Y-30467312D01*
X45783179Y-30861510D01*
X45725664Y-30984228D01*
X45509670Y-30660971D01*
X45335000Y-30544260D01*
X45335000Y-29576580D01*
X46721579Y-28190000D01*
X53974995Y-28190000D01*
X53975000Y-28190001D01*
X54257484Y-28133810D01*
X54313675Y-28122633D01*
X54600790Y-27930790D01*
X54600791Y-27930789D01*
X56505787Y-26025792D01*
X56505790Y-26025790D01*
X56697633Y-25738675D01*
X56740136Y-25525000D01*
X56765001Y-25400000D01*
X56765000Y-25399995D01*
X56765000Y-24221126D01*
X56939670Y-24104415D01*
X56949243Y-24090087D01*
X56953238Y-24111317D01*
X57092310Y-24327441D01*
X57304510Y-24472431D01*
X57556400Y-24523440D01*
X59283600Y-24523440D01*
X59518917Y-24479162D01*
X59735041Y-24340090D01*
X59880031Y-24127890D01*
X59931040Y-23876000D01*
X59931040Y-21844000D01*
X59930287Y-21840000D01*
X59958420Y-21840000D01*
X60075000Y-21956579D01*
X60075000Y-21956579D01*
G37*
X60075000Y-21956579D02*
X60075000Y-24398421D01*
X56524210Y-27949210D01*
X56332367Y-28236325D01*
X56332367Y-28236326D01*
X56264999Y-28575000D01*
X56265000Y-28575005D01*
X56265000Y-30544260D01*
X56090330Y-30660971D01*
X55874336Y-30984228D01*
X55816821Y-30861510D01*
X55384947Y-30467312D01*
X54969026Y-30295042D01*
X54737000Y-30416183D01*
X54737000Y-31623000D01*
X54757000Y-31623000D01*
X54757000Y-31877000D01*
X54737000Y-31877000D01*
X54737000Y-31897000D01*
X54483000Y-31897000D01*
X54483000Y-31877000D01*
X54463000Y-31877000D01*
X54463000Y-31623000D01*
X54483000Y-31623000D01*
X54483000Y-30416183D01*
X54250974Y-30295042D01*
X53835053Y-30467312D01*
X53403179Y-30861510D01*
X53345664Y-30984228D01*
X53129670Y-30660971D01*
X52643489Y-30336115D01*
X52070000Y-30222041D01*
X51496511Y-30336115D01*
X51010330Y-30660971D01*
X50800000Y-30975752D01*
X50589670Y-30660971D01*
X50103489Y-30336115D01*
X49530000Y-30222041D01*
X48956511Y-30336115D01*
X48470330Y-30660971D01*
X48254336Y-30984228D01*
X48196821Y-30861510D01*
X47764947Y-30467312D01*
X47349026Y-30295042D01*
X47117000Y-30416183D01*
X47117000Y-31623000D01*
X47137000Y-31623000D01*
X47137000Y-31877000D01*
X47117000Y-31877000D01*
X47117000Y-31897000D01*
X46863000Y-31897000D01*
X46863000Y-31877000D01*
X46843000Y-31877000D01*
X46843000Y-31623000D01*
X46863000Y-31623000D01*
X46863000Y-30416183D01*
X46630974Y-30295042D01*
X46215053Y-30467312D01*
X45783179Y-30861510D01*
X45725664Y-30984228D01*
X45509670Y-30660971D01*
X45335000Y-30544260D01*
X45335000Y-29576580D01*
X46721579Y-28190000D01*
X53974995Y-28190000D01*
X53975000Y-28190001D01*
X54257484Y-28133810D01*
X54313675Y-28122633D01*
X54600790Y-27930790D01*
X54600791Y-27930789D01*
X56505787Y-26025792D01*
X56505790Y-26025790D01*
X56697633Y-25738675D01*
X56740136Y-25525000D01*
X56765001Y-25400000D01*
X56765000Y-25399995D01*
X56765000Y-24221126D01*
X56939670Y-24104415D01*
X56949243Y-24090087D01*
X56953238Y-24111317D01*
X57092310Y-24327441D01*
X57304510Y-24472431D01*
X57556400Y-24523440D01*
X59283600Y-24523440D01*
X59518917Y-24479162D01*
X59735041Y-24340090D01*
X59880031Y-24127890D01*
X59931040Y-23876000D01*
X59931040Y-21844000D01*
X59930287Y-21840000D01*
X59958420Y-21840000D01*
X60075000Y-21956579D01*
M02*
