G04 #@! TF.FileFunction,Copper,L2,Bot,Signal*
%FSLAX46Y46*%
G04 Gerber Fmt 4.6, Leading zero omitted, Abs format (unit mm)*
G04 Created by KiCad (PCBNEW 4.0.2+e4-6225~38~ubuntu15.10.1-stable) date mar. 20 sept. 2016 08:20:47 CEST*
%MOMM*%
G01*
G04 APERTURE LIST*
%ADD10C,0.100000*%
%ADD11R,1.727200X1.727200*%
%ADD12O,1.727200X1.727200*%
%ADD13R,2.000000X2.000000*%
%ADD14C,2.000000*%
%ADD15C,1.778000*%
%ADD16R,1.998980X1.998980*%
%ADD17R,1.574800X2.286000*%
%ADD18O,1.574800X2.286000*%
%ADD19R,1.727200X2.032000*%
%ADD20O,1.727200X2.032000*%
%ADD21C,1.000000*%
%ADD22C,0.500000*%
%ADD23C,0.250000*%
%ADD24C,0.254000*%
G04 APERTURE END LIST*
D10*
D11*
X92710000Y-26035000D03*
D12*
X92710000Y-23495000D03*
X95250000Y-26035000D03*
X95250000Y-23495000D03*
X97790000Y-26035000D03*
X97790000Y-23495000D03*
X100330000Y-26035000D03*
X100330000Y-23495000D03*
D13*
X30480000Y-82550000D03*
D14*
X33020000Y-82550000D03*
D15*
X34290000Y-54610000D03*
X24130000Y-54610000D03*
X34290000Y-77470000D03*
X24130000Y-77470000D03*
X64770000Y-43180000D03*
X64770000Y-53340000D03*
X60960000Y-43180000D03*
X60960000Y-53340000D03*
D16*
X41910000Y-84455000D03*
X41910000Y-80645000D03*
X36830000Y-84455000D03*
X36830000Y-80645000D03*
X63500000Y-84455000D03*
X63500000Y-80645000D03*
X58420000Y-84455000D03*
X58420000Y-80645000D03*
X54610000Y-84455000D03*
X54610000Y-80645000D03*
X49530000Y-84455000D03*
X49530000Y-80645000D03*
D17*
X24130000Y-73660000D03*
D18*
X26670000Y-73660000D03*
X29210000Y-73660000D03*
X31750000Y-73660000D03*
X34290000Y-73660000D03*
X36830000Y-73660000D03*
X39370000Y-73660000D03*
X41910000Y-73660000D03*
X44450000Y-73660000D03*
X46990000Y-73660000D03*
X49530000Y-73660000D03*
X52070000Y-73660000D03*
X54610000Y-73660000D03*
X57150000Y-73660000D03*
X59690000Y-73660000D03*
X59690000Y-58420000D03*
X57150000Y-58420000D03*
X54610000Y-58420000D03*
X52070000Y-58420000D03*
X49530000Y-58420000D03*
X46990000Y-58420000D03*
X44450000Y-58420000D03*
X41910000Y-58420000D03*
X39370000Y-58420000D03*
X36830000Y-58420000D03*
X34290000Y-58420000D03*
X31750000Y-58420000D03*
X29210000Y-58420000D03*
X26670000Y-58420000D03*
X24130000Y-58420000D03*
D11*
X92710000Y-51435000D03*
D12*
X92710000Y-48895000D03*
X95250000Y-51435000D03*
X95250000Y-48895000D03*
X97790000Y-51435000D03*
X97790000Y-48895000D03*
X100330000Y-51435000D03*
X100330000Y-48895000D03*
D11*
X92710000Y-43180000D03*
D12*
X92710000Y-40640000D03*
X95250000Y-43180000D03*
X95250000Y-40640000D03*
X97790000Y-43180000D03*
X97790000Y-40640000D03*
X100330000Y-43180000D03*
X100330000Y-40640000D03*
D11*
X92710000Y-34925000D03*
D12*
X92710000Y-32385000D03*
X95250000Y-34925000D03*
X95250000Y-32385000D03*
X97790000Y-34925000D03*
X97790000Y-32385000D03*
X100330000Y-34925000D03*
X100330000Y-32385000D03*
D19*
X57150000Y-53340000D03*
D20*
X54610000Y-53340000D03*
X52070000Y-53340000D03*
X49530000Y-53340000D03*
X46990000Y-53340000D03*
D19*
X58420000Y-22860000D03*
D20*
X55880000Y-22860000D03*
X53340000Y-22860000D03*
X50800000Y-22860000D03*
X48260000Y-22860000D03*
X45720000Y-22860000D03*
X43180000Y-22860000D03*
X40640000Y-22860000D03*
X38100000Y-22860000D03*
D11*
X31750000Y-34290000D03*
D12*
X31750000Y-31750000D03*
X34290000Y-34290000D03*
X34290000Y-31750000D03*
X36830000Y-34290000D03*
X36830000Y-31750000D03*
X39370000Y-34290000D03*
X39370000Y-31750000D03*
X41910000Y-34290000D03*
X41910000Y-31750000D03*
X44450000Y-34290000D03*
X44450000Y-31750000D03*
X46990000Y-34290000D03*
X46990000Y-31750000D03*
X49530000Y-34290000D03*
X49530000Y-31750000D03*
X52070000Y-34290000D03*
X52070000Y-31750000D03*
X54610000Y-34290000D03*
X54610000Y-31750000D03*
X57150000Y-34290000D03*
X57150000Y-31750000D03*
X59690000Y-34290000D03*
X59690000Y-31750000D03*
X62230000Y-34290000D03*
X62230000Y-31750000D03*
X64770000Y-34290000D03*
X64770000Y-31750000D03*
X67310000Y-34290000D03*
X67310000Y-31750000D03*
X69850000Y-34290000D03*
X69850000Y-31750000D03*
X72390000Y-34290000D03*
X72390000Y-31750000D03*
X74930000Y-34290000D03*
X74930000Y-31750000D03*
X77470000Y-34290000D03*
X77470000Y-31750000D03*
X80010000Y-34290000D03*
X80010000Y-31750000D03*
D21*
X57785000Y-76200000D02*
X62230000Y-76200000D01*
X62230000Y-76200000D02*
X89535000Y-48895000D01*
X92710000Y-48895000D02*
X89535000Y-48895000D01*
X92710000Y-23495000D02*
X91440000Y-23495000D01*
X89535000Y-25400000D02*
X89535000Y-26670000D01*
X91440000Y-23495000D02*
X89535000Y-25400000D01*
X89535000Y-46990000D02*
X89535000Y-48895000D01*
X89535000Y-40640000D02*
X89535000Y-43815000D01*
X89535000Y-46990000D02*
X89535000Y-43815000D01*
X57785000Y-76200000D02*
X52705000Y-76200000D01*
X52705000Y-76200000D02*
X52070000Y-75565000D01*
X52070000Y-75565000D02*
X52070000Y-73660000D01*
D22*
X52070000Y-73660000D02*
X52070000Y-75565000D01*
X52070000Y-75565000D02*
X52705000Y-76200000D01*
D23*
X52070000Y-75565000D02*
X52705000Y-76200000D01*
X52705000Y-76200000D02*
X53975000Y-76200000D01*
X52705000Y-76200000D02*
X53975000Y-76200000D01*
D21*
X92710000Y-32385000D02*
X89535000Y-32385000D01*
X92710000Y-40640000D02*
X89535000Y-40640000D01*
X89535000Y-26670000D02*
X89535000Y-32385000D01*
X89535000Y-32385000D02*
X89535000Y-40640000D01*
D23*
X95250000Y-34925000D02*
X93980000Y-34925000D01*
X95250000Y-43180000D02*
X93980000Y-43180000D01*
X95250000Y-26035000D02*
X94615000Y-26035000D01*
X94615000Y-26035000D02*
X93980000Y-26670000D01*
X93980000Y-26670000D02*
X93980000Y-34925000D01*
X93980000Y-34925000D02*
X93980000Y-43180000D01*
X93980000Y-43180000D02*
X93980000Y-50165000D01*
X93980000Y-50165000D02*
X95250000Y-51435000D01*
X96520000Y-34925000D02*
X97790000Y-34925000D01*
X96520000Y-43180000D02*
X97790000Y-43180000D01*
X96520000Y-37465000D02*
X96520000Y-34925000D01*
X96520000Y-34925000D02*
X96520000Y-27305000D01*
X96520000Y-27305000D02*
X97790000Y-26035000D01*
X96520000Y-37465000D02*
X96520000Y-43180000D01*
X96520000Y-43180000D02*
X96520000Y-50165000D01*
X96520000Y-50165000D02*
X97790000Y-51435000D01*
X99060000Y-34925000D02*
X100330000Y-34925000D01*
X99060000Y-43180000D02*
X100330000Y-43180000D01*
X99060000Y-36830000D02*
X99060000Y-34925000D01*
X99060000Y-34925000D02*
X99060000Y-27305000D01*
X99060000Y-27305000D02*
X100330000Y-26035000D01*
X100330000Y-51435000D02*
X99060000Y-50165000D01*
X99060000Y-50165000D02*
X99060000Y-43180000D01*
X99060000Y-43180000D02*
X99060000Y-36830000D01*
D22*
X49530000Y-72390000D02*
X49530000Y-73660000D01*
D23*
X49530000Y-73660000D02*
X49530000Y-72390000D01*
D22*
X48260000Y-22860000D02*
X48260000Y-27305000D01*
X48260000Y-27305000D02*
X52070000Y-31115000D01*
X52070000Y-31115000D02*
X52070000Y-31750000D01*
D23*
X52070000Y-31750000D02*
X52070000Y-31115000D01*
X52070000Y-31115000D02*
X48260000Y-27305000D01*
D22*
X81915000Y-38100000D02*
X82550000Y-38100000D01*
X85090000Y-35560000D02*
X85090000Y-21590000D01*
X82550000Y-38100000D02*
X85090000Y-35560000D01*
X64135000Y-38100000D02*
X81915000Y-38100000D01*
X83185000Y-19685000D02*
X59055000Y-19685000D01*
X85090000Y-21590000D02*
X83185000Y-19685000D01*
X54610000Y-34290000D02*
X54610000Y-36195000D01*
X50800000Y-20955000D02*
X50800000Y-22860000D01*
X52070000Y-19685000D02*
X50800000Y-20955000D01*
X59055000Y-19685000D02*
X52070000Y-19685000D01*
X56515000Y-38100000D02*
X64135000Y-38100000D01*
X54610000Y-36195000D02*
X56515000Y-38100000D01*
X81915000Y-36830000D02*
X83820000Y-34925000D01*
X83820000Y-34925000D02*
X83820000Y-23495000D01*
X62865000Y-36830000D02*
X81915000Y-36830000D01*
X83185000Y-22860000D02*
X58420000Y-22860000D01*
X83820000Y-23495000D02*
X83185000Y-22860000D01*
X57150000Y-35560000D02*
X57150000Y-34290000D01*
X58420000Y-36830000D02*
X57150000Y-35560000D01*
X62865000Y-36830000D02*
X58420000Y-36830000D01*
D21*
X30480000Y-36195000D02*
X29845000Y-35560000D01*
X29845000Y-35560000D02*
X29845000Y-34290000D01*
X31115000Y-36830000D02*
X30480000Y-36195000D01*
X31432500Y-28892500D02*
X37147500Y-28892500D01*
X37147500Y-28892500D02*
X39370000Y-31115000D01*
X39370000Y-31115000D02*
X39370000Y-31750000D01*
X31432500Y-28892500D02*
X29845000Y-30480000D01*
X57150000Y-58420000D02*
X57150000Y-57150000D01*
X57150000Y-57150000D02*
X55880000Y-55880000D01*
X55880000Y-55880000D02*
X45085000Y-55880000D01*
X29845000Y-34290000D02*
X29845000Y-30480000D01*
X40640000Y-46355000D02*
X31115000Y-36830000D01*
X40640000Y-51435000D02*
X40640000Y-46355000D01*
X45085000Y-55880000D02*
X40640000Y-51435000D01*
D23*
X57150000Y-57150000D02*
X55880000Y-55880000D01*
D21*
X86360000Y-20320000D02*
X86360000Y-36830000D01*
X86360000Y-36830000D02*
X80010000Y-43180000D01*
X64770000Y-43180000D02*
X80010000Y-43180000D01*
X84455000Y-18415000D02*
X62230000Y-18415000D01*
X86360000Y-20320000D02*
X84455000Y-18415000D01*
X62230000Y-18415000D02*
X38100000Y-18415000D01*
X38100000Y-18415000D02*
X35560000Y-20955000D01*
X35560000Y-20955000D02*
X35560000Y-24765000D01*
X35560000Y-24765000D02*
X40005000Y-29210000D01*
X40005000Y-29210000D02*
X40640000Y-29210000D01*
X40640000Y-29210000D02*
X41910000Y-30480000D01*
X41910000Y-30480000D02*
X41910000Y-31750000D01*
X60960000Y-43180000D02*
X64770000Y-43180000D01*
D22*
X41910000Y-30480000D02*
X41910000Y-31750000D01*
X40640000Y-29210000D02*
X41910000Y-30480000D01*
X40005000Y-29210000D02*
X40640000Y-29210000D01*
X35560000Y-24765000D02*
X40005000Y-29210000D01*
X35560000Y-20955000D02*
X35560000Y-24765000D01*
X38100000Y-18415000D02*
X35560000Y-20955000D01*
D23*
X52070000Y-53340000D02*
X52070000Y-52705000D01*
X24130000Y-58420000D02*
X24130000Y-54610000D01*
D22*
X38100000Y-71755000D02*
X38100000Y-71120000D01*
X38100000Y-71120000D02*
X39370000Y-69850000D01*
X39370000Y-69850000D02*
X39370000Y-62230000D01*
X39370000Y-62230000D02*
X41910000Y-59690000D01*
X41910000Y-59690000D02*
X41910000Y-58420000D01*
X36830000Y-80645000D02*
X38100000Y-79375000D01*
X38100000Y-79375000D02*
X38100000Y-75565000D01*
D23*
X38100000Y-71120000D02*
X39370000Y-69850000D01*
X39370000Y-69850000D02*
X39370000Y-68580000D01*
X39370000Y-68580000D02*
X39370000Y-62230000D01*
X41910000Y-59690000D02*
X41910000Y-58420000D01*
X39370000Y-62230000D02*
X41910000Y-59690000D01*
X38100000Y-75565000D02*
X38100000Y-71755000D01*
X41910000Y-80645000D02*
X41910000Y-80010000D01*
D22*
X58420000Y-80645000D02*
X63500000Y-80645000D01*
X40640000Y-75565000D02*
X43180000Y-78105000D01*
X43180000Y-78105000D02*
X57150000Y-78105000D01*
X57150000Y-78105000D02*
X58420000Y-79375000D01*
X58420000Y-79375000D02*
X58420000Y-80645000D01*
X40640000Y-71120000D02*
X40640000Y-62865000D01*
X40640000Y-62865000D02*
X43180000Y-60325000D01*
D23*
X40640000Y-62865000D02*
X43180000Y-60325000D01*
X39370000Y-58420000D02*
X39370000Y-57150000D01*
X43180000Y-57150000D02*
X43180000Y-60325000D01*
X42545000Y-56515000D02*
X43180000Y-57150000D01*
X40005000Y-56515000D02*
X42545000Y-56515000D01*
X39370000Y-57150000D02*
X40005000Y-56515000D01*
X58420000Y-79375000D02*
X58420000Y-80645000D01*
X57150000Y-78105000D02*
X58420000Y-79375000D01*
X40640000Y-71120000D02*
X40640000Y-75565000D01*
D22*
X54610000Y-80645000D02*
X49530000Y-80645000D01*
X35560000Y-75565000D02*
X36195000Y-76200000D01*
X34925000Y-81915000D02*
X35560000Y-82550000D01*
X34925000Y-79375000D02*
X34925000Y-81915000D01*
X36195000Y-78105000D02*
X34925000Y-79375000D01*
X36195000Y-76200000D02*
X36195000Y-78105000D01*
X35560000Y-82550000D02*
X45720000Y-82550000D01*
X45720000Y-82550000D02*
X47625000Y-80645000D01*
X47625000Y-80645000D02*
X49530000Y-80645000D01*
X35560000Y-71755000D02*
X35560000Y-71120000D01*
X36830000Y-58420000D02*
X36830000Y-60960000D01*
X36830000Y-60960000D02*
X36830000Y-69850000D01*
X36830000Y-69850000D02*
X35560000Y-71120000D01*
D23*
X35560000Y-72390000D02*
X35560000Y-71755000D01*
X49530000Y-80645000D02*
X47625000Y-80645000D01*
X35560000Y-75565000D02*
X35560000Y-72390000D01*
X47625000Y-80645000D02*
X45720000Y-82550000D01*
D24*
G36*
X111290000Y-89290000D02*
X16710000Y-89290000D01*
X16710000Y-85571344D01*
X18114501Y-85571344D01*
X18552790Y-86632086D01*
X19363645Y-87444357D01*
X20423620Y-87884498D01*
X21571344Y-87885499D01*
X22632086Y-87447210D01*
X23444357Y-86636355D01*
X23884498Y-85576380D01*
X23885226Y-84740750D01*
X35195510Y-84740750D01*
X35195510Y-85580800D01*
X35292183Y-85814189D01*
X35470812Y-85992817D01*
X35704201Y-86089490D01*
X36544250Y-86089490D01*
X36703000Y-85930740D01*
X36703000Y-84582000D01*
X36957000Y-84582000D01*
X36957000Y-85930740D01*
X37115750Y-86089490D01*
X37955799Y-86089490D01*
X38189188Y-85992817D01*
X38367817Y-85814189D01*
X38464490Y-85580800D01*
X38464490Y-84740750D01*
X40275510Y-84740750D01*
X40275510Y-85580800D01*
X40372183Y-85814189D01*
X40550812Y-85992817D01*
X40784201Y-86089490D01*
X41624250Y-86089490D01*
X41783000Y-85930740D01*
X41783000Y-84582000D01*
X42037000Y-84582000D01*
X42037000Y-85930740D01*
X42195750Y-86089490D01*
X43035799Y-86089490D01*
X43269188Y-85992817D01*
X43447817Y-85814189D01*
X43544490Y-85580800D01*
X43544490Y-84740750D01*
X47895510Y-84740750D01*
X47895510Y-85580800D01*
X47992183Y-85814189D01*
X48170812Y-85992817D01*
X48404201Y-86089490D01*
X49244250Y-86089490D01*
X49403000Y-85930740D01*
X49403000Y-84582000D01*
X49657000Y-84582000D01*
X49657000Y-85930740D01*
X49815750Y-86089490D01*
X50655799Y-86089490D01*
X50889188Y-85992817D01*
X51067817Y-85814189D01*
X51164490Y-85580800D01*
X51164490Y-84740750D01*
X52975510Y-84740750D01*
X52975510Y-85580800D01*
X53072183Y-85814189D01*
X53250812Y-85992817D01*
X53484201Y-86089490D01*
X54324250Y-86089490D01*
X54483000Y-85930740D01*
X54483000Y-84582000D01*
X54737000Y-84582000D01*
X54737000Y-85930740D01*
X54895750Y-86089490D01*
X55735799Y-86089490D01*
X55969188Y-85992817D01*
X56147817Y-85814189D01*
X56244490Y-85580800D01*
X56244490Y-84740750D01*
X56785510Y-84740750D01*
X56785510Y-85580800D01*
X56882183Y-85814189D01*
X57060812Y-85992817D01*
X57294201Y-86089490D01*
X58134250Y-86089490D01*
X58293000Y-85930740D01*
X58293000Y-84582000D01*
X58547000Y-84582000D01*
X58547000Y-85930740D01*
X58705750Y-86089490D01*
X59545799Y-86089490D01*
X59779188Y-85992817D01*
X59957817Y-85814189D01*
X60054490Y-85580800D01*
X60054490Y-84740750D01*
X61865510Y-84740750D01*
X61865510Y-85580800D01*
X61962183Y-85814189D01*
X62140812Y-85992817D01*
X62374201Y-86089490D01*
X63214250Y-86089490D01*
X63373000Y-85930740D01*
X63373000Y-84582000D01*
X63627000Y-84582000D01*
X63627000Y-85930740D01*
X63785750Y-86089490D01*
X64625799Y-86089490D01*
X64859188Y-85992817D01*
X65037817Y-85814189D01*
X65134490Y-85580800D01*
X65134490Y-85571344D01*
X102114501Y-85571344D01*
X102552790Y-86632086D01*
X103363645Y-87444357D01*
X104423620Y-87884498D01*
X105571344Y-87885499D01*
X106632086Y-87447210D01*
X107444357Y-86636355D01*
X107884498Y-85576380D01*
X107885499Y-84428656D01*
X107447210Y-83367914D01*
X106636355Y-82555643D01*
X105576380Y-82115502D01*
X104428656Y-82114501D01*
X103367914Y-82552790D01*
X102555643Y-83363645D01*
X102115502Y-84423620D01*
X102114501Y-85571344D01*
X65134490Y-85571344D01*
X65134490Y-84740750D01*
X64975740Y-84582000D01*
X63627000Y-84582000D01*
X63373000Y-84582000D01*
X62024260Y-84582000D01*
X61865510Y-84740750D01*
X60054490Y-84740750D01*
X59895740Y-84582000D01*
X58547000Y-84582000D01*
X58293000Y-84582000D01*
X56944260Y-84582000D01*
X56785510Y-84740750D01*
X56244490Y-84740750D01*
X56085740Y-84582000D01*
X54737000Y-84582000D01*
X54483000Y-84582000D01*
X53134260Y-84582000D01*
X52975510Y-84740750D01*
X51164490Y-84740750D01*
X51005740Y-84582000D01*
X49657000Y-84582000D01*
X49403000Y-84582000D01*
X48054260Y-84582000D01*
X47895510Y-84740750D01*
X43544490Y-84740750D01*
X43385740Y-84582000D01*
X42037000Y-84582000D01*
X41783000Y-84582000D01*
X40434260Y-84582000D01*
X40275510Y-84740750D01*
X38464490Y-84740750D01*
X38305740Y-84582000D01*
X36957000Y-84582000D01*
X36703000Y-84582000D01*
X35354260Y-84582000D01*
X35195510Y-84740750D01*
X23885226Y-84740750D01*
X23885499Y-84428656D01*
X23447210Y-83367914D01*
X22915974Y-82835750D01*
X28845000Y-82835750D01*
X28845000Y-83676309D01*
X28941673Y-83909698D01*
X29120301Y-84088327D01*
X29353690Y-84185000D01*
X30194250Y-84185000D01*
X30353000Y-84026250D01*
X30353000Y-82677000D01*
X29003750Y-82677000D01*
X28845000Y-82835750D01*
X22915974Y-82835750D01*
X22636355Y-82555643D01*
X21576380Y-82115502D01*
X20428656Y-82114501D01*
X19367914Y-82552790D01*
X18555643Y-83363645D01*
X18115502Y-84423620D01*
X18114501Y-85571344D01*
X16710000Y-85571344D01*
X16710000Y-81423691D01*
X28845000Y-81423691D01*
X28845000Y-82264250D01*
X29003750Y-82423000D01*
X30353000Y-82423000D01*
X30353000Y-81073750D01*
X30194250Y-80915000D01*
X29353690Y-80915000D01*
X29120301Y-81011673D01*
X28941673Y-81190302D01*
X28845000Y-81423691D01*
X16710000Y-81423691D01*
X16710000Y-77771812D01*
X22605736Y-77771812D01*
X22837262Y-78332149D01*
X23265596Y-78761231D01*
X23825528Y-78993735D01*
X24431812Y-78994264D01*
X24992149Y-78762738D01*
X25421231Y-78334404D01*
X25653735Y-77774472D01*
X25654264Y-77168188D01*
X25422738Y-76607851D01*
X24994404Y-76178769D01*
X24434472Y-75946265D01*
X23828188Y-75945736D01*
X23267851Y-76177262D01*
X22838769Y-76605596D01*
X22606265Y-77165528D01*
X22605736Y-77771812D01*
X16710000Y-77771812D01*
X16710000Y-54911812D01*
X22605736Y-54911812D01*
X22837262Y-55472149D01*
X23265596Y-55901231D01*
X23370000Y-55944583D01*
X23370000Y-56859547D01*
X23124211Y-57023778D01*
X22815874Y-57485238D01*
X22707600Y-58029567D01*
X22707600Y-58810433D01*
X22815874Y-59354762D01*
X23124211Y-59816222D01*
X23585671Y-60124559D01*
X24130000Y-60232833D01*
X24674329Y-60124559D01*
X25135789Y-59816222D01*
X25400000Y-59420801D01*
X25664211Y-59816222D01*
X26125671Y-60124559D01*
X26670000Y-60232833D01*
X27214329Y-60124559D01*
X27675789Y-59816222D01*
X27940000Y-59420801D01*
X28204211Y-59816222D01*
X28665671Y-60124559D01*
X29210000Y-60232833D01*
X29754329Y-60124559D01*
X30215789Y-59816222D01*
X30480000Y-59420801D01*
X30744211Y-59816222D01*
X31205671Y-60124559D01*
X31750000Y-60232833D01*
X32294329Y-60124559D01*
X32755789Y-59816222D01*
X33020000Y-59420801D01*
X33284211Y-59816222D01*
X33745671Y-60124559D01*
X34290000Y-60232833D01*
X34834329Y-60124559D01*
X35295789Y-59816222D01*
X35560000Y-59420801D01*
X35824211Y-59816222D01*
X35945000Y-59896930D01*
X35945000Y-69483421D01*
X34934210Y-70494210D01*
X34742367Y-70781325D01*
X34742367Y-70781326D01*
X34674999Y-71120000D01*
X34675000Y-71120005D01*
X34675000Y-71755000D01*
X34709949Y-71930700D01*
X34290000Y-71847167D01*
X33745671Y-71955441D01*
X33284211Y-72263778D01*
X33020000Y-72659199D01*
X32755789Y-72263778D01*
X32294329Y-71955441D01*
X31750000Y-71847167D01*
X31205671Y-71955441D01*
X30744211Y-72263778D01*
X30480000Y-72659199D01*
X30215789Y-72263778D01*
X29754329Y-71955441D01*
X29210000Y-71847167D01*
X28665671Y-71955441D01*
X28204211Y-72263778D01*
X27940000Y-72659199D01*
X27675789Y-72263778D01*
X27214329Y-71955441D01*
X26670000Y-71847167D01*
X26125671Y-71955441D01*
X25664211Y-72263778D01*
X25549497Y-72435460D01*
X25520562Y-72281683D01*
X25381490Y-72065559D01*
X25169290Y-71920569D01*
X24917400Y-71869560D01*
X23342600Y-71869560D01*
X23107283Y-71913838D01*
X22891159Y-72052910D01*
X22746169Y-72265110D01*
X22695160Y-72517000D01*
X22695160Y-74803000D01*
X22739438Y-75038317D01*
X22878510Y-75254441D01*
X23090710Y-75399431D01*
X23342600Y-75450440D01*
X24917400Y-75450440D01*
X25152717Y-75406162D01*
X25368841Y-75267090D01*
X25513831Y-75054890D01*
X25548600Y-74883197D01*
X25664211Y-75056222D01*
X26125671Y-75364559D01*
X26670000Y-75472833D01*
X27214329Y-75364559D01*
X27675789Y-75056222D01*
X27940000Y-74660801D01*
X28204211Y-75056222D01*
X28665671Y-75364559D01*
X29210000Y-75472833D01*
X29754329Y-75364559D01*
X30215789Y-75056222D01*
X30480000Y-74660801D01*
X30744211Y-75056222D01*
X31205671Y-75364559D01*
X31750000Y-75472833D01*
X32294329Y-75364559D01*
X32755789Y-75056222D01*
X33020000Y-74660801D01*
X33284211Y-75056222D01*
X33745671Y-75364559D01*
X34290000Y-75472833D01*
X34709949Y-75389300D01*
X34674999Y-75565000D01*
X34742367Y-75903674D01*
X34838542Y-76047612D01*
X34594472Y-75946265D01*
X33988188Y-75945736D01*
X33427851Y-76177262D01*
X32998769Y-76605596D01*
X32766265Y-77165528D01*
X32765736Y-77771812D01*
X32997262Y-78332149D01*
X33425596Y-78761231D01*
X33985528Y-78993735D01*
X34135737Y-78993866D01*
X34107367Y-79036325D01*
X34107367Y-79036326D01*
X34039999Y-79375000D01*
X34040000Y-79375005D01*
X34040000Y-81257521D01*
X33947363Y-81164722D01*
X33346648Y-80915284D01*
X32696205Y-80914716D01*
X32095057Y-81163106D01*
X32032803Y-81225251D01*
X32018327Y-81190302D01*
X31839699Y-81011673D01*
X31606310Y-80915000D01*
X30765750Y-80915000D01*
X30607000Y-81073750D01*
X30607000Y-82423000D01*
X30627000Y-82423000D01*
X30627000Y-82677000D01*
X30607000Y-82677000D01*
X30607000Y-84026250D01*
X30765750Y-84185000D01*
X31606310Y-84185000D01*
X31839699Y-84088327D01*
X32018327Y-83909698D01*
X32032630Y-83875166D01*
X32092637Y-83935278D01*
X32693352Y-84184716D01*
X33343795Y-84185284D01*
X33944943Y-83936894D01*
X34405278Y-83477363D01*
X34648951Y-82890531D01*
X34934208Y-83175787D01*
X34934210Y-83175790D01*
X35126054Y-83303975D01*
X35195510Y-83350384D01*
X35195510Y-84169250D01*
X35354260Y-84328000D01*
X36703000Y-84328000D01*
X36703000Y-84308000D01*
X36957000Y-84308000D01*
X36957000Y-84328000D01*
X38305740Y-84328000D01*
X38464490Y-84169250D01*
X38464490Y-83435000D01*
X40275510Y-83435000D01*
X40275510Y-84169250D01*
X40434260Y-84328000D01*
X41783000Y-84328000D01*
X41783000Y-84308000D01*
X42037000Y-84308000D01*
X42037000Y-84328000D01*
X43385740Y-84328000D01*
X43544490Y-84169250D01*
X43544490Y-83435000D01*
X45719995Y-83435000D01*
X45720000Y-83435001D01*
X46002484Y-83378810D01*
X46058675Y-83367633D01*
X46116194Y-83329200D01*
X47895510Y-83329200D01*
X47895510Y-84169250D01*
X48054260Y-84328000D01*
X49403000Y-84328000D01*
X49403000Y-82979260D01*
X49657000Y-82979260D01*
X49657000Y-84328000D01*
X51005740Y-84328000D01*
X51164490Y-84169250D01*
X51164490Y-83329200D01*
X52975510Y-83329200D01*
X52975510Y-84169250D01*
X53134260Y-84328000D01*
X54483000Y-84328000D01*
X54483000Y-82979260D01*
X54737000Y-82979260D01*
X54737000Y-84328000D01*
X56085740Y-84328000D01*
X56244490Y-84169250D01*
X56244490Y-83329200D01*
X56785510Y-83329200D01*
X56785510Y-84169250D01*
X56944260Y-84328000D01*
X58293000Y-84328000D01*
X58293000Y-82979260D01*
X58547000Y-82979260D01*
X58547000Y-84328000D01*
X59895740Y-84328000D01*
X60054490Y-84169250D01*
X60054490Y-83329200D01*
X61865510Y-83329200D01*
X61865510Y-84169250D01*
X62024260Y-84328000D01*
X63373000Y-84328000D01*
X63373000Y-82979260D01*
X63627000Y-82979260D01*
X63627000Y-84328000D01*
X64975740Y-84328000D01*
X65134490Y-84169250D01*
X65134490Y-83329200D01*
X65037817Y-83095811D01*
X64859188Y-82917183D01*
X64625799Y-82820510D01*
X63785750Y-82820510D01*
X63627000Y-82979260D01*
X63373000Y-82979260D01*
X63214250Y-82820510D01*
X62374201Y-82820510D01*
X62140812Y-82917183D01*
X61962183Y-83095811D01*
X61865510Y-83329200D01*
X60054490Y-83329200D01*
X59957817Y-83095811D01*
X59779188Y-82917183D01*
X59545799Y-82820510D01*
X58705750Y-82820510D01*
X58547000Y-82979260D01*
X58293000Y-82979260D01*
X58134250Y-82820510D01*
X57294201Y-82820510D01*
X57060812Y-82917183D01*
X56882183Y-83095811D01*
X56785510Y-83329200D01*
X56244490Y-83329200D01*
X56147817Y-83095811D01*
X55969188Y-82917183D01*
X55735799Y-82820510D01*
X54895750Y-82820510D01*
X54737000Y-82979260D01*
X54483000Y-82979260D01*
X54324250Y-82820510D01*
X53484201Y-82820510D01*
X53250812Y-82917183D01*
X53072183Y-83095811D01*
X52975510Y-83329200D01*
X51164490Y-83329200D01*
X51067817Y-83095811D01*
X50889188Y-82917183D01*
X50655799Y-82820510D01*
X49815750Y-82820510D01*
X49657000Y-82979260D01*
X49403000Y-82979260D01*
X49244250Y-82820510D01*
X48404201Y-82820510D01*
X48170812Y-82917183D01*
X47992183Y-83095811D01*
X47895510Y-83329200D01*
X46116194Y-83329200D01*
X46345790Y-83175790D01*
X47883070Y-81638509D01*
X47883070Y-81644490D01*
X47927348Y-81879807D01*
X48066420Y-82095931D01*
X48278620Y-82240921D01*
X48530510Y-82291930D01*
X50529490Y-82291930D01*
X50764807Y-82247652D01*
X50980931Y-82108580D01*
X51125921Y-81896380D01*
X51176930Y-81644490D01*
X51176930Y-81530000D01*
X52963070Y-81530000D01*
X52963070Y-81644490D01*
X53007348Y-81879807D01*
X53146420Y-82095931D01*
X53358620Y-82240921D01*
X53610510Y-82291930D01*
X55609490Y-82291930D01*
X55844807Y-82247652D01*
X56060931Y-82108580D01*
X56205921Y-81896380D01*
X56256930Y-81644490D01*
X56256930Y-79645510D01*
X56212652Y-79410193D01*
X56073580Y-79194069D01*
X55861380Y-79049079D01*
X55609490Y-78998070D01*
X53610510Y-78998070D01*
X53375193Y-79042348D01*
X53159069Y-79181420D01*
X53014079Y-79393620D01*
X52963070Y-79645510D01*
X52963070Y-79760000D01*
X51176930Y-79760000D01*
X51176930Y-79645510D01*
X51132652Y-79410193D01*
X50993580Y-79194069D01*
X50781380Y-79049079D01*
X50529490Y-78998070D01*
X48530510Y-78998070D01*
X48295193Y-79042348D01*
X48079069Y-79181420D01*
X47934079Y-79393620D01*
X47883070Y-79645510D01*
X47883070Y-79760000D01*
X47625005Y-79760000D01*
X47625000Y-79759999D01*
X47342516Y-79816190D01*
X47286325Y-79827367D01*
X46999210Y-80019210D01*
X46999208Y-80019213D01*
X45353420Y-81665000D01*
X43552777Y-81665000D01*
X43556930Y-81644490D01*
X43556930Y-79645510D01*
X43512652Y-79410193D01*
X43373580Y-79194069D01*
X43161380Y-79049079D01*
X42909490Y-78998070D01*
X40910510Y-78998070D01*
X40675193Y-79042348D01*
X40459069Y-79181420D01*
X40314079Y-79393620D01*
X40263070Y-79645510D01*
X40263070Y-81644490D01*
X40266929Y-81665000D01*
X38472777Y-81665000D01*
X38476930Y-81644490D01*
X38476930Y-80249649D01*
X38725787Y-80000792D01*
X38725790Y-80000790D01*
X38917633Y-79713675D01*
X38931192Y-79645510D01*
X38985001Y-79375000D01*
X38985000Y-79374995D01*
X38985000Y-75565000D01*
X38950051Y-75389300D01*
X39370000Y-75472833D01*
X39789949Y-75389300D01*
X39754999Y-75565000D01*
X39822367Y-75903674D01*
X40014210Y-76190790D01*
X42554208Y-78730787D01*
X42554210Y-78730790D01*
X42841325Y-78922633D01*
X43180000Y-78990000D01*
X56783420Y-78990000D01*
X56972581Y-79179160D01*
X56969069Y-79181420D01*
X56824079Y-79393620D01*
X56773070Y-79645510D01*
X56773070Y-81644490D01*
X56817348Y-81879807D01*
X56956420Y-82095931D01*
X57168620Y-82240921D01*
X57420510Y-82291930D01*
X59419490Y-82291930D01*
X59654807Y-82247652D01*
X59870931Y-82108580D01*
X60015921Y-81896380D01*
X60066930Y-81644490D01*
X60066930Y-81530000D01*
X61853070Y-81530000D01*
X61853070Y-81644490D01*
X61897348Y-81879807D01*
X62036420Y-82095931D01*
X62248620Y-82240921D01*
X62500510Y-82291930D01*
X64499490Y-82291930D01*
X64734807Y-82247652D01*
X64950931Y-82108580D01*
X65095921Y-81896380D01*
X65146930Y-81644490D01*
X65146930Y-79645510D01*
X65102652Y-79410193D01*
X64963580Y-79194069D01*
X64751380Y-79049079D01*
X64499490Y-78998070D01*
X62500510Y-78998070D01*
X62265193Y-79042348D01*
X62049069Y-79181420D01*
X61904079Y-79393620D01*
X61853070Y-79645510D01*
X61853070Y-79760000D01*
X60066930Y-79760000D01*
X60066930Y-79645510D01*
X60022652Y-79410193D01*
X59883580Y-79194069D01*
X59671380Y-79049079D01*
X59419490Y-78998070D01*
X59212072Y-78998070D01*
X59206680Y-78990000D01*
X59045790Y-78749210D01*
X59045787Y-78749208D01*
X57775790Y-77479210D01*
X57559963Y-77335000D01*
X62230000Y-77335000D01*
X62664346Y-77248603D01*
X63032566Y-77002566D01*
X88314382Y-51720750D01*
X91211400Y-51720750D01*
X91211400Y-52424909D01*
X91308073Y-52658298D01*
X91486701Y-52836927D01*
X91720090Y-52933600D01*
X92424250Y-52933600D01*
X92583000Y-52774850D01*
X92583000Y-51562000D01*
X91370150Y-51562000D01*
X91211400Y-51720750D01*
X88314382Y-51720750D01*
X90005132Y-50030000D01*
X91494120Y-50030000D01*
X91486701Y-50033073D01*
X91308073Y-50211702D01*
X91211400Y-50445091D01*
X91211400Y-51149250D01*
X91370150Y-51308000D01*
X92583000Y-51308000D01*
X92583000Y-51288000D01*
X92837000Y-51288000D01*
X92837000Y-51308000D01*
X92857000Y-51308000D01*
X92857000Y-51562000D01*
X92837000Y-51562000D01*
X92837000Y-52774850D01*
X92995750Y-52933600D01*
X93699910Y-52933600D01*
X93933299Y-52836927D01*
X94111927Y-52658298D01*
X94176263Y-52502977D01*
X94190330Y-52524029D01*
X94676511Y-52848885D01*
X95250000Y-52962959D01*
X95823489Y-52848885D01*
X96309670Y-52524029D01*
X96520000Y-52209248D01*
X96730330Y-52524029D01*
X97216511Y-52848885D01*
X97790000Y-52962959D01*
X98363489Y-52848885D01*
X98849670Y-52524029D01*
X99060000Y-52209248D01*
X99270330Y-52524029D01*
X99756511Y-52848885D01*
X100330000Y-52962959D01*
X100903489Y-52848885D01*
X101389670Y-52524029D01*
X101714526Y-52037848D01*
X101828600Y-51464359D01*
X101828600Y-51405641D01*
X101714526Y-50832152D01*
X101389670Y-50345971D01*
X101118828Y-50165000D01*
X101389670Y-49984029D01*
X101714526Y-49497848D01*
X101828600Y-48924359D01*
X101828600Y-48865641D01*
X101714526Y-48292152D01*
X101389670Y-47805971D01*
X100903489Y-47481115D01*
X100330000Y-47367041D01*
X99820000Y-47468486D01*
X99820000Y-44606514D01*
X100330000Y-44707959D01*
X100903489Y-44593885D01*
X101389670Y-44269029D01*
X101714526Y-43782848D01*
X101828600Y-43209359D01*
X101828600Y-43150641D01*
X101714526Y-42577152D01*
X101389670Y-42090971D01*
X101118828Y-41910000D01*
X101389670Y-41729029D01*
X101714526Y-41242848D01*
X101828600Y-40669359D01*
X101828600Y-40610641D01*
X101714526Y-40037152D01*
X101389670Y-39550971D01*
X100903489Y-39226115D01*
X100330000Y-39112041D01*
X99820000Y-39213486D01*
X99820000Y-36351514D01*
X100330000Y-36452959D01*
X100903489Y-36338885D01*
X101389670Y-36014029D01*
X101714526Y-35527848D01*
X101828600Y-34954359D01*
X101828600Y-34895641D01*
X101714526Y-34322152D01*
X101389670Y-33835971D01*
X101118828Y-33655000D01*
X101389670Y-33474029D01*
X101714526Y-32987848D01*
X101828600Y-32414359D01*
X101828600Y-32355641D01*
X101714526Y-31782152D01*
X101389670Y-31295971D01*
X100903489Y-30971115D01*
X100330000Y-30857041D01*
X99820000Y-30958486D01*
X99820000Y-27619802D01*
X99952027Y-27487775D01*
X100330000Y-27562959D01*
X100903489Y-27448885D01*
X101389670Y-27124029D01*
X101714526Y-26637848D01*
X101828600Y-26064359D01*
X101828600Y-26005641D01*
X101714526Y-25432152D01*
X101389670Y-24945971D01*
X101118828Y-24765000D01*
X101389670Y-24584029D01*
X101714526Y-24097848D01*
X101828600Y-23524359D01*
X101828600Y-23465641D01*
X101714526Y-22892152D01*
X101389670Y-22405971D01*
X100903489Y-22081115D01*
X100330000Y-21967041D01*
X99756511Y-22081115D01*
X99270330Y-22405971D01*
X99060000Y-22720752D01*
X98849670Y-22405971D01*
X98363489Y-22081115D01*
X97790000Y-21967041D01*
X97216511Y-22081115D01*
X96730330Y-22405971D01*
X96520000Y-22720752D01*
X96309670Y-22405971D01*
X95823489Y-22081115D01*
X95250000Y-21967041D01*
X94676511Y-22081115D01*
X94190330Y-22405971D01*
X93980000Y-22720752D01*
X93769670Y-22405971D01*
X93283489Y-22081115D01*
X92710000Y-21967041D01*
X92136511Y-22081115D01*
X91719130Y-22360000D01*
X91440000Y-22360000D01*
X91005654Y-22446397D01*
X90760805Y-22610000D01*
X90637434Y-22692434D01*
X88732434Y-24597434D01*
X88486397Y-24965654D01*
X88400000Y-25400000D01*
X88400000Y-48424868D01*
X61759868Y-75065000D01*
X60682652Y-75065000D01*
X60695789Y-75056222D01*
X61004126Y-74594762D01*
X61112400Y-74050433D01*
X61112400Y-73269567D01*
X61004126Y-72725238D01*
X60695789Y-72263778D01*
X60234329Y-71955441D01*
X59690000Y-71847167D01*
X59145671Y-71955441D01*
X58684211Y-72263778D01*
X58420246Y-72658830D01*
X58415525Y-72642738D01*
X58065986Y-72208809D01*
X57576996Y-71941673D01*
X57497060Y-71924990D01*
X57277000Y-72047148D01*
X57277000Y-73533000D01*
X57297000Y-73533000D01*
X57297000Y-73787000D01*
X57277000Y-73787000D01*
X57277000Y-73807000D01*
X57023000Y-73807000D01*
X57023000Y-73787000D01*
X57003000Y-73787000D01*
X57003000Y-73533000D01*
X57023000Y-73533000D01*
X57023000Y-72047148D01*
X56802940Y-71924990D01*
X56723004Y-71941673D01*
X56234014Y-72208809D01*
X55884475Y-72642738D01*
X55879754Y-72658830D01*
X55615789Y-72263778D01*
X55154329Y-71955441D01*
X54610000Y-71847167D01*
X54065671Y-71955441D01*
X53604211Y-72263778D01*
X53340000Y-72659199D01*
X53075789Y-72263778D01*
X52614329Y-71955441D01*
X52070000Y-71847167D01*
X51525671Y-71955441D01*
X51064211Y-72263778D01*
X50800000Y-72659199D01*
X50535789Y-72263778D01*
X50367529Y-72151351D01*
X50347633Y-72051325D01*
X50155790Y-71764210D01*
X49868675Y-71572367D01*
X49530000Y-71505000D01*
X49191325Y-71572367D01*
X48904210Y-71764210D01*
X48712367Y-72051325D01*
X48692471Y-72151351D01*
X48524211Y-72263778D01*
X48260000Y-72659199D01*
X47995789Y-72263778D01*
X47534329Y-71955441D01*
X46990000Y-71847167D01*
X46445671Y-71955441D01*
X45984211Y-72263778D01*
X45720000Y-72659199D01*
X45455789Y-72263778D01*
X44994329Y-71955441D01*
X44450000Y-71847167D01*
X43905671Y-71955441D01*
X43444211Y-72263778D01*
X43180000Y-72659199D01*
X42915789Y-72263778D01*
X42454329Y-71955441D01*
X41910000Y-71847167D01*
X41400000Y-71948613D01*
X41400000Y-71544929D01*
X41457633Y-71458675D01*
X41525000Y-71120000D01*
X41525000Y-63231580D01*
X43805789Y-60950790D01*
X43997633Y-60663675D01*
X44065000Y-60325000D01*
X44030051Y-60149300D01*
X44450000Y-60232833D01*
X44994329Y-60124559D01*
X45455789Y-59816222D01*
X45720000Y-59420801D01*
X45984211Y-59816222D01*
X46445671Y-60124559D01*
X46990000Y-60232833D01*
X47534329Y-60124559D01*
X47995789Y-59816222D01*
X48260000Y-59420801D01*
X48524211Y-59816222D01*
X48985671Y-60124559D01*
X49530000Y-60232833D01*
X50074329Y-60124559D01*
X50535789Y-59816222D01*
X50799754Y-59421170D01*
X50804475Y-59437262D01*
X51154014Y-59871191D01*
X51643004Y-60138327D01*
X51722940Y-60155010D01*
X51943000Y-60032852D01*
X51943000Y-58547000D01*
X51923000Y-58547000D01*
X51923000Y-58293000D01*
X51943000Y-58293000D01*
X51943000Y-58273000D01*
X52197000Y-58273000D01*
X52197000Y-58293000D01*
X52217000Y-58293000D01*
X52217000Y-58547000D01*
X52197000Y-58547000D01*
X52197000Y-60032852D01*
X52417060Y-60155010D01*
X52496996Y-60138327D01*
X52985986Y-59871191D01*
X53335525Y-59437262D01*
X53340246Y-59421170D01*
X53604211Y-59816222D01*
X54065671Y-60124559D01*
X54610000Y-60232833D01*
X55154329Y-60124559D01*
X55615789Y-59816222D01*
X55880000Y-59420801D01*
X56144211Y-59816222D01*
X56605671Y-60124559D01*
X57150000Y-60232833D01*
X57694329Y-60124559D01*
X58155789Y-59816222D01*
X58420000Y-59420801D01*
X58684211Y-59816222D01*
X59145671Y-60124559D01*
X59690000Y-60232833D01*
X60234329Y-60124559D01*
X60695789Y-59816222D01*
X61004126Y-59354762D01*
X61112400Y-58810433D01*
X61112400Y-58029567D01*
X61004126Y-57485238D01*
X60695789Y-57023778D01*
X60234329Y-56715441D01*
X59690000Y-56607167D01*
X59145671Y-56715441D01*
X58684211Y-57023778D01*
X58420000Y-57419199D01*
X58285000Y-57217156D01*
X58285000Y-57150000D01*
X58198603Y-56715654D01*
X57952566Y-56347434D01*
X56682566Y-55077434D01*
X56601616Y-55023345D01*
X56553209Y-54991000D01*
X56864250Y-54991000D01*
X57023000Y-54832250D01*
X57023000Y-53467000D01*
X57277000Y-53467000D01*
X57277000Y-54832250D01*
X57435750Y-54991000D01*
X58139910Y-54991000D01*
X58373299Y-54894327D01*
X58551927Y-54715698D01*
X58648600Y-54482309D01*
X58648600Y-54412196D01*
X60067409Y-54412196D01*
X60152467Y-54667539D01*
X60721965Y-54875516D01*
X61327700Y-54849723D01*
X61767533Y-54667539D01*
X61852591Y-54412196D01*
X60960000Y-53519605D01*
X60067409Y-54412196D01*
X58648600Y-54412196D01*
X58648600Y-53625750D01*
X58489850Y-53467000D01*
X57277000Y-53467000D01*
X57023000Y-53467000D01*
X57003000Y-53467000D01*
X57003000Y-53213000D01*
X57023000Y-53213000D01*
X57023000Y-51847750D01*
X57277000Y-51847750D01*
X57277000Y-53213000D01*
X58489850Y-53213000D01*
X58600885Y-53101965D01*
X59424484Y-53101965D01*
X59450277Y-53707700D01*
X59632461Y-54147533D01*
X59887804Y-54232591D01*
X60780395Y-53340000D01*
X61139605Y-53340000D01*
X62032196Y-54232591D01*
X62287539Y-54147533D01*
X62472225Y-53641812D01*
X63245736Y-53641812D01*
X63477262Y-54202149D01*
X63905596Y-54631231D01*
X64465528Y-54863735D01*
X65071812Y-54864264D01*
X65632149Y-54632738D01*
X66061231Y-54204404D01*
X66293735Y-53644472D01*
X66294264Y-53038188D01*
X66062738Y-52477851D01*
X65634404Y-52048769D01*
X65074472Y-51816265D01*
X64468188Y-51815736D01*
X63907851Y-52047262D01*
X63478769Y-52475596D01*
X63246265Y-53035528D01*
X63245736Y-53641812D01*
X62472225Y-53641812D01*
X62495516Y-53578035D01*
X62469723Y-52972300D01*
X62287539Y-52532467D01*
X62032196Y-52447409D01*
X61139605Y-53340000D01*
X60780395Y-53340000D01*
X59887804Y-52447409D01*
X59632461Y-52532467D01*
X59424484Y-53101965D01*
X58600885Y-53101965D01*
X58648600Y-53054250D01*
X58648600Y-52267804D01*
X60067409Y-52267804D01*
X60960000Y-53160395D01*
X61852591Y-52267804D01*
X61767533Y-52012461D01*
X61198035Y-51804484D01*
X60592300Y-51830277D01*
X60152467Y-52012461D01*
X60067409Y-52267804D01*
X58648600Y-52267804D01*
X58648600Y-52197691D01*
X58551927Y-51964302D01*
X58373299Y-51785673D01*
X58139910Y-51689000D01*
X57435750Y-51689000D01*
X57277000Y-51847750D01*
X57023000Y-51847750D01*
X56864250Y-51689000D01*
X56160090Y-51689000D01*
X55926701Y-51785673D01*
X55748073Y-51964302D01*
X55684500Y-52117780D01*
X55669670Y-52095585D01*
X55183489Y-51770729D01*
X54610000Y-51656655D01*
X54036511Y-51770729D01*
X53550330Y-52095585D01*
X53340000Y-52410366D01*
X53129670Y-52095585D01*
X52643489Y-51770729D01*
X52070000Y-51656655D01*
X51496511Y-51770729D01*
X51010330Y-52095585D01*
X50800000Y-52410366D01*
X50589670Y-52095585D01*
X50103489Y-51770729D01*
X49530000Y-51656655D01*
X48956511Y-51770729D01*
X48470330Y-52095585D01*
X48260000Y-52410366D01*
X48049670Y-52095585D01*
X47563489Y-51770729D01*
X46990000Y-51656655D01*
X46416511Y-51770729D01*
X45930330Y-52095585D01*
X45605474Y-52581766D01*
X45491400Y-53155255D01*
X45491400Y-53524745D01*
X45605474Y-54098234D01*
X45930330Y-54584415D01*
X46170662Y-54745000D01*
X45555132Y-54745000D01*
X41775000Y-50964868D01*
X41775000Y-46355000D01*
X41688603Y-45920654D01*
X41442566Y-45552434D01*
X31691172Y-35801040D01*
X32613600Y-35801040D01*
X32848917Y-35756762D01*
X33065041Y-35617690D01*
X33210031Y-35405490D01*
X33218864Y-35361869D01*
X33230330Y-35379029D01*
X33716511Y-35703885D01*
X34290000Y-35817959D01*
X34863489Y-35703885D01*
X35349670Y-35379029D01*
X35560000Y-35064248D01*
X35770330Y-35379029D01*
X36256511Y-35703885D01*
X36830000Y-35817959D01*
X37403489Y-35703885D01*
X37889670Y-35379029D01*
X38100000Y-35064248D01*
X38310330Y-35379029D01*
X38796511Y-35703885D01*
X39370000Y-35817959D01*
X39943489Y-35703885D01*
X40429670Y-35379029D01*
X40645664Y-35055772D01*
X40703179Y-35178490D01*
X41135053Y-35572688D01*
X41550974Y-35744958D01*
X41783000Y-35623817D01*
X41783000Y-34417000D01*
X41763000Y-34417000D01*
X41763000Y-34163000D01*
X41783000Y-34163000D01*
X41783000Y-34143000D01*
X42037000Y-34143000D01*
X42037000Y-34163000D01*
X42057000Y-34163000D01*
X42057000Y-34417000D01*
X42037000Y-34417000D01*
X42037000Y-35623817D01*
X42269026Y-35744958D01*
X42684947Y-35572688D01*
X43116821Y-35178490D01*
X43174336Y-35055772D01*
X43390330Y-35379029D01*
X43876511Y-35703885D01*
X44450000Y-35817959D01*
X45023489Y-35703885D01*
X45509670Y-35379029D01*
X45720000Y-35064248D01*
X45930330Y-35379029D01*
X46416511Y-35703885D01*
X46990000Y-35817959D01*
X47563489Y-35703885D01*
X48049670Y-35379029D01*
X48260000Y-35064248D01*
X48470330Y-35379029D01*
X48956511Y-35703885D01*
X49530000Y-35817959D01*
X50103489Y-35703885D01*
X50589670Y-35379029D01*
X50800000Y-35064248D01*
X51010330Y-35379029D01*
X51496511Y-35703885D01*
X52070000Y-35817959D01*
X52643489Y-35703885D01*
X53129670Y-35379029D01*
X53340000Y-35064248D01*
X53550330Y-35379029D01*
X53725000Y-35495740D01*
X53725000Y-36194995D01*
X53724999Y-36195000D01*
X53781190Y-36477484D01*
X53792367Y-36533675D01*
X53906842Y-36705000D01*
X53984210Y-36820790D01*
X55889208Y-38725787D01*
X55889210Y-38725790D01*
X56176325Y-38917633D01*
X56232516Y-38928810D01*
X56515000Y-38985001D01*
X56515005Y-38985000D01*
X82549995Y-38985000D01*
X82550000Y-38985001D01*
X82612249Y-38972619D01*
X79539868Y-42045000D01*
X65790363Y-42045000D01*
X65634404Y-41888769D01*
X65074472Y-41656265D01*
X64468188Y-41655736D01*
X63907851Y-41887262D01*
X63749838Y-42045000D01*
X61980363Y-42045000D01*
X61824404Y-41888769D01*
X61264472Y-41656265D01*
X60658188Y-41655736D01*
X60097851Y-41887262D01*
X59668769Y-42315596D01*
X59436265Y-42875528D01*
X59435736Y-43481812D01*
X59667262Y-44042149D01*
X60095596Y-44471231D01*
X60655528Y-44703735D01*
X61261812Y-44704264D01*
X61822149Y-44472738D01*
X61980162Y-44315000D01*
X63749637Y-44315000D01*
X63905596Y-44471231D01*
X64465528Y-44703735D01*
X65071812Y-44704264D01*
X65632149Y-44472738D01*
X65790162Y-44315000D01*
X80010000Y-44315000D01*
X80444346Y-44228603D01*
X80812566Y-43982566D01*
X87162566Y-37632566D01*
X87229663Y-37532148D01*
X87408603Y-37264346D01*
X87495000Y-36830000D01*
X87495000Y-20320000D01*
X87408603Y-19885654D01*
X87198588Y-19571344D01*
X104114501Y-19571344D01*
X104552790Y-20632086D01*
X105363645Y-21444357D01*
X106423620Y-21884498D01*
X107571344Y-21885499D01*
X108632086Y-21447210D01*
X109444357Y-20636355D01*
X109884498Y-19576380D01*
X109885499Y-18428656D01*
X109447210Y-17367914D01*
X108636355Y-16555643D01*
X107576380Y-16115502D01*
X106428656Y-16114501D01*
X105367914Y-16552790D01*
X104555643Y-17363645D01*
X104115502Y-18423620D01*
X104114501Y-19571344D01*
X87198588Y-19571344D01*
X87162566Y-19517434D01*
X85257566Y-17612434D01*
X85134195Y-17530000D01*
X84889346Y-17366397D01*
X84455000Y-17280000D01*
X38100000Y-17280000D01*
X37679489Y-17363645D01*
X37665654Y-17366397D01*
X37297433Y-17612434D01*
X34757434Y-20152434D01*
X34511397Y-20520654D01*
X34425000Y-20955000D01*
X34425000Y-24765000D01*
X34511397Y-25199346D01*
X34735674Y-25535000D01*
X34757434Y-25567566D01*
X36947368Y-27757500D01*
X31432500Y-27757500D01*
X30998154Y-27843897D01*
X30868110Y-27930790D01*
X30629934Y-28089934D01*
X29042434Y-29677434D01*
X28796397Y-30045654D01*
X28710000Y-30480000D01*
X28710000Y-35560000D01*
X28796397Y-35994346D01*
X29018621Y-36326927D01*
X29042434Y-36362566D01*
X39505000Y-46825132D01*
X39505000Y-51435000D01*
X39591397Y-51869346D01*
X39808992Y-52195000D01*
X39837434Y-52237566D01*
X44247346Y-56647478D01*
X43905671Y-56715441D01*
X43823019Y-56770667D01*
X43717401Y-56612599D01*
X43082401Y-55977599D01*
X42835839Y-55812852D01*
X42545000Y-55755000D01*
X40005000Y-55755000D01*
X39714161Y-55812852D01*
X39467599Y-55977599D01*
X38832599Y-56612599D01*
X38714046Y-56790026D01*
X38364211Y-57023778D01*
X38100000Y-57419199D01*
X37835789Y-57023778D01*
X37374329Y-56715441D01*
X36830000Y-56607167D01*
X36285671Y-56715441D01*
X35824211Y-57023778D01*
X35560000Y-57419199D01*
X35295789Y-57023778D01*
X34834329Y-56715441D01*
X34290000Y-56607167D01*
X33745671Y-56715441D01*
X33284211Y-57023778D01*
X33020000Y-57419199D01*
X32755789Y-57023778D01*
X32294329Y-56715441D01*
X31750000Y-56607167D01*
X31205671Y-56715441D01*
X30744211Y-57023778D01*
X30480000Y-57419199D01*
X30215789Y-57023778D01*
X29754329Y-56715441D01*
X29210000Y-56607167D01*
X28665671Y-56715441D01*
X28204211Y-57023778D01*
X27940000Y-57419199D01*
X27675789Y-57023778D01*
X27214329Y-56715441D01*
X26670000Y-56607167D01*
X26125671Y-56715441D01*
X25664211Y-57023778D01*
X25400000Y-57419199D01*
X25135789Y-57023778D01*
X24890000Y-56859547D01*
X24890000Y-55944945D01*
X24992149Y-55902738D01*
X25421231Y-55474404D01*
X25653735Y-54914472D01*
X25653737Y-54911812D01*
X32765736Y-54911812D01*
X32997262Y-55472149D01*
X33425596Y-55901231D01*
X33985528Y-56133735D01*
X34591812Y-56134264D01*
X35152149Y-55902738D01*
X35581231Y-55474404D01*
X35813735Y-54914472D01*
X35814264Y-54308188D01*
X35582738Y-53747851D01*
X35154404Y-53318769D01*
X34594472Y-53086265D01*
X33988188Y-53085736D01*
X33427851Y-53317262D01*
X32998769Y-53745596D01*
X32766265Y-54305528D01*
X32765736Y-54911812D01*
X25653737Y-54911812D01*
X25654264Y-54308188D01*
X25422738Y-53747851D01*
X24994404Y-53318769D01*
X24434472Y-53086265D01*
X23828188Y-53085736D01*
X23267851Y-53317262D01*
X22838769Y-53745596D01*
X22606265Y-54305528D01*
X22605736Y-54911812D01*
X16710000Y-54911812D01*
X16710000Y-19571344D01*
X18114501Y-19571344D01*
X18552790Y-20632086D01*
X19363645Y-21444357D01*
X20423620Y-21884498D01*
X21571344Y-21885499D01*
X22632086Y-21447210D01*
X23444357Y-20636355D01*
X23884498Y-19576380D01*
X23885499Y-18428656D01*
X23447210Y-17367914D01*
X22636355Y-16555643D01*
X21576380Y-16115502D01*
X20428656Y-16114501D01*
X19367914Y-16552790D01*
X18555643Y-17363645D01*
X18115502Y-18423620D01*
X18114501Y-19571344D01*
X16710000Y-19571344D01*
X16710000Y-14710000D01*
X111290000Y-14710000D01*
X111290000Y-89290000D01*
X111290000Y-89290000D01*
G37*
X111290000Y-89290000D02*
X16710000Y-89290000D01*
X16710000Y-85571344D01*
X18114501Y-85571344D01*
X18552790Y-86632086D01*
X19363645Y-87444357D01*
X20423620Y-87884498D01*
X21571344Y-87885499D01*
X22632086Y-87447210D01*
X23444357Y-86636355D01*
X23884498Y-85576380D01*
X23885226Y-84740750D01*
X35195510Y-84740750D01*
X35195510Y-85580800D01*
X35292183Y-85814189D01*
X35470812Y-85992817D01*
X35704201Y-86089490D01*
X36544250Y-86089490D01*
X36703000Y-85930740D01*
X36703000Y-84582000D01*
X36957000Y-84582000D01*
X36957000Y-85930740D01*
X37115750Y-86089490D01*
X37955799Y-86089490D01*
X38189188Y-85992817D01*
X38367817Y-85814189D01*
X38464490Y-85580800D01*
X38464490Y-84740750D01*
X40275510Y-84740750D01*
X40275510Y-85580800D01*
X40372183Y-85814189D01*
X40550812Y-85992817D01*
X40784201Y-86089490D01*
X41624250Y-86089490D01*
X41783000Y-85930740D01*
X41783000Y-84582000D01*
X42037000Y-84582000D01*
X42037000Y-85930740D01*
X42195750Y-86089490D01*
X43035799Y-86089490D01*
X43269188Y-85992817D01*
X43447817Y-85814189D01*
X43544490Y-85580800D01*
X43544490Y-84740750D01*
X47895510Y-84740750D01*
X47895510Y-85580800D01*
X47992183Y-85814189D01*
X48170812Y-85992817D01*
X48404201Y-86089490D01*
X49244250Y-86089490D01*
X49403000Y-85930740D01*
X49403000Y-84582000D01*
X49657000Y-84582000D01*
X49657000Y-85930740D01*
X49815750Y-86089490D01*
X50655799Y-86089490D01*
X50889188Y-85992817D01*
X51067817Y-85814189D01*
X51164490Y-85580800D01*
X51164490Y-84740750D01*
X52975510Y-84740750D01*
X52975510Y-85580800D01*
X53072183Y-85814189D01*
X53250812Y-85992817D01*
X53484201Y-86089490D01*
X54324250Y-86089490D01*
X54483000Y-85930740D01*
X54483000Y-84582000D01*
X54737000Y-84582000D01*
X54737000Y-85930740D01*
X54895750Y-86089490D01*
X55735799Y-86089490D01*
X55969188Y-85992817D01*
X56147817Y-85814189D01*
X56244490Y-85580800D01*
X56244490Y-84740750D01*
X56785510Y-84740750D01*
X56785510Y-85580800D01*
X56882183Y-85814189D01*
X57060812Y-85992817D01*
X57294201Y-86089490D01*
X58134250Y-86089490D01*
X58293000Y-85930740D01*
X58293000Y-84582000D01*
X58547000Y-84582000D01*
X58547000Y-85930740D01*
X58705750Y-86089490D01*
X59545799Y-86089490D01*
X59779188Y-85992817D01*
X59957817Y-85814189D01*
X60054490Y-85580800D01*
X60054490Y-84740750D01*
X61865510Y-84740750D01*
X61865510Y-85580800D01*
X61962183Y-85814189D01*
X62140812Y-85992817D01*
X62374201Y-86089490D01*
X63214250Y-86089490D01*
X63373000Y-85930740D01*
X63373000Y-84582000D01*
X63627000Y-84582000D01*
X63627000Y-85930740D01*
X63785750Y-86089490D01*
X64625799Y-86089490D01*
X64859188Y-85992817D01*
X65037817Y-85814189D01*
X65134490Y-85580800D01*
X65134490Y-85571344D01*
X102114501Y-85571344D01*
X102552790Y-86632086D01*
X103363645Y-87444357D01*
X104423620Y-87884498D01*
X105571344Y-87885499D01*
X106632086Y-87447210D01*
X107444357Y-86636355D01*
X107884498Y-85576380D01*
X107885499Y-84428656D01*
X107447210Y-83367914D01*
X106636355Y-82555643D01*
X105576380Y-82115502D01*
X104428656Y-82114501D01*
X103367914Y-82552790D01*
X102555643Y-83363645D01*
X102115502Y-84423620D01*
X102114501Y-85571344D01*
X65134490Y-85571344D01*
X65134490Y-84740750D01*
X64975740Y-84582000D01*
X63627000Y-84582000D01*
X63373000Y-84582000D01*
X62024260Y-84582000D01*
X61865510Y-84740750D01*
X60054490Y-84740750D01*
X59895740Y-84582000D01*
X58547000Y-84582000D01*
X58293000Y-84582000D01*
X56944260Y-84582000D01*
X56785510Y-84740750D01*
X56244490Y-84740750D01*
X56085740Y-84582000D01*
X54737000Y-84582000D01*
X54483000Y-84582000D01*
X53134260Y-84582000D01*
X52975510Y-84740750D01*
X51164490Y-84740750D01*
X51005740Y-84582000D01*
X49657000Y-84582000D01*
X49403000Y-84582000D01*
X48054260Y-84582000D01*
X47895510Y-84740750D01*
X43544490Y-84740750D01*
X43385740Y-84582000D01*
X42037000Y-84582000D01*
X41783000Y-84582000D01*
X40434260Y-84582000D01*
X40275510Y-84740750D01*
X38464490Y-84740750D01*
X38305740Y-84582000D01*
X36957000Y-84582000D01*
X36703000Y-84582000D01*
X35354260Y-84582000D01*
X35195510Y-84740750D01*
X23885226Y-84740750D01*
X23885499Y-84428656D01*
X23447210Y-83367914D01*
X22915974Y-82835750D01*
X28845000Y-82835750D01*
X28845000Y-83676309D01*
X28941673Y-83909698D01*
X29120301Y-84088327D01*
X29353690Y-84185000D01*
X30194250Y-84185000D01*
X30353000Y-84026250D01*
X30353000Y-82677000D01*
X29003750Y-82677000D01*
X28845000Y-82835750D01*
X22915974Y-82835750D01*
X22636355Y-82555643D01*
X21576380Y-82115502D01*
X20428656Y-82114501D01*
X19367914Y-82552790D01*
X18555643Y-83363645D01*
X18115502Y-84423620D01*
X18114501Y-85571344D01*
X16710000Y-85571344D01*
X16710000Y-81423691D01*
X28845000Y-81423691D01*
X28845000Y-82264250D01*
X29003750Y-82423000D01*
X30353000Y-82423000D01*
X30353000Y-81073750D01*
X30194250Y-80915000D01*
X29353690Y-80915000D01*
X29120301Y-81011673D01*
X28941673Y-81190302D01*
X28845000Y-81423691D01*
X16710000Y-81423691D01*
X16710000Y-77771812D01*
X22605736Y-77771812D01*
X22837262Y-78332149D01*
X23265596Y-78761231D01*
X23825528Y-78993735D01*
X24431812Y-78994264D01*
X24992149Y-78762738D01*
X25421231Y-78334404D01*
X25653735Y-77774472D01*
X25654264Y-77168188D01*
X25422738Y-76607851D01*
X24994404Y-76178769D01*
X24434472Y-75946265D01*
X23828188Y-75945736D01*
X23267851Y-76177262D01*
X22838769Y-76605596D01*
X22606265Y-77165528D01*
X22605736Y-77771812D01*
X16710000Y-77771812D01*
X16710000Y-54911812D01*
X22605736Y-54911812D01*
X22837262Y-55472149D01*
X23265596Y-55901231D01*
X23370000Y-55944583D01*
X23370000Y-56859547D01*
X23124211Y-57023778D01*
X22815874Y-57485238D01*
X22707600Y-58029567D01*
X22707600Y-58810433D01*
X22815874Y-59354762D01*
X23124211Y-59816222D01*
X23585671Y-60124559D01*
X24130000Y-60232833D01*
X24674329Y-60124559D01*
X25135789Y-59816222D01*
X25400000Y-59420801D01*
X25664211Y-59816222D01*
X26125671Y-60124559D01*
X26670000Y-60232833D01*
X27214329Y-60124559D01*
X27675789Y-59816222D01*
X27940000Y-59420801D01*
X28204211Y-59816222D01*
X28665671Y-60124559D01*
X29210000Y-60232833D01*
X29754329Y-60124559D01*
X30215789Y-59816222D01*
X30480000Y-59420801D01*
X30744211Y-59816222D01*
X31205671Y-60124559D01*
X31750000Y-60232833D01*
X32294329Y-60124559D01*
X32755789Y-59816222D01*
X33020000Y-59420801D01*
X33284211Y-59816222D01*
X33745671Y-60124559D01*
X34290000Y-60232833D01*
X34834329Y-60124559D01*
X35295789Y-59816222D01*
X35560000Y-59420801D01*
X35824211Y-59816222D01*
X35945000Y-59896930D01*
X35945000Y-69483421D01*
X34934210Y-70494210D01*
X34742367Y-70781325D01*
X34742367Y-70781326D01*
X34674999Y-71120000D01*
X34675000Y-71120005D01*
X34675000Y-71755000D01*
X34709949Y-71930700D01*
X34290000Y-71847167D01*
X33745671Y-71955441D01*
X33284211Y-72263778D01*
X33020000Y-72659199D01*
X32755789Y-72263778D01*
X32294329Y-71955441D01*
X31750000Y-71847167D01*
X31205671Y-71955441D01*
X30744211Y-72263778D01*
X30480000Y-72659199D01*
X30215789Y-72263778D01*
X29754329Y-71955441D01*
X29210000Y-71847167D01*
X28665671Y-71955441D01*
X28204211Y-72263778D01*
X27940000Y-72659199D01*
X27675789Y-72263778D01*
X27214329Y-71955441D01*
X26670000Y-71847167D01*
X26125671Y-71955441D01*
X25664211Y-72263778D01*
X25549497Y-72435460D01*
X25520562Y-72281683D01*
X25381490Y-72065559D01*
X25169290Y-71920569D01*
X24917400Y-71869560D01*
X23342600Y-71869560D01*
X23107283Y-71913838D01*
X22891159Y-72052910D01*
X22746169Y-72265110D01*
X22695160Y-72517000D01*
X22695160Y-74803000D01*
X22739438Y-75038317D01*
X22878510Y-75254441D01*
X23090710Y-75399431D01*
X23342600Y-75450440D01*
X24917400Y-75450440D01*
X25152717Y-75406162D01*
X25368841Y-75267090D01*
X25513831Y-75054890D01*
X25548600Y-74883197D01*
X25664211Y-75056222D01*
X26125671Y-75364559D01*
X26670000Y-75472833D01*
X27214329Y-75364559D01*
X27675789Y-75056222D01*
X27940000Y-74660801D01*
X28204211Y-75056222D01*
X28665671Y-75364559D01*
X29210000Y-75472833D01*
X29754329Y-75364559D01*
X30215789Y-75056222D01*
X30480000Y-74660801D01*
X30744211Y-75056222D01*
X31205671Y-75364559D01*
X31750000Y-75472833D01*
X32294329Y-75364559D01*
X32755789Y-75056222D01*
X33020000Y-74660801D01*
X33284211Y-75056222D01*
X33745671Y-75364559D01*
X34290000Y-75472833D01*
X34709949Y-75389300D01*
X34674999Y-75565000D01*
X34742367Y-75903674D01*
X34838542Y-76047612D01*
X34594472Y-75946265D01*
X33988188Y-75945736D01*
X33427851Y-76177262D01*
X32998769Y-76605596D01*
X32766265Y-77165528D01*
X32765736Y-77771812D01*
X32997262Y-78332149D01*
X33425596Y-78761231D01*
X33985528Y-78993735D01*
X34135737Y-78993866D01*
X34107367Y-79036325D01*
X34107367Y-79036326D01*
X34039999Y-79375000D01*
X34040000Y-79375005D01*
X34040000Y-81257521D01*
X33947363Y-81164722D01*
X33346648Y-80915284D01*
X32696205Y-80914716D01*
X32095057Y-81163106D01*
X32032803Y-81225251D01*
X32018327Y-81190302D01*
X31839699Y-81011673D01*
X31606310Y-80915000D01*
X30765750Y-80915000D01*
X30607000Y-81073750D01*
X30607000Y-82423000D01*
X30627000Y-82423000D01*
X30627000Y-82677000D01*
X30607000Y-82677000D01*
X30607000Y-84026250D01*
X30765750Y-84185000D01*
X31606310Y-84185000D01*
X31839699Y-84088327D01*
X32018327Y-83909698D01*
X32032630Y-83875166D01*
X32092637Y-83935278D01*
X32693352Y-84184716D01*
X33343795Y-84185284D01*
X33944943Y-83936894D01*
X34405278Y-83477363D01*
X34648951Y-82890531D01*
X34934208Y-83175787D01*
X34934210Y-83175790D01*
X35126054Y-83303975D01*
X35195510Y-83350384D01*
X35195510Y-84169250D01*
X35354260Y-84328000D01*
X36703000Y-84328000D01*
X36703000Y-84308000D01*
X36957000Y-84308000D01*
X36957000Y-84328000D01*
X38305740Y-84328000D01*
X38464490Y-84169250D01*
X38464490Y-83435000D01*
X40275510Y-83435000D01*
X40275510Y-84169250D01*
X40434260Y-84328000D01*
X41783000Y-84328000D01*
X41783000Y-84308000D01*
X42037000Y-84308000D01*
X42037000Y-84328000D01*
X43385740Y-84328000D01*
X43544490Y-84169250D01*
X43544490Y-83435000D01*
X45719995Y-83435000D01*
X45720000Y-83435001D01*
X46002484Y-83378810D01*
X46058675Y-83367633D01*
X46116194Y-83329200D01*
X47895510Y-83329200D01*
X47895510Y-84169250D01*
X48054260Y-84328000D01*
X49403000Y-84328000D01*
X49403000Y-82979260D01*
X49657000Y-82979260D01*
X49657000Y-84328000D01*
X51005740Y-84328000D01*
X51164490Y-84169250D01*
X51164490Y-83329200D01*
X52975510Y-83329200D01*
X52975510Y-84169250D01*
X53134260Y-84328000D01*
X54483000Y-84328000D01*
X54483000Y-82979260D01*
X54737000Y-82979260D01*
X54737000Y-84328000D01*
X56085740Y-84328000D01*
X56244490Y-84169250D01*
X56244490Y-83329200D01*
X56785510Y-83329200D01*
X56785510Y-84169250D01*
X56944260Y-84328000D01*
X58293000Y-84328000D01*
X58293000Y-82979260D01*
X58547000Y-82979260D01*
X58547000Y-84328000D01*
X59895740Y-84328000D01*
X60054490Y-84169250D01*
X60054490Y-83329200D01*
X61865510Y-83329200D01*
X61865510Y-84169250D01*
X62024260Y-84328000D01*
X63373000Y-84328000D01*
X63373000Y-82979260D01*
X63627000Y-82979260D01*
X63627000Y-84328000D01*
X64975740Y-84328000D01*
X65134490Y-84169250D01*
X65134490Y-83329200D01*
X65037817Y-83095811D01*
X64859188Y-82917183D01*
X64625799Y-82820510D01*
X63785750Y-82820510D01*
X63627000Y-82979260D01*
X63373000Y-82979260D01*
X63214250Y-82820510D01*
X62374201Y-82820510D01*
X62140812Y-82917183D01*
X61962183Y-83095811D01*
X61865510Y-83329200D01*
X60054490Y-83329200D01*
X59957817Y-83095811D01*
X59779188Y-82917183D01*
X59545799Y-82820510D01*
X58705750Y-82820510D01*
X58547000Y-82979260D01*
X58293000Y-82979260D01*
X58134250Y-82820510D01*
X57294201Y-82820510D01*
X57060812Y-82917183D01*
X56882183Y-83095811D01*
X56785510Y-83329200D01*
X56244490Y-83329200D01*
X56147817Y-83095811D01*
X55969188Y-82917183D01*
X55735799Y-82820510D01*
X54895750Y-82820510D01*
X54737000Y-82979260D01*
X54483000Y-82979260D01*
X54324250Y-82820510D01*
X53484201Y-82820510D01*
X53250812Y-82917183D01*
X53072183Y-83095811D01*
X52975510Y-83329200D01*
X51164490Y-83329200D01*
X51067817Y-83095811D01*
X50889188Y-82917183D01*
X50655799Y-82820510D01*
X49815750Y-82820510D01*
X49657000Y-82979260D01*
X49403000Y-82979260D01*
X49244250Y-82820510D01*
X48404201Y-82820510D01*
X48170812Y-82917183D01*
X47992183Y-83095811D01*
X47895510Y-83329200D01*
X46116194Y-83329200D01*
X46345790Y-83175790D01*
X47883070Y-81638509D01*
X47883070Y-81644490D01*
X47927348Y-81879807D01*
X48066420Y-82095931D01*
X48278620Y-82240921D01*
X48530510Y-82291930D01*
X50529490Y-82291930D01*
X50764807Y-82247652D01*
X50980931Y-82108580D01*
X51125921Y-81896380D01*
X51176930Y-81644490D01*
X51176930Y-81530000D01*
X52963070Y-81530000D01*
X52963070Y-81644490D01*
X53007348Y-81879807D01*
X53146420Y-82095931D01*
X53358620Y-82240921D01*
X53610510Y-82291930D01*
X55609490Y-82291930D01*
X55844807Y-82247652D01*
X56060931Y-82108580D01*
X56205921Y-81896380D01*
X56256930Y-81644490D01*
X56256930Y-79645510D01*
X56212652Y-79410193D01*
X56073580Y-79194069D01*
X55861380Y-79049079D01*
X55609490Y-78998070D01*
X53610510Y-78998070D01*
X53375193Y-79042348D01*
X53159069Y-79181420D01*
X53014079Y-79393620D01*
X52963070Y-79645510D01*
X52963070Y-79760000D01*
X51176930Y-79760000D01*
X51176930Y-79645510D01*
X51132652Y-79410193D01*
X50993580Y-79194069D01*
X50781380Y-79049079D01*
X50529490Y-78998070D01*
X48530510Y-78998070D01*
X48295193Y-79042348D01*
X48079069Y-79181420D01*
X47934079Y-79393620D01*
X47883070Y-79645510D01*
X47883070Y-79760000D01*
X47625005Y-79760000D01*
X47625000Y-79759999D01*
X47342516Y-79816190D01*
X47286325Y-79827367D01*
X46999210Y-80019210D01*
X46999208Y-80019213D01*
X45353420Y-81665000D01*
X43552777Y-81665000D01*
X43556930Y-81644490D01*
X43556930Y-79645510D01*
X43512652Y-79410193D01*
X43373580Y-79194069D01*
X43161380Y-79049079D01*
X42909490Y-78998070D01*
X40910510Y-78998070D01*
X40675193Y-79042348D01*
X40459069Y-79181420D01*
X40314079Y-79393620D01*
X40263070Y-79645510D01*
X40263070Y-81644490D01*
X40266929Y-81665000D01*
X38472777Y-81665000D01*
X38476930Y-81644490D01*
X38476930Y-80249649D01*
X38725787Y-80000792D01*
X38725790Y-80000790D01*
X38917633Y-79713675D01*
X38931192Y-79645510D01*
X38985001Y-79375000D01*
X38985000Y-79374995D01*
X38985000Y-75565000D01*
X38950051Y-75389300D01*
X39370000Y-75472833D01*
X39789949Y-75389300D01*
X39754999Y-75565000D01*
X39822367Y-75903674D01*
X40014210Y-76190790D01*
X42554208Y-78730787D01*
X42554210Y-78730790D01*
X42841325Y-78922633D01*
X43180000Y-78990000D01*
X56783420Y-78990000D01*
X56972581Y-79179160D01*
X56969069Y-79181420D01*
X56824079Y-79393620D01*
X56773070Y-79645510D01*
X56773070Y-81644490D01*
X56817348Y-81879807D01*
X56956420Y-82095931D01*
X57168620Y-82240921D01*
X57420510Y-82291930D01*
X59419490Y-82291930D01*
X59654807Y-82247652D01*
X59870931Y-82108580D01*
X60015921Y-81896380D01*
X60066930Y-81644490D01*
X60066930Y-81530000D01*
X61853070Y-81530000D01*
X61853070Y-81644490D01*
X61897348Y-81879807D01*
X62036420Y-82095931D01*
X62248620Y-82240921D01*
X62500510Y-82291930D01*
X64499490Y-82291930D01*
X64734807Y-82247652D01*
X64950931Y-82108580D01*
X65095921Y-81896380D01*
X65146930Y-81644490D01*
X65146930Y-79645510D01*
X65102652Y-79410193D01*
X64963580Y-79194069D01*
X64751380Y-79049079D01*
X64499490Y-78998070D01*
X62500510Y-78998070D01*
X62265193Y-79042348D01*
X62049069Y-79181420D01*
X61904079Y-79393620D01*
X61853070Y-79645510D01*
X61853070Y-79760000D01*
X60066930Y-79760000D01*
X60066930Y-79645510D01*
X60022652Y-79410193D01*
X59883580Y-79194069D01*
X59671380Y-79049079D01*
X59419490Y-78998070D01*
X59212072Y-78998070D01*
X59206680Y-78990000D01*
X59045790Y-78749210D01*
X59045787Y-78749208D01*
X57775790Y-77479210D01*
X57559963Y-77335000D01*
X62230000Y-77335000D01*
X62664346Y-77248603D01*
X63032566Y-77002566D01*
X88314382Y-51720750D01*
X91211400Y-51720750D01*
X91211400Y-52424909D01*
X91308073Y-52658298D01*
X91486701Y-52836927D01*
X91720090Y-52933600D01*
X92424250Y-52933600D01*
X92583000Y-52774850D01*
X92583000Y-51562000D01*
X91370150Y-51562000D01*
X91211400Y-51720750D01*
X88314382Y-51720750D01*
X90005132Y-50030000D01*
X91494120Y-50030000D01*
X91486701Y-50033073D01*
X91308073Y-50211702D01*
X91211400Y-50445091D01*
X91211400Y-51149250D01*
X91370150Y-51308000D01*
X92583000Y-51308000D01*
X92583000Y-51288000D01*
X92837000Y-51288000D01*
X92837000Y-51308000D01*
X92857000Y-51308000D01*
X92857000Y-51562000D01*
X92837000Y-51562000D01*
X92837000Y-52774850D01*
X92995750Y-52933600D01*
X93699910Y-52933600D01*
X93933299Y-52836927D01*
X94111927Y-52658298D01*
X94176263Y-52502977D01*
X94190330Y-52524029D01*
X94676511Y-52848885D01*
X95250000Y-52962959D01*
X95823489Y-52848885D01*
X96309670Y-52524029D01*
X96520000Y-52209248D01*
X96730330Y-52524029D01*
X97216511Y-52848885D01*
X97790000Y-52962959D01*
X98363489Y-52848885D01*
X98849670Y-52524029D01*
X99060000Y-52209248D01*
X99270330Y-52524029D01*
X99756511Y-52848885D01*
X100330000Y-52962959D01*
X100903489Y-52848885D01*
X101389670Y-52524029D01*
X101714526Y-52037848D01*
X101828600Y-51464359D01*
X101828600Y-51405641D01*
X101714526Y-50832152D01*
X101389670Y-50345971D01*
X101118828Y-50165000D01*
X101389670Y-49984029D01*
X101714526Y-49497848D01*
X101828600Y-48924359D01*
X101828600Y-48865641D01*
X101714526Y-48292152D01*
X101389670Y-47805971D01*
X100903489Y-47481115D01*
X100330000Y-47367041D01*
X99820000Y-47468486D01*
X99820000Y-44606514D01*
X100330000Y-44707959D01*
X100903489Y-44593885D01*
X101389670Y-44269029D01*
X101714526Y-43782848D01*
X101828600Y-43209359D01*
X101828600Y-43150641D01*
X101714526Y-42577152D01*
X101389670Y-42090971D01*
X101118828Y-41910000D01*
X101389670Y-41729029D01*
X101714526Y-41242848D01*
X101828600Y-40669359D01*
X101828600Y-40610641D01*
X101714526Y-40037152D01*
X101389670Y-39550971D01*
X100903489Y-39226115D01*
X100330000Y-39112041D01*
X99820000Y-39213486D01*
X99820000Y-36351514D01*
X100330000Y-36452959D01*
X100903489Y-36338885D01*
X101389670Y-36014029D01*
X101714526Y-35527848D01*
X101828600Y-34954359D01*
X101828600Y-34895641D01*
X101714526Y-34322152D01*
X101389670Y-33835971D01*
X101118828Y-33655000D01*
X101389670Y-33474029D01*
X101714526Y-32987848D01*
X101828600Y-32414359D01*
X101828600Y-32355641D01*
X101714526Y-31782152D01*
X101389670Y-31295971D01*
X100903489Y-30971115D01*
X100330000Y-30857041D01*
X99820000Y-30958486D01*
X99820000Y-27619802D01*
X99952027Y-27487775D01*
X100330000Y-27562959D01*
X100903489Y-27448885D01*
X101389670Y-27124029D01*
X101714526Y-26637848D01*
X101828600Y-26064359D01*
X101828600Y-26005641D01*
X101714526Y-25432152D01*
X101389670Y-24945971D01*
X101118828Y-24765000D01*
X101389670Y-24584029D01*
X101714526Y-24097848D01*
X101828600Y-23524359D01*
X101828600Y-23465641D01*
X101714526Y-22892152D01*
X101389670Y-22405971D01*
X100903489Y-22081115D01*
X100330000Y-21967041D01*
X99756511Y-22081115D01*
X99270330Y-22405971D01*
X99060000Y-22720752D01*
X98849670Y-22405971D01*
X98363489Y-22081115D01*
X97790000Y-21967041D01*
X97216511Y-22081115D01*
X96730330Y-22405971D01*
X96520000Y-22720752D01*
X96309670Y-22405971D01*
X95823489Y-22081115D01*
X95250000Y-21967041D01*
X94676511Y-22081115D01*
X94190330Y-22405971D01*
X93980000Y-22720752D01*
X93769670Y-22405971D01*
X93283489Y-22081115D01*
X92710000Y-21967041D01*
X92136511Y-22081115D01*
X91719130Y-22360000D01*
X91440000Y-22360000D01*
X91005654Y-22446397D01*
X90760805Y-22610000D01*
X90637434Y-22692434D01*
X88732434Y-24597434D01*
X88486397Y-24965654D01*
X88400000Y-25400000D01*
X88400000Y-48424868D01*
X61759868Y-75065000D01*
X60682652Y-75065000D01*
X60695789Y-75056222D01*
X61004126Y-74594762D01*
X61112400Y-74050433D01*
X61112400Y-73269567D01*
X61004126Y-72725238D01*
X60695789Y-72263778D01*
X60234329Y-71955441D01*
X59690000Y-71847167D01*
X59145671Y-71955441D01*
X58684211Y-72263778D01*
X58420246Y-72658830D01*
X58415525Y-72642738D01*
X58065986Y-72208809D01*
X57576996Y-71941673D01*
X57497060Y-71924990D01*
X57277000Y-72047148D01*
X57277000Y-73533000D01*
X57297000Y-73533000D01*
X57297000Y-73787000D01*
X57277000Y-73787000D01*
X57277000Y-73807000D01*
X57023000Y-73807000D01*
X57023000Y-73787000D01*
X57003000Y-73787000D01*
X57003000Y-73533000D01*
X57023000Y-73533000D01*
X57023000Y-72047148D01*
X56802940Y-71924990D01*
X56723004Y-71941673D01*
X56234014Y-72208809D01*
X55884475Y-72642738D01*
X55879754Y-72658830D01*
X55615789Y-72263778D01*
X55154329Y-71955441D01*
X54610000Y-71847167D01*
X54065671Y-71955441D01*
X53604211Y-72263778D01*
X53340000Y-72659199D01*
X53075789Y-72263778D01*
X52614329Y-71955441D01*
X52070000Y-71847167D01*
X51525671Y-71955441D01*
X51064211Y-72263778D01*
X50800000Y-72659199D01*
X50535789Y-72263778D01*
X50367529Y-72151351D01*
X50347633Y-72051325D01*
X50155790Y-71764210D01*
X49868675Y-71572367D01*
X49530000Y-71505000D01*
X49191325Y-71572367D01*
X48904210Y-71764210D01*
X48712367Y-72051325D01*
X48692471Y-72151351D01*
X48524211Y-72263778D01*
X48260000Y-72659199D01*
X47995789Y-72263778D01*
X47534329Y-71955441D01*
X46990000Y-71847167D01*
X46445671Y-71955441D01*
X45984211Y-72263778D01*
X45720000Y-72659199D01*
X45455789Y-72263778D01*
X44994329Y-71955441D01*
X44450000Y-71847167D01*
X43905671Y-71955441D01*
X43444211Y-72263778D01*
X43180000Y-72659199D01*
X42915789Y-72263778D01*
X42454329Y-71955441D01*
X41910000Y-71847167D01*
X41400000Y-71948613D01*
X41400000Y-71544929D01*
X41457633Y-71458675D01*
X41525000Y-71120000D01*
X41525000Y-63231580D01*
X43805789Y-60950790D01*
X43997633Y-60663675D01*
X44065000Y-60325000D01*
X44030051Y-60149300D01*
X44450000Y-60232833D01*
X44994329Y-60124559D01*
X45455789Y-59816222D01*
X45720000Y-59420801D01*
X45984211Y-59816222D01*
X46445671Y-60124559D01*
X46990000Y-60232833D01*
X47534329Y-60124559D01*
X47995789Y-59816222D01*
X48260000Y-59420801D01*
X48524211Y-59816222D01*
X48985671Y-60124559D01*
X49530000Y-60232833D01*
X50074329Y-60124559D01*
X50535789Y-59816222D01*
X50799754Y-59421170D01*
X50804475Y-59437262D01*
X51154014Y-59871191D01*
X51643004Y-60138327D01*
X51722940Y-60155010D01*
X51943000Y-60032852D01*
X51943000Y-58547000D01*
X51923000Y-58547000D01*
X51923000Y-58293000D01*
X51943000Y-58293000D01*
X51943000Y-58273000D01*
X52197000Y-58273000D01*
X52197000Y-58293000D01*
X52217000Y-58293000D01*
X52217000Y-58547000D01*
X52197000Y-58547000D01*
X52197000Y-60032852D01*
X52417060Y-60155010D01*
X52496996Y-60138327D01*
X52985986Y-59871191D01*
X53335525Y-59437262D01*
X53340246Y-59421170D01*
X53604211Y-59816222D01*
X54065671Y-60124559D01*
X54610000Y-60232833D01*
X55154329Y-60124559D01*
X55615789Y-59816222D01*
X55880000Y-59420801D01*
X56144211Y-59816222D01*
X56605671Y-60124559D01*
X57150000Y-60232833D01*
X57694329Y-60124559D01*
X58155789Y-59816222D01*
X58420000Y-59420801D01*
X58684211Y-59816222D01*
X59145671Y-60124559D01*
X59690000Y-60232833D01*
X60234329Y-60124559D01*
X60695789Y-59816222D01*
X61004126Y-59354762D01*
X61112400Y-58810433D01*
X61112400Y-58029567D01*
X61004126Y-57485238D01*
X60695789Y-57023778D01*
X60234329Y-56715441D01*
X59690000Y-56607167D01*
X59145671Y-56715441D01*
X58684211Y-57023778D01*
X58420000Y-57419199D01*
X58285000Y-57217156D01*
X58285000Y-57150000D01*
X58198603Y-56715654D01*
X57952566Y-56347434D01*
X56682566Y-55077434D01*
X56601616Y-55023345D01*
X56553209Y-54991000D01*
X56864250Y-54991000D01*
X57023000Y-54832250D01*
X57023000Y-53467000D01*
X57277000Y-53467000D01*
X57277000Y-54832250D01*
X57435750Y-54991000D01*
X58139910Y-54991000D01*
X58373299Y-54894327D01*
X58551927Y-54715698D01*
X58648600Y-54482309D01*
X58648600Y-54412196D01*
X60067409Y-54412196D01*
X60152467Y-54667539D01*
X60721965Y-54875516D01*
X61327700Y-54849723D01*
X61767533Y-54667539D01*
X61852591Y-54412196D01*
X60960000Y-53519605D01*
X60067409Y-54412196D01*
X58648600Y-54412196D01*
X58648600Y-53625750D01*
X58489850Y-53467000D01*
X57277000Y-53467000D01*
X57023000Y-53467000D01*
X57003000Y-53467000D01*
X57003000Y-53213000D01*
X57023000Y-53213000D01*
X57023000Y-51847750D01*
X57277000Y-51847750D01*
X57277000Y-53213000D01*
X58489850Y-53213000D01*
X58600885Y-53101965D01*
X59424484Y-53101965D01*
X59450277Y-53707700D01*
X59632461Y-54147533D01*
X59887804Y-54232591D01*
X60780395Y-53340000D01*
X61139605Y-53340000D01*
X62032196Y-54232591D01*
X62287539Y-54147533D01*
X62472225Y-53641812D01*
X63245736Y-53641812D01*
X63477262Y-54202149D01*
X63905596Y-54631231D01*
X64465528Y-54863735D01*
X65071812Y-54864264D01*
X65632149Y-54632738D01*
X66061231Y-54204404D01*
X66293735Y-53644472D01*
X66294264Y-53038188D01*
X66062738Y-52477851D01*
X65634404Y-52048769D01*
X65074472Y-51816265D01*
X64468188Y-51815736D01*
X63907851Y-52047262D01*
X63478769Y-52475596D01*
X63246265Y-53035528D01*
X63245736Y-53641812D01*
X62472225Y-53641812D01*
X62495516Y-53578035D01*
X62469723Y-52972300D01*
X62287539Y-52532467D01*
X62032196Y-52447409D01*
X61139605Y-53340000D01*
X60780395Y-53340000D01*
X59887804Y-52447409D01*
X59632461Y-52532467D01*
X59424484Y-53101965D01*
X58600885Y-53101965D01*
X58648600Y-53054250D01*
X58648600Y-52267804D01*
X60067409Y-52267804D01*
X60960000Y-53160395D01*
X61852591Y-52267804D01*
X61767533Y-52012461D01*
X61198035Y-51804484D01*
X60592300Y-51830277D01*
X60152467Y-52012461D01*
X60067409Y-52267804D01*
X58648600Y-52267804D01*
X58648600Y-52197691D01*
X58551927Y-51964302D01*
X58373299Y-51785673D01*
X58139910Y-51689000D01*
X57435750Y-51689000D01*
X57277000Y-51847750D01*
X57023000Y-51847750D01*
X56864250Y-51689000D01*
X56160090Y-51689000D01*
X55926701Y-51785673D01*
X55748073Y-51964302D01*
X55684500Y-52117780D01*
X55669670Y-52095585D01*
X55183489Y-51770729D01*
X54610000Y-51656655D01*
X54036511Y-51770729D01*
X53550330Y-52095585D01*
X53340000Y-52410366D01*
X53129670Y-52095585D01*
X52643489Y-51770729D01*
X52070000Y-51656655D01*
X51496511Y-51770729D01*
X51010330Y-52095585D01*
X50800000Y-52410366D01*
X50589670Y-52095585D01*
X50103489Y-51770729D01*
X49530000Y-51656655D01*
X48956511Y-51770729D01*
X48470330Y-52095585D01*
X48260000Y-52410366D01*
X48049670Y-52095585D01*
X47563489Y-51770729D01*
X46990000Y-51656655D01*
X46416511Y-51770729D01*
X45930330Y-52095585D01*
X45605474Y-52581766D01*
X45491400Y-53155255D01*
X45491400Y-53524745D01*
X45605474Y-54098234D01*
X45930330Y-54584415D01*
X46170662Y-54745000D01*
X45555132Y-54745000D01*
X41775000Y-50964868D01*
X41775000Y-46355000D01*
X41688603Y-45920654D01*
X41442566Y-45552434D01*
X31691172Y-35801040D01*
X32613600Y-35801040D01*
X32848917Y-35756762D01*
X33065041Y-35617690D01*
X33210031Y-35405490D01*
X33218864Y-35361869D01*
X33230330Y-35379029D01*
X33716511Y-35703885D01*
X34290000Y-35817959D01*
X34863489Y-35703885D01*
X35349670Y-35379029D01*
X35560000Y-35064248D01*
X35770330Y-35379029D01*
X36256511Y-35703885D01*
X36830000Y-35817959D01*
X37403489Y-35703885D01*
X37889670Y-35379029D01*
X38100000Y-35064248D01*
X38310330Y-35379029D01*
X38796511Y-35703885D01*
X39370000Y-35817959D01*
X39943489Y-35703885D01*
X40429670Y-35379029D01*
X40645664Y-35055772D01*
X40703179Y-35178490D01*
X41135053Y-35572688D01*
X41550974Y-35744958D01*
X41783000Y-35623817D01*
X41783000Y-34417000D01*
X41763000Y-34417000D01*
X41763000Y-34163000D01*
X41783000Y-34163000D01*
X41783000Y-34143000D01*
X42037000Y-34143000D01*
X42037000Y-34163000D01*
X42057000Y-34163000D01*
X42057000Y-34417000D01*
X42037000Y-34417000D01*
X42037000Y-35623817D01*
X42269026Y-35744958D01*
X42684947Y-35572688D01*
X43116821Y-35178490D01*
X43174336Y-35055772D01*
X43390330Y-35379029D01*
X43876511Y-35703885D01*
X44450000Y-35817959D01*
X45023489Y-35703885D01*
X45509670Y-35379029D01*
X45720000Y-35064248D01*
X45930330Y-35379029D01*
X46416511Y-35703885D01*
X46990000Y-35817959D01*
X47563489Y-35703885D01*
X48049670Y-35379029D01*
X48260000Y-35064248D01*
X48470330Y-35379029D01*
X48956511Y-35703885D01*
X49530000Y-35817959D01*
X50103489Y-35703885D01*
X50589670Y-35379029D01*
X50800000Y-35064248D01*
X51010330Y-35379029D01*
X51496511Y-35703885D01*
X52070000Y-35817959D01*
X52643489Y-35703885D01*
X53129670Y-35379029D01*
X53340000Y-35064248D01*
X53550330Y-35379029D01*
X53725000Y-35495740D01*
X53725000Y-36194995D01*
X53724999Y-36195000D01*
X53781190Y-36477484D01*
X53792367Y-36533675D01*
X53906842Y-36705000D01*
X53984210Y-36820790D01*
X55889208Y-38725787D01*
X55889210Y-38725790D01*
X56176325Y-38917633D01*
X56232516Y-38928810D01*
X56515000Y-38985001D01*
X56515005Y-38985000D01*
X82549995Y-38985000D01*
X82550000Y-38985001D01*
X82612249Y-38972619D01*
X79539868Y-42045000D01*
X65790363Y-42045000D01*
X65634404Y-41888769D01*
X65074472Y-41656265D01*
X64468188Y-41655736D01*
X63907851Y-41887262D01*
X63749838Y-42045000D01*
X61980363Y-42045000D01*
X61824404Y-41888769D01*
X61264472Y-41656265D01*
X60658188Y-41655736D01*
X60097851Y-41887262D01*
X59668769Y-42315596D01*
X59436265Y-42875528D01*
X59435736Y-43481812D01*
X59667262Y-44042149D01*
X60095596Y-44471231D01*
X60655528Y-44703735D01*
X61261812Y-44704264D01*
X61822149Y-44472738D01*
X61980162Y-44315000D01*
X63749637Y-44315000D01*
X63905596Y-44471231D01*
X64465528Y-44703735D01*
X65071812Y-44704264D01*
X65632149Y-44472738D01*
X65790162Y-44315000D01*
X80010000Y-44315000D01*
X80444346Y-44228603D01*
X80812566Y-43982566D01*
X87162566Y-37632566D01*
X87229663Y-37532148D01*
X87408603Y-37264346D01*
X87495000Y-36830000D01*
X87495000Y-20320000D01*
X87408603Y-19885654D01*
X87198588Y-19571344D01*
X104114501Y-19571344D01*
X104552790Y-20632086D01*
X105363645Y-21444357D01*
X106423620Y-21884498D01*
X107571344Y-21885499D01*
X108632086Y-21447210D01*
X109444357Y-20636355D01*
X109884498Y-19576380D01*
X109885499Y-18428656D01*
X109447210Y-17367914D01*
X108636355Y-16555643D01*
X107576380Y-16115502D01*
X106428656Y-16114501D01*
X105367914Y-16552790D01*
X104555643Y-17363645D01*
X104115502Y-18423620D01*
X104114501Y-19571344D01*
X87198588Y-19571344D01*
X87162566Y-19517434D01*
X85257566Y-17612434D01*
X85134195Y-17530000D01*
X84889346Y-17366397D01*
X84455000Y-17280000D01*
X38100000Y-17280000D01*
X37679489Y-17363645D01*
X37665654Y-17366397D01*
X37297433Y-17612434D01*
X34757434Y-20152434D01*
X34511397Y-20520654D01*
X34425000Y-20955000D01*
X34425000Y-24765000D01*
X34511397Y-25199346D01*
X34735674Y-25535000D01*
X34757434Y-25567566D01*
X36947368Y-27757500D01*
X31432500Y-27757500D01*
X30998154Y-27843897D01*
X30868110Y-27930790D01*
X30629934Y-28089934D01*
X29042434Y-29677434D01*
X28796397Y-30045654D01*
X28710000Y-30480000D01*
X28710000Y-35560000D01*
X28796397Y-35994346D01*
X29018621Y-36326927D01*
X29042434Y-36362566D01*
X39505000Y-46825132D01*
X39505000Y-51435000D01*
X39591397Y-51869346D01*
X39808992Y-52195000D01*
X39837434Y-52237566D01*
X44247346Y-56647478D01*
X43905671Y-56715441D01*
X43823019Y-56770667D01*
X43717401Y-56612599D01*
X43082401Y-55977599D01*
X42835839Y-55812852D01*
X42545000Y-55755000D01*
X40005000Y-55755000D01*
X39714161Y-55812852D01*
X39467599Y-55977599D01*
X38832599Y-56612599D01*
X38714046Y-56790026D01*
X38364211Y-57023778D01*
X38100000Y-57419199D01*
X37835789Y-57023778D01*
X37374329Y-56715441D01*
X36830000Y-56607167D01*
X36285671Y-56715441D01*
X35824211Y-57023778D01*
X35560000Y-57419199D01*
X35295789Y-57023778D01*
X34834329Y-56715441D01*
X34290000Y-56607167D01*
X33745671Y-56715441D01*
X33284211Y-57023778D01*
X33020000Y-57419199D01*
X32755789Y-57023778D01*
X32294329Y-56715441D01*
X31750000Y-56607167D01*
X31205671Y-56715441D01*
X30744211Y-57023778D01*
X30480000Y-57419199D01*
X30215789Y-57023778D01*
X29754329Y-56715441D01*
X29210000Y-56607167D01*
X28665671Y-56715441D01*
X28204211Y-57023778D01*
X27940000Y-57419199D01*
X27675789Y-57023778D01*
X27214329Y-56715441D01*
X26670000Y-56607167D01*
X26125671Y-56715441D01*
X25664211Y-57023778D01*
X25400000Y-57419199D01*
X25135789Y-57023778D01*
X24890000Y-56859547D01*
X24890000Y-55944945D01*
X24992149Y-55902738D01*
X25421231Y-55474404D01*
X25653735Y-54914472D01*
X25653737Y-54911812D01*
X32765736Y-54911812D01*
X32997262Y-55472149D01*
X33425596Y-55901231D01*
X33985528Y-56133735D01*
X34591812Y-56134264D01*
X35152149Y-55902738D01*
X35581231Y-55474404D01*
X35813735Y-54914472D01*
X35814264Y-54308188D01*
X35582738Y-53747851D01*
X35154404Y-53318769D01*
X34594472Y-53086265D01*
X33988188Y-53085736D01*
X33427851Y-53317262D01*
X32998769Y-53745596D01*
X32766265Y-54305528D01*
X32765736Y-54911812D01*
X25653737Y-54911812D01*
X25654264Y-54308188D01*
X25422738Y-53747851D01*
X24994404Y-53318769D01*
X24434472Y-53086265D01*
X23828188Y-53085736D01*
X23267851Y-53317262D01*
X22838769Y-53745596D01*
X22606265Y-54305528D01*
X22605736Y-54911812D01*
X16710000Y-54911812D01*
X16710000Y-19571344D01*
X18114501Y-19571344D01*
X18552790Y-20632086D01*
X19363645Y-21444357D01*
X20423620Y-21884498D01*
X21571344Y-21885499D01*
X22632086Y-21447210D01*
X23444357Y-20636355D01*
X23884498Y-19576380D01*
X23885499Y-18428656D01*
X23447210Y-17367914D01*
X22636355Y-16555643D01*
X21576380Y-16115502D01*
X20428656Y-16114501D01*
X19367914Y-16552790D01*
X18555643Y-17363645D01*
X18115502Y-18423620D01*
X18114501Y-19571344D01*
X16710000Y-19571344D01*
X16710000Y-14710000D01*
X111290000Y-14710000D01*
X111290000Y-89290000D01*
G36*
X91486701Y-41778073D02*
X91308073Y-41956702D01*
X91211400Y-42190091D01*
X91211400Y-42894250D01*
X91370150Y-43053000D01*
X92583000Y-43053000D01*
X92583000Y-43033000D01*
X92837000Y-43033000D01*
X92837000Y-43053000D01*
X92857000Y-43053000D01*
X92857000Y-43307000D01*
X92837000Y-43307000D01*
X92837000Y-44519850D01*
X92995750Y-44678600D01*
X93220000Y-44678600D01*
X93220000Y-47468486D01*
X92710000Y-47367041D01*
X92136511Y-47481115D01*
X91719130Y-47760000D01*
X90670000Y-47760000D01*
X90670000Y-43465750D01*
X91211400Y-43465750D01*
X91211400Y-44169909D01*
X91308073Y-44403298D01*
X91486701Y-44581927D01*
X91720090Y-44678600D01*
X92424250Y-44678600D01*
X92583000Y-44519850D01*
X92583000Y-43307000D01*
X91370150Y-43307000D01*
X91211400Y-43465750D01*
X90670000Y-43465750D01*
X90670000Y-41775000D01*
X91494120Y-41775000D01*
X91486701Y-41778073D01*
X91486701Y-41778073D01*
G37*
X91486701Y-41778073D02*
X91308073Y-41956702D01*
X91211400Y-42190091D01*
X91211400Y-42894250D01*
X91370150Y-43053000D01*
X92583000Y-43053000D01*
X92583000Y-43033000D01*
X92837000Y-43033000D01*
X92837000Y-43053000D01*
X92857000Y-43053000D01*
X92857000Y-43307000D01*
X92837000Y-43307000D01*
X92837000Y-44519850D01*
X92995750Y-44678600D01*
X93220000Y-44678600D01*
X93220000Y-47468486D01*
X92710000Y-47367041D01*
X92136511Y-47481115D01*
X91719130Y-47760000D01*
X90670000Y-47760000D01*
X90670000Y-43465750D01*
X91211400Y-43465750D01*
X91211400Y-44169909D01*
X91308073Y-44403298D01*
X91486701Y-44581927D01*
X91720090Y-44678600D01*
X92424250Y-44678600D01*
X92583000Y-44519850D01*
X92583000Y-43307000D01*
X91370150Y-43307000D01*
X91211400Y-43465750D01*
X90670000Y-43465750D01*
X90670000Y-41775000D01*
X91494120Y-41775000D01*
X91486701Y-41778073D01*
G36*
X91486701Y-33523073D02*
X91308073Y-33701702D01*
X91211400Y-33935091D01*
X91211400Y-34639250D01*
X91370150Y-34798000D01*
X92583000Y-34798000D01*
X92583000Y-34778000D01*
X92837000Y-34778000D01*
X92837000Y-34798000D01*
X92857000Y-34798000D01*
X92857000Y-35052000D01*
X92837000Y-35052000D01*
X92837000Y-36264850D01*
X92995750Y-36423600D01*
X93220000Y-36423600D01*
X93220000Y-39213486D01*
X92710000Y-39112041D01*
X92136511Y-39226115D01*
X91719130Y-39505000D01*
X90670000Y-39505000D01*
X90670000Y-35210750D01*
X91211400Y-35210750D01*
X91211400Y-35914909D01*
X91308073Y-36148298D01*
X91486701Y-36326927D01*
X91720090Y-36423600D01*
X92424250Y-36423600D01*
X92583000Y-36264850D01*
X92583000Y-35052000D01*
X91370150Y-35052000D01*
X91211400Y-35210750D01*
X90670000Y-35210750D01*
X90670000Y-33520000D01*
X91494120Y-33520000D01*
X91486701Y-33523073D01*
X91486701Y-33523073D01*
G37*
X91486701Y-33523073D02*
X91308073Y-33701702D01*
X91211400Y-33935091D01*
X91211400Y-34639250D01*
X91370150Y-34798000D01*
X92583000Y-34798000D01*
X92583000Y-34778000D01*
X92837000Y-34778000D01*
X92837000Y-34798000D01*
X92857000Y-34798000D01*
X92857000Y-35052000D01*
X92837000Y-35052000D01*
X92837000Y-36264850D01*
X92995750Y-36423600D01*
X93220000Y-36423600D01*
X93220000Y-39213486D01*
X92710000Y-39112041D01*
X92136511Y-39226115D01*
X91719130Y-39505000D01*
X90670000Y-39505000D01*
X90670000Y-35210750D01*
X91211400Y-35210750D01*
X91211400Y-35914909D01*
X91308073Y-36148298D01*
X91486701Y-36326927D01*
X91720090Y-36423600D01*
X92424250Y-36423600D01*
X92583000Y-36264850D01*
X92583000Y-35052000D01*
X91370150Y-35052000D01*
X91211400Y-35210750D01*
X90670000Y-35210750D01*
X90670000Y-33520000D01*
X91494120Y-33520000D01*
X91486701Y-33523073D01*
G36*
X82935000Y-23861579D02*
X82935000Y-34558421D01*
X81548420Y-35945000D01*
X58786579Y-35945000D01*
X58214051Y-35372472D01*
X58420000Y-35064248D01*
X58630330Y-35379029D01*
X59116511Y-35703885D01*
X59690000Y-35817959D01*
X60263489Y-35703885D01*
X60749670Y-35379029D01*
X60965664Y-35055772D01*
X61023179Y-35178490D01*
X61455053Y-35572688D01*
X61870974Y-35744958D01*
X62103000Y-35623817D01*
X62103000Y-34417000D01*
X62083000Y-34417000D01*
X62083000Y-34163000D01*
X62103000Y-34163000D01*
X62103000Y-34143000D01*
X62357000Y-34143000D01*
X62357000Y-34163000D01*
X62377000Y-34163000D01*
X62377000Y-34417000D01*
X62357000Y-34417000D01*
X62357000Y-35623817D01*
X62589026Y-35744958D01*
X63004947Y-35572688D01*
X63436821Y-35178490D01*
X63494336Y-35055772D01*
X63710330Y-35379029D01*
X64196511Y-35703885D01*
X64770000Y-35817959D01*
X65343489Y-35703885D01*
X65829670Y-35379029D01*
X66040000Y-35064248D01*
X66250330Y-35379029D01*
X66736511Y-35703885D01*
X67310000Y-35817959D01*
X67883489Y-35703885D01*
X68369670Y-35379029D01*
X68580000Y-35064248D01*
X68790330Y-35379029D01*
X69276511Y-35703885D01*
X69850000Y-35817959D01*
X70423489Y-35703885D01*
X70909670Y-35379029D01*
X71120000Y-35064248D01*
X71330330Y-35379029D01*
X71816511Y-35703885D01*
X72390000Y-35817959D01*
X72963489Y-35703885D01*
X73449670Y-35379029D01*
X73660000Y-35064248D01*
X73870330Y-35379029D01*
X74356511Y-35703885D01*
X74930000Y-35817959D01*
X75503489Y-35703885D01*
X75989670Y-35379029D01*
X76200000Y-35064248D01*
X76410330Y-35379029D01*
X76896511Y-35703885D01*
X77470000Y-35817959D01*
X78043489Y-35703885D01*
X78529670Y-35379029D01*
X78740000Y-35064248D01*
X78950330Y-35379029D01*
X79436511Y-35703885D01*
X80010000Y-35817959D01*
X80583489Y-35703885D01*
X81069670Y-35379029D01*
X81394526Y-34892848D01*
X81508600Y-34319359D01*
X81508600Y-34260641D01*
X81394526Y-33687152D01*
X81069670Y-33200971D01*
X80798828Y-33020000D01*
X81069670Y-32839029D01*
X81394526Y-32352848D01*
X81508600Y-31779359D01*
X81508600Y-31720641D01*
X81394526Y-31147152D01*
X81069670Y-30660971D01*
X80583489Y-30336115D01*
X80010000Y-30222041D01*
X79436511Y-30336115D01*
X78950330Y-30660971D01*
X78740000Y-30975752D01*
X78529670Y-30660971D01*
X78043489Y-30336115D01*
X77470000Y-30222041D01*
X76896511Y-30336115D01*
X76410330Y-30660971D01*
X76200000Y-30975752D01*
X75989670Y-30660971D01*
X75503489Y-30336115D01*
X74930000Y-30222041D01*
X74356511Y-30336115D01*
X73870330Y-30660971D01*
X73660000Y-30975752D01*
X73449670Y-30660971D01*
X72963489Y-30336115D01*
X72390000Y-30222041D01*
X71816511Y-30336115D01*
X71330330Y-30660971D01*
X71120000Y-30975752D01*
X70909670Y-30660971D01*
X70423489Y-30336115D01*
X69850000Y-30222041D01*
X69276511Y-30336115D01*
X68790330Y-30660971D01*
X68580000Y-30975752D01*
X68369670Y-30660971D01*
X67883489Y-30336115D01*
X67310000Y-30222041D01*
X66736511Y-30336115D01*
X66250330Y-30660971D01*
X66040000Y-30975752D01*
X65829670Y-30660971D01*
X65343489Y-30336115D01*
X64770000Y-30222041D01*
X64196511Y-30336115D01*
X63710330Y-30660971D01*
X63500000Y-30975752D01*
X63289670Y-30660971D01*
X62803489Y-30336115D01*
X62230000Y-30222041D01*
X61656511Y-30336115D01*
X61170330Y-30660971D01*
X60960000Y-30975752D01*
X60749670Y-30660971D01*
X60263489Y-30336115D01*
X59690000Y-30222041D01*
X59116511Y-30336115D01*
X58630330Y-30660971D01*
X58420000Y-30975752D01*
X58209670Y-30660971D01*
X57723489Y-30336115D01*
X57150000Y-30222041D01*
X56576511Y-30336115D01*
X56090330Y-30660971D01*
X55874336Y-30984228D01*
X55816821Y-30861510D01*
X55384947Y-30467312D01*
X54969026Y-30295042D01*
X54737000Y-30416183D01*
X54737000Y-31623000D01*
X54757000Y-31623000D01*
X54757000Y-31877000D01*
X54737000Y-31877000D01*
X54737000Y-31897000D01*
X54483000Y-31897000D01*
X54483000Y-31877000D01*
X54463000Y-31877000D01*
X54463000Y-31623000D01*
X54483000Y-31623000D01*
X54483000Y-30416183D01*
X54250974Y-30295042D01*
X53835053Y-30467312D01*
X53403179Y-30861510D01*
X53345664Y-30984228D01*
X53129670Y-30660971D01*
X52643489Y-30336115D01*
X52517666Y-30311087D01*
X49145000Y-26938420D01*
X49145000Y-24221126D01*
X49319670Y-24104415D01*
X49530000Y-23789634D01*
X49740330Y-24104415D01*
X50226511Y-24429271D01*
X50800000Y-24543345D01*
X51373489Y-24429271D01*
X51859670Y-24104415D01*
X52070000Y-23789634D01*
X52280330Y-24104415D01*
X52766511Y-24429271D01*
X53340000Y-24543345D01*
X53913489Y-24429271D01*
X54399670Y-24104415D01*
X54610000Y-23789634D01*
X54820330Y-24104415D01*
X55306511Y-24429271D01*
X55880000Y-24543345D01*
X56453489Y-24429271D01*
X56939670Y-24104415D01*
X56949243Y-24090087D01*
X56953238Y-24111317D01*
X57092310Y-24327441D01*
X57304510Y-24472431D01*
X57556400Y-24523440D01*
X59283600Y-24523440D01*
X59518917Y-24479162D01*
X59735041Y-24340090D01*
X59880031Y-24127890D01*
X59931040Y-23876000D01*
X59931040Y-23745000D01*
X82818420Y-23745000D01*
X82935000Y-23861579D01*
X82935000Y-23861579D01*
G37*
X82935000Y-23861579D02*
X82935000Y-34558421D01*
X81548420Y-35945000D01*
X58786579Y-35945000D01*
X58214051Y-35372472D01*
X58420000Y-35064248D01*
X58630330Y-35379029D01*
X59116511Y-35703885D01*
X59690000Y-35817959D01*
X60263489Y-35703885D01*
X60749670Y-35379029D01*
X60965664Y-35055772D01*
X61023179Y-35178490D01*
X61455053Y-35572688D01*
X61870974Y-35744958D01*
X62103000Y-35623817D01*
X62103000Y-34417000D01*
X62083000Y-34417000D01*
X62083000Y-34163000D01*
X62103000Y-34163000D01*
X62103000Y-34143000D01*
X62357000Y-34143000D01*
X62357000Y-34163000D01*
X62377000Y-34163000D01*
X62377000Y-34417000D01*
X62357000Y-34417000D01*
X62357000Y-35623817D01*
X62589026Y-35744958D01*
X63004947Y-35572688D01*
X63436821Y-35178490D01*
X63494336Y-35055772D01*
X63710330Y-35379029D01*
X64196511Y-35703885D01*
X64770000Y-35817959D01*
X65343489Y-35703885D01*
X65829670Y-35379029D01*
X66040000Y-35064248D01*
X66250330Y-35379029D01*
X66736511Y-35703885D01*
X67310000Y-35817959D01*
X67883489Y-35703885D01*
X68369670Y-35379029D01*
X68580000Y-35064248D01*
X68790330Y-35379029D01*
X69276511Y-35703885D01*
X69850000Y-35817959D01*
X70423489Y-35703885D01*
X70909670Y-35379029D01*
X71120000Y-35064248D01*
X71330330Y-35379029D01*
X71816511Y-35703885D01*
X72390000Y-35817959D01*
X72963489Y-35703885D01*
X73449670Y-35379029D01*
X73660000Y-35064248D01*
X73870330Y-35379029D01*
X74356511Y-35703885D01*
X74930000Y-35817959D01*
X75503489Y-35703885D01*
X75989670Y-35379029D01*
X76200000Y-35064248D01*
X76410330Y-35379029D01*
X76896511Y-35703885D01*
X77470000Y-35817959D01*
X78043489Y-35703885D01*
X78529670Y-35379029D01*
X78740000Y-35064248D01*
X78950330Y-35379029D01*
X79436511Y-35703885D01*
X80010000Y-35817959D01*
X80583489Y-35703885D01*
X81069670Y-35379029D01*
X81394526Y-34892848D01*
X81508600Y-34319359D01*
X81508600Y-34260641D01*
X81394526Y-33687152D01*
X81069670Y-33200971D01*
X80798828Y-33020000D01*
X81069670Y-32839029D01*
X81394526Y-32352848D01*
X81508600Y-31779359D01*
X81508600Y-31720641D01*
X81394526Y-31147152D01*
X81069670Y-30660971D01*
X80583489Y-30336115D01*
X80010000Y-30222041D01*
X79436511Y-30336115D01*
X78950330Y-30660971D01*
X78740000Y-30975752D01*
X78529670Y-30660971D01*
X78043489Y-30336115D01*
X77470000Y-30222041D01*
X76896511Y-30336115D01*
X76410330Y-30660971D01*
X76200000Y-30975752D01*
X75989670Y-30660971D01*
X75503489Y-30336115D01*
X74930000Y-30222041D01*
X74356511Y-30336115D01*
X73870330Y-30660971D01*
X73660000Y-30975752D01*
X73449670Y-30660971D01*
X72963489Y-30336115D01*
X72390000Y-30222041D01*
X71816511Y-30336115D01*
X71330330Y-30660971D01*
X71120000Y-30975752D01*
X70909670Y-30660971D01*
X70423489Y-30336115D01*
X69850000Y-30222041D01*
X69276511Y-30336115D01*
X68790330Y-30660971D01*
X68580000Y-30975752D01*
X68369670Y-30660971D01*
X67883489Y-30336115D01*
X67310000Y-30222041D01*
X66736511Y-30336115D01*
X66250330Y-30660971D01*
X66040000Y-30975752D01*
X65829670Y-30660971D01*
X65343489Y-30336115D01*
X64770000Y-30222041D01*
X64196511Y-30336115D01*
X63710330Y-30660971D01*
X63500000Y-30975752D01*
X63289670Y-30660971D01*
X62803489Y-30336115D01*
X62230000Y-30222041D01*
X61656511Y-30336115D01*
X61170330Y-30660971D01*
X60960000Y-30975752D01*
X60749670Y-30660971D01*
X60263489Y-30336115D01*
X59690000Y-30222041D01*
X59116511Y-30336115D01*
X58630330Y-30660971D01*
X58420000Y-30975752D01*
X58209670Y-30660971D01*
X57723489Y-30336115D01*
X57150000Y-30222041D01*
X56576511Y-30336115D01*
X56090330Y-30660971D01*
X55874336Y-30984228D01*
X55816821Y-30861510D01*
X55384947Y-30467312D01*
X54969026Y-30295042D01*
X54737000Y-30416183D01*
X54737000Y-31623000D01*
X54757000Y-31623000D01*
X54757000Y-31877000D01*
X54737000Y-31877000D01*
X54737000Y-31897000D01*
X54483000Y-31897000D01*
X54483000Y-31877000D01*
X54463000Y-31877000D01*
X54463000Y-31623000D01*
X54483000Y-31623000D01*
X54483000Y-30416183D01*
X54250974Y-30295042D01*
X53835053Y-30467312D01*
X53403179Y-30861510D01*
X53345664Y-30984228D01*
X53129670Y-30660971D01*
X52643489Y-30336115D01*
X52517666Y-30311087D01*
X49145000Y-26938420D01*
X49145000Y-24221126D01*
X49319670Y-24104415D01*
X49530000Y-23789634D01*
X49740330Y-24104415D01*
X50226511Y-24429271D01*
X50800000Y-24543345D01*
X51373489Y-24429271D01*
X51859670Y-24104415D01*
X52070000Y-23789634D01*
X52280330Y-24104415D01*
X52766511Y-24429271D01*
X53340000Y-24543345D01*
X53913489Y-24429271D01*
X54399670Y-24104415D01*
X54610000Y-23789634D01*
X54820330Y-24104415D01*
X55306511Y-24429271D01*
X55880000Y-24543345D01*
X56453489Y-24429271D01*
X56939670Y-24104415D01*
X56949243Y-24090087D01*
X56953238Y-24111317D01*
X57092310Y-24327441D01*
X57304510Y-24472431D01*
X57556400Y-24523440D01*
X59283600Y-24523440D01*
X59518917Y-24479162D01*
X59735041Y-24340090D01*
X59880031Y-24127890D01*
X59931040Y-23876000D01*
X59931040Y-23745000D01*
X82818420Y-23745000D01*
X82935000Y-23861579D01*
G36*
X50174210Y-20329210D02*
X49982367Y-20616325D01*
X49982367Y-20616326D01*
X49914999Y-20955000D01*
X49915000Y-20955005D01*
X49915000Y-21498874D01*
X49740330Y-21615585D01*
X49530000Y-21930366D01*
X49319670Y-21615585D01*
X48833489Y-21290729D01*
X48260000Y-21176655D01*
X47686511Y-21290729D01*
X47200330Y-21615585D01*
X46990000Y-21930366D01*
X46779670Y-21615585D01*
X46293489Y-21290729D01*
X45720000Y-21176655D01*
X45146511Y-21290729D01*
X44660330Y-21615585D01*
X44450000Y-21930366D01*
X44239670Y-21615585D01*
X43753489Y-21290729D01*
X43180000Y-21176655D01*
X42606511Y-21290729D01*
X42120330Y-21615585D01*
X41913539Y-21925069D01*
X41542036Y-21509268D01*
X41014791Y-21255291D01*
X40999026Y-21252642D01*
X40767000Y-21373783D01*
X40767000Y-22733000D01*
X40787000Y-22733000D01*
X40787000Y-22987000D01*
X40767000Y-22987000D01*
X40767000Y-24346217D01*
X40999026Y-24467358D01*
X41014791Y-24464709D01*
X41542036Y-24210732D01*
X41913539Y-23794931D01*
X42120330Y-24104415D01*
X42606511Y-24429271D01*
X43180000Y-24543345D01*
X43753489Y-24429271D01*
X44239670Y-24104415D01*
X44450000Y-23789634D01*
X44660330Y-24104415D01*
X45146511Y-24429271D01*
X45720000Y-24543345D01*
X46293489Y-24429271D01*
X46779670Y-24104415D01*
X46990000Y-23789634D01*
X47200330Y-24104415D01*
X47375000Y-24221126D01*
X47375000Y-27304995D01*
X47374999Y-27305000D01*
X47431190Y-27587484D01*
X47442367Y-27643675D01*
X47575151Y-27842401D01*
X47634210Y-27930790D01*
X50023656Y-30320235D01*
X49530000Y-30222041D01*
X48956511Y-30336115D01*
X48470330Y-30660971D01*
X48254336Y-30984228D01*
X48196821Y-30861510D01*
X47764947Y-30467312D01*
X47349026Y-30295042D01*
X47117000Y-30416183D01*
X47117000Y-31623000D01*
X47137000Y-31623000D01*
X47137000Y-31877000D01*
X47117000Y-31877000D01*
X47117000Y-31897000D01*
X46863000Y-31897000D01*
X46863000Y-31877000D01*
X46843000Y-31877000D01*
X46843000Y-31623000D01*
X46863000Y-31623000D01*
X46863000Y-30416183D01*
X46630974Y-30295042D01*
X46215053Y-30467312D01*
X45783179Y-30861510D01*
X45725664Y-30984228D01*
X45509670Y-30660971D01*
X45023489Y-30336115D01*
X44450000Y-30222041D01*
X43876511Y-30336115D01*
X43390330Y-30660971D01*
X43180000Y-30975752D01*
X43045000Y-30773710D01*
X43045000Y-30480000D01*
X42958603Y-30045654D01*
X42712566Y-29677434D01*
X41442566Y-28407434D01*
X41319193Y-28324999D01*
X41074346Y-28161397D01*
X40640000Y-28075000D01*
X40475132Y-28075000D01*
X36695000Y-24294868D01*
X36695000Y-23515304D01*
X36715474Y-23618234D01*
X37040330Y-24104415D01*
X37526511Y-24429271D01*
X38100000Y-24543345D01*
X38673489Y-24429271D01*
X39159670Y-24104415D01*
X39366461Y-23794931D01*
X39737964Y-24210732D01*
X40265209Y-24464709D01*
X40280974Y-24467358D01*
X40513000Y-24346217D01*
X40513000Y-22987000D01*
X40493000Y-22987000D01*
X40493000Y-22733000D01*
X40513000Y-22733000D01*
X40513000Y-21373783D01*
X40280974Y-21252642D01*
X40265209Y-21255291D01*
X39737964Y-21509268D01*
X39366461Y-21925069D01*
X39159670Y-21615585D01*
X38673489Y-21290729D01*
X38100000Y-21176655D01*
X37526511Y-21290729D01*
X37040330Y-21615585D01*
X36715474Y-22101766D01*
X36695000Y-22204696D01*
X36695000Y-21425132D01*
X38570133Y-19550000D01*
X50953421Y-19550000D01*
X50174210Y-20329210D01*
X50174210Y-20329210D01*
G37*
X50174210Y-20329210D02*
X49982367Y-20616325D01*
X49982367Y-20616326D01*
X49914999Y-20955000D01*
X49915000Y-20955005D01*
X49915000Y-21498874D01*
X49740330Y-21615585D01*
X49530000Y-21930366D01*
X49319670Y-21615585D01*
X48833489Y-21290729D01*
X48260000Y-21176655D01*
X47686511Y-21290729D01*
X47200330Y-21615585D01*
X46990000Y-21930366D01*
X46779670Y-21615585D01*
X46293489Y-21290729D01*
X45720000Y-21176655D01*
X45146511Y-21290729D01*
X44660330Y-21615585D01*
X44450000Y-21930366D01*
X44239670Y-21615585D01*
X43753489Y-21290729D01*
X43180000Y-21176655D01*
X42606511Y-21290729D01*
X42120330Y-21615585D01*
X41913539Y-21925069D01*
X41542036Y-21509268D01*
X41014791Y-21255291D01*
X40999026Y-21252642D01*
X40767000Y-21373783D01*
X40767000Y-22733000D01*
X40787000Y-22733000D01*
X40787000Y-22987000D01*
X40767000Y-22987000D01*
X40767000Y-24346217D01*
X40999026Y-24467358D01*
X41014791Y-24464709D01*
X41542036Y-24210732D01*
X41913539Y-23794931D01*
X42120330Y-24104415D01*
X42606511Y-24429271D01*
X43180000Y-24543345D01*
X43753489Y-24429271D01*
X44239670Y-24104415D01*
X44450000Y-23789634D01*
X44660330Y-24104415D01*
X45146511Y-24429271D01*
X45720000Y-24543345D01*
X46293489Y-24429271D01*
X46779670Y-24104415D01*
X46990000Y-23789634D01*
X47200330Y-24104415D01*
X47375000Y-24221126D01*
X47375000Y-27304995D01*
X47374999Y-27305000D01*
X47431190Y-27587484D01*
X47442367Y-27643675D01*
X47575151Y-27842401D01*
X47634210Y-27930790D01*
X50023656Y-30320235D01*
X49530000Y-30222041D01*
X48956511Y-30336115D01*
X48470330Y-30660971D01*
X48254336Y-30984228D01*
X48196821Y-30861510D01*
X47764947Y-30467312D01*
X47349026Y-30295042D01*
X47117000Y-30416183D01*
X47117000Y-31623000D01*
X47137000Y-31623000D01*
X47137000Y-31877000D01*
X47117000Y-31877000D01*
X47117000Y-31897000D01*
X46863000Y-31897000D01*
X46863000Y-31877000D01*
X46843000Y-31877000D01*
X46843000Y-31623000D01*
X46863000Y-31623000D01*
X46863000Y-30416183D01*
X46630974Y-30295042D01*
X46215053Y-30467312D01*
X45783179Y-30861510D01*
X45725664Y-30984228D01*
X45509670Y-30660971D01*
X45023489Y-30336115D01*
X44450000Y-30222041D01*
X43876511Y-30336115D01*
X43390330Y-30660971D01*
X43180000Y-30975752D01*
X43045000Y-30773710D01*
X43045000Y-30480000D01*
X42958603Y-30045654D01*
X42712566Y-29677434D01*
X41442566Y-28407434D01*
X41319193Y-28324999D01*
X41074346Y-28161397D01*
X40640000Y-28075000D01*
X40475132Y-28075000D01*
X36695000Y-24294868D01*
X36695000Y-23515304D01*
X36715474Y-23618234D01*
X37040330Y-24104415D01*
X37526511Y-24429271D01*
X38100000Y-24543345D01*
X38673489Y-24429271D01*
X39159670Y-24104415D01*
X39366461Y-23794931D01*
X39737964Y-24210732D01*
X40265209Y-24464709D01*
X40280974Y-24467358D01*
X40513000Y-24346217D01*
X40513000Y-22987000D01*
X40493000Y-22987000D01*
X40493000Y-22733000D01*
X40513000Y-22733000D01*
X40513000Y-21373783D01*
X40280974Y-21252642D01*
X40265209Y-21255291D01*
X39737964Y-21509268D01*
X39366461Y-21925069D01*
X39159670Y-21615585D01*
X38673489Y-21290729D01*
X38100000Y-21176655D01*
X37526511Y-21290729D01*
X37040330Y-21615585D01*
X36715474Y-22101766D01*
X36695000Y-22204696D01*
X36695000Y-21425132D01*
X38570133Y-19550000D01*
X50953421Y-19550000D01*
X50174210Y-20329210D01*
G36*
X37028645Y-30378777D02*
X36957000Y-30416183D01*
X36957000Y-31623000D01*
X36977000Y-31623000D01*
X36977000Y-31877000D01*
X36957000Y-31877000D01*
X36957000Y-31897000D01*
X36703000Y-31897000D01*
X36703000Y-31877000D01*
X36683000Y-31877000D01*
X36683000Y-31623000D01*
X36703000Y-31623000D01*
X36703000Y-30416183D01*
X36470974Y-30295042D01*
X36055053Y-30467312D01*
X35623179Y-30861510D01*
X35565664Y-30984228D01*
X35349670Y-30660971D01*
X34863489Y-30336115D01*
X34290000Y-30222041D01*
X33716511Y-30336115D01*
X33230330Y-30660971D01*
X33020000Y-30975752D01*
X32809670Y-30660971D01*
X32323489Y-30336115D01*
X31750000Y-30222041D01*
X31697685Y-30232447D01*
X31902632Y-30027500D01*
X36677368Y-30027500D01*
X37028645Y-30378777D01*
X37028645Y-30378777D01*
G37*
X37028645Y-30378777D02*
X36957000Y-30416183D01*
X36957000Y-31623000D01*
X36977000Y-31623000D01*
X36977000Y-31877000D01*
X36957000Y-31877000D01*
X36957000Y-31897000D01*
X36703000Y-31897000D01*
X36703000Y-31877000D01*
X36683000Y-31877000D01*
X36683000Y-31623000D01*
X36703000Y-31623000D01*
X36703000Y-30416183D01*
X36470974Y-30295042D01*
X36055053Y-30467312D01*
X35623179Y-30861510D01*
X35565664Y-30984228D01*
X35349670Y-30660971D01*
X34863489Y-30336115D01*
X34290000Y-30222041D01*
X33716511Y-30336115D01*
X33230330Y-30660971D01*
X33020000Y-30975752D01*
X32809670Y-30660971D01*
X32323489Y-30336115D01*
X31750000Y-30222041D01*
X31697685Y-30232447D01*
X31902632Y-30027500D01*
X36677368Y-30027500D01*
X37028645Y-30378777D01*
G36*
X91211400Y-25749250D02*
X91370150Y-25908000D01*
X92583000Y-25908000D01*
X92583000Y-25888000D01*
X92837000Y-25888000D01*
X92837000Y-25908000D01*
X92857000Y-25908000D01*
X92857000Y-26162000D01*
X92837000Y-26162000D01*
X92837000Y-27374850D01*
X92995750Y-27533600D01*
X93220000Y-27533600D01*
X93220000Y-30958486D01*
X92710000Y-30857041D01*
X92136511Y-30971115D01*
X91719130Y-31250000D01*
X90670000Y-31250000D01*
X90670000Y-26320750D01*
X91211400Y-26320750D01*
X91211400Y-27024909D01*
X91308073Y-27258298D01*
X91486701Y-27436927D01*
X91720090Y-27533600D01*
X92424250Y-27533600D01*
X92583000Y-27374850D01*
X92583000Y-26162000D01*
X91370150Y-26162000D01*
X91211400Y-26320750D01*
X90670000Y-26320750D01*
X90670000Y-25870132D01*
X91211400Y-25328732D01*
X91211400Y-25749250D01*
X91211400Y-25749250D01*
G37*
X91211400Y-25749250D02*
X91370150Y-25908000D01*
X92583000Y-25908000D01*
X92583000Y-25888000D01*
X92837000Y-25888000D01*
X92837000Y-25908000D01*
X92857000Y-25908000D01*
X92857000Y-26162000D01*
X92837000Y-26162000D01*
X92837000Y-27374850D01*
X92995750Y-27533600D01*
X93220000Y-27533600D01*
X93220000Y-30958486D01*
X92710000Y-30857041D01*
X92136511Y-30971115D01*
X91719130Y-31250000D01*
X90670000Y-31250000D01*
X90670000Y-26320750D01*
X91211400Y-26320750D01*
X91211400Y-27024909D01*
X91308073Y-27258298D01*
X91486701Y-27436927D01*
X91720090Y-27533600D01*
X92424250Y-27533600D01*
X92583000Y-27374850D01*
X92583000Y-26162000D01*
X91370150Y-26162000D01*
X91211400Y-26320750D01*
X90670000Y-26320750D01*
X90670000Y-25870132D01*
X91211400Y-25328732D01*
X91211400Y-25749250D01*
M02*
