M48
;DRILL file {KiCad 4.0.2+e4-6225~38~ubuntu15.10.1-stable} date mar. 20 sept. 2016 08:23:36 CEST
;FORMAT={-:-/ absolute / metric / decimal}
FMAT,2
METRIC,TZ
T1C0.701
T2C0.800
T3C1.016
%
G90
G05
M71
T1
X36.194Y-72.393
X36.194Y-74.933
X36.194Y-88.903
X36.194Y-91.443
X38.734Y-67.948
X38.734Y-70.488
X38.734Y-93.348
X38.734Y-95.888
X41.274Y-98.428
X41.274Y-100.968
X43.814Y-64.138
X43.814Y-66.043
X43.814Y-103.508
X43.814Y-106.048
X46.352Y-41.909
X46.352Y-52.069
X46.354Y-59.693
X46.354Y-62.233
X46.354Y-72.393
X46.354Y-74.933
X46.354Y-88.903
X46.354Y-91.443
X48.892Y-41.909
X48.892Y-52.069
X48.894Y-67.948
X48.894Y-70.488
X48.894Y-93.348
X48.894Y-95.888
X51.432Y-41.909
X51.432Y-52.069
X51.434Y-98.428
X51.434Y-100.968
X53.972Y-41.909
X53.972Y-52.069
X53.974Y-64.138
X53.974Y-66.043
X53.974Y-103.508
X53.974Y-106.048
X56.512Y-41.909
X56.512Y-52.069
X56.514Y-59.693
X56.514Y-62.233
X59.052Y-41.909
X59.052Y-52.069
X61.592Y-41.909
X61.592Y-52.069
X64.132Y-41.909
X64.132Y-52.069
X66.672Y-41.909
X66.672Y-52.069
X69.212Y-41.909
X69.212Y-52.069
X71.752Y-41.909
X71.752Y-52.069
X74.292Y-41.909
X74.292Y-52.069
X76.832Y-41.909
X76.832Y-52.069
X79.372Y-41.909
X79.372Y-52.069
X79.374Y-71.758
X79.374Y-74.298
X79.374Y-88.268
X79.374Y-90.808
X81.912Y-41.909
X81.912Y-52.069
X81.914Y-66.678
X81.914Y-69.218
X81.914Y-93.348
X81.914Y-95.888
X84.452Y-41.909
X84.452Y-52.069
X84.454Y-98.428
X84.454Y-100.968
X86.994Y-61.598
X86.994Y-64.138
X86.994Y-103.508
X86.994Y-106.048
X89.534Y-56.518
X89.534Y-59.058
X89.534Y-71.758
X89.534Y-74.298
X89.534Y-88.268
X89.534Y-90.808
X92.074Y-66.678
X92.074Y-69.218
X92.074Y-93.348
X92.074Y-95.888
X94.614Y-98.428
X94.614Y-100.968
X97.154Y-61.598
X97.154Y-64.138
X97.154Y-103.508
X97.154Y-106.048
X99.694Y-56.518
X99.694Y-59.058
T2
X38.735Y-77.47
X38.735Y-85.09
X41.275Y-77.47
X41.275Y-85.09
X43.815Y-77.47
X43.815Y-85.09
X46.355Y-77.47
X46.355Y-85.09
X48.895Y-77.47
X48.895Y-85.09
X51.435Y-77.47
X51.435Y-85.09
X53.975Y-77.47
X53.975Y-85.09
X56.515Y-77.47
X56.515Y-85.09
X81.915Y-77.47
X81.915Y-85.09
X84.455Y-77.47
X84.455Y-85.09
X86.995Y-77.47
X86.995Y-85.09
X89.535Y-77.47
X89.535Y-85.09
X92.075Y-77.47
X92.075Y-85.09
X94.615Y-77.47
X94.615Y-85.09
X97.155Y-77.47
X97.155Y-85.09
X99.695Y-77.47
X99.695Y-85.09
T3
X46.355Y-33.655
X46.355Y-36.195
X48.895Y-33.655
X48.895Y-36.195
X51.435Y-33.655
X51.435Y-36.195
X53.975Y-33.655
X53.975Y-36.195
X56.515Y-33.655
X56.515Y-36.195
X59.055Y-33.655
X59.055Y-36.195
X61.595Y-33.655
X61.595Y-36.195
X64.135Y-33.655
X64.135Y-36.195
X65.405Y-103.505
X65.405Y-106.045
X66.675Y-33.655
X66.675Y-36.195
X67.945Y-103.505
X67.945Y-106.045
X69.215Y-33.655
X69.215Y-36.195
X70.485Y-103.505
X70.485Y-106.045
X71.755Y-33.655
X71.755Y-36.195
X73.025Y-103.505
X73.025Y-106.045
X74.295Y-33.655
X74.295Y-36.195
X76.835Y-33.655
X76.835Y-36.195
X79.375Y-33.655
X79.375Y-36.195
X81.915Y-33.655
X81.915Y-36.195
X84.455Y-33.655
X84.455Y-36.195
T0
M30
